<svg width="180" height="180" viewBox="0 0 180 180" fill="none" xmlns="http://www.w3.org/2000/svg">
<g id="Property 1=Frame 301">
<path id="Ellipse 31" d="M90 35.5197C90 33.4909 88.3536 31.8341 86.3288 31.9621C74.7364 32.6952 63.5973 36.887 54.3725 44.0375C44.1775 51.9402 36.8992 63.0082 33.6829 75.5C30.4666 87.9919 31.4949 101.199 36.6059 113.042C41.7169 124.886 50.6206 134.694 61.9159 140.923C73.2113 147.152 86.2572 149.45 99.001 147.453C111.745 145.457 123.463 139.28 132.312 129.894C141.161 120.509 146.639 108.448 147.883 95.6086C149.008 83.9914 146.61 72.3338 141.045 62.1382C140.073 60.3574 137.793 59.8489 136.077 60.9315C134.361 62.014 133.861 64.2771 134.817 66.0668C139.521 74.8764 141.538 84.9053 140.57 94.9C139.483 106.117 134.698 116.654 126.967 124.854C119.236 133.054 108.998 138.45 97.8639 140.195C86.7301 141.939 75.3324 139.932 65.464 134.49C55.5957 129.047 47.8169 120.478 43.3516 110.131C38.8863 99.7837 37.988 88.2456 40.7979 77.3319C43.6079 66.4183 49.9666 56.7486 58.8737 49.8444C66.8101 43.6925 76.3683 40.0474 86.3295 39.326C88.353 39.1794 90 37.5486 90 35.5197Z" fill="#41BE46"/>
</g>
</svg>
