<svg width="180" height="180" viewBox="0 0 180 180" fill="none" xmlns="http://www.w3.org/2000/svg">
<g id="Property 1=Frame 306">
<ellipse id="Ellipse 34" cx="88.6223" cy="141.29" rx="59" ry="14.5" transform="rotate(-2.72349 88.6223 141.29)" fill="#E7E7E7"/>
<circle id="Ellipse 31" cx="90" cy="90" r="58.1538" fill="#41BE46"/>
<path id="Vector" d="M113.484 70.6451C113.122 70.371 112.707 70.1682 112.262 70.0484C111.818 69.9285 111.353 69.894 110.894 69.9469C110.435 69.9998 109.992 70.1389 109.59 70.3563C109.188 70.5737 108.835 70.8651 108.552 71.2136L84.0635 101.312L72.0643 87.3327C71.7829 86.9746 71.429 86.6741 71.0238 86.4492C70.6185 86.2243 70.1701 86.0795 69.7052 86.0234C69.2403 85.9674 68.7683 86.0012 68.3173 86.1228C67.8663 86.2445 67.4455 86.4515 67.0798 86.7316C66.7142 87.0117 66.4111 87.3592 66.1886 87.7534C65.9661 88.1477 65.8287 88.5806 65.7846 89.0266C65.7405 89.4726 65.7905 89.9225 65.9318 90.3496C66.0731 90.7767 66.3027 91.1723 66.607 91.513L81.1949 108.836C81.5241 109.224 81.9401 109.537 82.4123 109.751C82.8845 109.965 83.4009 110.075 83.9235 110.073C84.4783 110.097 85.031 109.994 85.5359 109.773C86.0408 109.552 86.4834 109.219 86.8271 108.803L114.219 75.3604C114.498 75.006 114.701 74.6021 114.815 74.172C114.929 73.742 114.953 73.2945 114.885 72.8557C114.816 72.4168 114.657 71.9953 114.417 71.6158C114.176 71.2363 113.859 70.9063 113.484 70.6451Z" fill="white"/>
</g>
</svg>
