<svg width="180" height="180" viewBox="0 0 180 180" fill="none" xmlns="http://www.w3.org/2000/svg">
<g id="Property 1=Frame 309">
<path id="Ellipse 31" d="M127.72 50.6899C129.124 49.226 129.083 46.8904 127.534 45.5809C117.156 36.8113 103.998 31.9259 90.3345 31.8472C75.4427 31.7614 61.0854 37.3919 50.222 47.5782C39.3585 57.7645 32.8169 71.7302 31.9454 86.5967C31.0739 101.463 35.9389 116.098 45.5377 127.484C55.1365 138.869 68.7376 146.139 83.5374 147.794C98.3373 149.449 113.208 145.363 125.085 136.378C136.961 127.393 144.938 114.195 147.372 99.503C149.605 86.0228 147.014 72.228 140.126 60.5172C139.097 58.7684 136.802 58.333 135.122 59.47C133.441 60.6069 133.014 62.8848 134.026 64.6429C139.869 74.7874 142.049 86.6788 140.123 98.3024C137.997 111.138 131.028 122.669 120.652 130.519C110.276 138.368 97.2839 141.938 84.3538 140.492C71.4238 139.046 59.5411 132.695 51.1549 122.748C42.7688 112.801 38.5184 100.015 39.2798 87.0267C40.0413 74.0384 45.7564 61.8371 55.2474 52.9377C64.7384 44.0383 77.2818 39.1192 90.2922 39.1941C102.074 39.262 113.426 43.4206 122.436 50.8949C123.998 52.1903 126.315 52.1538 127.72 50.6899Z" fill="#41BE46"/>
</g>
</svg>
