<svg width="180" height="180" viewBox="0 0 180 180" fill="none" xmlns="http://www.w3.org/2000/svg">
<g id="Property 1=Frame 308">
<path id="Ellipse 31" d="M39.5938 69.3283C37.7167 68.5585 35.5591 69.4532 34.9092 71.3752C30.8802 83.292 30.8143 96.2312 34.7803 108.239C39.1313 121.412 48.0485 132.596 59.9221 139.771C71.7957 146.947 85.8433 149.641 99.5292 147.368C113.215 145.094 125.637 138.003 134.553 127.375C143.47 116.746 148.292 103.28 148.151 89.4071C148.009 75.5345 142.913 62.1694 133.782 51.7247C124.651 41.2799 112.087 34.4436 98.3575 32.4498C85.8433 30.6325 73.1128 32.9476 62.0783 38.9877C60.2986 39.9618 59.7927 42.2422 60.8773 43.9568C61.9618 45.6715 64.2256 46.1693 66.014 45.2115C75.5595 40.0992 86.5225 38.1552 97.3016 39.7206C109.296 41.4625 120.273 47.4351 128.251 56.5603C136.228 65.6855 140.681 77.362 140.804 89.482C140.928 101.602 136.714 113.367 128.925 122.653C121.135 131.939 110.282 138.134 98.3253 140.12C86.3685 142.106 74.0956 139.752 63.7221 133.483C53.3486 127.214 45.558 117.443 41.7567 105.934C38.3405 95.5917 38.3484 84.4577 41.7227 74.1686C42.3549 72.2408 41.4709 70.0981 39.5938 69.3283Z" fill="#41BE46"/>
</g>
</svg>
