<svg width="180" height="180" viewBox="0 0 180 180" fill="none" xmlns="http://www.w3.org/2000/svg">
<g id="Property 1=Frame 310">
<path id="Ellipse 31" d="M120.479 135.157C121.614 136.838 123.906 137.29 125.513 136.051C136.561 127.532 144.215 115.29 146.998 101.535C150.026 86.5765 147.051 71.0272 138.716 58.242C130.382 45.4567 117.355 36.4604 102.447 33.1938C87.5384 29.9272 71.9434 32.6523 59.0263 40.7811C46.1092 48.9099 36.9053 61.7908 33.4004 76.6449C29.8955 91.499 32.3704 107.136 40.2912 120.181C48.212 133.227 60.9439 142.636 75.7399 146.378C89.3452 149.82 103.693 148.216 116.154 141.941C117.966 141.028 118.55 138.767 117.525 137.016C116.5 135.265 114.255 134.689 112.435 135.585C101.645 140.896 89.277 142.224 77.5415 139.256C64.6148 135.986 53.4915 127.766 46.5713 116.368C39.6512 104.971 37.489 91.3097 40.5511 78.3322C43.6132 65.3547 51.6543 54.1012 62.9395 46.9994C74.2247 39.8975 87.8494 37.5168 100.874 40.3706C113.899 43.2245 125.28 51.0842 132.562 62.2542C139.843 73.4242 142.442 87.0091 139.797 100.078C137.396 111.943 130.848 122.518 121.392 129.948C119.797 131.202 119.344 133.475 120.479 135.157Z" fill="#41BE46"/>
</g>
</svg>
