<svg width="604" height="420" viewBox="0 0 604 420" fill="none" xmlns="http://www.w3.org/2000/svg">
<path d="M412.614 90.5C370.214 71.7 301.28 66.3333 272.114 66C243.78 66 175.514 70.9 129.114 90.5C71.1135 115 12.6136 153.5 1.61356 224C-9.38644 294.5 37.6136 336.5 89.1136 352C140.614 367.5 221.114 369 263.614 369C297.614 369 340.114 383.667 357.114 391C382.614 400.167 445.314 417.5 492.114 413.5C550.614 408.5 584.114 375.5 589.114 369C594.114 362.5 628.114 302 571.114 217.5C514.114 133 465.614 114 412.614 90.5Z" fill="#F2F2F2"/>
<path d="M246.587 85.5904V95.8628L245.12 96.1563C244.63 97.5259 243.593 100.559 243.359 101.733C243.065 103.2 243.946 106.429 247.761 106.722C251.576 107.016 254.805 107.016 259.207 104.668C262.729 102.789 264.588 98.0151 265.077 95.8628H263.61L263.316 77.666L246.587 85.5904Z" fill="#D9967E"/>
<path d="M237.611 83.1825C233.499 76.145 232.071 67.0859 231.871 63.4361C231.008 57.2223 234.33 51.4536 236.645 50.0523C238.96 48.6509 242.759 47.0581 250.927 47.3971C259.096 47.7361 262.354 50.0436 266.002 57.1757C268.92 62.8815 267.449 71.2466 266.349 74.7159C264.848 78.5271 261.366 86.5599 259.442 88.201C257.037 90.2524 251.385 92.7806 247.864 94.2795C244.343 95.7784 242.75 91.9794 237.611 83.1825Z" fill="#FABFA4"/>
<path d="M225.652 63.3679C227.224 66.5544 231.775 70.4903 233.854 72.0599C233.478 70.9476 232.594 67.9625 232.062 64.9204C231.53 61.8783 233.933 60.6746 235.2 60.453C236.961 59.8583 241.485 58.5163 245.492 57.9065C250.501 57.1442 251.542 62.0591 252.856 65.9521C255.832 67.4253 257.455 71.0077 257.895 72.6147L259.285 72.1451C257.41 67.5119 260.747 66.385 261.303 66.1972C261.859 66.0093 265.012 65.2544 265.586 69.7071C266.046 73.2693 263.626 74.603 262.358 74.8245L264.028 80.5001C266.141 74.8302 268.396 76.1929 269.198 67.5582C269.999 58.9235 267.196 54.2939 261.978 48.9314C256.759 43.5689 248.124 42.7676 242.653 43.9958C237.207 45.2183 233.314 43.7679 227.687 41.6713L227.608 41.6421C224.384 47.6876 227.923 50.8293 229.693 52.4001C231.462 53.9709 228.212 53.5197 226.912 53.3392C225.872 53.1948 223.072 52.3643 221.802 51.9671C221.71 52.3078 221.808 53.6377 222.932 56.2321C224.337 59.4749 227.678 59.2761 227.685 61.1324C227.691 62.6173 225.831 61.7584 224.901 61.1433C224.496 60.5571 224.08 60.1813 225.652 63.3679Z" fill="#C3986E"/>
<path d="M230.445 241.731C229.74 229.052 230.738 218.642 231.325 215.022L253.337 220.599L261.555 268.439L257.446 287.516C257.936 288.886 259.09 294.09 259.794 303.952C260.675 316.279 257.74 340.345 256.272 345.041C255.098 348.798 253.827 364.216 253.337 371.456C251.087 371.847 245.648 372.278 241.891 370.869C240.424 368.228 235.434 343.574 235.141 334.182C234.847 324.79 233.673 298.082 234.26 291.625C234.847 285.168 231.325 257.579 230.445 241.731Z" fill="#0E274D"/>
<path d="M286.796 244.666C291.492 229.404 285.426 215.609 281.807 210.62L281.22 210.033C275.448 211.403 261.379 214.377 251.283 215.316C241.187 216.255 233.771 211.794 231.325 209.446C231.227 209.348 231.032 210.561 231.032 216.196C238.369 219.718 244.533 222.066 249.229 222.066C250.403 229.697 261.262 283.114 264.784 295.44C264.784 299.256 266.545 320.975 267.719 330.073C268.893 339.171 273.882 360.597 277.404 369.108C282.57 369.343 285.818 367.445 286.796 366.467C287.187 360.988 288.264 344.983 289.438 324.79C290.612 304.598 287.579 289.962 285.916 285.168C284.252 278.026 282.1 259.927 286.796 244.666Z" fill="#11345E"/>
<path d="M225.162 102.026L245.12 96.4498C243.75 98.7978 241.774 103.905 244.826 105.548C248.642 107.603 251.577 107.309 257.447 105.548C262.143 104.139 264.491 98.5043 265.078 95.8628C271.535 98.5043 285.446 104.139 289.438 105.548C293.429 106.957 299.906 112.201 300.591 114.06C304.308 123.451 314.498 137.591 314.029 139C313.559 140.409 298.304 148.405 293.529 153C290.227 156.176 284.448 166.008 283.568 173.346C282.949 178.506 280.437 200.739 281.807 210.62C274.176 212.283 258.21 216.138 249.522 215.903C238.663 215.609 231.121 211.802 231.326 209.152C233.474 181.308 220.373 154.543 222.327 146.054C221.153 146.054 215.736 143.936 212.752 142.982C209.582 141.968 204.98 138.743 201.752 136.982C203.024 127.59 214.361 113.707 214.596 109.951C214.831 106.194 221.738 103.102 225.162 102.026Z" fill="#E35858"/>
<path d="M318.529 186C323.742 176.831 319.529 149 314.029 139C308.793 142.485 298.029 148 292.529 154C292.029 162.5 294.477 171.026 303.529 176C298.677 178.81 287.383 208.087 285.588 210.689C284.152 212.77 275.86 216.627 273.969 217C276.028 220 278.028 223 278.028 223C278.028 223 279.982 225.773 281.528 228.5C284.39 226.501 287.679 219.591 289.192 216.022C300.449 205.337 313.315 195.169 318.529 186Z" fill="#FABFA4"/>
<path d="M162.206 82H171.098C172.772 82 173.888 84.3775 174.237 85.5662C175.806 92.1043 179.049 105.775 179.467 108.152C179.885 110.53 178.247 111.52 177.375 111.718C175.98 111.917 172.563 112.432 170.052 112.907C167.542 113.383 166.216 111.917 165.868 111.124C163.95 103.397 160.01 87.3493 159.591 84.9718C159.173 82.5944 161.16 82 162.206 82Z" fill="#094E49"/>
<path d="M198.252 167.981C208.752 170.982 219.252 154.481 222.454 145.64C214.954 143.64 208.454 141.64 201.954 136.64C200.252 139.481 200.252 139.981 200.252 143.481C196.836 134.414 176.11 113.053 173.236 109.158C172.55 105.949 178.076 105.318 179.736 103.658C180.736 100.658 179.236 98.1582 177.736 95.6582C176.582 95.1964 171.993 96.3438 166.99 97.5948L166.736 97.6582C164.736 98.1582 162.735 95.6582 162.735 95.6582C162.596 94.5514 162.362 94.1699 162.235 93.6582C161.967 92.5728 161.233 93.345 161.235 96.6582L161.235 96.6687C161.236 99.6628 161.237 101.662 163.235 105.158C163.829 106.198 166.597 112.004 168.997 113.978C174.339 128.495 194.893 163.524 198.252 167.981Z" fill="#FABFA4"/>
<path d="M255.198 379.674L253.338 371.456C249.064 372.007 243.347 371.459 241.891 370.869C241.304 372.336 239.643 373.51 237.295 374.684C235.245 375.709 228.784 377.913 225.555 377.913C222.327 377.913 224.675 381.141 227.316 382.315C229.958 383.489 232.012 383.783 237.588 383.489C242.05 383.254 252.361 381.239 255.198 379.674Z" fill="black"/>
<path d="M291.004 374.097L286.796 366.467C284.335 368.127 280.339 369.695 277.404 368.815C276.817 370.282 277.509 371.55 276.873 374.097C275.879 378.075 274.885 381.058 276.874 383.047H280.851C283.742 383.047 285.428 383.341 291.004 383.047C295.465 382.813 291.004 376.739 291.004 374.097Z" fill="black"/>
<path d="M165 74L166.45 72.7248C168.133 71.2371 169.525 69.9537 170.625 68.8747C171.725 67.7956 172.6 66.8268 173.25 65.9682C173.9 65.1102 174.354 64.3215 174.612 63.6022C174.871 62.8828 175 62.1471 175 61.3951C175 59.8583 174.475 58.5749 173.425 57.545C172.375 56.515 171.067 56 169.5 56C168.633 56 167.808 56.1798 167.025 56.5395C166.242 56.8992 165.567 57.406 165 58.0599C164.433 57.406 163.758 56.8992 162.975 56.5395C162.192 56.1798 161.367 56 160.5 56C158.933 56 157.625 56.515 156.575 57.545C155.525 58.5749 155 59.8583 155 61.3951C155 62.1471 155.129 62.8828 155.387 63.6022C155.646 64.3215 156.1 65.1102 156.75 65.9682C157.4 66.8268 158.275 67.7956 159.375 68.8747C160.475 69.9537 161.867 71.2371 163.55 72.7248L165 74Z" fill="#F02625"/>
</svg>
