<svg width="950" height="575" viewBox="0 0 950 575" fill="none" xmlns="http://www.w3.org/2000/svg">
<path d="M39.0001 345.135C39.0001 519.496 353.694 574.135 559 574.135C764.306 574.135 848 519.496 848 345.135C848 170.774 847.306 0.135254 642 0.135254C436.694 0.135254 39.0001 170.774 39.0001 345.135Z" fill="#90DC93"/>
<path d="M910.315 427.635L738.315 423.135L173.814 418.135C162.314 418.802 129.814 421.735 91.8145 428.135C53.8145 434.535 71.6478 443.469 85.3145 447.135C105.481 451.135 155.414 460.535 193.814 466.135C241.814 473.135 293.314 463.635 303.814 462.635C314.314 461.635 364.314 463.635 379.314 468.635C394.314 473.635 376.814 478.635 359.814 481.635C342.814 484.635 337.314 474.135 311.314 486.635C290.514 496.635 310.314 498.135 322.814 497.635H366.314C380.314 497.635 497.314 484.635 524.814 481.635C552.314 478.635 614.314 483.135 626.314 484.635C638.314 486.135 774.314 488.635 792.814 488.135C811.314 487.635 802.814 481.135 768.814 473.635C741.614 467.635 763.481 464.135 777.814 463.135C824.815 459.969 923.515 451.335 942.315 442.135C961.115 432.935 928.815 428.635 910.315 427.635Z" fill="#E2F9E8"/>
<ellipse cx="107.5" cy="488" rx="67.5" ry="14" fill="#B4E6C1"/>
<ellipse cx="797" cy="509.5" rx="72" ry="18.5" fill="#B4E6C1"/>
<path d="M408.064 242.538C423.112 234.44 452.302 221.881 465.016 216.613C466.061 216.119 468.523 216.198 469.458 216.86C470.503 217.601 470.764 218.588 461.882 222.539C455.449 225.4 433.58 237.024 423.478 242.538L401.272 255.131L367.571 274.636C365.568 274.719 359.368 274.933 350.59 275.13C354.509 272.661 389.255 252.662 408.064 242.538Z" fill="black"/>
<path d="M813.26 239.082L817.179 234.638C821.359 236.86 857.934 260.316 869.429 271.427C864.987 271.427 863.681 272.168 854.015 265.254C846.282 259.724 823.71 245.502 813.26 239.082Z" fill="black"/>
<path d="M899.733 370.684C900.778 366.98 899.733 357.845 899.733 357.845C899.733 355.869 898.567 356.674 895.292 354.141C892.418 351.919 892.418 351.425 892.418 350.931C892.331 347.804 892.209 341.055 892.418 339.08C892.68 336.61 889.283 333.154 890.067 324.759C890.851 307.969 892.68 294.389 884.581 285.501C878.102 278.39 871.78 273.155 869.429 271.427H866.816C860.807 270.933 862.636 270.439 846.961 259.822C831.286 249.205 800.459 231.428 791.315 225.996C800.982 222.045 802.288 222.292 813.783 212.663C782.172 208.712 694.915 201.305 626.99 201.799C559.066 202.293 503.159 205.009 489.835 207.725C479.176 209.897 468.848 214.556 465.017 216.613C465.626 216.366 467.263 216.021 468.935 216.613C470.607 217.206 469.632 218.342 468.935 218.836C468.587 219.082 463.71 221.65 446.991 229.946C430.271 238.242 387.078 263.197 367.571 274.637C345.017 275.213 294.84 277.353 274.567 281.303C249.226 286.241 207.948 295.377 177.382 307.722C152.93 317.599 138.631 331.261 134.538 336.857L137.15 376.363C136.279 376.527 134.538 378.486 134.538 385.004C134.538 393.152 138.456 400.066 144.204 405.004C149.951 409.942 182.085 408.214 187.832 408.214C187.832 403.671 189.052 393.975 189.661 389.696C195.409 362.536 218.137 339.82 244.262 332.907C268.036 330.191 285.539 325.253 315.583 344.758C339.617 360.363 348.413 392.741 349.806 406.979L672.97 401.053C672.273 395.704 673.597 380.955 684.465 364.758C698.05 344.512 719.995 335.129 730.183 332.907C740.372 330.685 770.938 324.265 802.288 341.549C827.368 355.375 836.076 381.218 837.295 392.412C844.871 391.835 862.845 390.387 874.131 389.202C888.238 387.72 886.671 383.523 889.022 382.288C890.903 381.301 898.688 374.387 899.733 370.684Z" fill="#F3F3F3"/>
<path d="M228.849 337.351C225.017 335.952 216.256 333.154 211.867 333.154C206.381 333.154 184.959 334.141 179.473 330.438C175.084 327.475 173.464 326.405 173.203 326.24" stroke="#BCBBBB"/>
<path d="M658.079 357.104C669.783 358.684 671.49 366.322 670.88 369.943C672.97 372.906 675.234 364.429 676.105 359.82C676.453 356.939 675.112 348.561 666.961 338.092C658.81 327.623 644.929 325.5 639.008 325.747H565.336C503.507 326.734 376.192 328.808 361.562 329.203C346.933 329.598 346.236 342.207 347.716 348.462L353.725 367.227C353.899 369.285 356.808 372.708 367.049 369.943C379.85 366.486 444.117 362.783 519.095 357.104C594.073 351.425 643.449 355.129 658.079 357.104Z" fill="#E9E7E7"/>
<path d="M827.89 300.809C817.789 306.241 794.346 320.018 784.523 332.66" stroke="#BCBBBB"/>
<path d="M367.571 409.695C366.352 402.864 361.092 382.931 360.256 365.746C359.42 348.561 357.456 335.623 364.958 314.636C371.49 296.365 380.372 288.958 389.516 280.81" stroke="#BCBBBB"/>
<path d="M567.687 276.612C564.726 282.373 558.543 298.34 557.498 316.117C556.453 333.894 556.018 363.029 555.931 375.375C556.279 384.017 557.342 402.584 558.805 407.72" stroke="#BCBBBB"/>
<path d="M727.31 332.907C731.315 327.228 738.752 311.772 736.453 295.377C733.58 274.884 721.823 283.772 719.211 270.192" stroke="#BCBBBB"/>
<path d="M601.388 213.65C614.973 213.65 664.349 214.803 687.339 215.379C688.993 215.379 696.744 216.07 714.508 218.835C736.715 222.292 771.722 241.551 780.082 251.18C788.442 260.81 791.054 266.242 769.109 269.945C747.164 273.649 607.919 279.822 606.352 279.822C604.784 279.822 464.494 285.501 448.819 286.241C433.144 286.982 392.912 288.217 380.372 288.217C384.03 282.291 412.767 261.057 431.316 249.699C449.864 238.341 474.683 226.736 495.583 221.305C516.482 215.873 584.407 213.65 601.388 213.65Z" fill="black"/>
<path d="M899.733 372.906C902.241 371.128 902.172 374.964 901.823 377.103C898.166 388.955 896.598 398.584 891.373 407.226C888.388 412.164 847.222 415.127 834.16 416.362C823.71 417.349 729.312 420.23 683.42 421.547L380.895 423.769C327.774 425.497 218.607 428.608 206.904 427.226C192.274 425.497 156.221 412.658 144.726 405.251C150.996 408.016 174.857 408.378 186.004 408.214C186.526 398.831 184.959 392.659 193.841 369.449C204.765 340.907 239.298 328.325 260.982 327.722C287.629 326.981 305.112 330.932 326.294 350.684C345.887 368.956 350.677 393.152 350.851 406.979L670.88 400.313C670.358 399.819 670.567 394.486 675.582 377.103C687.6 342.536 724.697 329.203 743.246 327.969L743.558 327.948C762.026 326.718 782.578 325.35 808.296 342.536C834.16 359.82 837.556 384.264 838.863 391.424C849.835 391.918 875.96 388.708 881.446 387.227C886.932 385.745 896.598 375.128 899.733 372.906Z" fill="#37353E"/>
<ellipse cx="72.627" cy="68.6403" rx="72.627" ry="68.6403" transform="matrix(-1 0 0 1 828.413 342.783)" fill="#1B1B1F"/>
<ellipse cx="41.7997" cy="39.5052" rx="41.7997" ry="39.5052" transform="matrix(-1 0 0 1 797.585 371.918)" fill="#D0D0D0"/>
<ellipse cx="72.627" cy="68.6403" rx="72.627" ry="68.6403" transform="matrix(-1 0 0 1 340.402 342.783)" fill="#1B1B1F"/>
<ellipse cx="41.7997" cy="39.5052" rx="41.7997" ry="39.5052" transform="matrix(-1 0 0 1 309.574 371.918)" fill="#D0D0D0"/>
<path d="M195.931 315.129C206.381 309.401 214.044 301.879 216.57 298.833C198.805 299.821 188.355 305.253 181.04 308.71C173.725 312.167 155.96 323.524 152.042 326.24C148.123 328.956 147.862 330.685 159.618 330.438C171.374 330.191 182.869 322.29 195.931 315.129Z" fill="#454648"/>
<path d="M195.67 314.636C194.834 316.216 192.535 316.611 191.49 316.611C191.403 316.611 191.281 316.463 191.49 315.87C191.49 315.13 192.535 314.636 192.796 312.661C193.005 311.08 190.968 312.002 189.923 312.661C184.175 316.035 171.217 323.278 165.365 325.253C159.513 327.228 163.798 323.607 166.671 321.549C175.467 317.105 193.737 308.118 196.454 307.722C199.85 307.229 196.715 312.661 195.67 314.636Z" fill="#ADADAD"/>
<path d="M844.61 307.723H890.328C890.328 304.678 889.91 297.353 888.238 292.415C886.566 287.476 882.23 285.073 880.14 284.02C877.527 282.703 864.987 282.181 862.114 282.785C851.707 284.971 838.601 291.921 825.8 301.056C833.115 306.39 841.388 307.723 844.61 307.723Z" fill="#A10000"/>
<path d="M846.7 293.895C851.925 289.155 861.765 285.5 866.032 284.266C866.032 282.883 863.768 283.69 862.636 284.266C850.357 288.546 829.196 298.587 832.331 301.796C834.743 304.265 842.346 306.158 844.087 305.994C858.456 306.241 887.559 306.586 889.022 305.994C890.485 305.401 888.412 304.924 887.193 304.759C875.437 304.924 850.357 304.858 844.087 303.278C837.817 301.698 847.745 300.809 853.492 300.562C864.203 299.986 883.954 298.735 886.671 297.352C889.388 295.969 884.058 292.414 882.491 292.414C877.527 292.908 841.475 298.636 846.7 293.895Z" fill="#E70D04"/>
<path d="M827.106 212.663H813.783C806.729 219.082 795.234 224.514 791.315 225.996C795.408 228.465 805.632 234.786 813.783 239.329C819.791 232.662 828.151 218.588 829.98 215.379C831.443 212.811 828.674 212.498 827.106 212.663Z" fill="#37353E"/>
<path d="M688.906 297.352L723.652 296.612C727.832 296.523 724.436 301.056 721.562 301.797C718.689 302.537 702.916 302.537 692.565 302.537H692.564C688.645 302.537 683.943 297.352 688.906 297.352Z" fill="#404040"/>
<path d="M515.834 302.538L550.58 301.798C554.76 301.709 551.364 306.242 548.49 306.983C545.617 307.723 529.844 307.723 519.493 307.723H519.492C515.573 307.723 510.87 302.538 515.834 302.538Z" fill="#404040"/>
<path d="M102.504 227.039L99.7858 230.736C100.98 232.965 99.1992 234.288 100.248 234.86C101.934 235.852 103.712 236.018 109.127 234.91C113.902 233.933 119.316 242.677 120.265 240.251C118.352 234.991 115.095 232.76 109.981 228.551L112.491 220.606L103.557 217.787L102.504 227.039Z" fill="#F7A17A"/>
<path d="M111.97 221.984C107.147 221.106 100.73 216.547 98.1248 214.378C93.8912 210.852 92.8716 207.019 92.1506 200.576C91.1716 191.826 91.9975 188.796 94.3432 185.86C98.2287 180.995 101.988 180.279 103.154 180.149C106.654 179.757 119.033 179.429 122.25 187.167C125.886 195.915 125.869 199.165 125.729 202.43C125.538 206.881 124.386 216.814 122.339 219.642C119.782 223.177 117.999 223.081 111.97 221.984Z" fill="#F5A987"/>
<path d="M98.5457 182.333C99.346 180.156 106.059 177.317 115.673 181.46C119.32 183.033 123.517 186.256 124.093 191.411C120.943 191.241 120.736 191.333 118.888 191.54C117.138 191.736 117.115 192.192 115.715 192.348C113.965 192.544 110.693 194.977 110.695 197.635C110.697 199.761 109.836 204.917 109.406 207.23C107.882 205.924 104.523 204.232 103.281 207.915C102.039 211.598 105.51 212.883 107.401 213.065L108.222 220.397C101.187 218.231 95.9039 213.472 94.4435 210.978C92.9831 208.483 90.6648 205.018 90.9972 198.836C91.1666 195.686 91.2807 193.269 92.2516 191.389L92.2309 191.386C91.0059 191.221 86.9524 190.677 86.6928 188.357C86.4839 186.49 86.7437 184.578 87.6048 182.513C88.7559 179.753 91.8982 178.901 93.4447 178.728C94.9912 178.555 97.284 180.386 98.5457 182.333Z" fill="#342D26"/>
<path d="M101.061 424.508C99.4784 421.515 103.382 372.823 102.989 365.113C103.012 353.315 101.599 353.288 105.431 341.171C115.697 333.072 118.892 317.173 121.195 313.868C121.009 319.552 124.463 359.927 124.321 372.893C124.143 389.101 117.542 419.109 115.284 423.894C113.478 427.722 112.451 434.323 112.163 437.146L103.828 472.582L95.0693 471.689C90.6707 451.18 96.7956 440.299 101.061 424.508Z" fill="#16232B"/>
<path d="M87.0038 326.608C87.5374 312.373 99.1763 308.708 100.241 302.387C108.286 303.588 110.3 304.288 118.17 301.753C121.016 306.947 122.155 312.46 121.047 322.798C120.138 331.285 119.054 332.972 115.828 341.397C119.275 356.368 119.453 418.66 118.225 423.523C118.591 426.79 118.337 456.192 118.164 470.486L107.956 471.628C106.678 468.129 104.239 460.585 103.921 451.407C103.523 439.934 104.035 431.312 106.558 424.828C105.052 421.926 103.578 398.189 103.262 395.37C101.653 381.867 97.8788 368.372 97.1105 361.506C94.7933 340.797 86.337 344.401 87.0038 326.608Z" fill="#1F2C35"/>
<path d="M121.348 482.692C123.207 483.468 127.391 484.969 129.258 484.76C131.591 484.499 134.249 484.497 132.403 486.476C130.557 488.454 125.762 490.467 121.289 490.082C117.711 489.773 112.17 488.641 109.847 488.113C109.458 488.157 108.693 487.829 108.743 486.17C108.794 484.51 109.109 484.571 109.227 482.572C109.516 477.655 107.408 471.464 107.566 470.785C108.315 470.651 117.43 469.932 118.391 469.869C118.554 471.328 115.291 481.737 118.271 481.992C119.761 482.12 120.743 482.563 121.348 482.692Z" fill="black"/>
<path d="M105.778 484.672C107.473 485.76 111.332 487.966 113.207 488.085C115.55 488.234 118.168 488.694 116.006 490.321C113.844 491.949 108.771 493.097 104.434 491.939C100.964 491.012 95.7042 488.933 93.5083 488.01C93.1178 487.985 92.4214 487.529 92.7599 485.904C93.0984 484.278 93.3981 484.393 93.8619 482.445C95.0027 477.653 94.5982 472.026 94.8726 471.385C95.562 471.383 101.606 472.187 103.443 472.416L103.867 472.467C103.774 473.931 99.9786 482.678 102.869 483.448C104.315 483.833 105.204 484.44 105.778 484.672Z" fill="black"/>
<path d="M148.604 255.635C143.45 258.991 122.673 247.46 122.34 244.92C118.992 247.088 122.859 252.182 122.859 252.182C122.859 252.182 124.996 256.003 126.854 258.068C133.696 265.673 147.644 270.203 151.768 266.154C157.88 260.155 167.396 251.028 170.234 248.349C172.505 246.206 176.073 243.462 177.574 242.358C181.83 239.979 190.521 239.615 191.127 239.26C191.885 238.817 191.041 237.954 190.24 237.745C189.44 237.535 186.115 236.548 185.105 237.139C184.095 237.73 185.036 234.26 186.002 233.016C186.969 231.772 190.128 232.134 193.759 231.615C195.857 231.315 193.203 230.116 192.367 229.877C188.736 228.839 185.144 228.771 183.932 229.48L181.66 230.81C180.07 232.533 176.069 236.661 172.788 239.395C168.349 241.655 153.757 252.279 148.604 255.635Z" fill="#F5A987"/>
<path d="M333.977 251.663L221.415 240.77L317.897 287.973L333.977 251.663Z" fill="#FF9BE4"/>
<path d="M305.448 268.262C305.448 283.732 317.989 296.273 333.459 296.273C348.929 296.273 361.47 283.732 361.47 268.262C361.47 252.792 348.929 240.251 333.459 240.251C317.989 240.251 305.448 252.792 305.448 268.262Z" fill="#FF9BE4"/>
<path d="M354.207 264.112C354.207 269.842 358.852 274.486 364.582 274.486C370.311 274.486 374.956 269.842 374.956 264.112C374.956 258.382 370.311 253.738 364.582 253.738C358.852 253.738 354.207 258.382 354.207 264.112Z" fill="#FF9BE4"/>
<path d="M299.223 284.861C299.223 290.59 303.868 295.235 309.598 295.235C315.327 295.235 319.972 290.59 319.972 284.861C319.972 279.131 315.327 274.486 309.598 274.486C303.868 274.486 299.223 279.131 299.223 284.861Z" fill="#FF9BE4"/>
<path d="M284.699 278.636C284.699 284.366 289.344 289.011 295.073 289.011C300.803 289.011 305.448 284.366 305.448 278.636C305.448 272.907 300.803 268.262 295.073 268.262C289.344 268.262 284.699 272.907 284.699 278.636Z" fill="#FF9BE4"/>
<circle cx="12.4493" cy="12.4493" r="12.4493" transform="matrix(-1 -7.76428e-10 -7.76428e-10 1 387.406 223.652)" fill="#FF9BE4"/>
<circle cx="4.14976" cy="4.14976" r="4.14976" transform="matrix(-1 -7.76428e-10 -7.76428e-10 1 338.646 225.727)" fill="#FF9BE4"/>
<circle cx="8.29951" cy="8.29951" r="8.29951" transform="matrix(-1 -7.76428e-10 -7.76428e-10 1 360.432 208.09)" fill="#FF9BE4"/>
<path d="M161.934 223.893L200.737 233.791L219.102 238.781L219.58 237.724L226.379 239.014L225.048 244.777L218.208 242.45L218.167 241.413L169.638 235.011C168.337 237.139 163.379 242.213 153.956 245.49C144.533 248.766 143.675 243.643 144.423 240.672C145.358 238.04 147.598 231.619 149.078 226.993C150.557 222.366 158.265 222.998 161.934 223.893Z" fill="#1B1919"/>
<path d="M146.72 244.4C141.187 246.648 134.167 260.999 135.827 290.048C137.902 326.358 159.687 348.663 152.944 372.005C146.201 395.348 78.2488 438.92 88.1044 462.263C95.989 480.936 148.795 489.755 174.212 491.83C187.007 492.694 205.128 495.979 175.249 502.204C137.902 509.985 57.5 492.867 35.7138 502.204" stroke="#1B1919" stroke-width="3" stroke-linecap="round"/>
<path d="M108.853 231.952C106.333 229.852 104.85 226.788 102.33 227.591C98.8042 229.375 96.0337 241.293 96.847 248.561C98.2313 260.933 100.07 268.035 103.177 286.478C104.56 294.686 102.33 296.531 100 303.001C102.018 303.56 110.605 304.488 114.777 303.97C118.222 303.296 114.777 303.97 120.348 302.554C118.311 295.201 127.205 279.851 127.409 271.761C132.624 268.864 133.121 267.944 134.849 263.622C137.323 257.437 129.385 251.923 124.415 245.958C121.821 242.845 119.227 236.102 116.634 235.065C112.751 233.511 111.965 234.546 108.853 231.952Z" fill="#D77272"/>
<path d="M113.744 262.218C108.633 265.64 114.404 253.613 112.515 251.234C109.816 247.836 100.414 247.557 96.8228 250.902C98.0932 253.616 106.349 282 112.417 275.957C117.537 270.859 134.305 257.084 137.109 254.368C139.352 252.196 144.126 248.032 145.163 245.438C146.586 243.11 147.757 243.363 150.869 240.77C152.986 239.006 153.948 240.259 156.056 239.732C158.131 239.213 160.098 237.86 160.725 236.101C161.649 233.508 158.131 230.914 153.463 230.914C150.326 230.914 145.756 230.805 144.645 234.545C144.024 236.397 141.845 241.247 139.976 242.845C128.487 252.667 118.855 258.796 113.744 262.218Z" fill="#F5A987"/>
<circle cx="11" cy="11" r="11" transform="matrix(-1 0 0 1 691 188.135)" fill="#FF9BE4"/>
<circle cx="14" cy="14" r="14" transform="matrix(-1 0 0 1 672 193.135)" fill="#FF9BE4"/>
<circle cx="14" cy="14" r="14" transform="matrix(-1 0 0 1 647 190.135)" fill="#FF9BE4"/>
<circle cx="14" cy="14" r="14" transform="matrix(-1 0 0 1 633 207.135)" fill="#FF9BE4"/>
<circle cx="14" cy="14" r="14" transform="matrix(-1 0 0 1 649 199.135)" fill="#FF9BE4"/>
<circle cx="14" cy="14" r="14" transform="matrix(-1 0 0 1 672 207.135)" fill="#FF9BE4"/>
<circle cx="14" cy="14" r="14" transform="matrix(-1 0 0 1 689 238.135)" fill="#FF9BE4"/>
<circle cx="16" cy="16" r="16" transform="matrix(-1 0 0 1 701 211.135)" fill="#FF9BE4"/>
<circle cx="16" cy="16" r="16" transform="matrix(-1 0 0 1 696 199.135)" fill="#FF9BE4"/>
<circle cx="16" cy="16" r="16" transform="matrix(-1 0 0 1 721 211.135)" fill="#FF9BE4"/>
<circle cx="18" cy="18" r="18" transform="matrix(-1 0 0 1 728 240.135)" fill="#FF9BE4"/>
<circle cx="18" cy="18" r="18" transform="matrix(-1 0 0 1 710 222.135)" fill="#FF9BE4"/>
<circle cx="16" cy="16" r="16" transform="matrix(-1 0 0 1 699 269.135)" fill="#FF9BE4"/>
<circle cx="8" cy="8" r="8" transform="matrix(-1 0 0 1 715 298.135)" fill="#FF9BE4"/>
<path d="M481.276 426.778C484.025 423.339 488.255 421.135 493 421.135C499.546 421.135 505.112 425.328 507.16 431.174C507.437 431.148 507.717 431.135 508 431.135C512.634 431.135 516.45 434.637 516.946 439.139L521.415 441.446C522.922 440.611 524.655 440.135 526.5 440.135C532.299 440.135 537 444.836 537 450.635C537 454.13 535.292 457.227 532.666 459.135H412.5C412.239 459.106 411.969 459.064 411.692 459.009C410.712 458.979 409.8 458.956 408.951 458.935C399.767 458.703 398 458.659 398 452.135C398 443.299 405.163 436.135 414 436.135C416.724 436.135 419.29 436.816 421.535 438.017C423.352 431.176 429.587 426.135 437 426.135C441.353 426.135 445.3 427.874 448.185 430.694C449.36 423.016 455.993 417.135 464 417.135C470.337 417.135 475.814 420.819 478.405 426.163C479.297 426.342 480.281 426.555 481.276 426.778Z" fill="#F5E0F5"/>
<path d="M772.008 196.487L774.182 206.662L772.79 207.263C772.596 208.723 772.21 211.946 772.226 213.158C772.246 214.674 773.801 217.685 777.642 217.169C781.483 216.652 784.681 215.969 788.544 212.712C791.635 210.106 792.466 204.984 792.495 202.749L791.042 203.06L786.901 185.099L772.008 196.487Z" fill="#F5B698"/>
<path d="M756.959 194.806C753.642 187.247 750.012 171.817 750.236 168.122C750.091 161.77 760.263 154.315 762.755 153.175C765.247 152.035 769.254 150.875 777.433 152.167C785.612 153.459 788.621 156.16 791.46 163.76C793.732 169.84 791.278 178.085 789.768 181.447C787.814 185.107 786.482 186.821 782.106 190.457C777.794 194.038 775.013 195.551 768.892 198.977C766.344 200.403 761.106 204.255 756.959 194.806Z" fill="#FABFA4"/>
<path d="M750.146 165.291C751.356 168.68 755.476 173.17 757.385 174.991C756.517 175.983 756.692 180.61 759.666 179.975C758.319 175.095 761.807 174.35 762.389 174.226C762.97 174.102 766.23 173.709 766.289 178.256C766.337 181.893 763.747 182.953 762.446 183.029L771.491 188.634C782.166 191.764 782.034 192.517 787.646 188.587C790.431 183.129 791.656 183.171 793.467 174.577C795.279 165.984 792.998 161 788.372 154.997C783.746 148.994 775.153 147.183 769.505 147.781C763.858 148.38 755.185 146.986 749.727 144.2C745.779 149.907 753.89 152.941 755.488 154.727C757.085 156.514 753.868 155.681 752.581 155.348C751.551 155.082 748.831 153.921 747.6 153.373C747.468 153.705 747.412 155.055 748.24 157.796C749.276 161.222 752.299 160.576 752.091 162.444C751.924 163.939 751.55 163.775 750.686 163.048C750.347 162.411 748.935 161.902 750.146 165.291Z" fill="#C4986E"/>
<path d="M804.261 354.33C803.551 339.585 804.556 327.48 805.147 323.27C805.147 323.27 820.891 317.099 833.818 317.673C839.287 338.915 847.027 342.934 840.563 369.344C836.917 384.245 831.453 407.575 831.453 407.575C831.946 409.167 833.109 415.22 833.818 426.688C834.705 441.023 831.749 469.011 830.271 474.472C829.089 478.841 827.808 496.771 827.315 505.19C825.049 505.645 819.571 506.146 815.788 504.507C814.31 501.436 809.286 472.765 808.99 461.843C808.694 450.921 807.512 419.862 808.103 412.353C808.694 404.844 805.147 372.761 804.261 354.33Z" fill="#0E274D"/>
<path d="M829.017 362.979C836.746 346.614 835.017 339.939 834.017 331.875C833.017 323.811 834.017 317.475 834.017 317.475C828.012 317.704 821.228 323.347 811.017 322.083C800.806 320.819 791.715 318.627 788.715 317.475C788.162 320.281 786.844 335.938 783.517 353.187C781.517 363.555 776.198 394.355 778.517 407.331C782.017 426.915 783.517 432.675 783.517 432.675C783.517 432.675 787.611 448.055 786.948 458.731C786.284 469.407 786.93 495.062 788.715 505.611C793.795 507.076 797.401 505.657 798.569 504.765C800.058 498.591 802.792 490.454 808.017 467.635C813.241 444.817 814.017 446.635 814.017 412.635C815.517 402.135 821.288 379.343 829.017 362.979Z" fill="#11345E"/>
<path d="M855.111 257.338C855.998 246.693 849.318 236.387 845.867 232.565C839.866 234.354 828.153 239.571 829.312 246.132C830.749 254.269 831.199 254.637 834.083 256.996L834.152 257.052C827.213 251.377 815.578 252.908 812.434 253.512C794 257.052 810 268.39 821.469 269.477C849.649 272.148 854.224 267.984 855.111 257.338Z" fill="#FABFA4"/>
<path d="M708.063 265.195C709.194 262.2 709.541 258.408 710.209 253.986C710.744 250.449 715.917 252.135 718.436 253.42C721.007 254.864 725.861 258.161 724.709 259.796C723.269 261.84 716.919 264.951 715.146 269.206C713.372 273.461 715.544 278.538 715.673 282.176C715.776 285.086 712.854 285.368 711.38 285.145C708.856 284.387 703.083 282.58 700.183 281.418C696.558 279.965 706.932 268.19 708.063 265.195Z" fill="#525D92"/>
<path d="M748.275 288.672C750.857 285.552 757.78 272.783 760.798 266.15C757.791 266.077 744.732 263.094 740.103 260.194C737.036 267.897 736.7 265.364 735.009 279.235C727.994 275.109 723.456 273.011 721.184 271.963C720.348 268.051 720.631 263.508 718.624 264.783C717.274 265.64 716.905 266.288 713.746 265.883C712.476 265.72 711.477 264.834 710.466 262.493C710.466 262.493 708.977 260.252 708.093 260.955C707.209 261.659 705.626 265.559 704.937 267.707C704.247 269.855 710.022 272.302 710.022 272.302C710.022 272.302 713.261 273.144 714.554 274.402C715.423 275.247 727.601 290.021 733.151 294.459C735.838 297.464 743.701 293.435 748.275 288.672Z" fill="#FABFA4"/>
<path d="M817.366 203.819C817.366 203.819 807.543 201.969 796.419 202.519C785.296 203.069 783.927 203.401 776.528 206.16C766.814 209.784 758.106 218.668 754.45 220.908C750.795 223.148 745.49 229.712 745.205 231.698C743.511 241.786 739.462 259.733 740.225 261.029C740.989 262.325 754.408 266.713 760.732 268.807C763.802 273.217 772.185 279.734 774.61 286.815C776.315 291.795 787.766 308.559 788.501 318.635C796.501 320.135 808.673 322.786 817.47 322.482C827.501 322.135 834.764 320.216 834.001 317.635C825.981 290.512 833.222 254.82 829.49 246.826C830.653 246.578 835 244.247 837.874 242.903C840.748 241.56 844.687 237.8 847.512 235.373C844.265 226.34 832.559 211.717 829.508 209.432C824.771 205.885 820.985 204.16 817.366 203.819Z" fill="#E35858"/>
<path d="M798.517 512.398L798.517 501.798C794.517 502.798 789.444 502.728 788.517 501.798C787.612 503.082 786.327 503.192 784.17 503.761C782.287 504.257 779.017 502.298 774.209 504.033C771.776 504.911 772.531 506.959 774.181 508.746C775.83 510.534 777.306 511.321 781.651 512.398C785.127 513.259 795.865 513.228 798.517 512.398Z" fill="black"/>
<path d="M827.017 511.798L827.801 501.96C823.801 502.96 816.944 502.728 816.017 501.798C815.112 503.082 814.674 503.229 812.517 503.798C810.633 504.294 808.301 502.46 803.493 504.196C801.06 505.074 801.815 507.122 803.465 508.909C805.114 510.696 806.59 511.484 810.935 512.561C814.412 513.422 824.365 512.628 827.017 511.798Z" fill="black"/>
</svg>
