<svg width="619" height="615" viewBox="0 0 619 615" fill="none" xmlns="http://www.w3.org/2000/svg">
<path d="M5.39037 236.579C-3.78059 355.219 27.6212 397.054 110.843 462.535C192.072 537.11 197.541 550.226 248.93 570.759C300.319 591.292 411.916 565.757 476.576 501.641C555.23 444.8 561.287 428.634 581.133 401.147C650.118 291.558 599.809 206.142 568.109 166.963C515.863 102.392 405.292 70.0635 356.746 61.0119C308.2 51.9603 244.456 29.6358 181.071 29.6358C99.2047 29.6357 14.2516 121.945 5.39037 236.579Z" fill="#90DC93"/>
<path d="M379.804 139.467C386.729 127.808 383.12 118.804 376.877 110.463C371.883 103.79 357.686 106.328 351.211 108.431C353.307 116.968 345.926 124.871 341.974 127.755C331.106 134.742 320.573 137.396 301.484 139.373C282.587 141.33 261.341 135.324 254.444 124.315C247.924 113.908 243.282 101.634 252.198 75.3109C255.302 66.1474 267.771 47.3101 279.548 44.3429C290.082 41.6888 300.281 43.3679 313.1 55.7172C312.459 41.7159 302.941 20.0369 300.642 16.3674C298.343 12.6978 270.378 6.99705 249.605 41.9732C234.77 66.9517 230.044 86.7789 241.29 116.299C249.166 136.972 281.059 158.682 311.002 161.051C340.945 163.421 372.88 151.126 379.804 139.467Z" fill="#1771BC"/>
<path d="M338.056 123.094C313.278 149.731 341.714 183.545 359.029 197.122C286.684 153.033 305.158 114.387 310.104 106.059C315.05 97.7315 322.309 81.7397 350.929 90.108C373.824 96.8027 381.063 116.034 381.821 124.813C377.557 113.141 362.834 96.4561 338.056 123.094Z" fill="#1771BC"/>
<path d="M319.291 384.941C319.291 392.567 323.593 395.836 328.97 398.014C333.272 399.758 339.367 394.383 341.876 391.478C338.435 387.992 339.725 382.036 340.801 379.493C344.027 372.957 348.329 368.599 356.933 362.062C365.451 355.591 377.367 352.257 383.82 355.526C389.92 358.616 395.651 363.152 398.877 378.404C400.001 383.714 399.385 396.41 394.575 401.282C390.273 405.64 384.896 407.819 375.216 405.64C379.518 412.177 390.273 419.803 392.424 420.893C394.575 421.982 409.632 416.535 409.632 393.656C409.632 377.318 406.246 366.412 392.424 355.526C382.745 347.902 361.235 346.81 346.178 354.437C331.121 362.063 319.291 377.315 319.291 384.941Z" fill="#DA6414"/>
<path d="M344.012 380.585C348.314 360.539 325.012 352.623 312.823 351.17C360.145 351.17 362.296 375.138 362.296 380.585C362.296 386.032 363.371 395.837 347.239 400.195C334.333 403.681 325.371 396.564 322.503 392.569C327.88 396.927 339.71 400.631 344.012 380.585Z" fill="#DA6414"/>
<path d="M298.028 235.558H334.986C342.168 235.558 344.303 232.253 344.544 230.289C344.552 230.164 344.56 230.039 344.567 229.913C344.567 230.031 344.56 230.157 344.544 230.289C343.379 248.041 336.788 252.494 333.616 252.494H298.027C308.978 261.903 331.7 281.567 334.985 284.955C338.27 288.342 335.452 294.521 332.247 299.068C329.012 303.659 325.403 306.931 319.928 306.125C307.153 304.243 280.507 300.479 276.126 300.479C271.746 300.479 267.914 306.125 266.545 308.947V301.891C266.545 287.777 274.758 283.543 278.864 283.543L314.453 284.955C305.784 277.428 287.899 261.809 285.709 259.551C282.971 256.728 284.34 253.905 288.446 245.437L288.446 245.437C291.731 238.663 295.29 235.558 298.028 235.558Z" fill="#39B0EF"/>
<path d="M172.545 194.158L172.645 225.004C172.665 230.998 175.311 232.771 176.881 232.967C176.981 232.973 177.081 232.98 177.182 232.986C177.088 232.986 176.987 232.98 176.881 232.967C162.693 232.042 159.116 226.553 159.108 223.905L159.012 194.202C151.522 203.367 135.87 222.383 133.172 225.134C130.474 227.885 125.529 225.549 121.886 222.887C118.209 220.199 115.584 217.195 116.214 212.623C117.683 201.956 120.619 179.706 120.607 176.05C120.595 172.395 116.074 169.211 113.814 168.076L119.453 168.057C130.731 168.02 134.137 174.863 134.148 178.29L133.116 207.998C139.108 200.742 151.541 185.773 153.339 183.939C155.588 181.647 157.847 182.782 164.625 186.187C170.047 188.911 172.538 191.872 172.545 194.158Z" fill="#791D91"/>
<path d="M302.036 548.406C292.34 547.045 281.577 539.229 277.407 535.491C280.965 531.944 285.483 527.052 287.982 520.679C291.254 526.152 302.606 530.367 310.302 533.954C309.053 537.14 307.997 541.494 302.036 548.406Z" fill="#FDFDFD"/>
<path d="M356.764 508.516C348.124 493.076 348.021 469.421 349.05 459.523C358.307 461.008 370.648 462.493 382.989 459.523C378.361 469.916 384.532 490.7 387.618 505.546C381.447 507.031 373.733 510 356.764 508.516Z" fill="#1A62AC"/>
<path d="M326.772 457.632L351.26 487.213C356.019 492.962 359.966 492.519 361.63 491.433C361.731 491.358 361.833 491.283 361.935 491.207C361.844 491.284 361.742 491.36 361.63 491.433C347.256 502.057 339.475 499.68 337.374 497.141L313.793 468.657C313.838 483.546 313.824 514.533 313.405 519.368C312.986 524.202 306.384 525.968 300.776 526.364C295.114 526.763 290.215 526.005 287.206 521.097C280.183 509.647 265.411 485.87 262.509 482.364C259.607 478.858 252.741 479.466 249.671 480.207L255.079 475.614C265.894 466.427 274.581 470.244 277.301 473.531L299.801 502.934C299.825 491.096 299.944 466.613 300.223 463.391C300.572 459.362 303.642 458.62 312.852 456.394C320.22 454.614 324.957 455.441 326.772 457.632Z" fill="#DCE61A"/>
<path d="M192.802 165.787L223.245 129.374C229.162 122.297 227.803 117.519 226.148 115.693C226.037 115.583 225.925 115.474 225.812 115.365C225.924 115.46 226.037 115.57 226.148 115.693C241.935 131.205 240.706 141.304 238.094 144.429L208.778 179.494C226.674 176.319 263.941 169.845 269.843 169.35C275.744 168.854 279.251 176.632 280.902 183.469C282.567 190.371 282.682 196.575 277.411 201.317C265.112 212.382 239.612 235.59 236.004 239.905C232.396 244.221 234.565 252.566 236.1 256.199L229.443 250.488C216.129 239.067 218.9 227.548 222.283 223.502L252.93 189.58C238.688 192.029 209.222 197.011 205.287 197.342C200.37 197.755 198.834 194.122 194.229 183.223C190.544 174.504 190.546 168.485 192.802 165.787Z" fill="#D73666"/>
<path d="M256.153 441.608C258.601 418.678 275.878 392.956 284.211 382.961C292.656 391.202 304.276 401.652 319.171 407.274C306.767 415.227 297.849 442.184 290.117 460.492C282.67 457.681 272.542 455.374 256.153 441.608Z" fill="#F74A19"/>
<path d="M448.261 285.379C459.129 285.379 463.787 279.088 466.893 271.224C469.377 264.932 461.717 256.02 457.577 252.35C452.608 257.383 444.12 255.496 440.497 253.923C431.181 249.204 424.97 242.913 415.654 230.331C406.432 217.875 401.68 200.447 406.339 191.011C410.742 182.09 417.207 173.71 438.944 168.991C446.511 167.349 464.606 168.249 471.55 175.282C477.761 181.574 480.866 189.438 477.761 203.593C487.077 197.302 497.945 181.574 499.498 178.428C501.051 175.282 493.287 153.263 460.681 153.263C437.396 153.263 421.853 158.215 406.339 178.428C395.474 192.583 393.917 224.039 404.786 246.059C415.655 268.078 437.392 285.379 448.261 285.379Z" fill="#59A01E"/>
<path d="M442.054 249.226C413.485 242.935 402.202 277.013 400.132 294.838C400.132 225.634 434.291 222.489 442.054 222.489C449.817 222.489 463.791 220.916 470.002 244.508C474.971 263.382 464.826 276.488 459.133 280.682C465.344 272.818 470.623 255.518 442.054 249.226Z" fill="#59A01E"/>
<path d="M197.688 103.076C207.133 112.695 212.349 130.217 213.777 137.776C206.932 138.637 197.914 140.152 189.864 144.971C190.865 136.282 181.997 122.175 176.595 111.819C180.62 109.41 185.409 105.572 197.688 103.076Z" fill="#B5BE21"/>
<path d="M142.136 293.797C131.726 302.886 132.393 312.807 135.828 322.936C138.576 331.039 153.176 333.169 160.133 333.221C160.789 324.246 170.457 318.954 175.209 317.431C187.977 314.159 199.053 314.99 218.23 319.25C237.215 323.467 255.969 336.184 259.199 349.118C262.252 361.344 262.89 374.777 245.917 397.475C240.009 405.376 221.945 419.648 209.562 418.718C198.486 417.887 189.102 412.952 180.54 396.798C176.745 410.614 179.154 434.767 180.231 439.078C181.308 443.39 206.689 457.986 237.917 430.717C260.219 411.243 271.069 393.502 269.454 361.169C268.323 338.525 244.176 307.097 215.82 295.097C187.464 283.098 152.545 284.707 142.136 293.797Z" fill="#C97DCB"/>
<path d="M177.545 323.232C210.035 305.365 193.067 263.291 180.521 244.488C236.924 310.767 206.773 342.347 199.337 348.84C191.902 355.332 179.8 368.525 154.624 351.124C134.483 337.203 133.516 316.166 135.55 307.388C136.011 320.114 145.056 341.099 177.545 323.232Z" fill="#C97DCB"/>
<path d="M423.7 99.7632C443.43 98.523 467.888 109.618 477.651 115.321C472.053 123.779 465.1 135.287 462.743 148.905C454.05 139.406 429.888 135.674 413.211 131.7C414.389 124.891 414.713 115.852 423.7 99.7632Z" fill="#9303B7"/>
<path d="M328.5 184L323.361 195.361L312 200.5L323.361 205.639L328.5 217L333.686 205.639L345 200.5L333.686 195.361L328.5 184Z" fill="#F74A19"/>
<path d="M250 253L243.771 266.771L230 273L243.771 279.229L250 293L256.286 279.229L270 273L256.286 266.771L250 253Z" fill="#537E2F"/>
<path d="M144.5 105L136.559 122.559L119 130.5L136.559 138.441L144.5 156L152.514 138.441L170 130.5L152.514 122.559L144.5 105Z" fill="white"/>
<path d="M384.5 281L376.559 298.559L359 306.5L376.559 314.441L384.5 332L392.514 314.441L410 306.5L392.514 298.559L384.5 281Z" fill="#9303B7"/>
<path d="M292.5 330L288.296 339.296L279 343.5L288.296 347.704L292.5 357L296.743 347.704L306 343.5L296.743 339.296L292.5 330Z" fill="white"/>
<path d="M403.5 44L394.936 62.9357L376 71.5L394.936 80.0643L403.5 99L412.143 80.0643L431 71.5L412.143 62.9357L403.5 44Z" fill="#F66DFA"/>
</svg>
