<svg width="877" height="500" viewBox="0 0 877 500" fill="none" xmlns="http://www.w3.org/2000/svg">
<path d="M787.479 278.072C787.479 452.433 514.8 499.135 309.494 499.135C104.188 499.135 44 452.433 44 278.072C44 103.711 307.102 0.135254 512.408 0.135254C717.714 0.135254 787.479 103.711 787.479 278.072Z" fill="#90DC93"/>
<path d="M493.936 239.539C478.888 231.44 449.698 218.881 436.984 213.614C435.939 213.12 433.477 213.198 432.542 213.861C431.497 214.601 431.236 215.589 440.118 219.539C446.551 222.4 468.42 234.025 478.522 239.539L500.728 252.131L534.429 271.637C536.432 271.719 542.632 271.933 551.41 272.131C547.491 269.662 512.745 249.662 493.936 239.539Z" fill="black"/>
<path d="M88.7398 236.082L84.8211 231.638C80.6411 233.86 44.0664 257.316 32.5715 268.427C37.0127 268.427 38.3189 269.168 47.9851 262.254C55.7181 256.724 78.2899 242.502 88.7398 236.082Z" fill="black"/>
<path d="M2.26664 367.684C1.22166 363.98 2.26664 354.845 2.26664 354.845C2.26664 352.869 3.43255 353.674 6.70786 351.141C9.58159 348.919 9.58159 348.425 9.58159 347.931C9.66867 344.804 9.79059 338.055 9.58159 336.08C9.32034 333.61 12.7166 330.154 11.9328 321.759C11.1491 304.969 9.32034 291.389 17.419 282.501C23.898 275.39 30.2202 270.155 32.5714 268.427H35.1839C41.1926 267.933 39.3639 267.439 55.0387 256.822C70.7136 246.205 101.541 228.428 110.685 222.996C101.018 219.045 99.7122 219.292 88.2172 209.663C119.828 205.712 207.085 198.305 275.01 198.799C342.934 199.293 398.841 202.009 412.165 204.725C422.824 206.897 433.152 211.556 436.983 213.613C436.374 213.366 434.737 213.021 433.065 213.613C431.393 214.206 432.368 215.342 433.065 215.836C433.413 216.082 438.29 218.65 455.009 226.946C471.729 235.242 514.922 260.197 534.429 271.637C556.983 272.213 607.16 274.353 627.433 278.303C652.774 283.241 694.052 292.377 724.618 304.722C749.07 314.599 763.369 328.261 767.462 333.857L764.85 373.363C765.721 373.527 767.462 375.486 767.462 382.004C767.462 390.152 763.544 397.066 757.796 402.004C752.049 406.942 719.915 405.214 714.168 405.214C714.168 400.671 712.949 390.975 712.339 386.696C706.591 359.536 683.863 336.82 657.738 329.907C633.964 327.191 616.461 322.253 586.417 341.758C562.383 357.363 553.587 389.741 552.194 403.979L229.03 398.053C229.727 392.704 228.403 377.955 217.535 361.758C203.95 341.512 182.005 332.129 171.817 329.907C161.628 327.685 131.062 321.265 99.7122 338.549C74.6323 352.375 65.9241 378.218 64.7049 389.412C57.1287 388.835 39.1549 387.387 27.8689 386.202C13.7616 384.72 15.329 380.523 12.9778 379.288C11.0968 378.301 3.31162 371.387 2.26664 367.684Z" fill="#F3F3F3"/>
<path d="M673.151 334.351C676.983 332.952 685.744 330.154 690.133 330.154C695.619 330.154 717.041 331.141 722.527 327.438C726.916 324.475 728.536 323.405 728.797 323.24" stroke="#BCBBBB"/>
<path d="M243.921 354.104C232.217 355.684 230.51 363.322 231.12 366.943C229.03 369.906 226.766 361.429 225.895 356.82C225.547 353.939 226.888 345.561 235.039 335.092C243.19 324.623 257.071 322.5 262.992 322.747H336.664C398.493 323.734 525.808 325.808 540.438 326.203C555.067 326.598 555.764 339.207 554.284 345.462L548.275 364.227C548.101 366.285 545.192 369.708 534.951 366.943C522.15 363.486 457.883 359.783 382.905 354.104C307.927 348.425 258.551 352.129 243.921 354.104Z" fill="#E9E7E7"/>
<path d="M74.1098 297.809C84.2114 303.241 107.654 317.018 117.477 329.66" stroke="#BCBBBB"/>
<path d="M534.429 406.695C535.648 399.864 540.908 379.931 541.744 362.746C542.58 345.561 544.544 332.623 537.042 311.636C530.51 293.365 521.628 285.958 512.484 277.81" stroke="#BCBBBB"/>
<path d="M334.313 273.612C337.274 279.373 343.457 295.34 344.502 313.117C345.547 330.894 345.982 360.029 346.069 372.375C345.721 381.017 344.658 399.584 343.195 404.72" stroke="#BCBBBB"/>
<path d="M174.69 329.907C170.685 324.228 163.248 308.772 165.547 292.377C168.42 271.884 180.177 280.772 182.789 267.192" stroke="#BCBBBB"/>
<path d="M300.612 210.65C287.027 210.65 237.651 211.803 214.661 212.379C213.007 212.379 205.256 213.07 187.492 215.835C165.285 219.292 130.278 238.551 121.918 248.18C113.558 257.81 110.946 263.242 132.891 266.945C154.836 270.649 294.081 276.822 295.648 276.822C297.216 276.822 437.506 282.501 453.181 283.241C468.856 283.982 509.088 285.217 521.628 285.217C517.97 279.291 489.233 258.057 470.684 246.699C452.136 235.341 427.317 223.736 406.417 218.305C385.518 212.873 317.593 210.65 300.612 210.65Z" fill="black"/>
<path d="M2.26669 369.906C-0.241291 368.128 -0.171625 371.964 0.176706 374.103C3.83418 385.955 5.40167 395.584 10.6266 404.226C13.6123 409.164 54.7775 412.127 67.84 413.362C78.2899 414.349 172.688 417.23 218.58 418.547L521.105 420.769C574.226 422.497 683.393 425.608 695.096 424.226C709.726 422.497 745.779 409.658 757.274 402.251C751.004 405.016 727.143 405.378 715.996 405.214C715.474 395.831 717.041 389.659 708.159 366.449C697.235 337.907 662.702 325.325 641.018 324.722C614.371 323.981 596.888 327.932 575.706 347.684C556.113 365.956 551.323 390.152 551.149 403.979L231.12 397.313C231.642 396.819 231.433 391.486 226.418 374.103C214.4 339.536 177.303 326.203 158.754 324.969L158.442 324.948C139.974 323.718 119.422 322.35 93.7035 339.536C67.84 356.82 64.4437 381.264 63.1375 388.424C52.1651 388.918 26.0403 385.708 20.5541 384.227C15.0678 382.745 5.40167 372.128 2.26669 369.906Z" fill="#37353E"/>
<ellipse cx="146.214" cy="408.424" rx="72.627" ry="68.6403" fill="#1B1B1F"/>
<ellipse cx="146.214" cy="408.424" rx="41.7997" ry="39.5052" fill="#D0D0D0"/>
<ellipse cx="634.225" cy="408.424" rx="72.627" ry="68.6403" fill="#1B1B1F"/>
<ellipse cx="634.225" cy="408.424" rx="41.7997" ry="39.5052" fill="#D0D0D0"/>
<path d="M706.069 312.129C695.619 306.401 687.956 298.879 685.43 295.833C703.195 296.821 713.645 302.253 720.96 305.71C728.275 309.167 746.04 320.524 749.958 323.24C753.877 325.956 754.138 327.685 742.382 327.438C730.626 327.191 719.131 319.29 706.069 312.129Z" fill="#454648"/>
<path d="M706.33 311.636C707.166 313.216 709.465 313.611 710.51 313.611C710.597 313.611 710.719 313.463 710.51 312.87C710.51 312.13 709.465 311.636 709.204 309.661C708.995 308.08 711.032 309.002 712.077 309.661C717.825 313.035 730.783 320.278 736.635 322.253C742.487 324.228 738.202 320.607 735.329 318.549C726.533 314.105 708.263 305.118 705.546 304.722C702.15 304.229 705.285 309.661 706.33 311.636Z" fill="#ADADAD"/>
<path d="M57.39 304.723H11.6715C11.6715 301.678 12.0895 294.353 13.7615 289.415C15.4335 284.476 19.7702 282.073 21.8602 281.02C24.4727 279.703 37.0126 279.181 39.8863 279.785C50.2925 281.971 63.3987 288.921 76.1998 298.056C68.8849 303.39 60.612 304.723 57.39 304.723Z" fill="#A10000"/>
<path d="M55.3002 290.895C50.0752 286.155 40.2348 282.5 35.9678 281.266C35.9678 279.883 38.2319 280.69 39.364 281.266C51.6427 285.546 72.8038 295.587 69.6688 298.796C67.2572 301.265 59.6543 303.158 57.9126 302.994C43.544 303.241 14.4409 303.586 12.978 302.994C11.515 302.401 13.5875 301.924 14.8067 301.759C26.5629 301.924 51.6427 301.858 57.9126 300.278C64.1826 298.698 54.2552 297.809 48.5077 297.562C37.7965 296.986 18.0462 295.735 15.3292 294.352C12.6122 292.969 17.9417 289.414 19.5092 289.414C24.4729 289.908 60.5251 295.636 55.3002 290.895Z" fill="#E70D04"/>
<path d="M74.8936 209.663H88.2173C95.271 216.083 106.766 221.515 110.685 222.996C106.592 225.465 96.3682 231.786 88.2173 236.329C82.2086 229.663 73.8486 215.589 72.0199 212.379C70.5569 209.811 73.3262 209.499 74.8936 209.663Z" fill="#37353E"/>
<path d="M213.094 294.352L178.348 293.612C174.168 293.523 177.564 298.056 180.438 298.797C183.311 299.537 199.084 299.537 209.435 299.537H209.436C213.355 299.537 218.057 294.352 213.094 294.352Z" fill="#404040"/>
<path d="M386.166 299.538L351.42 298.798C347.24 298.709 350.636 303.242 353.51 303.983C356.383 304.723 372.156 304.723 382.507 304.723H382.508C386.427 304.723 391.13 299.538 386.166 299.538Z" fill="#404040"/>
<path d="M624.192 214.086C598.598 230.311 565.142 260.458 551.614 273.503L563.365 273.503C575.202 261.707 603.886 235.033 634.356 215.809C664.825 196.584 691.714 183.517 701.988 178.623C708.464 176.224 709.903 171.186 709.192 169.051C691.739 174.022 656.184 193.805 624.192 214.086Z" fill="#F3F3F3"/>
<ellipse cx="805" cy="454.5" rx="72" ry="18.5" fill="#B4E6C1"/>
<path d="M751.653 232.694L757.588 230.761C758.203 233.112 757.628 235.876 757.263 236.964C756.724 238.765 754.525 242.391 749.987 245.149C745.986 247.582 740.341 246.268 738.088 245.18L740.316 241.077L737.299 236.994L745.057 224.243L751.653 232.694Z" fill="#F7A17A"/>
<path d="M752.351 243.158C756.851 239.944 753.862 234.059 753.31 232.362C756.872 231.014 757.1 230.355 764.103 231.163C770.338 231.883 774.435 234.912 775.854 236.201C777.274 237.489 783.228 242.87 786.407 246.412C783.425 247.994 782.856 249.564 781.131 253.714C779.722 257.1 780.795 257.514 781.852 261.222C783.173 265.857 787.955 275.65 790.469 279.052C789.554 280.851 788.376 282.704 785.294 285.334C782.573 287.346 779.517 290.518 774.587 292.199C770.683 285.966 767.489 283.067 761.603 277.949C757.272 279.398 754.979 278.717 750.912 277.249C749.837 277.693 746.933 278.975 746.933 278.975C746.292 279.215 745.98 279.68 743.315 280.248C742.757 280.367 741.969 280.091 741.318 279.052C740.668 278.013 739.101 274.094 737.721 271.467C735.995 268.183 735.17 264.766 735.323 261.222C735.447 258.334 736.282 251.555 736.282 251.555C736.282 251.555 738.34 244.326 739.16 243.158C739.722 243.444 743.549 246.402 744.959 246.412C746.369 246.422 747.794 246.412 752.351 243.158Z" fill="#D77272"/>
<path d="M741.616 232.398C744.44 228.627 745.98 221.221 746.397 217.99C747.075 212.739 745.288 209.372 741.585 204.361C736.557 197.557 733.996 195.963 730.425 195.427C724.509 194.54 721.394 196.493 720.487 197.163C717.766 199.175 708.834 207.035 711.625 214.59C714.78 223.13 716.916 225.409 719.148 227.617C722.191 230.628 729.494 236.872 732.783 237.527C736.894 238.345 738.087 237.112 741.616 232.398Z" fill="#F5A987"/>
<path d="M716.338 226.187C719.832 229.776 722.507 231.213 723.407 231.482C720.942 229.096 720.213 228.583 716.249 222.745C713.078 218.075 715.158 214.784 716.594 213.722L722.036 209.698C723.396 208.692 727.29 208.268 729.026 210.141C730.414 211.64 734.389 214.71 736.203 216.058C736.423 214.141 737.684 210.754 740.965 212.537C744.246 214.32 742.641 217.494 741.428 218.858L745.283 224.075C748.822 217.951 747.166 212.862 746.564 210.15C745.963 207.438 743.232 202.793 739.258 198.366C735.285 193.938 731.45 193.968 729.537 193.278C730.277 192.38 728.946 189.155 727.605 187.341C726.532 185.889 725.324 185.52 724.854 185.517C722.955 185.635 718.43 186.409 715.528 188.555C711.9 191.237 714.69 195.487 716.366 197.756C713.359 200.33 710.264 207.529 709.564 210.852C708.865 214.176 711.971 221.7 716.338 226.187Z" fill="#29231E"/>
<path d="M793.651 392.256C795.139 389.362 790.877 350.337 791.172 342.923C791.021 331.586 792.379 331.545 788.565 319.942C778.615 312.272 775.373 297.027 773.123 293.876C773.364 299.337 770.485 338.174 770.763 350.632C771.11 366.205 777.777 394.97 779.999 399.544C781.776 403.203 788.839 407.288 797.44 410.622L832.066 420.25C833.248 415.77 833.827 414.497 834.429 411.29C811.213 396.002 801.292 397.908 793.651 392.256Z" fill="#16232B"/>
<path d="M743.237 289.114C749.155 288.758 743.477 282.262 742.278 280.103C746.115 279.863 748.034 277.944 751.152 277.224C752.351 277.944 754.749 278.424 756.668 278.664C758.826 284.661 759.068 298.627 753.55 297.856C745.375 296.713 726.036 296.323 722.301 295.876C719.313 295.518 714.975 295.438 713.179 295.443C708.517 296.042 699.024 297.257 698.351 297.329C697.51 297.42 697.669 296.268 698.17 295.647C698.67 295.025 701.973 294.101 703.094 293.98C704.216 293.859 702.754 293.449 701.291 293.04C699.829 292.631 695.094 293.426 692.54 293.418C690.498 293.412 691.942 292.254 692.919 291.675C695.008 290.882 699.522 289.26 700.867 289.114L703.39 288.841C705.61 289.263 711.077 290.167 715.187 290.403C719.922 289.608 737.32 289.47 743.237 289.114Z" fill="#F5A987"/>
<path d="M811.239 303.282C809.095 288.98 793.842 289.939 790.484 279.144C786.647 281.782 782.09 290.179 773.696 290.899C774.415 297.856 775.575 299.683 779.452 308.892C781.37 313.45 781.61 313.45 785.298 320.487C783.607 335.154 790.091 394.667 791.783 399.18C791.783 402.339 795.167 430.393 796.859 444.026H806.728C807.574 440.547 809.096 433.082 808.42 424.282C807.574 413.282 806.164 405.103 803.062 399.18C804.19 396.246 803.062 373.419 803.062 370.692C803.156 357.624 805.318 344.332 805.318 337.692C805.318 317.666 813.777 320.205 811.239 303.282Z" fill="#1F2C35"/>
<path d="M792.163 276.025C796.729 272.243 782.81 261.871 781.131 259.472C778.733 256.044 782.33 248.676 786.407 246.277C788.566 248.196 812.472 274.625 805.222 278.573C799.105 281.903 781.772 293.612 778.493 295.457C775.87 296.933 767.708 300.39 766.261 301.455C761.467 302.728 757.148 305.053 757.148 305.053C757.148 305.053 753.254 306.733 752.591 306.733C751.632 306.972 751.888 305.85 752.368 305.13C754.286 302.971 754.75 302.894 756.668 302.174C754.861 301.977 753.943 301.638 752.111 302.654C750.778 303.394 749.713 303.374 746.835 306.733C744.916 307.932 745.156 304.813 748.994 301.455C751.268 299.464 756.025 296.897 759.786 296.897C761.667 296.831 766.431 296.745 768.42 295.457C780.651 287.54 787.598 279.807 792.163 276.025Z" fill="#F5A987"/>
<path d="M795.123 456.025C793.431 456.965 789.597 458.845 787.792 458.845C785.536 458.845 782.999 459.127 784.972 460.82C786.946 462.512 791.74 463.922 795.969 463.076C799.353 462.399 804.522 460.725 806.684 459.973C807.06 459.973 807.755 459.578 807.53 457.999C807.304 456.419 807.01 456.511 806.684 454.614C805.882 449.949 807.234 443.811 807.01 443.18C806.281 443.131 797.501 443.419 796.577 443.462C796.577 444.872 800.805 454.465 797.987 455.027C796.577 455.309 795.687 455.837 795.123 456.025Z" fill="black"/>
<path d="M844.004 425.68C844.525 427.544 845.462 431.712 845.042 433.468C844.518 435.663 844.202 438.197 846.307 436.67C848.411 435.143 850.896 430.807 851.057 426.496C851.185 423.047 850.759 417.628 850.531 415.35C850.618 414.985 850.396 414.216 848.808 414.068C847.219 413.921 847.24 414.228 845.32 414.105C840.597 413.8 834.943 411.058 834.278 411.13C834.061 411.828 832.283 419.272 832.109 420.181C833.481 420.509 843.808 419.79 843.7 422.662C843.646 424.099 843.952 425.087 844.004 425.68Z" fill="black"/>
<path d="M395.402 38.3184L375.372 32.223C376.501 26.7802 375.488 21.1117 372.544 16.3966C369.6 11.6815 364.952 8.28293 359.566 6.90784C354.18 5.53274 348.472 6.28701 343.628 9.01374C338.784 11.7405 335.177 16.2297 333.559 21.5476C331.941 26.8654 332.435 32.6025 334.939 37.5652C337.443 42.528 341.764 46.3344 347.003 48.1926C352.241 50.0507 357.995 49.8176 363.066 47.5417C368.138 45.2658 372.136 41.1224 374.231 35.9733L394.261 42.0687L395.402 38.3184ZM338.703 36.1534C337.06 33.0744 336.368 29.5777 336.713 26.1053C337.058 22.6328 338.425 19.3408 340.641 16.6453C342.858 13.9498 345.823 11.972 349.163 10.962C352.504 9.95205 356.068 9.95521 359.407 10.9711C362.745 11.987 365.707 13.9701 367.918 16.6695C370.13 19.3688 371.491 22.6634 371.83 26.1364C372.169 29.6094 371.47 33.1049 369.823 36.1809C368.175 39.257 365.652 41.7753 362.573 43.4175C358.443 45.6143 353.611 46.0833 349.136 44.7214C344.661 43.3596 340.909 40.2782 338.703 36.1534Z" fill="white" fill-opacity="0.8"/>
<path d="M389.095 152.494L399.771 142.836C397.474 139.781 396.444 135.958 396.895 132.162C397.345 128.367 399.242 124.891 402.19 122.458C405.138 120.025 408.91 118.823 412.722 119.1C416.534 119.378 420.092 121.115 422.656 123.949C425.221 126.783 426.593 130.497 426.489 134.318C426.385 138.138 424.812 141.772 422.097 144.462C419.382 147.152 415.734 148.693 411.913 148.762C408.091 148.831 404.39 147.425 401.579 144.835L390.904 154.493L389.095 152.494ZM423.734 134.542C423.854 132.145 423.261 129.767 422.029 127.708C420.797 125.649 418.983 124.001 416.815 122.973C414.647 121.946 412.222 121.584 409.849 121.934C407.475 122.284 405.258 123.329 403.479 124.939C401.7 126.549 400.438 128.65 399.853 130.977C399.268 133.304 399.386 135.752 400.192 138.012C400.998 140.272 402.456 142.242 404.382 143.673C406.308 145.104 408.615 145.932 411.012 146.052C414.224 146.209 417.368 145.085 419.753 142.928C422.138 140.77 423.57 137.754 423.734 134.542Z" fill="white" fill-opacity="0.8"/>
<path d="M448.405 41.2411C446.019 39.2887 445.848 35.5989 448.199 33.6447C452.937 29.7464 459.499 27.8193 466.787 29.9654C474.789 32.3221 479.205 37.5562 480.662 42.9113C481.9 47.5033 481.155 55.1872 475.883 59.5164C470.033 64.3003 465.58 64.9737 462.333 68.2081C461.553 68.971 461.027 69.625 460.375 71.087C459.341 73.4661 456.73 74.7925 454.21 74.0504C451.248 73.1779 449.577 69.9289 450.784 67.0862C451.497 65.4212 452.433 63.7488 453.885 62.3382C457.892 58.4085 463.748 57.119 467.902 53.8207C472.286 50.3697 472.95 41.706 464.165 39.1186C460.181 37.9453 456.985 39.2466 454.657 41.2446C452.898 42.8217 450.233 42.6985 448.405 41.2411ZM456.695 89.4865C455.599 93.2074 451.638 95.3492 447.892 94.2461C444.147 93.1429 441.978 89.196 443.074 85.475C444.17 81.7541 448.131 79.6123 451.877 80.7154C455.623 81.8186 457.791 85.7655 456.695 89.4865Z" fill="white" fill-opacity="0.8"/>
<path d="M730.352 148.169C729.124 147.632 728.602 146.069 729.339 144.932C730.828 142.658 733.315 141 736.6 141C740.207 141 742.678 142.69 743.937 144.806C745.012 146.622 745.641 150.016 743.983 152.543C742.141 155.337 740.376 156.19 739.424 157.99C739.194 158.416 739.056 158.764 738.964 159.474C738.825 160.627 737.904 161.527 736.768 161.527C735.433 161.527 734.343 160.343 734.497 158.969C734.589 158.164 734.773 157.327 735.203 156.537C736.385 154.343 738.657 153.048 739.977 151.106C741.374 149.069 740.591 145.264 736.63 145.264C734.834 145.264 733.668 146.227 732.946 147.379C732.409 148.279 731.288 148.564 730.352 148.169ZM739.685 167.843C739.685 169.579 738.304 171 736.615 171C734.926 171 733.545 169.579 733.545 167.843C733.545 166.106 734.926 164.685 736.615 164.685C738.304 164.685 739.685 166.106 739.685 167.843Z" fill="white" fill-opacity="0.8"/>
</svg>
