<svg width="866" height="469" viewBox="0 0 866 469" fill="none" xmlns="http://www.w3.org/2000/svg">
<path d="M0.524292 249.897C-11.4871 391.598 184.698 441.125 403.127 441.125C528.134 441.125 747.889 470.093 788.823 441.125C858.741 391.646 791.498 355.493 778.591 285.208C757.973 197.631 908.087 97.5215 824.413 56.8358C730.101 10.9778 533.471 -16.537 354.636 10.9779C191.169 36.1282 8.49695 155.842 0.524292 249.897Z" fill="#2291F2"/>
<g clip-path="url(#clip0_482_5442)">
<circle cx="271.328" cy="138.708" r="13" transform="rotate(-10.9855 271.328 138.708)" fill="#FFDB5d"/>
<path d="M272.257 143.494C274.112 143.134 275.239 142.01 275.838 141.045C276.187 140.476 276.938 140.294 277.514 140.647C278.085 141.002 278.262 141.754 277.907 142.325C277.046 143.728 275.399 145.367 272.722 145.887C270.045 146.406 267.904 145.503 266.581 144.523C266.038 144.127 265.876 143.372 266.318 142.821C266.719 142.277 267.484 142.165 268.021 142.563C268.937 143.233 270.403 143.854 272.257 143.494ZM269.151 137.724L269.138 137.711C269.126 137.703 269.113 137.69 269.094 137.673C269.052 137.64 268.996 137.594 268.923 137.535C268.77 137.415 268.56 137.264 268.306 137.076C267.801 136.817 267.237 136.606 266.798 136.691C266.36 136.776 265.916 137.183 265.544 137.612C265.38 137.882 265.241 138.1 265.144 138.269C265.098 138.35 265.019 138.423 265.037 138.461C264.981 138.492 265.018 138.5 265.01 138.512L265.003 138.529C264.926 138.689 264.757 138.779 264.587 138.755C264.412 138.732 264.272 138.599 264.239 138.429C264.066 137.537 264.229 136.59 264.594 135.836C264.957 135.093 265.561 134.448 266.334 134.298C267.107 134.148 267.908 134.52 268.523 135.073C269.144 135.635 269.649 136.453 269.822 137.345C269.855 137.515 269.776 137.691 269.622 137.777C269.473 137.863 269.283 137.843 269.151 137.724ZM277.127 136.176L277.114 136.163C277.102 136.155 277.089 136.142 277.071 136.124C277.028 136.091 276.972 136.045 276.899 135.987C276.746 135.867 276.536 135.716 276.282 135.527C275.777 135.269 275.213 135.057 274.775 135.142C274.336 135.228 273.892 135.634 273.52 136.064C273.356 136.334 273.217 136.552 273.12 136.721C273.074 136.802 272.995 136.874 273.013 136.912C272.957 136.944 272.995 136.952 272.987 136.964L272.979 136.981C272.902 137.141 272.733 137.23 272.563 137.206C272.388 137.184 272.248 137.05 272.215 136.881C272.042 135.988 272.205 135.041 272.57 134.287C272.933 133.545 273.537 132.9 274.31 132.75C275.083 132.6 275.884 132.972 276.499 133.525C277.12 134.087 277.625 134.905 277.798 135.797C277.831 135.966 277.752 136.142 277.598 136.229C277.449 136.315 277.259 136.295 277.127 136.176Z" fill="white"/>
</g>
<path d="M637.049 95.7583L638.361 93.6244C639.881 91.1378 641.118 89.0149 642.071 87.2557C643.025 85.4965 643.742 83.9582 644.223 82.6408C644.704 81.3242 644.969 80.1665 645.019 79.1678C645.069 78.1687 644.954 77.1965 644.673 76.2511C644.099 74.3192 642.973 72.898 641.294 71.9876C639.615 71.0772 637.81 70.9088 635.878 71.4824C634.809 71.7997 633.859 72.3278 633.028 73.0668C632.196 73.8057 631.553 74.69 631.099 75.7195C630.156 75.1049 629.134 74.7149 628.034 74.5495C626.934 74.3842 625.85 74.4601 624.781 74.7774C622.85 75.351 621.429 76.4774 620.519 78.1567C619.609 79.8359 619.44 81.6415 620.014 83.5735C620.295 84.5189 620.728 85.3965 621.315 86.2064C621.902 87.016 622.757 87.8411 623.879 88.6817C625.001 89.5232 626.441 90.4208 628.2 91.3745C629.959 92.3283 632.154 93.4321 634.785 94.6861L637.049 95.7583Z" fill="#FE7777"/>
<path d="M652.564 108.924L654.256 108.603C656.222 108.225 657.873 107.872 659.208 107.542C660.543 107.213 661.657 106.866 662.549 106.501C663.441 106.136 664.152 105.735 664.682 105.298C665.213 104.862 665.654 104.354 666.004 103.773C666.721 102.588 666.922 101.358 666.607 100.084C666.293 98.8095 665.544 97.8142 664.359 97.0979C663.703 96.7017 662.995 96.4633 662.235 96.3826C661.475 96.3019 660.728 96.3842 659.994 96.6296C659.87 95.8661 659.596 95.1666 659.171 94.5311C658.746 93.8956 658.206 93.3797 657.55 92.9835C656.365 92.2673 655.136 92.0664 653.861 92.3808C652.587 92.6952 651.592 93.4451 650.875 94.6304C650.525 95.2104 650.279 95.8368 650.139 96.5096C650 97.1826 649.976 97.9986 650.067 98.9575C650.159 99.9169 650.369 101.064 650.698 102.399C651.027 103.734 651.482 105.36 652.062 107.277L652.564 108.924Z" fill="#EC4647"/>
<ellipse cx="359" cy="427.5" rx="62" ry="19.5" fill="#22A2F2"/>
<ellipse cx="542.5" cy="427.5" rx="68.5" ry="19.5" fill="#22A2F2"/>
<ellipse cx="763.5" cy="417.5" rx="68.5" ry="19.5" fill="#22A2F2"/>
<path d="M725.738 163.868L732.402 165.124C731.761 167.685 729.769 170.018 728.854 170.864C727.4 172.3 723.411 174.606 717.648 174.865C712.566 175.094 707.874 170.895 706.295 168.681L710.56 165.936L709.817 160.471L723.866 152.372L725.738 163.868Z" fill="#F7A17a"/>
<path d="M720.939 174.201C726.905 173.489 727.13 166.321 727.489 164.417C731.587 164.992 732.553 164.96 739.615 168.878C745.578 172.187 746.965 172.782 749.267 174.853C751.569 176.925 753.613 178.656 757.415 183.002C753.749 182.952 750.907 190.27 747.096 193.323C743.986 195.814 740.544 202.73 739.615 206.814C738.454 211.92 737.898 223.747 738.517 228.301C736.706 229.537 734.616 230.688 730.306 231.584C726.663 232.081 722.096 233.507 716.522 232.535C716.056 224.558 714.526 220.128 711.59 212.179C706.707 211.298 702.427 208.63 701.464 204.187C700.616 200.27 701.246 197.668 701.246 197.668C700.51 197.562 699.291 197.668 696.032 198.212C695.421 198.313 689.591 199.541 689.514 198.212C689.436 196.882 688.427 187.89 687.884 184.631C691.143 181.915 693.316 181.372 696.032 179.199C698.485 177.237 701.246 173.812 701.246 173.812C701.246 173.812 706.98 167.999 708.371 167.315C708.758 167.881 710.86 172.697 712.198 173.443C713.536 174.188 714.899 174.923 720.939 174.201Z" fill="#729BD7"/>
<path d="M713.32 160.066C718.436 159.917 725.775 156.218 728.804 154.387C733.727 151.412 735.382 147.615 737.138 141.079C739.523 132.202 739.146 128.946 737.186 125.547C733.94 119.917 730.173 118.589 728.989 118.272C725.439 117.318 712.715 115.04 708.179 122.522C703.052 130.98 702.559 134.338 702.191 137.729C701.689 142.352 701.318 152.785 702.986 156.024C705.07 160.073 706.925 160.254 713.32 160.066Z" fill="#F5A986"/>
<path d="M701.506 134.372C700.817 139.771 701.404 143.016 701.784 143.964C702.146 140.254 702.089 139.287 704.372 131.969C706.199 126.114 710.403 125.656 712.278 126.159L719.379 128.065C721.155 128.541 724.149 131.566 723.729 134.308C723.394 136.502 723.472 141.958 723.553 144.412C725.331 143.303 729.064 142.084 729.767 146.08C730.47 150.075 726.686 150.858 724.706 150.749L722.877 157.555C730.478 156.422 733.684 151.572 735.583 149.227C737.482 146.881 739.585 141.418 740.662 135.045C741.74 128.672 739.121 125.431 738.414 123.338C739.677 123.36 741.519 120.047 742.155 117.68C742.664 115.786 742.161 114.509 741.846 114.108C740.46 112.573 736.743 109.249 732.955 108.232C728.221 106.962 726.494 112.209 725.699 115.168C721.477 114.352 713.262 116.589 709.963 118.242C706.664 119.895 702.367 127.624 701.506 134.372Z" fill="#8C490a"/>
<path d="M736.038 351.648C737.76 348.561 734.563 306.03 735.155 297.991C735.407 285.676 736.882 285.681 733.167 272.943C724.59 261.47 720.578 241.968 718.251 238.464C718.313 244.402 712.867 292.076 712.712 305.614C712.517 322.536 718.702 354.014 720.946 359.061C722.742 363.099 730.261 367.794 739.478 371.73L776.722 383.454C778.169 378.633 778.846 377.272 779.617 373.811C754.969 356.36 744.127 358.066 736.038 351.648Z" fill="#16232b"/>
<path d="M760.676 251.447C758.346 235.908 742.052 237.644 738.403 225.916C734.234 228.783 725.794 231.652 716.675 232.434C717.456 239.993 719.47 246.709 723.682 256.714C725.766 261.666 726.027 261.666 730.034 269.311C728.196 285.246 735.241 349.903 737.079 354.806C737.079 358.238 740.755 388.717 742.593 403.528H753.316C754.235 399.749 755.889 391.638 755.154 382.078C754.235 370.127 752.703 361.241 749.333 354.806C750.559 351.619 749.333 326.818 749.333 323.856C749.435 309.658 751.784 295.218 751.784 288.004C751.784 266.247 763.433 269.832 760.676 251.447Z" fill="#2B4354"/>
<path d="M764.001 210.25C761.985 204.133 758.381 186.806 757.589 182.97C754.089 182.97 751.589 187.97 748.589 191.47C748.844 196.588 751.664 201.688 753.762 208.917C755.872 216.183 763.402 232.436 765.353 236.027C766.913 238.901 772.426 246.797 773.142 248.612C776.817 252.553 779.448 257.188 779.448 257.188C779.448 257.188 782.061 260.983 782.671 261.366C783.415 262.141 783.828 260.96 783.802 260.02C783.284 256.925 782.902 256.587 781.553 254.816C783.33 255.679 784.37 255.897 785.468 257.89C786.268 259.341 787.259 259.938 787.967 264.691C789.039 266.903 790.62 263.895 789.03 258.588C788.087 255.442 785.194 250.332 781.733 248.159C780.04 247.012 775.707 244.181 774.621 241.847C767.94 227.496 766.017 216.368 764.001 210.25Z" fill="#F5A987"/>
<path d="M740.708 416.563C738.87 417.585 734.704 419.628 732.743 419.628C730.292 419.628 727.535 419.934 729.68 421.773C731.824 423.611 737.032 425.144 741.627 424.224C745.303 423.489 750.919 421.671 753.268 420.854C753.676 420.854 754.432 420.425 754.187 418.709C753.942 416.992 753.622 417.092 753.268 415.031C752.397 409.963 753.865 403.294 753.622 402.608C752.83 402.556 743.291 402.868 742.287 402.915C742.287 404.447 746.881 414.869 743.819 415.48C742.287 415.786 741.321 416.359 740.708 416.563Z" fill="black"/>
<path d="M789.486 389.787C789.983 391.83 790.847 396.39 790.328 398.281C789.678 400.645 789.242 403.385 791.583 401.805C793.924 400.224 796.782 395.607 797.114 390.931C797.38 387.191 797.116 381.292 796.951 378.81C797.06 378.416 796.846 377.574 795.127 377.355C793.408 377.136 793.42 377.471 791.339 377.266C786.223 376.763 780.184 373.578 779.459 373.631C779.198 374.381 776.994 382.399 776.772 383.38C778.249 383.786 789.489 383.384 789.266 386.499C789.155 388.057 789.451 389.142 789.486 389.787Z" fill="black"/>
<path d="M667.971 170.518C671.599 175.839 686.538 186.952 687.884 184.631C688.429 185.718 688.972 187.89 688.972 192.236C688.972 193.756 689.212 196.832 690.057 198.755C680.823 196.582 667.967 191.837 665.613 186.261C662.124 177.999 651.664 158.49 650.001 154.757C648.67 151.77 646.327 147.679 645.323 146.007C639.539 145.52 637.366 144.433 634.65 141.717C637.366 140.088 638.996 139.544 641.169 138.458C642.118 137.509 642.469 137.256 641.712 135.742C640.626 133.569 639.721 132.301 640.083 131.939C640.626 131.396 641.715 131.893 642.799 132.483C644.702 133.989 646.601 136.828 647.144 137.915C648.377 140.381 649.102 141.163 651.142 145.073C654.522 149.047 664.343 165.197 667.971 170.518Z" fill="#F5A987"/>
<path d="M634.574 119.47H643.021C644.611 119.47 645.671 121.771 646.003 122.921C646.535 129.47 646.574 142.478 646.971 144.778C647.369 147.079 645.812 148.038 644.984 148.229C643.659 148.421 640.535 148.38 638.027 148.38C635.598 148.38 634.383 147.421 634.052 146.654C633.035 138.97 632.089 125.47 632.089 122.346C632.089 120.011 633.58 119.47 634.574 119.47Z" fill="#303333"/>
<path d="M636.038 134.73C634.818 134.54 632.501 134.471 632.501 134.471C631.524 134.765 631.05 135.052 630.971 135.853C630.794 137.647 631.305 140.095 631.352 141.883C631.399 143.671 632.156 144.099 632.528 144.089L636.999 143.972C637.893 143.949 639.332 143.305 639.411 142.12C639.537 140.23 639.743 139.554 638.802 137.789C637.861 136.024 637.764 134.997 636.038 134.73Z" fill="#F5A987"/>
<path d="M397.899 191.139C394.899 180.139 394.399 170.139 388.399 162.139C380.399 151.472 378.055 127.896 377.091 125.969C375.591 122.969 372.4 120.639 368.4 118.639C364.4 116.639 354.4 117.139 347.9 120.639C342.7 123.439 340.616 132.291 341.9 138.139C343.4 144.972 345.4 153.139 345.4 166.139C345.4 169.493 336.4 185.639 339.9 192.139C343.4 198.639 352.9 199.139 356.4 213.139C359.2 224.339 359.566 223.806 364.899 224.139C378.899 226.139 398.998 229.553 406.899 222.639C404.399 215.639 404.27 214.139 403.899 213.139C400.708 204.532 400.286 199.888 397.899 191.139Z" fill="#342D26"/>
<path d="M363.005 177.561C368.806 176.353 371.465 172.425 372.069 170.612C375.996 171.72 376.601 172.123 382.643 176.655C387.659 180.417 388.736 184.603 389.139 186.617C389.542 188.631 390.968 197.987 391.452 203.063C387.876 202.526 383.147 203.183 379.018 205.658C375.647 207.678 375.03 208.438 373.58 212.305C371.767 217.139 369.652 228.619 369.652 233.151C367.718 234.118 365.523 234.964 361.193 235.266C357.567 235.266 352.914 236.051 347.597 234.36C348.201 226.504 347.295 221.973 345.482 213.815C340.828 212.305 339.286 210.258 336.717 206.404C335.508 206.101 332.189 205.356 332.189 205.356C331.484 205.155 330.92 205.356 328.262 204.148C325.603 202.939 324.737 202.637 324.032 201.428C324.133 200.119 325.059 193.694 325.542 190.552C326.147 186.625 327.384 184.746 329.772 181.791C331.718 179.382 335.815 176.655 335.815 176.655C335.815 176.655 344.636 171.096 346.087 170.612C346.389 171.217 350.014 175.144 351.223 176.05C352.431 176.957 355.754 179.072 363.005 177.561Z" fill="#AA7BE6"/>
<path d="M365.724 168.497L372.069 170.612C371.102 173.029 368.846 175.043 367.839 175.748C366.228 176.957 362.024 178.679 356.359 178.165C351.362 177.712 347.335 172.985 346.087 170.612L350.618 168.497V163.059L365.422 157.017L365.724 168.497Z" fill="#F7A17a"/>
<path d="M357.265 161.851C362.099 160.4 368.142 155.002 370.559 152.485C374.486 148.394 375.09 144.355 375.09 137.681C375.09 128.617 373.899 125.613 371.163 122.877C366.631 118.345 362.703 118.043 361.495 118.043C357.869 118.043 345.169 119.124 342.763 127.409C340.044 136.775 340.434 140.098 340.951 143.421C341.656 147.953 343.972 157.983 346.389 160.642C349.41 163.965 351.223 163.663 357.265 161.851Z" fill="#F5A987"/>
<path d="M339.44 140.4C340.165 145.718 341.555 148.658 342.159 149.464C341.555 145.838 341.253 144.932 341.555 137.379C341.797 131.337 345.684 129.826 347.597 129.826H354.848C356.661 129.826 360.286 131.941 360.588 134.66C360.83 136.835 362.3 142.012 363.005 144.328C364.415 142.817 367.658 140.702 369.35 144.328C371.042 147.953 367.638 149.665 365.724 150.068V157.017C372.673 153.996 374.486 148.557 375.694 145.838C376.903 143.119 377.507 137.379 376.903 131.035C376.299 124.69 374.091 121.969 371.767 120.46C364.091 116.469 363.377 115.572 357.567 115.929C351.405 116.307 346.087 120.46 343.368 122.877C340.649 125.294 338.534 133.754 339.44 140.4Z" fill="#342D26"/>
<path d="M354.546 358.53C356.48 355.63 357.567 305.357 358.776 297.502C359.984 285.418 361.434 285.538 358.776 272.729C349.108 263.363 347.497 246.746 345.483 243.121C345.08 248.962 337.325 289.949 336.117 303.243C334.606 319.859 338.232 351.28 340.044 356.416C341.495 360.524 341.857 367.393 341.857 370.313L346.691 407.474H355.755C362.401 386.93 357.265 375.147 354.546 358.53Z" fill="#2F1648"/>
<path d="M385.664 256.414C383.489 241.912 371.163 239.495 369.35 233.151C361.258 235.3 355.939 236.052 347.597 234.359C345.281 239.999 342.416 249.768 347.597 259.133C355.453 273.333 350.921 264.873 357.869 274.843C356.057 290.554 363.005 354.301 364.818 359.135C364.818 362.518 368.443 392.569 370.256 407.172H380.83C381.737 403.446 383.368 395.449 382.643 386.023C381.737 374.241 380.226 365.479 376.903 359.135C378.111 355.993 376.903 331.541 376.903 328.621C377.004 314.622 379.32 300.385 379.32 293.273C379.32 271.822 388.383 274.541 385.664 256.414Z" fill="#452069"/>
<path d="M368.396 420.024C366.584 421.031 362.475 423.045 360.541 423.045C358.124 423.045 355.405 423.347 357.52 425.16C359.635 426.973 364.771 428.483 369.303 427.577C372.928 426.852 378.467 425.059 380.783 424.254C381.186 424.254 381.931 423.831 381.689 422.139C381.448 420.447 381.132 420.545 380.783 418.513C379.924 413.516 381.373 406.941 381.132 406.265C380.351 406.214 370.944 406.522 369.954 406.567C369.954 408.078 374.484 418.354 371.465 418.956C369.954 419.257 369 419.823 368.396 420.024Z" fill="#6D3D26"/>
<path d="M343.622 420.03C341.81 421.037 337.701 423.051 335.767 423.051C333.35 423.051 330.631 423.353 332.746 425.166C334.861 426.979 339.997 428.489 344.529 427.583C348.154 426.858 353.693 425.065 356.009 424.26C356.412 424.26 357.157 423.837 356.916 422.145C356.674 420.453 356.359 420.551 356.009 418.519C355.15 413.522 356.599 406.947 356.359 406.271C355.578 406.219 347.379 406.22 346.389 406.265C346.389 407.776 349.71 418.359 346.691 418.962C345.18 419.263 344.227 419.829 343.622 420.03Z" fill="#6D3D26"/>
<path d="M318.16 207.872C322.671 211.717 323.457 203.857 324.089 201.469C327.09 203.469 330.09 204.469 330.09 204.469C330.09 204.469 335.09 205.969 337.089 206.469C334.487 212.288 322.974 225.702 319.532 221.321C314.432 214.83 300.766 201.143 298.384 198.231C296.478 195.901 293.407 192.836 292.109 191.595C288.334 188.794 280.651 183.089 280.116 182.675C279.446 182.158 280.36 181.438 281.151 181.337C281.942 181.236 284.964 182.859 285.856 183.549C286.748 184.239 285.978 182.931 285.208 181.622C284.438 180.313 280.474 177.604 278.639 175.828C277.171 174.408 279.015 174.574 280.12 174.835C282.176 175.711 286.553 177.671 287.624 178.499L289.631 180.051C290.939 181.894 294.253 186.336 297.05 189.355C301.015 192.065 313.649 204.026 318.16 207.872Z" fill="#F5A987"/>
<path d="M275.574 162.469H284.021C285.611 162.469 286.671 164.77 287.003 165.92C287.535 172.469 287.574 185.477 287.971 187.778C288.369 190.079 286.812 191.037 285.984 191.229C284.659 191.421 281.535 191.379 279.027 191.379C276.598 191.379 275.383 190.421 275.052 189.654C274.035 181.969 273.089 168.469 273.089 165.345C273.089 163.01 274.58 162.469 275.574 162.469Z" fill="#2D3030"/>
<path d="M278.038 175.729C276.818 175.54 274.501 175.471 274.501 175.471C273.524 175.765 273.05 176.052 272.971 176.853C272.794 178.647 273.306 181.094 273.352 182.882C273.399 184.671 274.156 185.098 274.528 185.088L278.999 184.972C279.893 184.948 281.332 184.304 281.411 183.119C281.537 181.23 281.743 180.553 280.802 178.788C279.861 177.024 279.764 175.997 278.038 175.729Z" fill="#F5A987"/>
<path d="M388.27 232.3C388.683 225.872 390.892 206.824 391.59 202.969C388.27 202.469 381.938 203.181 380.589 204.969C378.916 209.813 380.019 219.752 379.269 227.242C378.515 234.772 379.437 252.659 379.906 256.72C380.282 259.968 382.451 269.351 382.437 271.302C384.376 276.33 385.088 281.612 385.088 281.612C385.088 281.612 386.096 286.107 386.519 286.69C386.921 287.687 387.744 286.745 388.071 285.864C388.745 282.799 388.517 282.343 387.926 280.197C389.253 281.66 390.136 282.251 390.412 284.51C390.612 286.154 391.309 287.078 390.192 291.751C390.362 294.204 392.951 292.003 393.456 286.486C393.755 283.215 392.977 277.394 390.577 274.087C389.434 272.392 386.471 268.148 386.334 265.577C385.49 249.77 387.858 238.728 388.27 232.3Z" fill="#F5A987"/>
<path d="M534.235 135.9V145.954L532.799 146.241C532.32 147.581 531.305 150.55 531.075 151.699C530.788 153.135 531.65 156.295 535.384 156.582C539.118 156.869 542.278 156.869 546.587 154.571C550.034 152.733 551.854 148.06 552.332 145.954H550.896L550.609 128.144L534.235 135.9Z" fill="#E29875"/>
<path d="M524.755 124.122C523.147 116.308 524.66 107.461 525.617 104.014C526.762 97.9813 531.65 93.6724 534.235 93.0979C536.82 92.5234 540.842 92.2361 548.311 95.1087C555.779 97.9813 558.077 101.141 559.226 108.897C560.146 115.102 556.162 122.398 554.056 125.271C551.47 128.335 545.725 134.693 543.427 135.612C540.555 136.761 534.522 137.336 530.788 137.623C527.053 137.91 526.766 133.889 524.755 124.122Z" fill="#EEA987"/>
<path d="M519.872 102.003C520.332 105.45 523.319 110.525 524.756 112.631C524.756 111.482 524.87 108.437 525.33 105.45C525.789 102.462 528.394 102.099 529.639 102.29C531.458 102.29 536.073 102.462 539.98 103.152C544.864 104.014 544.289 108.897 544.289 112.919C546.587 115.217 546.97 119.047 546.874 120.675H548.311C548.023 115.791 551.471 115.791 552.045 115.791C552.62 115.791 555.779 116.079 554.918 120.387C554.228 123.835 551.566 124.313 550.322 124.122L550.609 131.591C554.343 126.994 555.492 127.282 558.939 119.526C562.386 111.77 561.237 106.599 558.078 99.9921C554.918 93.3851 547.162 89.938 541.704 89.3635C536.271 88.7916 533.115 86.2274 528.553 82.5209L528.49 82.4692C523.606 87.0654 525.904 91.087 527.054 93.0978C528.203 95.1087 525.33 93.6724 524.181 93.0978C523.262 92.6382 520.925 90.9913 519.872 90.2252C519.681 90.5125 519.355 91.7764 519.585 94.5341C519.872 97.9812 523.032 98.843 522.457 100.567C521.998 101.945 520.542 100.567 519.872 99.7048C519.681 99.0345 519.413 98.5558 519.872 102.003Z" fill="black"/>
<path d="M518.436 288.721C517.746 276.312 518.723 266.124 519.298 262.581L540.842 268.039L548.885 314.862L544.864 333.534C545.342 334.874 546.472 339.968 547.162 349.62C548.024 361.685 545.151 385.241 543.715 389.837C542.566 393.514 541.321 408.604 540.842 415.69C538.64 416.073 533.316 416.494 529.639 415.116C528.203 412.53 523.319 388.4 523.032 379.208C522.745 370.016 521.596 343.875 522.17 337.556C522.745 331.236 519.298 304.233 518.436 288.721Z" fill="#422929"/>
<path d="M573.589 291.594C578.186 276.657 572.249 263.155 568.706 258.272L568.131 257.697C562.482 259.038 548.713 261.949 538.831 262.868C528.949 263.787 521.691 259.421 519.297 257.123C519.202 257.027 519.01 258.214 519.01 263.73C526.192 267.177 532.224 269.475 536.82 269.475C537.969 276.944 548.598 329.225 552.045 341.29C552.045 345.024 553.769 366.281 554.918 375.186C556.067 384.092 560.95 405.061 564.397 413.392C569.453 413.622 572.632 411.764 573.589 410.807C573.972 405.444 575.026 389.779 576.175 370.016C577.324 350.252 574.355 335.928 572.728 331.236C571.1 324.246 568.993 306.531 573.589 291.594Z" fill="#614040"/>
<path d="M601.453 216.045C604.441 206.163 600.209 195.075 597.719 190.766C591.687 191.245 579.564 193.811 579.334 200.246C579.047 208.289 582.781 214.321 585.08 217.194C581.058 220.928 568.993 259.134 567.844 262.006C566.925 264.305 563.248 266.411 561.524 267.177C559.418 268.805 555.434 272.118 556.354 272.348C557.503 272.635 557.503 271.773 559.513 271.486C561.524 271.199 559.801 272.348 558.939 273.497C558.25 274.416 558.652 275.22 558.939 275.508C560.184 276.274 563.65 278.38 567.557 280.678C569.855 278.15 571.77 270.05 572.44 266.315C580.866 253.676 598.466 225.927 601.453 216.045Z" fill="#EEA989"/>
<path d="M513.265 151.986L532.799 146.528C531.458 148.826 529.524 153.825 532.511 155.433C536.246 157.444 539.118 157.157 544.863 155.433C549.46 154.054 551.758 148.539 552.332 145.954C558.652 148.539 572.268 154.054 576.175 155.433C580.081 156.812 586.42 161.944 587.091 163.764C590.729 172.956 598.179 189.1 597.719 190.479C597.26 191.858 585.463 198.714 579.909 201.969C577.898 206.757 571.291 214.609 570.43 221.79C569.823 226.841 567.365 248.601 568.706 258.272C561.237 259.9 545.61 263.673 537.107 263.443C526.479 263.155 519.097 259.429 519.297 256.836C521.4 229.583 508.578 203.387 510.49 195.078C509.341 195.078 504.762 193.754 501.775 193.064C498.787 192.375 494.306 189.617 491.146 187.893C492.391 178.701 502.694 163.419 502.924 159.742C503.153 156.065 509.914 153.039 513.265 151.986Z" fill="#B6AA8c"/>
<path d="M487.124 213.459C486.894 209.553 489.71 194.788 491.146 187.893C493.532 189.554 505.414 194.69 510.68 195.075C508.669 202.831 506.083 209.725 499.476 221.503C499.764 230.982 491.72 262.293 490.571 266.89C491.146 270.049 489.997 278.093 489.997 280.391C489.997 282.689 489.135 281.827 488.561 280.391C488.101 279.242 487.986 275.316 487.986 273.497L486.263 276.944C486.55 277.997 486.952 280.621 486.263 282.689C485.573 284.757 484.826 283.934 484.539 283.263C484.156 280.965 483.332 276.082 483.103 274.933C482.873 273.784 485.688 268.134 487.124 265.453C486.55 250.324 485.745 218.745 487.124 213.459Z" fill="#EEA988"/>
<path d="M542.663 423.733L540.842 415.69C536.659 416.229 531.064 415.693 529.639 415.115C529.064 416.552 527.438 417.701 525.14 418.85C523.134 419.853 516.81 422.01 513.65 422.01C510.49 422.01 512.788 425.17 515.373 426.319C517.959 427.468 519.97 427.755 525.427 427.468C529.794 427.238 539.886 425.265 542.663 423.733Z" fill="black"/>
<path d="M577.708 421.435L573.589 410.807C571.181 412.432 567.269 413.966 564.397 413.105C563.822 414.541 562.484 415.403 560.186 416.552C558.179 417.555 551.855 419.712 548.695 419.712C545.535 419.712 547.833 422.872 550.419 424.021C553.004 425.17 555.015 425.457 560.473 425.17C564.839 424.94 574.932 422.967 577.708 421.435Z" fill="black"/>
<path d="M42.8567 128.469H56.0072C43.8403 128.469 44.241 138.987 43.8403 143.46C43.8403 233.883 43.5488 415.158 43.5488 416.957C43.5488 418.755 45.5281 422.721 51.1623 424.469C42.8815 424.469 42.8568 424.462 38.055 422.98L38.0118 422.967C33.1054 421.453 31.0236 416.205 31.0904 411.711C32.499 317.042 31.1633 142.411 31.1633 141.212C31.1633 139.713 30.1797 128.469 42.8567 128.469Z" fill="#414141"/>
<path d="M56.1629 129.22L153.46 132.195C153.908 132.195 155.876 132.345 160.17 132.946C164.465 133.546 165.539 138.202 165.539 140.455V413.116C165.539 417.922 162.407 420.125 160.841 420.625C126.734 424.343 57.4062 424.339 50.3161 424.338H50.1238C44.2188 424.338 42.2952 420.333 42.0716 418.331C42.2952 335.978 42.6084 166.617 42.0716 147.994C41.5347 129.37 49.0401 128.469 56.1629 129.22Z" fill="black" stroke="black"/>
<path d="M158.158 145.716C162.855 146.467 163.526 150.972 163.526 151.226V407.866C163.526 410.155 162.199 410.727 160.872 410.727C123.27 414.78 47.6688 413.825 46.0762 413.825C44.4837 413.825 44.0855 412.395 44.0855 411.679L44.7491 147.746C45.4126 143.455 48.0669 141.698 52.0482 142.024C88.8546 143.194 155.531 145.296 158.158 145.716Z" fill="#F6F6F6"/>
<path d="M62.0894 379.988C62.0894 373.394 67.4094 368.036 74.003 367.988L134.003 367.556C140.664 367.508 146.089 372.895 146.089 379.556V380.951C146.089 387.544 140.769 392.903 134.176 392.95L74.1757 393.382C67.5147 393.43 62.0894 388.044 62.0894 381.383V379.988Z" fill="#2291F2"/>
<path d="M76.8975 383.864L76.8582 378.264L77.8981 378.257L77.9374 383.857L76.8975 383.864Z" fill="white"/>
<path d="M81.7497 379.51C82.091 379.508 82.3955 379.572 82.6631 379.704C82.936 379.835 83.1508 380.039 83.3074 380.315C83.464 380.586 83.5438 380.937 83.5468 381.369L83.564 383.817L82.564 383.824L82.5477 381.504C82.5451 381.126 82.4524 380.844 82.2698 380.658C82.0925 380.473 81.8438 380.381 81.5238 380.384C81.2892 380.385 81.0815 380.435 80.9009 380.532C80.7202 380.629 80.5799 380.774 80.4799 380.967C80.3852 381.154 80.3389 381.392 80.3409 381.68L80.3561 383.84L79.3561 383.847L79.3261 379.575L80.2781 379.568L80.2862 380.72L80.1157 380.369C80.2631 380.096 80.4777 379.887 80.7593 379.741C81.0463 379.59 81.3764 379.513 81.7497 379.51Z" fill="white"/>
<path d="M85.8904 383.801L84.0284 379.542L85.0684 379.535L86.6708 383.292L86.1588 383.295L87.7643 379.516L88.7243 379.509L86.9223 383.794L85.8904 383.801Z" fill="white"/>
<path d="M89.3793 383.777L89.3493 379.505L90.3493 379.498L90.3792 383.77L89.3793 383.777ZM89.8484 378.797C89.6617 378.798 89.5066 378.741 89.3831 378.624C89.265 378.508 89.2053 378.367 89.2042 378.202C89.203 378.031 89.2606 377.889 89.3772 377.776C89.499 377.658 89.6533 377.598 89.8399 377.597C90.0266 377.596 90.179 377.651 90.2971 377.762C90.4205 377.868 90.4828 378.003 90.484 378.169C90.4852 378.345 90.4276 378.494 90.3111 378.618C90.1946 378.736 90.0403 378.796 89.8484 378.797Z" fill="white"/>
<path d="M93.3001 383.805C92.8307 383.808 92.4672 383.691 92.2096 383.453C91.9519 383.209 91.8213 382.85 91.818 382.375L91.7911 378.543L92.7911 378.536L92.8178 382.344C92.8192 382.547 92.871 382.704 92.9731 382.815C93.0806 382.927 93.2276 382.982 93.4143 382.98C93.6383 382.979 93.8245 382.919 93.973 382.8L94.258 383.51C94.1414 383.607 93.9979 383.68 93.8275 383.729C93.6572 383.779 93.4814 383.804 93.3001 383.805ZM91.0996 380.324L91.094 379.524L93.9419 379.504L93.9475 380.304L91.0996 380.324Z" fill="white"/>
<path d="M96.95 383.779C96.4753 383.783 96.0587 383.692 95.7 383.508C95.3467 383.319 95.0702 383.059 94.8706 382.73C94.6763 382.401 94.5776 382.025 94.5747 381.604C94.5717 381.177 94.6624 380.801 94.8467 380.474C95.0364 380.142 95.2959 379.882 95.6253 379.693C95.96 379.504 96.3406 379.408 96.7673 379.405C97.1833 379.402 97.5546 379.49 97.8812 379.669C98.2078 379.848 98.4656 380.102 98.6545 380.431C98.8435 380.761 98.9396 381.149 98.9427 381.597C98.943 381.64 98.9407 381.688 98.9357 381.741C98.9361 381.795 98.9338 381.845 98.9288 381.894L95.3689 381.918L95.3642 381.254L98.3962 381.233L98.0056 381.444C98.0092 381.199 97.9571 380.983 97.8491 380.797C97.7411 380.611 97.5934 380.466 97.406 380.36C97.2239 380.255 97.0129 380.203 96.7729 380.205C96.5276 380.206 96.3119 380.261 96.126 380.369C95.9455 380.477 95.8025 380.627 95.6972 380.82C95.5972 381.008 95.5481 381.229 95.5499 381.485L95.551 381.645C95.5528 381.901 95.613 382.127 95.7317 382.324C95.8505 382.52 96.0168 382.671 96.2309 382.776C96.445 382.882 96.6907 382.933 96.968 382.931C97.208 382.93 97.4238 382.891 97.6152 382.815C97.8067 382.739 97.9765 382.62 98.1247 382.459L98.6651 383.071C98.4746 383.297 98.2332 383.472 97.9407 383.596C97.6535 383.716 97.3233 383.777 96.95 383.779Z" fill="white"/>
<path d="M103.156 380.656L105.948 380.636L105.954 381.516L103.162 381.536L103.156 380.656ZM103.265 383.679L102.225 383.686L102.186 378.087L106.274 378.058L106.28 378.93L103.232 378.951L103.265 383.679Z" fill="white"/>
<path d="M107.144 383.652L107.114 379.38L108.066 379.373L108.075 380.549L107.96 380.206C108.086 379.917 108.285 379.697 108.556 379.546C108.832 379.395 109.175 379.318 109.586 379.315L109.593 380.267C109.55 380.256 109.51 380.251 109.473 380.252C109.435 380.246 109.398 380.244 109.361 380.244C108.982 380.247 108.681 380.361 108.459 380.587C108.237 380.807 108.127 381.136 108.13 381.573L108.144 383.645L107.144 383.652Z" fill="white"/>
<path d="M110.465 383.629L110.435 379.357L111.435 379.35L111.465 383.622L110.465 383.629ZM110.934 378.649C110.747 378.651 110.592 378.593 110.469 378.476C110.35 378.36 110.291 378.219 110.29 378.054C110.288 377.883 110.346 377.741 110.463 377.628C110.584 377.51 110.739 377.451 110.925 377.449C111.112 377.448 111.264 377.503 111.383 377.614C111.506 377.72 111.568 377.855 111.569 378.021C111.571 378.197 111.513 378.346 111.397 378.47C111.28 378.588 111.126 378.648 110.934 378.649Z" fill="white"/>
<path d="M114.785 383.654C114.311 383.658 113.894 383.567 113.536 383.383C113.182 383.194 112.906 382.934 112.706 382.605C112.512 382.276 112.413 381.9 112.41 381.479C112.407 381.052 112.498 380.676 112.682 380.349C112.872 380.017 113.131 379.756 113.461 379.568C113.795 379.378 114.176 379.282 114.603 379.279C115.019 379.277 115.39 379.365 115.717 379.544C116.043 379.723 116.301 379.977 116.49 380.306C116.679 380.636 116.775 381.024 116.778 381.472C116.779 381.515 116.776 381.563 116.771 381.616C116.772 381.67 116.769 381.72 116.764 381.768L113.204 381.793L113.2 381.129L116.232 381.108L115.841 381.319C115.845 381.073 115.793 380.858 115.685 380.672C115.577 380.486 115.429 380.34 115.242 380.235C115.059 380.13 114.848 380.078 114.608 380.079C114.363 380.081 114.147 380.136 113.962 380.244C113.781 380.352 113.638 380.502 113.533 380.695C113.433 380.882 113.384 381.104 113.385 381.36L113.386 381.52C113.388 381.776 113.449 382.002 113.567 382.199C113.686 382.395 113.852 382.546 114.066 382.651C114.28 382.757 114.526 382.808 114.804 382.806C115.044 382.804 115.259 382.766 115.451 382.69C115.642 382.614 115.812 382.495 115.96 382.334L116.501 382.946C116.31 383.172 116.069 383.347 115.776 383.471C115.489 383.591 115.159 383.652 114.785 383.654Z" fill="white"/>
<path d="M120.147 379.241C120.489 379.238 120.793 379.303 121.061 379.434C121.334 379.566 121.548 379.769 121.705 380.046C121.861 380.317 121.941 380.668 121.944 381.1L121.961 383.548L120.961 383.555L120.945 381.235C120.943 380.856 120.85 380.574 120.667 380.389C120.49 380.204 120.241 380.112 119.921 380.114C119.687 380.116 119.479 380.165 119.298 380.263C119.118 380.36 118.977 380.505 118.877 380.698C118.783 380.885 118.736 381.123 118.738 381.411L118.754 383.57L117.754 383.577L117.724 379.306L118.676 379.299L118.684 380.451L118.513 380.1C118.661 379.827 118.875 379.618 119.157 379.472C119.444 379.32 119.774 379.243 120.147 379.241Z" fill="white"/>
<path d="M125.046 383.582C124.636 383.585 124.264 383.497 123.932 383.318C123.606 383.134 123.348 382.88 123.159 382.556C122.97 382.232 122.874 381.848 122.871 381.406C122.868 380.963 122.958 380.578 123.143 380.252C123.327 379.925 123.581 379.67 123.905 379.486C124.235 379.303 124.605 379.209 125.015 379.206C125.373 379.204 125.693 379.282 125.977 379.44C126.261 379.592 126.487 379.828 126.654 380.147C126.822 380.466 126.907 380.876 126.911 381.377C126.914 381.873 126.837 382.284 126.679 382.611C126.522 382.932 126.302 383.174 126.02 383.335C125.739 383.497 125.414 383.58 125.046 383.582ZM125.16 382.726C125.4 382.724 125.613 382.669 125.799 382.561C125.99 382.453 126.141 382.297 126.252 382.094C126.368 381.89 126.425 381.653 126.423 381.381C126.421 381.103 126.36 380.866 126.242 380.67C126.128 380.468 125.975 380.314 125.783 380.209C125.595 380.104 125.381 380.052 125.141 380.054C124.901 380.055 124.686 380.11 124.495 380.218C124.309 380.326 124.158 380.482 124.042 380.685C123.931 380.883 123.877 381.121 123.879 381.398C123.881 381.67 123.938 381.907 124.052 382.109C124.171 382.311 124.324 382.465 124.511 382.57C124.704 382.675 124.92 382.727 125.16 382.726ZM126.462 383.516L126.455 382.508L126.487 381.372L126.399 380.237L126.38 377.581L127.372 377.574L127.414 383.51L126.462 383.516Z" fill="white"/>
<path d="M130.05 383.547C129.693 383.55 129.349 383.507 129.017 383.418C128.691 383.325 128.432 383.212 128.239 383.08L128.618 382.317C128.81 382.439 129.04 382.538 129.308 382.616C129.575 382.695 129.842 382.733 130.109 382.731C130.423 382.729 130.65 382.684 130.788 382.598C130.931 382.512 131.002 382.397 131.001 382.253C131 382.135 130.952 382.048 130.855 381.99C130.759 381.926 130.633 381.879 130.478 381.848C130.323 381.817 130.15 381.789 129.958 381.764C129.771 381.738 129.581 381.705 129.389 381.664C129.202 381.617 129.031 381.552 128.876 381.467C128.72 381.378 128.594 381.259 128.497 381.11C128.4 380.961 128.351 380.764 128.349 380.519C128.347 380.247 128.423 380.012 128.576 379.813C128.729 379.61 128.944 379.454 129.221 379.345C129.503 379.231 129.836 379.173 130.22 379.17C130.508 379.168 130.798 379.198 131.092 379.26C131.386 379.322 131.629 379.411 131.822 379.527L131.443 380.289C131.24 380.168 131.034 380.087 130.826 380.046C130.623 379.999 130.42 379.977 130.217 379.978C129.913 379.98 129.687 380.027 129.538 380.119C129.395 380.21 129.324 380.326 129.325 380.464C129.325 380.592 129.374 380.688 129.471 380.751C129.567 380.815 129.693 380.864 129.848 380.901C130.003 380.937 130.173 380.968 130.36 380.993C130.552 381.013 130.742 381.046 130.929 381.093C131.116 381.14 131.287 381.205 131.442 381.289C131.603 381.368 131.732 381.482 131.829 381.631C131.926 381.779 131.975 381.974 131.977 382.214C131.979 382.48 131.9 382.713 131.742 382.911C131.589 383.11 131.368 383.266 131.081 383.38C130.794 383.489 130.45 383.544 130.05 383.547Z" fill="white"/>
<rect x="50.0894" y="180.469" width="108" height="169" rx="12" fill="#CBCBCd"/>
<path d="M102.503 177.172C96.8175 175.987 94.2116 172.138 93.6193 170.361C89.7696 171.447 89.1773 171.841 83.2548 176.283C78.3381 179.971 77.2824 184.074 76.8875 186.048C76.4927 188.022 75.0944 197.193 74.6206 202.168C78.1259 201.642 82.7612 202.286 86.8084 204.712C90.1116 206.692 90.7172 207.437 92.1386 211.227C93.9154 215.965 95.9885 227.218 95.9885 231.66C97.8837 232.608 100.035 233.437 104.28 233.733C107.834 233.733 112.394 234.503 117.606 232.845C117.014 225.145 117.902 220.703 119.679 212.708C124.241 211.227 125.752 209.221 128.271 205.443C129.455 205.147 132.709 204.416 132.709 204.416C133.4 204.219 133.952 204.416 136.558 203.231C139.164 202.047 140.013 201.751 140.704 200.566C140.606 199.283 139.697 192.985 139.224 189.906C138.631 186.056 137.418 184.215 135.078 181.318C133.17 178.956 129.155 176.283 129.155 176.283C129.155 176.283 120.508 170.835 119.087 170.361C118.791 170.953 115.237 174.803 114.052 175.691C112.868 176.58 109.61 178.653 102.503 177.172Z" fill="#D77273"/>
<path d="M124.737 178.469H116.29C114.7 178.469 113.64 180.77 113.308 181.92C112.776 188.469 112.737 201.477 112.34 203.778C111.942 206.079 113.499 207.037 114.327 207.229C115.652 207.421 118.776 207.379 121.284 207.379C123.713 207.379 124.928 206.421 125.259 205.654C126.276 197.969 127.222 184.469 127.222 181.345C127.222 179.01 125.731 178.469 124.737 178.469Z" fill="#484D4C"/>
<path d="M88.9313 216.961C84.9895 219.679 89.6018 206.908 87.2758 204.969C84.2764 202.469 78.2761 201.469 74.7765 201.969C75.2765 205.469 82.3368 235.558 86.8229 230.469C90.6076 226.176 105.638 214.15 107.719 211.871C109.383 210.048 112.97 206.599 113.583 204.261C114.546 202.21 114.765 202.318 117.776 201.311C119.151 200.852 120.563 201.6 122.276 201.311C123.962 201.027 125.424 196.563 125.776 194.969C126.295 192.62 123.012 191.87 119.104 191.412C116.478 191.104 112.642 190.552 112.079 193.962C111.741 195.643 110.393 199.992 108.986 201.311C100.334 209.424 92.8732 214.244 88.9313 216.961Z" fill="#F5A987"/>
<path d="M148.276 205.469C147.096 211.417 143.776 201.469 140.776 200.469C135.776 202.469 133.276 203.969 128.276 205.469C131.013 207.952 155.682 229.394 155.682 220.944C155.682 213.815 159.064 189.734 159.119 185.884C159.162 182.804 159.579 176.57 158.474 174.031C157.829 171.411 158.834 170.776 159.192 166.796C159.435 164.09 161.001 164.3 162.115 162.467C163.21 160.662 163.639 158.348 162.835 156.68C161.651 154.22 157.334 154.845 154.043 158.087C151.831 160.266 148.532 163.363 150.396 166.757C151.269 168.486 153.167 173.399 152.981 175.816C151.835 190.679 149.456 199.521 148.276 205.469Z" fill="#F5A987"/>
<path d="M155.898 171.579L149.627 156.154L147.276 149.983L157.074 149.469C158.119 151.355 160.679 156.051 162.561 159.753C164.912 164.381 167.264 170.037 162.561 174.15C158.798 177.441 156.551 173.807 155.898 171.579Z" fill="#B4B6C0"/>
<path d="M156.276 156.469C157.264 155.728 159.276 154.577 159.276 154.577C160.276 154.377 160.829 154.407 161.276 155.077C162.276 156.577 162.976 158.977 163.776 160.577C164.576 162.177 164.109 162.911 163.776 163.077L159.776 165.077C158.976 165.477 157.403 165.586 156.776 164.577C155.776 162.969 155.276 162.469 155.276 160.469C155.276 158.469 154.879 157.517 156.276 156.469Z" fill="#F5A987"/>
<path d="M163.276 151.969L139.776 154.469C136.443 154.636 130.276 151.969 130.276 143.969C130.276 135.16 136.776 132.636 139.776 132.469C145.109 131.803 156.976 130.269 161.776 129.469C166.576 128.669 176.776 119.303 179.776 116.469C181.276 114.969 178.976 133.369 179.776 138.969C180.576 144.569 186.776 160.469 184.276 159.969C182.276 158.469 179.629 157.359 175.776 154.469C171.776 151.469 166.276 151.636 163.276 151.969Z" fill="#DADCE8"/>
<ellipse cx="182.562" cy="137.888" rx="6" ry="22" transform="rotate(-4.70952 182.562 137.888)" fill="#B4B6C0"/>
<path d="M177.089 140.969C176.689 138.569 176.589 134.969 176.589 133.469C176.561 131.769 181.089 132.969 181.089 137.469C181.089 141.469 177.589 143.969 177.089 140.969Z" fill="#94959C"/>
<path d="M99.8374 168.288L93.6187 170.361C94.5663 172.73 96.7774 174.704 97.7645 175.395C99.3439 176.58 103.464 178.268 109.018 177.764C113.915 177.32 117.862 172.687 119.086 170.361L114.644 168.288V162.958L100.134 157.035L99.8374 168.288Z" fill="#F7A17A"/>
<path d="M108.129 161.773C103.391 160.351 97.4687 155.061 95.0997 152.593C91.25 148.583 90.6577 144.624 90.6577 138.082C90.6577 129.198 91.8258 126.253 94.5074 123.572C98.9494 119.13 102.799 118.834 103.984 118.834C107.537 118.833 119.986 119.893 122.344 128.014C125.009 137.194 124.627 140.452 124.121 143.709C123.43 148.151 121.159 157.982 118.79 160.588C115.829 163.846 114.052 163.55 108.129 161.773Z" fill="#F5A987"/>
<path d="M125.602 140.748C124.891 145.96 123.529 148.842 122.936 149.632C123.529 146.078 123.825 145.19 123.529 137.786C123.292 131.864 119.482 130.383 117.606 130.383H110.499C108.722 130.383 105.169 132.456 104.872 135.121C104.635 137.253 103.194 142.327 102.503 144.597C101.121 143.117 97.9429 141.044 96.2846 144.597C94.6262 148.151 97.9627 149.829 99.8382 150.224V157.035C93.0271 154.074 91.2503 148.743 90.0658 146.078C88.8813 143.413 88.289 137.786 88.8813 131.568C89.4735 125.349 92.731 122.98 93.9155 121.203C92.731 120.907 91.8426 117.353 91.8426 114.984C91.8426 113.089 92.6323 112.023 93.0271 111.727C94.7052 110.641 99.009 108.469 102.799 108.469C107.538 108.469 107.834 113.8 107.834 116.761C111.98 117.057 119.087 121.203 121.752 123.572C124.417 125.941 126.49 134.233 125.602 140.748Z" fill="#342D26"/>
<path d="M110.795 349.555C108.9 346.712 107.834 302.436 106.649 294.736C105.464 282.891 104.043 283.009 106.649 270.453C116.125 261.273 117.705 244.986 119.679 241.432C120.074 247.158 127.674 287.333 128.859 300.363C130.339 316.65 127.089 343.969 126.009 349.482C112.589 349.555 123.589 349.482 110.795 349.555Z" fill="#16232b"/>
<path d="M80.2932 254.462C82.4254 240.248 94.5075 237.879 96.2844 231.66C104.216 233.767 109.43 234.503 117.606 232.845C119.876 238.372 122.684 247.948 117.606 257.127C109.906 271.046 114.348 262.754 107.537 272.526C109.314 287.925 103.366 344.731 101.589 349.469H89.0894C87.9048 346.39 88.8811 328.1 88.8811 325.238C88.7824 311.517 86.512 297.562 86.512 290.59C86.512 269.565 77.628 272.23 80.2932 254.462Z" fill="#1F2C35"/>
<path d="M196.089 132.969L227.589 121.469M196.089 144.469L213.089 148.469" stroke="white" stroke-width="2"/>
<path d="M474.575 152.037L469.295 166.277L471.842 167.221C473.266 167.749 474.828 167.032 475.35 165.624L478.735 156.494C479.257 155.086 478.53 153.503 477.122 152.981L474.575 152.037ZM457.642 143.059L465.204 145.863L467.257 140.325C467.903 138.584 469.854 137.688 471.579 138.327L471.721 138.38C472.354 138.615 472.783 139.206 472.819 139.885L473.389 151.597L468.109 165.837L453.555 160.441C452.4 160.013 451.724 158.826 451.941 157.611L454.253 144.97C454.539 143.42 456.139 142.502 457.626 143.053L457.642 143.059Z" fill="#74B4Fe"/>
<defs>
<clipPath id="clip0_482_5442">
<rect width="26" height="26" fill="white" transform="translate(256.089 128.424) rotate(-10.9855)"/>
</clipPath>
</defs>
</svg>
