<svg width="497" height="529" viewBox="0 0 497 529" fill="none" xmlns="http://www.w3.org/2000/svg">
<path d="M496.779 340C496.779 514.361 436.806 484.5 231.5 484.5C176 484.5 38.4687 542.092 13.279 392C-15 223.5 -11.0272 17.5 194.279 17.5C399.585 17.5 496.779 165.639 496.779 340Z" fill="#2291F2"/>
<ellipse cx="136.279" cy="440.5" rx="67.5" ry="24.5" fill="#22A2F2"/>
<ellipse cx="331.251" cy="431.728" rx="126.447" ry="24.8621" transform="rotate(4.47812 331.251 431.728)" fill="#22A2F2"/>
<g clip-path="url(#clip0_461_3812)">
<path d="M438.106 256.231C445.13 258.463 452.513 254.959 454.596 248.403C456.68 241.848 452.675 234.724 445.651 232.492C438.627 230.259 431.245 233.764 429.161 240.32C427.078 246.875 431.083 253.999 438.106 256.231Z" fill="white"/>
<path d="M454.707 281.109L453.764 284.077C453.013 286.438 451.289 288.383 448.97 289.484C446.65 290.585 443.926 290.752 441.396 289.948L415.961 281.864C413.432 281.06 411.304 279.351 410.046 277.113C408.788 274.875 408.502 272.291 409.253 269.93L410.196 266.963C411.446 263.028 414.321 259.786 418.186 257.951C422.052 256.116 426.592 255.838 430.808 257.178L443.526 261.22C447.742 262.56 451.288 265.408 453.385 269.138C455.482 272.868 455.958 277.174 454.707 281.109Z" fill="white"/>
</g>
<path d="M69.4056 51.0477C69.4056 48.82 71.2255 47.0216 73.453 47.048L192.047 48.4531C194.238 48.4791 196 50.2622 196 52.4529V77.4682C196 79.6897 194.19 81.4857 191.968 81.4681L73.374 80.5313C71.1773 80.514 69.4056 78.7283 69.4056 76.5314V51.0477Z" fill="white"/>
<path d="M78.6768 55.506L154.817 56" stroke="#626161" stroke-linecap="round"/>
<path d="M78.5651 64.216L114.576 64.216" stroke="#626161" stroke-linecap="round"/>
<path d="M78.6695 72.5L180.199 73" stroke="#626161" stroke-linecap="round"/>
<path d="M31 49.9944C31 48.8898 31.8954 47.9944 33 47.9944L58.8706 47.9944C59.9751 47.9944 60.8706 48.8898 60.8706 49.9944V78.8124C60.8706 79.9169 59.9751 80.8124 58.8706 80.8124H33C31.8954 80.8124 31 79.9169 31 78.8124V49.9944Z" fill="#41Bb46"/>
<path d="M36.6895 61.4909L44.5128 72.7617L55.1808 52.6353" stroke="white" stroke-width="2" stroke-linecap="round"/>
<path d="M402.146 49H383.251C400.733 49 400.157 62.9228 400.733 68.8441C400.733 188.54 401.152 428.501 401.152 430.882C401.152 433.263 398.308 438.512 390.213 440.827C402.111 440.827 402.146 440.817 409.046 438.855L409.108 438.838C416.157 436.834 419.149 429.887 419.053 423.938C417.029 298.621 418.948 67.4554 418.948 65.8683C418.948 63.8844 420.361 49 402.146 49Z" fill="#414141"/>
<path d="M383.081 49.9945L258.495 60.9338C257.922 60.9338 255.402 61.1327 249.903 61.9283C244.404 62.7239 243.029 68.8897 243.029 71.8731V415.965C243.029 422.329 247.039 425.246 249.043 425.909C293.15 430.882 383.253 440.827 390.814 440.827C398.375 440.827 400.838 435.523 401.124 432.871C400.838 323.809 400.437 99.5198 401.124 74.8566C401.812 50.1934 392.201 49 383.081 49.9945Z" fill="black" stroke="black"/>
<path d="M252.48 77.84C246.465 78.8344 245.606 84.8013 245.606 85.1376V407.012C245.606 410.043 247.305 410.801 249.005 410.801C297.153 416.168 393.958 426.904 395.997 426.904C398.037 426.904 398.546 425.009 398.546 424.062L397.697 74.529C396.847 68.8455 393.448 66.5194 388.35 66.951C343.601 70.74 255.844 77.2836 252.48 77.84Z" fill="#F6F6F6"/>
<ellipse cx="321.593" cy="144.47" rx="42.7628" ry="51.7132" fill="white"/>
<path d="M315.338 153.315V163.587L314.125 163.88C313.72 165.25 312.863 168.283 312.669 169.457C312.426 170.924 313.154 174.153 316.309 174.446C319.464 174.74 322.134 174.74 325.774 172.392C328.687 170.513 330.224 165.739 330.628 163.587H329.415L329.172 145.39L315.338 153.315Z" fill="#F5B698"/>
<path d="M307.329 141.281C305.97 133.298 307.248 124.258 308.057 120.736C309.024 114.573 313.154 110.171 315.338 109.584C317.522 108.997 320.92 108.703 327.23 111.638C333.54 114.573 335.482 117.802 336.453 125.726C337.229 132.065 333.864 139.52 332.084 142.455C329.9 145.586 325.046 152.082 323.104 153.021C320.677 154.195 315.581 154.782 312.425 155.076C309.27 155.369 309.028 151.26 307.329 141.281Z" fill="#FABFA4"/>
<path d="M303.203 118.682C303.591 122.204 306.115 127.389 307.329 129.541C307.329 128.368 307.426 125.256 307.814 122.204C308.202 119.152 310.403 118.78 311.454 118.976C312.991 118.976 316.891 119.152 320.192 119.856C324.317 120.737 323.832 125.726 323.832 129.835C325.774 132.183 326.097 136.096 326.016 137.759H327.23C326.987 132.77 329.899 132.77 330.385 132.77C330.87 132.77 333.54 133.063 332.812 137.466C332.229 140.988 329.98 141.477 328.929 141.281L329.171 148.912C332.326 144.216 333.297 144.51 336.21 136.585C339.122 128.661 338.151 123.378 335.482 116.628C332.812 109.877 326.259 106.355 321.648 105.768C317.058 105.184 314.391 102.564 310.537 98.7771L310.484 98.7244C306.358 103.42 308.299 107.529 309.27 109.584C310.241 111.638 307.814 110.171 306.843 109.584C306.066 109.114 304.093 107.431 303.203 106.649C303.041 106.942 302.766 108.234 302.96 111.051C303.203 114.573 305.872 115.454 305.387 117.215C304.999 118.623 303.769 117.215 303.203 116.334C303.041 115.649 302.814 115.16 303.203 118.682Z" fill="#C3986E"/>
<path d="M297.621 169.75L314.124 164.174C312.992 166.522 311.357 171.629 313.881 173.272C317.037 175.327 319.464 175.033 324.318 173.272C328.201 171.864 330.142 166.228 330.628 163.587C335.967 166.228 352.009 174.885 355.309 176.294C349.553 186.239 336.396 197.178 319.947 196.184C305.146 195.189 295.278 187.233 288.883 177.675C286.926 174.748 294.789 170.826 297.621 169.75Z" fill="#5E5D91"/>
<path d="M285.981 225.925C285.981 223.761 287.701 221.99 289.864 221.927L384.107 219.177C386.361 219.111 388.224 220.92 388.224 223.175V251.853C388.224 254.062 386.433 255.853 384.224 255.853H289.981C287.772 255.853 285.981 254.062 285.981 251.853V225.925Z" fill="white"/>
<line x1="327.5" y1="229.5" x2="379.768" y2="229.496" stroke="#626161" stroke-linecap="round"/>
<line x1="293.363" y1="239.241" x2="379.758" y2="237.462" stroke="#626161" stroke-linecap="round"/>
<line x1="293.374" y1="247.302" x2="333.73" y2="247.302" stroke="#626161" stroke-linecap="round"/>
<path d="M254.963 224.954C254.963 223.881 255.809 223 256.88 222.955L277.005 222.126C278.141 222.079 279.087 222.987 279.087 224.124V253.852C279.087 254.957 278.192 255.852 277.087 255.852H256.963C255.858 255.852 254.963 254.957 254.963 253.852V224.954Z" fill="#41BE46"/>
<path d="M259.558 236.531L265.876 247.802L274.492 227.676" stroke="white" stroke-width="2" stroke-linecap="round"/>
<path d="M285.981 278.748C285.981 276.539 287.772 274.748 289.981 274.748H384.224C386.433 274.748 388.224 276.539 388.224 278.748V310.368C388.224 312.639 386.337 314.454 384.069 314.365L289.825 310.699C287.678 310.615 285.981 308.85 285.981 306.702V278.748Z" fill="white"/>
<line x1="293.37" y1="283.904" x2="377.775" y2="283.202" stroke="#626161" stroke-linecap="round"/>
<line x1="293.38" y1="291.966" x2="379.775" y2="293.136" stroke="#626161" stroke-linecap="round"/>
<line x1="293.387" y1="300.023" x2="334.035" y2="301.086" stroke="#626161" stroke-linecap="round"/>
<path d="M254.963 277.662C254.963 276.589 255.809 275.707 256.881 275.663L277.005 274.834C278.141 274.787 279.088 275.695 279.088 276.832V307.367C279.088 308.5 278.147 309.407 277.015 309.365L256.89 308.631C255.814 308.591 254.963 307.708 254.963 306.632V277.662Z" fill="#41BE46"/>
<path d="M259.558 289.239L265.876 300.51L274.492 280.383" stroke="white" stroke-width="2" stroke-linecap="round"/>
<path d="M283.992 333.563C283.992 331.308 285.854 329.499 288.108 329.564L382.351 332.314C384.514 332.378 386.235 334.149 386.235 336.313V368.878C386.235 371.21 384.249 373.047 381.924 372.866L287.681 365.533C285.599 365.371 283.992 363.634 283.992 361.545V333.563Z" fill="white"/>
<line x1="291.282" y1="337.913" x2="373.819" y2="340.861" stroke="#626161" stroke-linecap="round"/>
<line x1="291.401" y1="346.673" x2="355.917" y2="348.818" stroke="#626161" stroke-linecap="round"/>
<line x1="291.43" y1="354.756" x2="312.193" y2="356.745" stroke="#626161" stroke-linecap="round"/>
<path d="M252.974 332.439C252.974 331.334 253.869 330.439 254.974 330.439H275.098C276.203 330.439 277.098 331.334 277.098 332.439V362.063C277.098 363.196 276.158 364.103 275.025 364.062L254.901 363.327C253.825 363.288 252.974 362.405 252.974 361.328V332.439Z" fill="#41BE46"/>
<path d="M257.569 343.935L263.887 355.206L272.503 335.08" stroke="white" stroke-width="2" stroke-linecap="round"/>
<path d="M150.72 143.37V153.642L152.188 153.936C152.677 155.305 153.714 158.338 153.949 159.512C154.242 160.979 153.362 164.208 149.546 164.501C145.731 164.795 142.502 164.795 138.1 162.447C134.578 160.569 132.719 155.794 132.23 153.642H133.697L133.991 135.445L150.72 143.37Z" fill="#F5B698"/>
<path d="M160.406 131.336C162.049 123.353 160.504 114.314 159.525 110.792C158.355 104.628 153.362 100.226 150.72 99.6388C148.079 99.0518 143.97 98.7583 136.339 101.693C128.708 104.628 126.36 107.857 125.186 115.781C124.247 122.121 128.317 129.575 130.469 132.51C133.111 135.641 138.98 142.137 141.328 143.076C144.263 144.25 150.427 144.837 154.242 145.131C158.058 145.424 158.351 141.315 160.406 131.336Z" fill="#FABFA4"/>
<path d="M165.395 108.737C164.926 112.259 161.873 117.444 160.406 119.596C160.406 118.422 160.288 115.311 159.819 112.259C159.349 109.207 156.688 108.835 155.416 109.031C153.558 109.031 148.842 109.207 144.851 109.911C139.861 110.792 140.448 115.781 140.448 119.89C138.1 122.238 137.709 126.151 137.807 127.814H136.339C136.633 122.825 133.111 122.825 132.524 122.825C131.937 122.825 128.708 123.118 129.589 127.521C130.293 131.043 133.013 131.532 134.285 131.336L133.991 138.967C130.176 134.271 129.002 134.565 125.48 126.64C121.958 118.716 123.132 113.433 126.36 106.683C129.589 99.9322 137.513 96.4102 143.09 95.8232C148.64 95.2389 151.865 92.6191 156.525 88.832L156.59 88.7793C161.58 93.4752 159.232 97.5842 158.058 99.6387C156.884 101.693 159.819 100.226 160.993 99.6387C161.932 99.1691 164.319 97.4864 165.395 96.7037C165.591 96.9972 165.924 98.2886 165.689 101.106C165.395 104.628 162.167 105.509 162.754 107.27C163.223 108.678 164.71 107.27 165.395 106.389C165.591 105.704 165.865 105.215 165.395 108.737Z" fill="#C3986E"/>
<path d="M166.863 299.51C167.567 286.831 166.569 276.421 165.982 272.802L143.97 278.378L135.752 326.218L139.861 345.295C139.372 346.665 138.217 351.869 137.513 361.731C136.632 374.058 139.567 398.124 141.035 402.82C142.209 406.577 143.481 421.996 143.97 429.235C146.22 429.626 151.659 430.057 155.416 428.648C156.884 426.007 161.873 401.353 162.167 391.961C162.46 382.569 163.634 355.861 163.047 349.404C162.46 342.947 165.982 315.358 166.863 299.51Z" fill="#0E274D"/>
<path d="M110.511 302.445C105.815 287.183 111.881 273.388 115.501 268.399L116.088 267.812C121.86 269.182 135.928 272.156 146.024 273.095C156.121 274.034 163.536 269.573 165.982 267.225C166.08 267.127 166.276 268.34 166.276 273.975C158.938 277.497 152.775 279.845 148.079 279.845C146.905 287.476 136.045 340.893 132.523 353.219C132.523 357.035 130.762 378.754 129.588 387.852C128.414 396.95 123.425 418.376 119.903 426.887C114.738 427.122 111.49 425.224 110.511 424.246C110.12 418.767 109.044 402.762 107.87 382.569C106.696 362.377 109.729 347.741 111.392 342.947C113.055 335.805 115.207 317.706 110.511 302.445Z" fill="#11345E"/>
<path d="M172.145 159.806L152.187 154.229C153.557 156.577 155.533 161.684 152.481 163.327C148.665 165.382 145.731 165.088 139.861 163.327C135.165 161.919 132.817 156.284 132.23 153.642C125.773 156.284 111.861 161.919 107.869 163.327C103.878 164.736 97.4014 169.98 96.7166 171.839C92.999 181.231 85.3877 197.725 85.8573 199.134C86.3268 200.543 98.3798 207.548 104.054 210.874C106.108 215.765 112.859 223.788 113.739 231.125C114.359 236.286 116.87 258.518 115.5 268.399C123.131 270.062 139.098 273.917 147.785 273.682C158.644 273.389 166.186 269.582 165.982 266.932C163.833 239.088 176.934 212.323 174.98 203.833C176.154 203.833 180.833 202.48 183.885 201.776C186.937 201.071 191.516 198.254 194.744 196.493C193.473 187.101 182.946 171.487 182.711 167.73C182.476 163.973 175.569 160.882 172.145 159.806Z" fill="#E35858"/>
<path d="M97.3188 235.106C86.8817 233.584 80.6545 210.106 85.6268 199.167C91.5938 197.178 100.873 205.627 104.522 211.101C108.5 217.068 105.845 216.982 107.506 220.354C112.704 218.253 151.258 223.766 154.414 223.949C156.939 224.095 160.482 221.607 161.938 220.345C164.358 219.102 166.379 215.337 168.169 217.068C169.039 217.909 167.935 218.618 166.797 220.354C165.659 222.089 167.455 220.914 168.906 220.694C171.153 220.354 172.006 222.644 172.147 223.035C172.316 224.518 172.943 231.432 171.812 231.781C168.477 232.811 160.152 231.069 156.407 230.069C141.06 232.382 107.756 236.628 97.3188 235.106Z" fill="#FABFA4"/>
<path d="M198.854 222.614C199.088 218.622 196.212 203.536 194.745 196.492C192.307 198.189 180.166 203.437 174.787 203.83C176.841 211.754 179.483 218.798 186.233 230.832C185.94 240.517 194.158 272.508 195.332 277.204C194.745 280.432 195.919 288.65 195.919 290.998C195.919 293.346 196.799 292.466 197.386 290.998C197.856 289.824 197.973 285.813 197.973 283.954L199.734 287.476C199.441 288.552 199.03 291.233 199.734 293.346C200.438 295.459 201.201 294.618 201.495 293.933C201.886 291.585 202.728 286.596 202.963 285.422C203.197 284.248 200.321 278.476 198.854 275.736C199.441 260.279 200.262 228.014 198.854 222.614Z" fill="#FABFA4"/>
<path d="M142.109 437.453L143.97 429.235C148.243 429.786 153.96 429.238 155.416 428.648C156.003 430.116 157.664 431.29 160.012 432.464C162.062 433.489 168.524 435.692 171.752 435.692C174.981 435.692 172.633 438.921 169.991 440.095C167.35 441.269 165.295 441.562 159.719 441.269C155.258 441.034 144.946 439.018 142.109 437.453Z" fill="black"/>
<path d="M106.303 431.876L110.512 424.246C112.973 425.907 116.969 427.474 119.904 426.594C120.491 428.061 119.799 429.329 120.435 431.876C121.428 435.854 122.423 438.838 120.434 440.827H116.456C113.566 440.827 111.879 441.12 106.303 440.827C101.842 440.592 106.303 434.518 106.303 431.876Z" fill="black"/>
<g clip-path="url(#clip1_461_3812)">
<path d="M357.779 0L285.779 6.02564V49L357.779 43V0Z" fill="#FFC736"/>
<path d="M285.779 10.0513L318.279 35.5001L359.02 3.76929" stroke="white" stroke-width="2" stroke-linecap="square"/>
<path d="M284.779 48.5L308.779 28.5M358.279 42L334.279 24.5" stroke="white" stroke-width="2" stroke-linecap="square"/>
</g>
<defs>
<clipPath id="clip0_461_3812">
<rect width="56.0461" height="56.0461" fill="white" transform="translate(418.933 224) rotate(17.631)"/>
</clipPath>
<clipPath id="clip1_461_3812">
<rect width="72" height="49" fill="white" transform="translate(285.779)"/>
</clipPath>
</defs>
</svg>
