<svg width="800" height="400" xmlns="http://www.w3.org/2000/svg">
  <g>
    <title>Layer 1</title>
    <g id="svg_23">
      <g>
        <path fill="white" d="m331.3428,204.71256c-2.33391,0 -4.57222,0.92714 -6.22254,2.57746c-1.65032,1.65032 -2.57746,3.88863 -2.57746,6.22254l0,35.2l44,0l0,-44l-35.2,0zm24.2,33l-22,0l0,-22l22,0l0,22z" id="svg_1"/>
      </g>
      <g>
        <path fill="white" d="m410.93568,214.8151l0,10.5l11.5,0l0,-21l-46,0l0,21l11.5,0l0,-10.5l23,0z" id="svg_3"/>
      </g>
      <g>
        <path fill="white" d="m468.86487,204.07339l-35.2,0l0,44l44,0l0,-35.2c0,-2.33391 -0.9271,-4.57222 -2.5775,-6.22254c-1.6503,-1.65032 -3.8886,-2.57746 -6.2225,-2.57746zm-2.2,33l-22,0l0,-22l22,0l0,22z" id="svg_4"/>
      </g>
      <g>
        <path fill="white" d="m410.72527,237.22724l0,-11.5l-21,0l0,23l10.5,0l0,-11.5l10.5,0z" id="svg_5"/>
      </g>
      <g>
        <path fill="white" d="m466.84912,293.41225l10,0l0,11l-10,0l0,-11z" id="svg_7"/>
      </g>
      <g>
        <path fill="white" d="m377.54704,260.06608l23,0l0,10l-23,0l0,-10z" id="svg_8"/>
      </g>
      <g>
        <path fill="white" d="m411.55126,271.11464l11,0l0,11.25l11,0l0,-11.25l11,0l0,-11.25l-22,0l0,-22.5l-11,0l0,11.25l-11,0l0,11.25l11,0l0,11.25z" id="svg_9"/>
      </g>
      <g>
        <path fill="white" d="m466.12809,259.28712l-11,0l0,11.3333l-11,0l0,11.3334l11,0l0,11.3333l11,0l0,-11.3333l11,0l0,-11.3334l-11,0l0,-11.3333z" id="svg_10"/>
      </g>
      <g>
        <path fill="white" d="m422.76242,293.67549l0,-11.3334l-11.3333,0l0,-11.3333l-11.3334,0l0,11.3333l-11.3333,0l0,11.3334l11.3333,0l0,11.3333l11.3334,0l0,-11.3333l11.3333,0z" id="svg_11"/>
      </g>
      <g>
        <path fill="white" d="m322.76362,352.40399c0,2.3339 0.92714,4.5722 2.57746,6.2225c1.65032,1.6504 3.88863,2.5775 6.22254,2.5775l35.2,0l0,-44l-44,0l0,35.2zm11,-24.2l22,0l0,22l-22,0l0,-22z" id="svg_12"/>
      </g>
      <g>
        <path fill="white" d="m376.78389,337.90254l11.5,0l0,-11l11.5,0l0,-11l-11.5,0l0,-22l-11.5,0l0,44z" id="svg_13"/>
      </g>
      <g>
        <path fill="white" d="m400.68927,350.81711l-23,0l0,10.5l46,0l0,-10.5l-11.5,0l0,-10.5l-11.5,0l0,10.5z" id="svg_14"/>
      </g>
      <g>
        <path fill="white" d="m411.60686,305.9538l13,0l0,34l-13,0l0,-34z" id="svg_16"/>
      </g>
      <g>
        <path fill="white" d="m424.70087,294.37624l31,0l0,10l-31,0l0,-10z" id="svg_17"/>
      </g>
      <g>
        <path fill="white" d="m366.66061,249.03441l11,0l0,10l-11,0l0,-10z" id="svg_18"/>
      </g>
      <g>
        <path fill="white" d="m366.09458,270.11897l0,11l-10.8,0l0,-22l-10.8,0l0,22l-10.8,0l0,11l-10.8,0l0,11l21.6,0l0,-11l10.8,0l0,11l10.8,0l0,-11l10.8,0l0,-22l-10.8,0z" id="svg_20"/>
      </g>
      <g>
        <path fill="white" d="m322.03843,257.56031l10,0l0,23l-10,0l0,-23z" id="svg_21"/>
      </g>
      <g>
        <path fill="white" d="m433.0456,360.40329l35.2,0c2.3339,0 4.5722,-0.9271 6.2225,-2.5775c1.6504,-1.6503 2.5775,-3.8886 2.5775,-6.2225l0,-35.2l-44,0l0,44zm11,-33l22,0l0,22l-22,0l0,-22z" id="svg_22"/>
      </g>
    </g>
  </g>
</svg>
