<svg width="159" height="189" viewBox="0 0 159 189" fill="none" xmlns="http://www.w3.org/2000/svg">
<path id="Vector" d="M90.1931 0V26.768H78.8362C72.2348 26.768 67.9234 27.5158 65.8904 28.9646C63.8574 30.4251 62.8175 34.6079 62.8175 41.4548V42.8218V161.683H76.2074C88.604 161.683 97.3787 161.064 102.438 159.848C107.544 158.575 111.563 156.425 114.589 153.27C118.351 149.426 121.226 144.169 123.165 137.544C125.093 130.931 126.39 121.829 127.079 110.133H158.019V189H-30V162.244H-19.9868C-12.9998 162.244 -8.47812 161.356 -6.50352 159.615C-4.51725 157.874 -3.52411 153.317 -3.52411 145.956V42.8218C-3.52411 35.4959 -4.51725 30.9859 -6.4451 29.2917C-8.38464 27.6092 -12.8947 26.768 -19.9868 26.768H-30V0H90.1931Z" fill="url(#paint0_linear_159_3115)"/>
<defs>
<linearGradient id="paint0_linear_159_3115" x1="64.0093" y1="0" x2="64.0093" y2="189" gradientUnits="userSpaceOnUse">
<stop stop-color="white" stop-opacity="0.03"/>
<stop offset="1" stop-color="white" stop-opacity="0"/>
</linearGradient>
</defs>
</svg>
