<svg width="224" height="189" viewBox="0 0 224 189" fill="none" xmlns="http://www.w3.org/2000/svg">
<path d="M92.8985 0V26.768C88.33 26.768 85.1169 27.3288 83.2241 28.4037C81.343 29.5371 80.3966 31.3598 80.3966 33.8952C80.3966 35.2155 80.5018 36.4306 80.7004 37.7042C80.899 38.9193 81.1911 40.0994 81.5884 41.1743L109.957 136.889L133.056 47.6473C131.619 39.4802 129.189 34.0354 125.824 31.2196C122.4 28.4505 116.594 26.9549 108.368 26.768V0H206.841V26.768H200.298C194.397 26.768 190.425 27.2821 188.438 28.357C186.464 29.3969 185.471 31.2663 185.471 33.8952C185.471 34.9351 185.564 35.9633 185.716 37.0032C185.868 38.0781 186.16 39.4334 186.662 41.1743L211.304 136.889L236.845 40.9407C237.231 39.5269 237.488 38.265 237.686 37.0849C237.885 35.8698 237.978 34.8416 237.978 33.8952C237.978 31.1728 236.939 29.3034 234.859 28.2635C232.767 27.2821 228.316 26.768 221.422 26.768V0H297.578V26.768C291.281 26.768 286.467 28.1233 283.195 30.799C279.877 33.5213 277.248 38.265 275.215 45.0768L233.62 189H170.246L150.606 112.154L130.427 189H66.4693L25.3651 50.1359C22.8296 41.8754 19.6633 35.9633 15.7959 32.3997C11.8701 28.8244 6.76418 26.9549 0.373047 26.768V0H92.8985Z" fill="url(#paint0_linear_159_3114)"/>
<defs>
<linearGradient id="paint0_linear_159_3114" x1="148.976" y1="0" x2="148.976" y2="189" gradientUnits="userSpaceOnUse">
<stop stop-color="white" stop-opacity="0.03"/>
<stop offset="1" stop-color="white" stop-opacity="0"/>
</linearGradient>
</defs>
</svg>
