<svg width="24" height="24" viewBox="0 0 24 24" fill="none" xmlns="http://www.w3.org/2000/svg">
<g id="Frame 107">
<path id="Vector" fill-rule="evenodd" clip-rule="evenodd" d="M5.93179 14.0096C6.80716 14.309 6.96186 14.2433 7.73913 13.8934C7.81963 14.6248 8.42459 14.7372 8.5403 14.8218C8.11519 15.0643 7.47879 15.1275 6.9606 14.9355C6.46129 14.7511 6.15441 14.4201 5.93179 14.0096ZM8.83083 23.4605C10.8784 24.2399 12.4204 24.3296 14.9283 22.6811L15.8502 21.8045C16.3734 21.4824 16.9142 21.1047 17.3997 20.7536C17.5783 20.6235 17.7519 20.4959 17.933 20.3721C18.6738 19.8668 19.4825 19.4172 20.1679 18.9473C20.3541 18.8197 20.5327 18.6946 20.6987 18.5633C21.9099 17.5995 21.9677 17.5224 22.262 16.901L22.3614 16.613C22.3677 16.5384 22.6016 15.9523 22.6746 15.6694C22.9689 14.5351 22.8406 13.4538 22.5362 12.3789C22.584 12.3208 22.6079 12.3195 22.6746 12.2665C22.7211 12.2286 22.7588 12.2008 22.8003 12.154C22.9525 11.9886 23.0204 11.8938 23.072 11.6993C23.1286 11.5401 23.1613 11.3671 23.1588 11.1751C23.1022 10.6635 22.9701 10.5839 22.74 10.2833C22.789 10.2277 22.8456 10.1962 22.9085 10.1418C22.9739 10.085 22.9991 10.0673 23.0569 10.0004C23.7311 9.22606 23.594 8.13848 22.9047 7.57385L22.5815 7.34901C22.1664 7.23028 21.9489 7.1027 21.4407 7.22396C20.954 7.34017 20.8458 7.52838 20.5981 7.70017C20.6257 6.34733 20.3905 6.10607 20.1428 5.76502C21.2974 5.65892 21.6772 4.33513 20.8609 3.59745C20.1465 2.95325 18.7253 3.4004 18.8674 4.76587C18.2902 4.63197 18.0487 4.52334 17.4009 4.63703C17.2349 4.66608 17.2701 4.67619 17.1519 4.59661C17.0098 4.50313 16.8765 4.43745 16.7004 4.40082L16.8174 4.23156C16.8526 4.18229 16.8802 4.13682 16.9155 4.06861C17.1192 3.66819 17.1343 3.20967 16.9607 2.79788C16.7746 2.35704 16.3633 1.98694 15.7697 1.91999C15.5697 1.88462 15.3345 1.92631 15.1521 1.98441C14.8629 2.07788 14.9019 2.10694 14.7383 2.19662C14.6868 2.22441 14.7207 2.21304 14.6729 2.22567C14.512 2.4682 14.0768 2.6943 14.1585 3.61514C13.6152 3.59619 13.2329 3.67577 12.7989 3.89303C12.5713 4.00672 12.2556 4.23661 12.0946 4.41598L11.8972 4.6244L11.7764 4.80629C11.4595 4.67745 11.3148 4.55871 10.886 4.52461C10.2571 4.47534 9.57918 4.71787 9.18048 5.15997C9.09873 5.24966 9.00063 5.36587 8.92642 5.48208C8.89121 5.53765 8.75034 5.83576 8.73022 5.85471L8.60696 6.36628C8.14789 6.40165 8.00451 6.38523 7.65361 6.61007C7.51777 6.55575 7.36056 6.41049 7.16436 6.31828C6.56694 6.03913 5.87645 6.06944 5.31425 6.35365L5.20608 6.39028L4.89794 6.40039L4.64011 6.42312L4.51811 6.48754L4.47283 6.51154L4.3697 6.57344C4.29424 6.61512 4.3609 6.57344 4.31436 6.61133C4.31436 6.6126 4.2716 6.65175 4.2716 6.65175C4.20997 6.72123 4.26154 6.6467 4.215 6.7326C4.10432 6.86902 4.04772 7.1027 4.08294 7.31743C4.13325 7.6168 4.28669 7.54985 4.19739 7.85806C2.92835 7.87954 1.91086 8.45553 1.3323 9.5709C1.15371 9.91447 1.0141 10.3414 0.999008 10.781C0.993977 11.0917 1.00404 11.3368 1.04177 11.5945C1.09208 11.933 1.21156 12.2349 1.3889 12.538C1.67943 13.0307 1.97374 13.3465 2.4479 13.6521C2.51959 13.6976 2.67806 13.781 2.70951 13.8138L3.04029 13.9502C3.0579 14.1902 3.034 14.3014 3.10317 14.5401C3.15726 14.7271 3.27674 14.8711 3.31447 15.0075C3.26542 15.2601 3.23901 15.5267 3.21763 15.7869C3.19499 16.0761 3.28303 17.3633 3.37484 17.9026C3.46666 18.4433 4.13199 19.8706 4.54704 20.4277C4.61496 20.5186 4.67658 20.6058 4.75582 20.6892C4.84009 20.7763 4.88662 20.8407 4.96334 20.9279C5.12936 21.1211 5.7293 21.6289 5.94059 21.7818C7.07506 22.599 7.62091 22.8352 8.83083 23.4605ZM5.26645 15.5645C5.04258 15.7439 4.8753 15.994 4.83254 16.2909C4.78475 16.4728 4.66778 17.2509 5.04887 18.1262C5.42996 19.0028 4.5005 18.893 4.27914 18.4559C4.27789 18.4534 3.98861 18.0087 3.94711 16.9591C3.92572 16.4033 4.13325 15.6555 4.13325 15.5469C4.96712 15.6757 5.61484 15.3523 5.88777 14.6172C5.89531 14.597 5.90663 14.5591 5.9167 14.5389C5.94814 14.4782 5.92802 14.5073 5.96323 14.4694C6.06762 14.7006 6.51034 14.9961 6.75182 15.101C7.33666 15.3422 7.63097 15.317 8.26486 15.197C8.28247 15.5077 8.37428 15.8121 8.4988 16.0648C8.72016 16.5119 8.76669 16.4563 8.95158 16.7279C8.62331 16.7822 8.37806 16.8189 8.06363 16.9073C6.65624 17.3001 7.13291 16.6218 7.1065 16.0496C7.09141 15.7123 6.89898 15.4648 6.70151 15.3624C6.20975 15.0037 5.7796 15.1805 5.38342 15.4736C5.34318 15.5027 5.30419 15.533 5.26645 15.5645ZM7.26372 2.99746C7.13669 2.41262 7.99697 2.24462 8.11393 2.79662C8.23845 3.39282 7.37314 3.49767 7.26372 2.99746ZM7.28887 2.39241C7.27252 2.47199 6.97192 2.65135 7.08763 3.06693C7.16561 3.34356 7.34169 3.41177 7.54041 3.50777C8.02212 3.55451 8.42459 3.21725 8.29002 2.72588C8.23342 2.51746 8.1001 2.3823 7.91773 2.3103C7.64858 2.20546 7.49262 2.30146 7.28887 2.39241ZM5.26017 2.25725C5.60101 2.16504 5.70791 2.68925 5.39097 2.76883C5.05138 2.85472 4.908 2.35325 5.26017 2.25725ZM5.16206 2.13473C4.61999 2.38104 4.99856 3.10861 5.4941 2.89893C5.96323 2.69935 5.69408 1.89473 5.16206 2.13473ZM6.26257 4.12545C6.59838 4.05093 6.85873 4.2745 6.92916 4.53598C7.02223 4.88713 6.77949 5.18145 6.52417 5.24587C5.77206 5.4366 5.47272 4.30482 6.26257 4.12545ZM7.1392 4.46903C7.0826 4.40082 7.05619 4.30608 7.00085 4.23029C6.94551 4.15703 6.89772 4.11408 6.8298 4.05977C6.6663 3.9284 6.50908 3.90314 6.27137 3.91072C5.38342 4.13935 5.49662 5.00587 5.90412 5.30523C6.32546 5.61597 6.88891 5.45808 7.08512 4.9945C7.17442 4.78482 7.11782 4.66355 7.1392 4.46903ZM22.1325 6.74523C22.1853 6.85386 22.2205 6.96249 22.2897 7.03828C22.4784 7.23912 22.862 7.28459 23.0858 7.12165C23.2016 7.03575 23.2695 6.95238 23.3412 6.7907L23.3638 6.66691L23.3613 6.60754L23.3412 6.41681C23.2405 6.13765 23.0871 5.96839 22.7375 5.97092C22.4343 5.97344 22.296 6.12502 22.1639 6.3587L22.1237 6.54186L22.1325 6.74523ZM23.1789 6.56965L23.1764 6.68586C23.0984 6.87154 22.9965 7.0408 22.7375 7.03575C22.5073 7.03196 22.3526 6.88291 22.3224 6.67954C22.3136 6.56965 22.3111 6.53681 22.3538 6.43323C22.4532 6.26902 22.5174 6.15912 22.7375 6.15912C22.8582 6.15912 22.9399 6.20839 23.0116 6.25765C23.111 6.34733 23.1877 6.4307 23.1789 6.56965ZM17.5242 0.586102C17.4802 0.0631575 18.2361 0.0239998 18.2725 0.510313C18.2889 0.723786 18.1279 0.90189 17.9304 0.915785C17.7191 0.929679 17.5406 0.775575 17.5242 0.586102ZM17.4638 0.193262C17.3632 0.438313 17.2915 0.617681 17.4663 0.872837C17.7154 1.23536 18.4688 1.12168 18.4335 0.507787C18.4147 0.161683 18.1644 0.107368 18.0449 0C17.9229 0.0101052 17.8009 -0.00631578 17.6839 0.0429471C17.5519 0.0985258 17.5393 0.178104 17.4638 0.193262ZM18.714 2.30399C19.0335 2.22567 19.3076 2.44672 19.3617 2.71704C19.4284 3.04419 19.2095 3.31198 18.958 3.36503C18.2298 3.51914 18.026 2.46946 18.714 2.30399ZM19.5932 2.99746C19.6913 2.53893 19.3642 2.1562 19.0096 2.07662C17.9795 1.84673 17.6877 3.35998 18.6486 3.59366C19.124 3.70861 19.5114 3.37767 19.5932 2.99746ZM15.1094 4.3225C14.5145 3.87661 14.4516 2.80798 15.3006 2.38609C15.2138 2.36967 15.1006 2.4303 15.015 2.47578C14.8893 2.54146 14.8754 2.55914 14.7799 2.65767C14.317 3.13388 14.4277 3.95745 14.9647 4.25429C14.9849 4.26566 15.0176 4.28587 15.0314 4.29345C15.0955 4.32629 15.0591 4.31745 15.1094 4.3225ZM6.60844 11.9292C6.33929 11.6551 6.07643 11.3305 6.11164 10.7545C6.14686 10.2025 6.41978 9.89553 6.72038 9.66816L6.87508 9.57721C5.92173 9.68584 5.54441 11.1094 6.29653 11.7511C6.36822 11.8105 6.49902 11.9254 6.60844 11.9292ZM9.9087 13.6736L9.8672 13.6509C9.83198 13.6357 9.84959 13.6408 9.80557 13.6269C9.24588 13.4387 8.85599 13.1759 8.5969 12.5608C8.33655 11.9431 8.46107 11.117 8.84215 10.7343C8.32272 11.0273 8.04099 11.9115 8.31014 12.6113C8.52144 13.162 9.12011 13.7355 9.9087 13.6736ZM10.5791 14.9267C10.7841 15.4547 11.6205 15.8222 12.326 15.6062C12.6606 15.5052 12.9033 15.3157 13.0794 15.1048C13.2417 14.909 13.4215 14.5464 13.4115 14.1966C13.2052 14.7561 12.8694 15.1629 12.2745 15.3435C11.6041 15.5481 11.0495 15.3738 10.5791 14.9267ZM16.3608 9.80458C16.2841 10.5233 16.6274 10.9793 17.0148 11.261C17.2186 11.41 17.489 11.5225 17.8047 11.5389C18.226 11.5616 18.3631 11.4593 18.6926 11.333V11.3014C18.3065 11.3406 18.182 11.4429 17.738 11.3204C17.2312 11.1802 16.796 10.8265 16.5859 10.33C16.4375 9.97763 16.4639 9.81974 16.4727 9.42184C16.4099 9.5229 16.3809 9.66563 16.3608 9.80458ZM21.2458 10.0244C21.0747 9.81342 20.998 9.79826 20.871 9.51405C20.6672 9.05806 20.7326 8.55027 21.0018 8.14732C21.159 7.91238 21.2848 7.87448 21.4131 7.76206L21.4495 7.72796C20.8106 7.82396 20.2346 8.74479 20.7276 9.57595C20.8282 9.74774 21.032 9.97384 21.2458 10.0244ZM19.5051 6.97512C19.4221 7.62943 18.6385 8.02354 18.0537 7.75827C17.9694 7.28964 17.8537 7.17596 17.5229 6.92838C17.5594 6.85133 17.6198 6.80965 17.6751 6.7187C17.899 6.3587 17.8537 6.25891 17.9078 5.91028C18.1744 5.80165 18.3958 5.73723 18.7329 5.7865C19.0699 5.83702 19.5869 6.32081 19.5051 6.97512ZM19.69 6.5507C19.5982 6.04291 19.3932 5.73218 18.8511 5.61723C18.4184 5.50229 18.2336 5.57681 17.8827 5.69807C17.8537 5.47829 17.7342 5.19787 17.6085 5.03113C17.5758 4.98818 17.5619 4.9806 17.538 4.94018C17.5317 4.93134 17.5167 4.89345 17.5167 4.89218C17.499 4.82524 17.4965 4.89724 17.5179 4.84292C18.1141 4.74819 18.7304 4.90734 19.1655 5.17008C20.1201 5.74734 20.588 6.89554 20.3189 7.96038C20.2736 8.14101 20.2157 8.2989 20.1377 8.45806C20.0962 8.54269 20.061 8.60458 20.0157 8.67659C19.9956 8.70943 19.968 8.75111 19.9529 8.77132C19.9365 8.79279 19.9365 8.79532 19.9189 8.81553C19.9151 8.81932 19.9101 8.82564 19.9076 8.82943C19.9038 8.83321 19.8975 8.83953 19.8937 8.84206C19.8912 8.84585 19.8837 8.85216 19.8812 8.85469C19.8787 8.85722 19.8724 8.86353 19.8673 8.86732C19.4385 8.28374 19.4674 8.34438 18.9744 8.0349L18.9404 8.01217C18.9039 7.98438 18.9178 7.99701 18.8913 7.96796C19.4485 7.84038 19.7806 7.05975 19.69 6.5507ZM22.3589 12.2614C22.0206 12.4256 21.608 12.4105 21.2911 12.2084C20.9616 11.9974 21.0672 11.9911 20.9402 11.8774C20.9125 11.8332 20.8962 11.7991 20.8622 11.7612C20.7415 11.3961 20.744 11.4126 20.7704 11.002C20.6383 11.3721 20.6987 11.6096 20.7402 11.8155L20.7742 11.9077L20.7289 12.0189L20.6773 11.9065C20.6509 11.7271 20.5679 11.5528 20.4874 11.4479C20.4056 11.3444 20.2283 11.237 20.0799 11.1637C19.9931 11.122 19.8988 11.0993 19.8296 11.0703C20.2208 10.3642 20.217 9.941 19.9994 9.13006C20.1528 8.99743 20.1931 8.86606 20.3113 8.80669C20.2711 9.24248 20.3931 9.68079 20.6509 9.96879C20.793 10.1279 20.9691 10.277 21.2395 10.3566C21.5099 10.4362 22.0809 10.4917 22.5186 10.3844C22.8821 10.3439 23.3915 11.7612 22.3589 12.2614ZM19.7152 11.3279C19.8082 11.2648 19.8485 11.2812 19.9705 11.333C20.5151 11.5604 20.6962 12.2854 20.2899 12.7262C19.3529 13.7456 18.5279 12.0138 18.9794 11.8067C19.1215 11.7637 19.5906 11.4441 19.7152 11.3279ZM1.44424 12.0429L1.37129 11.8534L1.3474 11.7587L1.31595 11.6425L1.27319 11.3961C1.0795 10.0421 1.83036 8.885 2.93338 8.37343C3.26794 8.21806 3.82511 8.0728 4.24141 8.12711L4.36215 8.76374C4.43007 8.84332 4.51434 9.16163 4.73821 9.33721C4.69671 9.23742 4.62627 9.14521 4.57093 9.03027C4.36844 8.61848 4.34958 7.8808 4.45397 7.87448C4.58477 7.8669 4.68539 8.02101 5.03126 7.93638C5.22747 7.88964 5.37462 7.77217 5.47021 7.64585C5.73181 7.29975 5.61484 6.81091 5.36707 6.59365C5.86639 6.30186 6.51286 6.2766 7.06751 6.52291L7.39326 6.71744C7.46747 6.78186 7.4247 6.72628 7.47124 6.80586C7.1304 7.10396 7.0084 7.67743 7.22724 8.18396C7.17316 7.67617 7.21215 7.33638 7.49639 7.00544C7.75045 6.71112 8.10136 6.55828 8.57049 6.56965C8.33781 6.9208 8.08878 7.16207 8.33152 7.82017C8.31643 7.83785 8.31894 7.83533 8.29002 7.8568C8.00703 8.07532 7.72027 8.22185 7.60707 8.79658C7.57563 8.95069 7.60959 8.9229 7.4813 9.00879C7.25617 9.15658 7.32031 9.07321 7.05242 9.09469C6.40343 9.14774 5.83369 9.56079 5.59723 10.1848C5.34318 10.8593 5.65509 10.9149 5.38342 11.1751C4.95831 11.5856 4.83631 12.3612 4.99982 12.8968C5.19602 13.5397 5.50165 13.6281 5.58843 13.8252C5.62616 13.9098 5.7054 14.1208 5.73433 14.2054C5.81105 14.4277 5.57082 14.8281 5.47398 14.9355C5.15703 15.2867 4.57345 15.5532 3.97352 15.2627C3.57985 15.0719 3.16606 14.6058 3.25913 13.9768L3.40125 13.9692C3.68298 13.9995 4.33448 14.0046 4.58603 13.8479C4.14457 13.8694 3.88296 13.9086 3.44653 13.7999C3.24655 13.7507 2.66171 13.5448 2.59002 13.4235C2.23032 13.2593 1.59265 12.4496 1.44424 12.0429ZM1.83288 12.25C2.12467 12.6846 2.43029 12.8753 2.84408 13.1014L2.94219 13.133C2.32087 12.8614 2.0077 11.9557 1.97123 11.8332C1.8442 11.3052 1.85174 11.1612 1.83665 10.9654C1.83288 10.4791 1.94733 10.0143 2.17623 9.605C2.3913 9.22227 2.99627 8.55785 3.37987 8.5389C3.33208 8.50606 3.35723 8.48837 3.156 8.54522C2.93212 8.60837 2.69567 8.71701 2.50953 8.83827C2.39885 8.91027 2.2278 9.0429 2.15485 9.11237C2.05424 9.20711 1.95865 9.33595 1.87312 9.45974C1.68572 9.73132 1.57882 9.95742 1.48575 10.3275C1.38639 10.7153 1.44927 11.5692 1.83288 12.25ZM5.21111 11.9444C5.23501 11.8964 5.28784 11.7574 5.3067 11.7044L5.49536 11.3898C5.52932 11.3545 5.50291 11.3747 5.53938 11.3507C5.59472 11.4151 5.6488 11.5111 5.7054 11.5856C5.84375 11.7713 6.1368 12.0176 6.38457 12.0606C6.28521 11.9608 6.16321 11.8976 6.07768 11.789C5.14949 10.6117 6.0802 9.25385 7.23479 9.30563C7.16687 9.63784 7.31654 9.90816 7.52909 10.0421C7.72153 10.1456 8.02464 10.1406 8.18688 9.98142C8.64721 9.54437 8.41076 8.91532 7.76429 8.89006C7.81963 8.44417 8.124 8.13343 8.43717 7.98185C8.55539 8.06017 8.85473 8.45301 9.43454 8.34817C9.57415 8.3229 9.66722 8.25596 9.76784 8.21301C9.80557 8.29638 9.84582 8.40374 9.87223 8.47827C9.48862 8.51364 9.1918 8.72837 9.04339 8.92669C8.82329 9.221 8.74028 9.45974 8.75789 9.917C8.67488 9.99279 8.41201 10.2669 8.34032 10.2959C8.29505 10.469 7.45489 11.3178 7.96175 12.7262C8.09004 13.085 8.38812 13.4993 8.59564 13.6622C9.21821 14.1473 9.03962 13.9515 9.60182 14.2117C9.47227 14.5401 8.91384 14.8597 8.40321 14.6147C8.19317 14.5149 8.04979 14.3734 7.9542 14.1763C7.79322 13.8441 7.8888 13.7469 7.90641 13.4425C7.49891 13.9515 6.62479 14.122 5.96197 13.7646C5.44882 13.4867 4.97844 12.8033 5.21111 11.9444ZM13.5121 6.73512C13.8076 7.11407 13.619 7.2808 13.5712 7.39449C13.453 7.66985 13.4567 7.91238 13.5033 8.22185C12.9297 8.06143 12.4506 8.20417 12.1839 8.58437C12.3122 8.5389 12.7901 8.09427 13.4442 8.47827C14.2466 8.95195 14.1233 10.1734 13.2178 10.445C12.7449 10.5865 12.2267 10.3616 12.0506 10.0837C12.1751 10.3263 12.3638 10.5309 12.6719 10.6446C13.1171 10.8088 13.3234 10.6812 13.6731 10.5524C13.7297 10.9376 13.6378 11.3646 13.4052 11.6841C13.2605 11.885 13.0907 12.0189 12.8731 12.1149C12.1739 12.4382 11.5827 12.2425 11.1224 11.7751C10.9111 11.4896 10.8683 11.4479 10.7539 11.1082C10.6042 10.5119 10.9098 9.76163 11.5676 9.44584C11.745 9.35995 11.7726 9.40416 11.828 9.31448C11.8217 9.30942 11.8141 9.29679 11.8116 9.30311L11.6771 9.25385C11.6205 9.24121 11.5676 9.22858 11.5136 9.2109C11.2381 9.11995 10.9086 8.90648 10.7539 8.68416C10.8067 8.61469 10.9048 8.58943 10.9954 8.39743C11.1941 7.97806 10.9199 7.46017 10.3753 7.46775C10.5262 6.24502 11.75 5.72207 12.5046 5.99618C13.2605 6.26902 13.341 6.47365 13.5121 6.73512ZM13.5347 6.2867C13.2832 5.98481 12.9662 5.95955 12.5449 5.71071C12.4518 5.65513 12.4468 5.39492 12.1663 5.07029C12.0883 4.97808 12.0594 4.97934 12.0028 4.88461C12.1776 4.58271 12.5776 4.22145 12.9549 4.05093C13.4454 3.82987 13.8869 3.77556 14.4705 3.87282C14.3912 3.5583 14.3258 3.3903 14.4264 3.03662C14.4617 2.91409 14.5145 2.80925 14.5748 2.71325C15.2452 1.65094 16.9771 2.18146 16.84 3.5204C16.8035 3.88293 16.5897 4.21892 16.3105 4.40461C16.225 4.46271 16.1005 4.51324 16.02 4.56882C16.3759 4.55113 16.6451 4.55113 16.9394 4.7065C17.1582 4.82145 17.3833 5.0286 17.4953 5.22187C17.8336 5.80544 17.7493 6.3966 17.3884 6.87028C16.801 6.71491 16.3017 6.94986 16.1055 7.37175C15.7408 7.36164 15.4766 7.14817 15.2616 6.94228C15.0603 6.74902 14.9069 6.42944 14.8754 6.05176C14.7937 6.05934 14.8327 6.07323 14.7459 6.13512C14.7006 6.1667 14.6641 6.18312 14.6214 6.20207C14.3799 6.23744 14.3761 6.24502 14.1133 6.19323C13.4102 5.83071 13.6655 5.05008 14.1661 4.8985C14.6314 4.75703 15.0603 5.11071 15.0553 5.56671C15.0515 5.80039 14.9735 5.84713 14.9182 6.00249L14.9346 5.99491C14.9295 5.92165 15.0767 5.93049 15.1484 5.62608C15.2024 5.39744 15.0842 5.21934 15.1597 5.11071C15.3106 4.89092 15.6225 4.68503 15.8929 4.60419C15.1484 4.62061 15.2351 4.61555 14.6981 4.23282C14.8126 4.4425 15.0062 4.57513 15.2704 4.69513C15.1836 4.79113 15.0893 4.87197 15.0138 4.96166C14.8528 4.84545 14.7484 4.71534 14.4403 4.69008C13.0794 4.57766 13.2492 6.51407 14.4881 6.41049L14.7107 6.3587L14.7622 6.50902C14.4264 6.54817 14.3032 6.59744 13.8906 6.92586C13.8102 6.65302 13.7422 6.53554 13.5347 6.2867ZM8.83838 6.39154C9.01698 4.96166 10.7388 4.1684 11.9877 5.24966C12.0594 5.31155 12.2594 5.54902 12.3034 5.66523L12.0468 5.65134C11.9311 5.16376 10.7275 4.49429 9.75526 5.15997C9.59553 5.26987 9.30877 5.52123 9.25217 5.76881C9.5666 5.38102 10.0144 5.1625 10.5225 5.12587C10.8319 5.10313 11.0935 5.15366 11.3576 5.25218C11.4809 5.29766 11.5601 5.3406 11.6683 5.41387C11.7726 5.48334 11.8833 5.56039 11.9349 5.66397C11.5173 5.6046 10.8407 6.03407 10.6885 6.21723L10.6709 6.22607C10.5929 6.33344 10.5627 6.32333 10.491 6.42691C10.4445 6.49639 10.403 6.58102 10.3602 6.64796L10.2722 6.85638C10.0571 6.37512 9.73011 6.0467 8.83838 6.39154ZM14.7899 11.9305C14.8365 12.2614 14.7371 12.4787 14.6553 12.5987C14.2189 13.2416 13.2291 13.0799 13.004 12.3511C13.2077 12.25 13.3662 12.1326 13.5171 11.9797C13.7976 11.693 13.9359 11.1385 13.9359 11.1385C14.1774 11.1397 14.3535 11.2408 14.5069 11.3696L14.5774 11.4328C14.5811 11.4366 14.5887 11.4416 14.5937 11.4454C14.6377 11.5199 14.7434 11.5995 14.7899 11.9305ZM14.932 11.8345C14.9094 11.7536 14.8113 11.4934 14.7258 11.3469C15.6087 11.0298 15.9797 10.2378 15.7043 9.35237C15.8187 9.24753 15.9219 9.21974 16.1017 9.00627C15.9156 9.57469 15.7785 9.97005 16.0212 10.6597C16.0829 10.8366 16.1898 10.9907 16.23 11.1107C15.488 11.1385 15.1924 11.861 15.4288 12.3561C15.5106 12.5279 15.5559 12.4458 15.4892 12.6467C15.381 12.97 15.4666 13.1873 15.4175 13.4134C15.0025 13.4298 14.3774 13.3654 14.0944 13.1406C14.0994 13.1368 14.107 13.1241 14.1095 13.1292L14.1434 13.109C14.2353 13.0622 14.2642 13.0799 14.4352 12.9801C14.7874 12.7768 14.9698 12.3877 14.9471 11.9406C14.9396 11.9052 14.9484 11.8888 14.932 11.8345ZM10.7577 11.6197C10.8495 11.8168 10.9954 11.9633 11.1601 12.1098C11.4809 12.3953 11.823 12.5001 12.2833 12.5267C12.2066 13.0572 11.5991 13.6319 11.0671 13.8694C9.78419 14.4403 8.17179 13.5612 8.05356 12.0366C7.99948 11.3393 8.33404 10.5082 8.83461 10.1949C8.89498 10.4943 9.22324 10.8126 9.46724 10.9263C9.89612 11.1284 10.1653 11.045 10.5766 10.9035C10.5854 11.1625 10.652 11.3924 10.7577 11.6197ZM19.7504 16.8706C19.5957 17.0917 19.4787 17.1447 19.3756 17.1397C19.2863 17.1195 19.2926 17.1094 19.2422 17.0197C18.8888 16.4008 18.9982 16.0723 18.7844 15.6441C18.2927 14.6563 16.5809 15.9877 16.0502 16.3831C15.7584 16.6016 15.3861 16.7949 15.0276 16.9288C14.8956 16.978 14.722 17.0083 14.6226 17.0639L14.5497 17.0841C14.6126 17.0121 14.7333 16.8782 14.7912 16.7405C14.9786 16.4437 15.1106 15.8488 14.6843 15.2412C14.9484 15.0378 15.0628 14.9949 15.2427 14.6563C15.4691 14.2319 15.3798 13.9945 15.3936 13.7696L15.4049 13.7128C15.6628 13.6989 15.5043 14.0437 16.1633 14.5022C17.2878 15.2829 18.8209 14.5932 19.0611 13.3793C19.2724 13.3338 19.4284 13.2719 19.6133 13.2239C19.8787 13.1532 20.2371 13.1924 20.5327 12.7338C20.6647 12.5279 20.6496 12.4724 20.8069 12.3081C21.5087 12.5582 21.8747 13.6938 21.3401 13.8593C21.0936 13.9351 20.8609 13.8088 20.5402 13.9465C19.6825 14.314 19.9893 15.7414 19.7831 16.6938L19.7504 16.8706ZM14.273 17.0652C14.2227 17.098 14.1447 17.1283 14.073 17.1523C13.6793 17.2521 13.3913 17.2243 13.0668 17.0096C13.0379 16.9906 13.0354 16.9894 13.019 16.9767L12.9486 16.9224C12.7122 16.7077 12.5675 16.3363 12.5914 16.0029C13.1209 15.8096 13.5586 15.4168 13.7963 15.0113C14.1133 14.4707 14.2592 14.0614 14.1309 13.3376C14.2554 13.3856 14.3535 13.4298 14.595 13.4791C14.8365 13.5271 15.2377 13.6648 15.2113 14.0803C15.2012 14.2534 15.1396 14.4606 15.0679 14.5843C14.9157 14.8458 14.7459 15.0024 14.4818 15.1224C14.4063 15.1553 14.4151 15.1414 14.3636 15.1919C15.0251 15.7098 14.9245 16.6408 14.273 17.0652ZM11.6972 21.855C11.6368 21.8449 10.8394 22.0382 11.2419 21.1212C11.4092 20.7422 11.5714 20.3064 11.6859 19.8908C11.8318 19.3578 12.2355 17.9974 11.8431 17.4782C11.7588 17.3671 11.7638 17.3746 11.701 17.2963C11.9009 17.1776 12.1801 16.954 12.3462 16.8391C12.4531 16.7633 12.5034 16.7254 12.5638 16.6761C12.5738 16.7001 12.5839 16.7229 12.5927 16.7456C12.6568 16.9073 12.8027 17.0538 12.9876 17.1713C13.1737 17.29 13.2643 17.3203 13.4731 17.3645C13.1851 17.5616 12.8228 17.4782 12.7612 18.1401C12.7122 18.6694 12.4443 21.9851 11.6972 21.855ZM11.7337 16.997C11.6821 17.0222 11.5978 17.0829 11.4934 17.1245C11.2457 17.2092 11.0004 17.2382 10.8117 17.2546C10.6231 17.2711 10.4294 17.2496 10.2973 17.2243C10.2143 17.2079 10.1426 17.1839 10.0684 17.1612C9.98291 17.1359 9.90241 17.1144 9.83953 17.0639C9.69866 17.0538 9.41693 16.8568 9.32638 16.781C9.12766 16.6155 9.08238 16.5852 8.91133 16.3603C8.67739 16.0546 8.48496 15.6176 8.45981 15.1313C8.70003 15.0403 8.75914 14.861 8.93397 14.8218C9.2484 14.7523 9.26852 14.7069 9.48233 14.5881C9.90116 15.6467 10.9363 16.3831 12.4392 16.0584C12.4367 16.1557 12.4656 16.3666 12.4468 16.4323C12.4254 16.4993 12.3047 16.618 12.1801 16.7064C12.0556 16.7936 11.9185 16.9085 11.7337 16.997ZM4.63005 6.67449C4.87027 6.61133 4.95454 6.64544 5.14194 6.72754C5.62868 7.04712 5.34821 7.81006 4.75834 7.71912C4.53195 7.68375 4.33071 7.48291 4.30807 7.24291C4.29424 7.09512 4.34077 6.94859 4.40617 6.86396C4.47032 6.77933 4.59986 6.70733 4.63005 6.67449ZM9.68357 14.2029C10.5124 14.3683 11.1941 14.2344 11.7601 13.805C12.6015 13.1683 12.5348 12.5418 12.7172 12.461C12.775 12.4345 12.8166 12.4218 12.8769 12.4029C12.9109 12.6378 13.2454 13.0142 13.5485 13.0951C13.8529 13.1747 13.7837 13.037 13.8378 13.4058C13.8667 13.6029 13.8693 13.8088 13.8441 14.0071C13.7473 14.7422 13.2995 15.2791 12.8404 15.5456C11.4783 16.3351 9.94014 15.4723 9.68357 14.2029ZM18.7932 13.4008C18.4914 14.5793 16.8086 15.1136 15.8942 13.882C15.6741 13.5865 15.5043 13.0395 15.6452 12.6012C15.9194 12.9372 16.669 13.0193 17.0324 12.4686C17.1607 12.274 17.1519 12.1414 17.1695 11.8989C17.5959 12.082 18.1028 12.1225 18.5807 12.0012C18.5631 12.1894 18.5769 12.6328 18.9291 12.9296C19.0008 12.989 19.1215 13.0521 19.1894 13.1204C18.3883 13.3136 18.0147 13.114 17.4198 12.9107C17.8223 13.2163 18.1782 13.3338 18.7932 13.4008ZM15.5433 12.1705C15.4301 11.7321 15.7282 11.3835 16.0552 11.3027C16.3457 11.2307 16.3923 11.3393 16.557 11.4606C16.7004 11.5654 16.8538 11.5881 16.9092 11.8143C17.1356 12.7338 15.7747 13.0585 15.5433 12.1705ZM16.1269 9.64542C16.2149 9.317 16.3658 8.92669 16.5268 8.75995C16.879 8.89764 17.1783 8.94564 17.5255 8.74606C17.7443 8.61848 17.9883 8.3709 18.0323 8.02227C18.9781 8.03869 19.6837 8.68543 19.8724 9.46353C19.9906 9.94605 19.9214 10.4538 19.7126 10.8366C19.324 11.5503 18.6172 11.933 17.8122 11.8471C16.2853 11.6829 16.0376 9.9751 16.1269 9.64542ZM8.2636 9.629C8.11142 10.181 7.30774 10.0004 7.41338 9.43574C7.45237 9.22606 7.67122 9.04416 7.93911 9.09974C8.1416 9.14142 8.33529 9.36879 8.2636 9.629ZM10.5728 10.7267C10.2634 10.8505 10.0382 10.9338 9.66722 10.8037C8.77675 10.4943 8.65601 9.25637 9.49491 8.7789C9.74646 8.63616 10.0823 8.60206 10.3803 8.69806C10.8671 8.85595 11.174 9.42058 11.101 9.581C11.0469 9.69974 10.6596 9.91321 10.5728 10.7267ZM20.3767 8.97342C20.3302 8.13343 20.9326 7.47406 21.6998 7.41343C22.5387 7.34522 23.2028 7.96922 23.2695 8.73595C23.3412 9.57974 22.6972 10.2618 21.93 10.3162C21.1037 10.3755 20.4207 9.73258 20.3767 8.97342ZM9.94014 8.23953C9.84833 7.57638 10.8029 7.47912 10.8973 8.07154C11.0029 8.73722 10.0244 8.84837 9.94014 8.23953ZM16.2401 8.29638C16.1445 8.4669 16.1621 8.81048 15.6414 9.15911C15.2138 9.44584 14.9144 9.3789 14.4365 9.28921C14.7698 9.56079 15.0918 9.52542 15.5345 9.47869C15.7181 9.78942 15.5986 10.469 15.2301 10.8164C15.1119 10.9288 15.1886 10.8934 14.9886 11.0197C14.439 11.3646 14.6189 11.0816 13.946 11.045C13.9586 10.9136 13.9095 10.3528 13.9183 10.3351C13.9435 10.2871 14.1233 10.1519 14.2164 9.79574C14.3874 9.13764 14.1196 8.66016 13.6793 8.32038C13.5825 8.24585 13.5938 8.10943 13.6014 7.9768C13.6152 7.73048 13.6995 7.50691 13.8013 7.33638C13.9661 7.06101 14.3648 6.71491 14.8566 6.71744C15.0327 6.90438 14.9761 6.97386 15.3408 7.20249C15.5483 7.33259 15.8036 7.39196 16.0904 7.41722L16.1835 7.59406C16.6111 6.65428 17.7317 7.00165 17.8223 7.76964C17.8738 8.21427 17.5909 8.56669 17.2752 8.67532C16.7293 8.86227 16.474 8.56416 16.2401 8.29638ZM9.11382 6.52544C9.62949 6.4067 10.0571 6.76038 10.1527 7.17217C10.2571 7.63322 10.0458 7.50185 9.88229 7.75196C9.72382 7.99448 9.86845 8.08922 9.64961 8.17259C9.07735 8.39111 8.66985 7.98564 8.55791 7.49049C8.44094 7.06228 8.70758 6.61891 9.11382 6.52544ZM19.8397 3.56335C20.4371 3.41051 20.9339 3.83366 21.0446 4.30356C21.1879 4.91366 20.7742 5.39997 20.3101 5.51239C20.0095 5.58439 19.7152 5.50734 19.5127 5.36966C19.3139 5.23576 19.1668 5.02355 19.1039 4.78861C18.9366 4.16714 19.3756 3.68082 19.8397 3.56335Z" fill="#707070"/>
</g>
</svg>
