<svg width="26" height="24" viewBox="0 0 26 24" fill="none" xmlns="http://www.w3.org/2000/svg">
<g id="Frame 105">
<g id="Vector">
<path fill-rule="evenodd" clip-rule="evenodd" d="M23.0408 11.8205C22.3916 11.5801 17.6676 9.92112 17.3669 9.81103C17.0676 9.69967 16.9135 10.0413 16.9135 10.0413C16.9135 10.0413 15.8664 9.5668 15.5733 9.51619C15.2803 9.46431 15.0416 9.57566 15.0416 9.57566C15.0416 9.57566 15.1641 9.41496 14.8938 9.30107C14.6235 9.18718 13.2416 8.65951 13.2416 8.65951C12.6176 8.77339 12.2021 9.89581 12.5002 10.5614C12.5002 10.5614 14.0134 11.1929 14.1549 11.2308C14.2976 11.2688 14.4959 11.0018 14.4959 11.0018C14.4959 11.0018 14.626 11.4181 14.9531 11.5674C15.2815 11.718 15.9952 11.9407 15.9952 11.9407L16.2428 11.7484C16.2428 11.7484 16.0836 12.009 16.2579 12.2077C16.4335 12.4076 17.0878 12.7493 17.1598 13.1732C17.2293 13.5971 16.1632 14.9941 16.6659 17.4832C17.1699 19.9722 17.6019 21.4958 18.5454 21.7868C19.4877 22.0779 22.8236 21.3047 23.0206 21.3073C23.2189 21.3085 23.0434 22.2108 23.3149 22.3968C23.5878 22.5815 24.5995 22.5296 24.5705 22.1487C24.5389 21.7679 24.2901 21.1352 24.4682 21.0744C24.6475 21.0124 25.0252 20.9099 24.9987 20.5594C24.9709 20.2076 24.621 19.9647 24.424 19.9204C24.2282 19.8761 24.3595 18.3614 23.8353 17.0871C23.3099 15.8141 23.1406 15.1536 23.1406 15.1536L23.4488 14.4715C23.4488 14.4715 24.117 14.5829 24.424 13.73C24.7309 12.8771 23.0408 11.8205 23.0408 11.8205ZM17.8356 14.1121C17.6524 14.0299 17.127 14.9587 17.3051 16.7872C17.4844 18.6157 18.4823 20.648 18.4823 20.648C18.4823 20.648 18.4899 20.3949 18.668 20.3746C18.8448 20.3544 19.0305 20.6227 19.2262 20.3962C19.4233 20.1709 19.9803 16.7657 19.9007 16.0963C19.8199 15.4269 19.0696 15.1928 18.548 14.7588C18.0263 14.3247 17.8356 14.1121 17.8356 14.1121ZM18.9648 13.9742C18.9648 13.9742 19.0608 14.1805 19.6254 14.531C20.1913 14.8815 20.7054 15.413 20.6308 16.3089C20.5563 17.2061 20.387 17.7831 20.387 17.7831L20.5399 17.8679C20.5399 17.8679 20.0005 20.1848 19.8704 20.5771C19.7391 20.9694 18.8713 21.0175 18.8713 21.0175C18.8713 21.0175 19.1328 21.3844 20.1938 21.1225C21.2548 20.8606 22.1226 20.7403 22.2666 20.6948C22.4118 20.648 22.4649 20.0418 22.1958 18.8055C21.9268 17.5692 21.6312 15.8255 21.3546 15.2687C21.0767 14.7119 21.0717 14.7233 20.4767 14.4905C19.8818 14.2564 18.9648 13.9742 18.9648 13.9742Z" fill="#707070"/>
<path fill-rule="evenodd" clip-rule="evenodd" d="M9.18071 6.22613C9.32723 5.80095 9.03798 5.43778 8.61484 5.28467C8.49358 5.24038 8.47463 5.37072 8.40769 5.49093C8.37106 5.55673 8.26243 5.63265 8.19927 5.67441C7.99212 5.80855 7.87718 5.81487 7.71424 5.90978C7.71171 5.93002 7.71171 6.3957 7.7155 6.40455C7.73192 6.44758 7.91381 6.62726 7.98202 6.76772C8.11465 7.04358 8.18538 7.39537 8.07675 7.70919C7.96181 8.04199 7.7534 8.28115 7.50709 8.42035C7.20899 8.59118 7.08016 8.55954 6.70122 8.56207C6.53449 8.56207 6.56354 8.78731 6.55091 8.92398C6.51428 9.31246 6.45492 9.50227 6.25787 9.85152C6.21492 9.92745 6.04819 10.1362 6.00525 10.2122L6.25282 10.3526L6.40692 10.3944C6.79469 10.5285 7.34036 10.2235 7.45656 9.89328C7.53993 9.65285 7.6094 9.35295 7.51719 9.1682L7.36815 9.11632L7.25068 8.71645C7.53993 8.8316 7.49067 8.80123 7.79634 8.87336L8.86367 9.14542C9.18577 9.23274 9.72764 9.35295 9.98658 9.43141C10.368 9.54656 10.7735 9.62628 11.1057 9.72625L14.3506 10.5677L14.866 9.88569C14.8395 9.86164 14.4454 9.70347 14.3822 9.67816L12.5065 8.86071C12.3713 8.82021 12.2918 8.7658 12.1654 8.71266L11.3255 8.3634C11.2333 8.32797 11.1221 8.25584 10.968 8.19763L8.36222 7.04105C8.40516 6.94488 9.01398 6.71205 9.14408 6.33242L9.18071 6.22613ZM5.94462 4.78736C6.00272 4.70511 6.47386 4.75952 6.62165 4.78357C6.92985 4.83418 7.36057 5.10371 7.4894 5.3568C7.52604 5.43019 7.55509 5.60735 7.63466 5.58583C7.80139 5.54028 8.01991 5.41247 8.14496 5.25556C8.77525 4.46721 8.09065 3.37011 7.29615 3.09551L7.06374 3.01453L7.065 2.98922L5.69452 2.92975C5.692 2.94493 5.89283 3.38782 5.91809 3.56371C5.93072 3.6485 5.98251 4.22805 5.90294 4.28626C5.8802 4.25336 5.90672 3.72316 5.50632 3.24357C5.21328 2.89431 4.8975 2.69565 4.38088 2.60707C4.00574 2.5438 3.51818 2.65389 3.21629 2.74626C2.94599 2.82851 2.53042 3.18536 2.39401 3.58396C2.27906 3.91423 2.29422 4.42293 2.42053 4.63551L2.88157 4.60768L2.88283 4.63172C2.83231 4.67221 2.4079 4.63804 2.03276 4.97085C1.54141 5.40741 1.41762 5.90472 1.3671 6.58804C1.33678 7.01954 1.47699 7.41561 1.79277 7.70286C1.90139 7.80156 1.96202 7.81548 2.07065 7.8952C2.33969 8.09134 2.35359 7.95215 2.44453 7.75474C2.4458 7.75727 2.37127 8.08881 2.36243 8.13436C2.34222 8.23433 2.33717 8.3672 2.33969 8.46843C2.35864 9.12138 2.75273 9.78192 3.47144 10.0072L3.76701 10.0742C4.14342 10.2058 4.32657 10.3273 4.69414 10.321C4.96065 10.3172 5.2398 10.2489 5.44948 10.1324C5.62126 10.0388 5.91304 9.78952 6.02293 9.5744C6.23387 9.16061 6.20987 9.09734 6.22882 8.69241C6.21871 8.69241 5.9522 8.85438 5.7501 8.86577C5.62631 8.8721 5.28148 8.82022 5.1817 8.70886C5.21328 8.66837 5.35348 8.73037 5.42043 8.74429C5.61747 8.78478 5.86252 8.7367 6.02672 8.69241C6.20103 8.64559 6.51554 8.3343 6.59386 8.11032C6.69364 7.82561 6.73406 7.59277 6.65954 7.35108C6.62291 7.23592 6.60396 7.16253 6.5446 7.06256C6.50291 6.9917 6.36776 6.8563 6.34502 6.81454C6.51302 6.74874 6.87427 7.39031 6.90332 7.50546C6.95511 7.71551 6.969 8.06603 6.86922 8.24952C6.82501 8.32797 6.75554 8.38491 6.73659 8.4697C7.35046 8.61269 7.93528 8.0344 7.78118 7.31565C7.72055 7.03473 7.48183 6.87528 7.41867 6.79683C7.27468 6.61208 7.28983 6.51085 6.96395 6.3185C6.68354 6.15147 6.72143 6.23625 6.47386 6.1869C6.54207 6.09959 6.98037 6.07302 7.17363 6.13629C7.2532 6.16286 7.4212 6.25017 7.43257 6.2527C7.57024 5.88321 7.32899 5.45929 7.07889 5.25683C6.94627 5.14927 6.76438 5.00628 6.58628 4.9139C6.34376 4.7861 6.03809 4.82659 5.94462 4.78736ZM8.77778 4.28879C8.76641 4.34447 8.78409 4.41786 8.78409 4.47734C8.78409 4.5444 8.77904 4.59629 8.77525 4.66082C8.7702 4.76965 8.67673 5.05057 8.6982 5.06702C8.72725 5.09106 8.67926 5.06955 8.75378 5.09233C8.92304 5.14547 9.05314 5.21634 9.19966 5.31883C9.43207 5.4555 9.55333 5.80348 9.58112 6.04771C9.59754 6.18817 9.53944 6.41215 9.46239 6.57159C9.38913 6.72344 9.21355 6.88035 9.1845 6.94868L12.6189 8.54942C12.6315 8.57093 12.6189 8.55574 12.6404 8.57473C12.648 8.58105 12.6492 8.58232 12.6568 8.58738L12.9347 8.71645C13.0926 8.78858 14.093 9.24919 14.2167 9.32005C14.2698 9.35169 14.3367 9.36814 14.3936 9.39597C14.5287 9.46557 15.1805 9.75535 15.1792 9.78066L15.1679 9.83887C15.106 10.0224 14.8142 10.9005 14.7851 10.9195C14.7498 10.9448 14.7182 10.9056 14.674 10.9233L7.99086 9.18718C7.94918 9.34662 8.00728 9.6731 7.7635 10.016C7.53488 10.3412 7.47677 10.2931 7.23805 10.4804C7.19889 10.4842 7.17489 10.4994 7.1471 10.5083C7.113 10.5209 7.09279 10.5197 7.06374 10.5488C6.86795 10.5589 6.77954 10.6057 6.50165 10.5779C6.22629 10.55 6.05451 10.3653 5.87767 10.3096C5.2057 10.8423 4.199 11.1233 3.22893 10.4564C2.82347 10.178 2.562 9.84519 2.38896 9.4428C2.25254 9.12265 2.20454 8.8025 2.23486 8.45831C2.23865 8.41402 2.29422 8.07362 2.2917 8.06983C2.26012 8.00909 2.05676 7.97366 1.97592 7.94076C1.88371 7.90406 1.7915 7.83699 1.71698 7.78385C1.60583 7.70539 1.4151 7.52444 1.33805 7.40422C1.12079 7.0651 1.03237 6.85757 1.00332 6.4286C0.974269 5.99583 1.13847 5.59849 1.39236 5.25683C1.51362 5.09233 1.6273 4.99869 1.78266 4.89113C1.94181 4.77977 2.12749 4.74687 2.24622 4.67221C2.24622 4.66968 2.12118 4.20528 2.1136 4.08633C2.0656 3.33847 2.41169 2.68679 2.98641 2.3097C3.26177 2.12874 3.7607 1.95665 4.15352 2.00979C4.36446 2.03763 4.69793 2.08319 4.90129 2.21353C5.00107 2.27806 5.10465 2.33247 5.19307 2.39827C5.26633 2.45395 5.38632 2.58682 5.43558 2.61339C5.50379 2.62099 5.89157 2.3059 6.40186 2.335C6.77701 2.35652 7.23299 2.41852 7.58919 2.65768C8.00349 2.93481 8.11338 3.02339 8.39885 3.36884C8.55421 3.55612 8.77904 4.05722 8.77778 4.28879Z" fill="#707070"/>
<path fill-rule="evenodd" clip-rule="evenodd" d="M4.62593 4.03445C4.68782 4.08633 4.82297 4.12935 4.9215 4.21666C5.00486 4.29006 5.06044 4.36472 5.12107 4.44697C5.21454 4.57477 5.30422 4.81394 5.34085 4.99362C5.43432 5.46056 5.38001 5.84524 5.19938 6.37039C4.91897 7.17898 4.00953 8.01542 3.27061 7.76613C2.69589 7.57379 3.23019 7.69906 3.42723 7.65857C3.6407 7.61555 3.76701 7.54722 3.95395 7.40043C4.6373 6.86136 5.09454 5.85284 5.0137 4.95946C4.98592 4.65829 4.87981 4.3508 4.67772 4.14201C4.62593 4.08759 4.60319 4.08506 4.55014 4.0433C4.44909 3.96485 4.58046 3.99648 4.62593 4.03445Z" fill="#707070"/>
<path fill-rule="evenodd" clip-rule="evenodd" d="M23.0408 11.8205C22.3916 11.5801 17.6676 9.92112 17.3669 9.81103C17.0676 9.69967 16.9135 10.0413 16.9135 10.0413C16.9135 10.0413 15.8664 9.5668 15.5733 9.51619C15.2803 9.46431 15.0416 9.57566 15.0416 9.57566C15.0416 9.57566 15.1641 9.41496 14.8938 9.30107C14.6235 9.18718 13.2416 8.65951 13.2416 8.65951C12.6176 8.77339 12.2021 9.89581 12.5002 10.5614C12.5002 10.5614 14.0134 11.1929 14.1549 11.2308C14.2976 11.2688 14.4959 11.0018 14.4959 11.0018C14.4959 11.0018 14.626 11.4181 14.9531 11.5674C15.2815 11.718 15.9952 11.9407 15.9952 11.9407L16.2428 11.7484C16.2428 11.7484 16.0836 12.009 16.2579 12.2077C16.4335 12.4076 17.0878 12.7493 17.1598 13.1732C17.2293 13.5971 16.1632 14.9941 16.6659 17.4832C17.1699 19.9722 17.6019 21.4958 18.5454 21.7868C19.4877 22.0779 22.8236 21.3047 23.0206 21.3073C23.2189 21.3085 23.0434 22.2108 23.3149 22.3968C23.5878 22.5815 24.5995 22.5296 24.5705 22.1487C24.5389 21.7679 24.2901 21.1352 24.4682 21.0744C24.6475 21.0124 25.0252 20.9099 24.9987 20.5594C24.9709 20.2076 24.621 19.9647 24.424 19.9204C24.2282 19.8761 24.3595 18.3614 23.8353 17.0871C23.3099 15.8141 23.1406 15.1536 23.1406 15.1536L23.4488 14.4715C23.4488 14.4715 24.117 14.5829 24.424 13.73C24.7309 12.8771 23.0408 11.8205 23.0408 11.8205ZM17.8356 14.1121C17.6524 14.0299 17.127 14.9587 17.3051 16.7872C17.4844 18.6157 18.4823 20.648 18.4823 20.648C18.4823 20.648 18.4899 20.3949 18.668 20.3746C18.8448 20.3544 19.0305 20.6227 19.2262 20.3962C19.4233 20.1709 19.9803 16.7657 19.9007 16.0963C19.8199 15.4269 19.0696 15.1928 18.548 14.7588C18.0263 14.3247 17.8356 14.1121 17.8356 14.1121ZM18.9648 13.9742C18.9648 13.9742 19.0608 14.1805 19.6254 14.531C20.1913 14.8815 20.7054 15.413 20.6308 16.3089C20.5563 17.2061 20.387 17.7831 20.387 17.7831L20.5399 17.8679C20.5399 17.8679 20.0005 20.1848 19.8704 20.5771C19.7391 20.9694 18.8713 21.0175 18.8713 21.0175C18.8713 21.0175 19.1328 21.3844 20.1938 21.1225C21.2548 20.8606 22.1226 20.7403 22.2666 20.6948C22.4118 20.648 22.4649 20.0418 22.1958 18.8055C21.9268 17.5692 21.6312 15.8255 21.3546 15.2687C21.0767 14.7119 21.0717 14.7233 20.4767 14.4905C19.8818 14.2564 18.9648 13.9742 18.9648 13.9742Z" stroke="#707070" stroke-width="0.2736" stroke-miterlimit="22.9256"/>
<path fill-rule="evenodd" clip-rule="evenodd" d="M9.18071 6.22613C9.32723 5.80095 9.03798 5.43778 8.61484 5.28467C8.49358 5.24038 8.47463 5.37072 8.40769 5.49093C8.37106 5.55673 8.26243 5.63265 8.19927 5.67441C7.99212 5.80855 7.87718 5.81487 7.71424 5.90978C7.71171 5.93002 7.71171 6.3957 7.7155 6.40455C7.73192 6.44758 7.91381 6.62726 7.98202 6.76772C8.11465 7.04358 8.18538 7.39537 8.07675 7.70919C7.96181 8.04199 7.7534 8.28115 7.50709 8.42035C7.20899 8.59118 7.08016 8.55954 6.70122 8.56207C6.53449 8.56207 6.56354 8.78731 6.55091 8.92398C6.51428 9.31246 6.45492 9.50227 6.25787 9.85152C6.21492 9.92745 6.04819 10.1362 6.00525 10.2122L6.25282 10.3526L6.40692 10.3944C6.79469 10.5285 7.34036 10.2235 7.45656 9.89328C7.53993 9.65285 7.6094 9.35295 7.51719 9.1682L7.36815 9.11632L7.25068 8.71645C7.53993 8.8316 7.49067 8.80123 7.79634 8.87336L8.86367 9.14542C9.18577 9.23274 9.72764 9.35295 9.98658 9.43141C10.368 9.54656 10.7735 9.62628 11.1057 9.72625L14.3506 10.5677L14.866 9.88569C14.8395 9.86164 14.4454 9.70347 14.3822 9.67816L12.5065 8.86071C12.3713 8.82021 12.2918 8.7658 12.1654 8.71266L11.3255 8.3634C11.2333 8.32797 11.1221 8.25584 10.968 8.19763L8.36222 7.04105C8.40516 6.94488 9.01398 6.71205 9.14408 6.33242L9.18071 6.22613ZM5.94462 4.78736C6.00272 4.70511 6.47386 4.75952 6.62165 4.78357C6.92985 4.83418 7.36057 5.10371 7.4894 5.3568C7.52604 5.43019 7.55509 5.60735 7.63466 5.58583C7.80139 5.54028 8.01991 5.41247 8.14496 5.25556C8.77525 4.46721 8.09065 3.37011 7.29615 3.09551L7.06374 3.01453L7.065 2.98922L5.69452 2.92975C5.692 2.94493 5.89283 3.38782 5.91809 3.56371C5.93072 3.6485 5.98251 4.22805 5.90294 4.28626C5.8802 4.25336 5.90672 3.72316 5.50632 3.24357C5.21328 2.89431 4.8975 2.69565 4.38088 2.60707C4.00574 2.5438 3.51818 2.65389 3.21629 2.74626C2.94599 2.82851 2.53042 3.18536 2.39401 3.58396C2.27906 3.91423 2.29422 4.42293 2.42053 4.63551L2.88157 4.60768L2.88283 4.63172C2.83231 4.67221 2.4079 4.63804 2.03276 4.97085C1.54141 5.40741 1.41762 5.90472 1.3671 6.58804C1.33678 7.01954 1.47699 7.41561 1.79277 7.70286C1.90139 7.80156 1.96202 7.81548 2.07065 7.8952C2.33969 8.09134 2.35359 7.95215 2.44453 7.75474C2.4458 7.75727 2.37127 8.08881 2.36243 8.13436C2.34222 8.23433 2.33717 8.3672 2.33969 8.46843C2.35864 9.12138 2.75273 9.78192 3.47144 10.0072L3.76701 10.0742C4.14342 10.2058 4.32657 10.3273 4.69414 10.321C4.96065 10.3172 5.2398 10.2489 5.44948 10.1324C5.62126 10.0388 5.91304 9.78952 6.02293 9.5744C6.23387 9.16061 6.20987 9.09734 6.22882 8.69241C6.21871 8.69241 5.9522 8.85438 5.7501 8.86577C5.62631 8.8721 5.28148 8.82022 5.1817 8.70886C5.21328 8.66837 5.35348 8.73037 5.42043 8.74429C5.61747 8.78478 5.86252 8.7367 6.02672 8.69241C6.20103 8.64559 6.51554 8.3343 6.59386 8.11032C6.69364 7.82561 6.73406 7.59277 6.65954 7.35108C6.62291 7.23592 6.60396 7.16253 6.5446 7.06256C6.50291 6.9917 6.36776 6.8563 6.34502 6.81454C6.51302 6.74874 6.87427 7.39031 6.90332 7.50546C6.95511 7.71551 6.969 8.06603 6.86922 8.24952C6.82501 8.32797 6.75554 8.38491 6.73659 8.4697C7.35046 8.61269 7.93528 8.0344 7.78118 7.31565C7.72055 7.03473 7.48183 6.87528 7.41867 6.79683C7.27468 6.61208 7.28983 6.51085 6.96395 6.3185C6.68354 6.15147 6.72143 6.23625 6.47386 6.1869C6.54207 6.09959 6.98037 6.07302 7.17363 6.13629C7.2532 6.16286 7.4212 6.25017 7.43257 6.2527C7.57024 5.88321 7.32899 5.45929 7.07889 5.25683C6.94627 5.14927 6.76438 5.00628 6.58628 4.9139C6.34376 4.7861 6.03809 4.82659 5.94462 4.78736ZM8.77778 4.28879C8.76641 4.34447 8.78409 4.41786 8.78409 4.47734C8.78409 4.5444 8.77904 4.59629 8.77525 4.66082C8.7702 4.76965 8.67673 5.05057 8.6982 5.06702C8.72725 5.09106 8.67926 5.06955 8.75378 5.09233C8.92304 5.14547 9.05314 5.21634 9.19966 5.31883C9.43207 5.4555 9.55333 5.80348 9.58112 6.04771C9.59754 6.18817 9.53944 6.41215 9.46239 6.57159C9.38913 6.72344 9.21355 6.88035 9.1845 6.94868L12.6189 8.54942C12.6315 8.57093 12.6189 8.55574 12.6404 8.57473C12.648 8.58105 12.6492 8.58232 12.6568 8.58738L12.9347 8.71645C13.0926 8.78858 14.093 9.24919 14.2167 9.32005C14.2698 9.35169 14.3367 9.36814 14.3936 9.39597C14.5287 9.46557 15.1805 9.75535 15.1792 9.78066L15.1679 9.83887C15.106 10.0224 14.8142 10.9005 14.7851 10.9195C14.7498 10.9448 14.7182 10.9056 14.674 10.9233L7.99086 9.18718C7.94918 9.34662 8.00728 9.6731 7.7635 10.016C7.53488 10.3412 7.47677 10.2931 7.23805 10.4804C7.19889 10.4842 7.17489 10.4994 7.1471 10.5083C7.113 10.5209 7.09279 10.5197 7.06374 10.5488C6.86795 10.5589 6.77954 10.6057 6.50165 10.5779C6.22629 10.55 6.05451 10.3653 5.87767 10.3096C5.2057 10.8423 4.199 11.1233 3.22893 10.4564C2.82347 10.178 2.562 9.84519 2.38896 9.4428C2.25254 9.12265 2.20454 8.8025 2.23486 8.45831C2.23865 8.41402 2.29422 8.07362 2.2917 8.06983C2.26012 8.00909 2.05676 7.97366 1.97592 7.94076C1.88371 7.90406 1.7915 7.83699 1.71698 7.78385C1.60583 7.70539 1.4151 7.52444 1.33805 7.40422C1.12079 7.0651 1.03237 6.85757 1.00332 6.4286C0.974269 5.99583 1.13847 5.59849 1.39236 5.25683C1.51362 5.09233 1.6273 4.99869 1.78266 4.89113C1.94181 4.77977 2.12749 4.74687 2.24622 4.67221C2.24622 4.66968 2.12118 4.20528 2.1136 4.08633C2.0656 3.33847 2.41169 2.68679 2.98641 2.3097C3.26177 2.12874 3.7607 1.95665 4.15352 2.00979C4.36446 2.03763 4.69793 2.08319 4.90129 2.21353C5.00107 2.27806 5.10465 2.33247 5.19307 2.39827C5.26633 2.45395 5.38632 2.58682 5.43558 2.61339C5.50379 2.62099 5.89157 2.3059 6.40186 2.335C6.77701 2.35652 7.23299 2.41852 7.58919 2.65768C8.00349 2.93481 8.11338 3.02339 8.39885 3.36884C8.55421 3.55612 8.77904 4.05722 8.77778 4.28879Z" stroke="#707070" stroke-width="0.2736" stroke-miterlimit="22.9256"/>
<path fill-rule="evenodd" clip-rule="evenodd" d="M4.62593 4.03445C4.68782 4.08633 4.82297 4.12935 4.9215 4.21666C5.00486 4.29006 5.06044 4.36472 5.12107 4.44697C5.21454 4.57477 5.30422 4.81394 5.34085 4.99362C5.43432 5.46056 5.38001 5.84524 5.19938 6.37039C4.91897 7.17898 4.00953 8.01542 3.27061 7.76613C2.69589 7.57379 3.23019 7.69906 3.42723 7.65857C3.6407 7.61555 3.76701 7.54722 3.95395 7.40043C4.6373 6.86136 5.09454 5.85284 5.0137 4.95946C4.98592 4.65829 4.87981 4.3508 4.67772 4.14201C4.62593 4.08759 4.60319 4.08506 4.55014 4.0433C4.44909 3.96485 4.58046 3.99648 4.62593 4.03445Z" stroke="#707070" stroke-width="0.2736" stroke-miterlimit="22.9256"/>
</g>
</g>
</svg>
