<svg width="20" height="24" viewBox="0 0 20 24" fill="none" xmlns="http://www.w3.org/2000/svg">
<g id="perfume 1 1" clip-path="url(#clip0_724_27407)">
<path id="Vector" d="M9.39494 24.0001C9.34166 23.9551 9.27909 23.9225 9.21177 23.9047C7.41621 23.1309 6.07376 21.8631 5.17156 20.1254C4.75904 19.3453 4.49759 18.4933 4.40112 17.6148C4.22598 15.9524 4.46539 14.3628 5.24306 12.8742C5.82307 11.7505 6.72293 10.8266 7.82754 10.2204C7.91352 10.1808 7.98855 10.1205 8.0461 10.045C8.10365 9.96947 8.14197 9.88091 8.15773 9.78705C8.35537 8.81677 8.57388 7.85214 8.78437 6.8859C8.79964 6.81717 8.81329 6.74764 8.83257 6.68052C8.91291 6.40884 9.07359 6.28109 9.35879 6.27624C9.68416 6.27139 10.0103 6.27624 10.3365 6.27624C10.4128 6.28439 10.49 6.27947 10.5647 6.26169C10.6137 6.21721 10.5992 6.1598 10.6 6.10725C10.6 5.70835 10.6 5.31 10.6 4.91218C10.6054 4.87367 10.6031 4.83448 10.5933 4.79687C10.5835 4.75926 10.5664 4.72398 10.543 4.69306C10.3442 4.47147 10.1978 4.20748 10.1148 3.92087H9.51224C9.42627 3.97978 9.34846 4.04994 9.28086 4.12948C8.56678 4.83623 7.76859 5.45137 6.90446 5.9609C6.03841 6.46868 5.11773 6.81636 4.1135 6.93118C2.77105 7.08562 1.52581 6.39833 0.891941 5.13373C0.177734 3.70903 0.459721 1.952 1.59088 0.859623C1.86944 0.580578 2.20087 0.360706 2.56548 0.213057C2.93009 0.0654085 3.32046 -0.00700583 3.71342 0.000111931C4.64615 0.00819764 5.51943 0.26128 6.35253 0.662331C7.42349 1.18235 8.40479 1.87162 9.25917 2.70397C9.41985 2.85598 9.5741 2.94169 9.79262 2.91258C9.89375 2.90651 9.99516 2.90651 10.0963 2.91258C10.1662 2.76219 10.2224 2.61746 10.2987 2.48485C10.6603 1.85902 11.2154 1.51942 11.9232 1.52184C12.7081 1.52184 13.3098 1.90591 13.6416 2.63363C13.9565 3.32415 13.8617 3.98717 13.4006 4.58956C13.3096 4.69477 13.2604 4.8301 13.2624 4.96959C13.2729 5.32132 13.2624 5.67224 13.2672 6.02073C13.2542 6.10668 13.2662 6.19459 13.3018 6.27381H14.0755C14.2233 6.27381 14.3703 6.27381 14.5181 6.27381C14.8033 6.2819 14.9672 6.40399 15.0347 6.68538C15.1215 7.04842 15.1954 7.41309 15.2685 7.78261C15.4291 8.537 15.5842 9.29221 15.7409 10.0369C15.7888 10.0929 15.8494 10.1364 15.9176 10.1638C17.5782 11.0783 18.6355 12.4772 19.1609 14.2876C19.4733 15.338 19.5716 16.4411 19.4501 17.5307C19.3001 18.8239 18.8238 20.057 18.0667 21.1127C17.3058 22.2062 16.2857 23.0911 15.099 23.6872C14.8772 23.798 14.6499 23.8974 14.4257 24.0017L9.39494 24.0001ZM11.9176 10.9158C10.8941 10.9158 9.87055 10.9158 8.84704 10.9158C8.71534 10.9098 8.58428 10.9376 8.46623 10.9967C7.35314 11.5751 6.4672 12.5155 5.95245 13.665C5.61808 14.405 5.41731 15.199 5.35955 16.0098C5.30244 16.601 5.32025 17.1971 5.41257 17.7838C5.58167 18.7552 5.9634 19.6766 6.53008 20.4812C7.28057 21.5717 8.3183 22.4299 9.5267 22.9595C9.61176 22.997 9.70379 23.0157 9.79663 23.0145C11.2084 23.0145 12.62 23.0145 14.0313 23.0145C14.1163 23.0196 14.2014 23.0044 14.2795 22.97C14.4249 22.8972 14.5768 22.8366 14.7214 22.7614C15.8514 22.1754 16.804 21.2942 17.4794 20.2103C18.0124 19.3823 18.3482 18.4414 18.4603 17.4612C18.5748 16.4502 18.4785 15.4263 18.1775 14.4549C17.7092 12.934 16.8005 11.7656 15.389 11.0128C15.2655 10.9468 15.1271 10.914 14.9873 10.9174C13.9649 10.918 12.9416 10.9174 11.9176 10.9158ZM8.57549 3.40905L8.41482 3.26916C7.9087 2.80816 7.36142 2.39512 6.77993 2.03528C5.95325 1.52508 5.08078 1.1402 4.10708 1.01406C3.04902 0.877411 2.23439 1.35366 1.79012 2.2447C1.36433 3.09856 1.3812 3.96858 1.84234 4.79898C2.26171 5.55499 2.91084 5.97707 3.80019 5.94796C4.32784 5.92516 4.84781 5.81223 5.33786 5.61402C6.31718 5.22995 7.1768 4.64939 7.97537 3.971C8.19174 3.80217 8.3926 3.6141 8.57549 3.40905ZM14.151 7.28453H9.7163C9.62069 7.7252 9.52509 8.15697 9.43351 8.58956C9.34192 9.02215 9.22302 9.44179 9.16678 9.89136H14.6973C14.5109 9.01406 14.3325 8.15617 14.151 7.28453ZM11.92 4.31303C12.0393 4.31794 12.1583 4.29876 12.2701 4.25662C12.3819 4.21448 12.4842 4.15023 12.5709 4.06767C12.6577 3.98511 12.7271 3.8859 12.7751 3.7759C12.8232 3.6659 12.8488 3.54733 12.8506 3.42719C12.8524 3.30705 12.8302 3.18776 12.7854 3.07638C12.7407 2.96499 12.6742 2.86375 12.5899 2.77864C12.5057 2.69352 12.4053 2.62625 12.2948 2.58079C12.1843 2.53534 12.0659 2.51261 11.9465 2.51396C11.8272 2.50905 11.7081 2.52823 11.5963 2.57037C11.4845 2.61251 11.3823 2.67675 11.2955 2.75932C11.2088 2.84188 11.1394 2.94109 11.0913 3.05109C11.0433 3.16109 11.0176 3.27966 11.0159 3.3998C11.0141 3.51994 11.0363 3.63922 11.081 3.75061C11.1258 3.862 11.1923 3.96323 11.2765 4.04835C11.3608 4.13346 11.4611 4.20074 11.5717 4.24619C11.6822 4.29165 11.8006 4.31438 11.92 4.31303ZM11.605 5.28736V6.26573C11.8231 6.28466 12.0424 6.28168 12.2598 6.25683V5.29221C12.0421 5.31645 11.8224 5.31482 11.605 5.28736Z" fill="#707070"/>
<path id="Vector_2" d="M18.4869 2.03118C18.4867 2.16108 18.4363 2.28582 18.3463 2.37895C18.2563 2.47208 18.1339 2.52628 18.0049 2.53007C17.872 2.52922 17.7449 2.47568 17.651 2.38106C17.5572 2.28645 17.5042 2.1584 17.5035 2.02471C17.5073 1.89458 17.5614 1.77107 17.6543 1.68046C17.7471 1.58985 17.8715 1.5393 18.0008 1.53957C18.065 1.53902 18.1287 1.55139 18.188 1.57593C18.2474 1.60047 18.3013 1.6367 18.3466 1.6825C18.3919 1.72829 18.4276 1.78272 18.4517 1.84259C18.4758 1.90247 18.4877 1.96659 18.4869 2.03118Z" fill="#707070"/>
<path id="Vector_3" d="M15.4205 3.58031C15.4226 3.64503 15.4119 3.70952 15.3889 3.76999C15.3658 3.83047 15.331 3.88569 15.2865 3.93241C15.2419 3.97913 15.1885 4.0164 15.1295 4.04203C15.0704 4.06766 15.0068 4.08112 14.9424 4.08162C14.8129 4.0843 14.6876 4.03508 14.5941 3.94478C14.5006 3.85448 14.4466 3.7305 14.444 3.60012C14.4413 3.46973 14.4902 3.34363 14.5799 3.24954C14.6696 3.15545 14.7928 3.10108 14.9224 3.0984C14.9866 3.0969 15.0504 3.1082 15.1103 3.13164C15.1701 3.15509 15.2248 3.19022 15.2711 3.23501C15.3174 3.27981 15.3544 3.33338 15.38 3.39264C15.4057 3.4519 15.4194 3.51568 15.4205 3.58031Z" fill="#707070"/>
<path id="Vector_4" d="M17.9744 4.09942C17.8447 4.09645 17.7213 4.04217 17.6311 3.94834C17.5409 3.85451 17.491 3.72868 17.4923 3.59811C17.4937 3.53366 17.5076 3.4701 17.5333 3.41106C17.559 3.35202 17.596 3.29866 17.6423 3.25402C17.6885 3.20938 17.743 3.17434 17.8026 3.15091C17.8623 3.12747 17.926 3.11609 17.99 3.11741C18.0541 3.11874 18.1172 3.13275 18.1759 3.15864C18.2345 3.18453 18.2876 3.2218 18.3319 3.26831C18.3763 3.31483 18.4111 3.36968 18.4344 3.42973C18.4577 3.48979 18.469 3.55387 18.4676 3.61832C18.4671 3.68266 18.4539 3.74624 18.4287 3.80538C18.4036 3.86452 18.367 3.91804 18.3211 3.96281C18.2752 4.00758 18.2209 4.04272 18.1614 4.06617C18.1018 4.08962 18.0383 4.10093 17.9744 4.09942Z" fill="#707070"/>
<path id="Vector_5" d="M17.9768 5.69554C17.9124 5.69502 17.8489 5.68165 17.7897 5.65623C17.7306 5.6308 17.6771 5.59381 17.6322 5.54741C17.5874 5.50101 17.5521 5.44611 17.5285 5.3859C17.5049 5.32569 17.4934 5.26136 17.4947 5.19665C17.4958 5.1322 17.5094 5.06858 17.5349 5.00944C17.5604 4.9503 17.5972 4.89679 17.6432 4.85197C17.6893 4.80714 17.7436 4.77188 17.8032 4.7482C17.8628 4.72452 17.9264 4.71287 17.9904 4.71393C18.0545 4.715 18.1177 4.72874 18.1764 4.75439C18.2352 4.78003 18.2883 4.81708 18.3329 4.8634C18.3774 4.90973 18.4125 4.96443 18.436 5.02438C18.4595 5.08434 18.4711 5.14837 18.47 5.21282C18.4697 5.27729 18.4567 5.34105 18.4316 5.40038C18.4065 5.45971 18.37 5.51341 18.324 5.55836C18.2781 5.6033 18.2237 5.63858 18.1641 5.66213C18.1045 5.68569 18.0408 5.69704 17.9768 5.69554Z" fill="#707070"/>
<path id="Vector_6" d="M16.9404 2.75889C16.9395 2.85657 16.9097 2.95176 16.8549 3.03239C16.8001 3.11303 16.7228 3.17547 16.6327 3.21181C16.5426 3.24814 16.4438 3.25674 16.3488 3.2365C16.2539 3.21626 16.1671 3.16809 16.0993 3.09812C16.0316 3.02814 15.9861 2.9395 15.9685 2.84344C15.9509 2.74737 15.962 2.64821 16.0004 2.55852C16.0389 2.46883 16.103 2.39266 16.1845 2.33966C16.266 2.28665 16.3614 2.25921 16.4584 2.26081C16.5871 2.26499 16.7093 2.3192 16.7992 2.41207C16.889 2.50494 16.9397 2.62925 16.9404 2.75889Z" fill="#707070"/>
<path id="Vector_7" d="M16.9347 4.33719C16.9358 4.43419 16.9084 4.52933 16.8558 4.61062C16.8032 4.6919 16.7278 4.75568 16.6393 4.7939C16.5507 4.83212 16.4528 4.84306 16.3581 4.82535C16.2633 4.80764 16.1759 4.76206 16.1069 4.69438C16.0378 4.6267 15.9903 4.53995 15.9702 4.44508C15.9501 4.35021 15.9584 4.25148 15.994 4.16135C16.0296 4.07123 16.091 3.99375 16.1704 3.9387C16.2497 3.88365 16.3435 3.8535 16.4399 3.85205C16.5687 3.85282 16.6922 3.90378 16.7845 3.99424C16.8767 4.0847 16.9306 4.20762 16.9347 4.33719Z" fill="#707070"/>
</g>
<defs>
<clipPath id="clip0_724_27407">
<rect width="19" height="24" fill="white" transform="translate(0.5)"/>
</clipPath>
</defs>
</svg>
