<svg width="25" height="25" viewBox="0 0 25 25" fill="none" xmlns="http://www.w3.org/2000/svg">
<g id="&#208;&#167;&#208;&#184;&#209;&#129;&#209;&#130;&#208;&#186;&#208;&#176; &#208;&#186;&#208;&#184;&#208;&#187;&#208;&#184;&#208;&#188;&#209;&#150;&#208;&#178;">
<path id="Vector" d="M3.07341 9.5603C2.99392 9.5603 2.92105 9.51724 2.88462 9.44768L2.30168 8.38448L1.23847 7.80153C1.16891 7.7651 1.12585 7.69223 1.12585 7.61274C1.12585 7.53325 1.16891 7.46038 1.23847 7.42395L2.30168 6.841L2.88462 5.7778C2.9608 5.63868 3.18934 5.63868 3.26552 5.7778L3.84846 6.841L4.91167 7.42395C4.98122 7.46038 5.02428 7.53325 5.02428 7.61274C5.02428 7.69223 4.98122 7.7651 4.91167 7.80153L3.84846 8.38448L3.26552 9.44768C3.22577 9.51724 3.1529 9.5603 3.07341 9.5603Z" stroke="#707070" stroke-width="0.5" stroke-miterlimit="22.9256"/>
<path id="Vector_2" d="M6.03115 6.61579C5.95166 6.61579 5.87879 6.57273 5.84236 6.50318L4.95469 4.88021L3.33173 3.99255C3.26217 3.9528 3.21912 3.87993 3.21912 3.80375C3.21912 3.72426 3.26217 3.65139 3.33173 3.61496L4.95469 2.7273L5.84236 1.10433C5.91854 0.965222 6.14708 0.965222 6.22326 1.10433L7.11092 2.7273L8.73388 3.61496C8.80344 3.65139 8.8465 3.72426 8.8465 3.80375C8.8465 3.88325 8.80344 3.95611 8.73388 3.99255L7.11092 4.88021L6.22326 6.50318C6.18351 6.57273 6.11064 6.61579 6.03115 6.61579Z" stroke="#707070" stroke-width="0.5" stroke-miterlimit="22.9256"/>
<g id="Vector_3">
<mask id="path-3-inside-1_453_6394" fill="white">
<path d="M11.854 2.65436C10.9034 2.65436 10.0489 3.22074 9.67793 4.09847L7.8463 8.44735C7.56146 9.12635 7.0017 9.66954 6.31277 9.9312L4.23272 10.7328C3.3285 11.0805 2.71906 11.9649 2.71906 12.9353V22.0836C2.71906 23.3853 3.77895 24.4451 5.08064 24.4451H22.1483C23.4499 24.4451 24.5098 23.3853 24.5098 22.0836V11.2296C24.5098 10.7394 24.4237 10.2591 24.2581 9.80203L22.2244 4.21108C21.8866 3.28036 20.9956 2.65767 20.0053 2.65767H11.854V2.65436ZM22.1483 24.8062H5.08064C3.58022 24.8062 2.35803 23.584 2.35803 22.0836V12.9353C2.35803 11.8158 3.06021 10.7957 4.10355 10.3949L6.18359 9.59336C6.77978 9.36482 7.26336 8.8945 7.51177 8.30493L9.3434 3.95936C9.77067 2.94583 10.7544 2.29333 11.854 2.29333H20.0053C21.148 2.29333 22.1748 3.01208 22.5656 4.08522L24.5993 9.67948C24.7814 10.1763 24.8742 10.6996 24.8742 11.2296V22.0836C24.8709 23.584 23.652 24.8062 22.1483 24.8062Z"/>
<path d="M12.2813 4.46282C11.9004 4.46282 11.5559 4.69136 11.4102 5.04245L9.69447 9.1098C9.15789 10.385 8.11125 11.3985 6.8195 11.8953L5.13692 12.5445C4.77258 12.6836 4.53079 13.038 4.53079 13.4289V21.6894C4.53079 22.2094 4.95475 22.6367 5.47807 22.6367H21.7574C22.2807 22.6367 22.7047 22.2128 22.7047 21.6894V11.266C22.7047 10.9348 22.6484 10.6069 22.5324 10.2956L20.6346 5.08551C20.4988 4.71123 20.1411 4.46282 19.7436 4.46282H12.2813ZM21.7541 23.0143H5.47476C4.74277 23.0143 4.14989 22.4214 4.14989 21.6894V13.4289C4.14989 12.8857 4.49104 12.3888 4.9978 12.1934L6.68039 11.5442C7.87608 11.0839 8.84655 10.1432 9.34338 8.96406L11.0558 4.89671C11.2644 4.4032 11.7414 4.08523 12.278 4.08523H19.7436C20.3 4.08523 20.8002 4.43632 20.989 4.95633L22.8835 10.1631C23.0127 10.5175 23.0756 10.8884 23.0756 11.2627V21.6861C23.079 22.4214 22.4861 23.0143 21.7541 23.0143Z"/>
</mask>
<path d="M11.854 2.65436C10.9034 2.65436 10.0489 3.22074 9.67793 4.09847L7.8463 8.44735C7.56146 9.12635 7.0017 9.66954 6.31277 9.9312L4.23272 10.7328C3.3285 11.0805 2.71906 11.9649 2.71906 12.9353V22.0836C2.71906 23.3853 3.77895 24.4451 5.08064 24.4451H22.1483C23.4499 24.4451 24.5098 23.3853 24.5098 22.0836V11.2296C24.5098 10.7394 24.4237 10.2591 24.2581 9.80203L22.2244 4.21108C21.8866 3.28036 20.9956 2.65767 20.0053 2.65767H11.854V2.65436ZM22.1483 24.8062H5.08064C3.58022 24.8062 2.35803 23.584 2.35803 22.0836V12.9353C2.35803 11.8158 3.06021 10.7957 4.10355 10.3949L6.18359 9.59336C6.77978 9.36482 7.26336 8.8945 7.51177 8.30493L9.3434 3.95936C9.77067 2.94583 10.7544 2.29333 11.854 2.29333H20.0053C21.148 2.29333 22.1748 3.01208 22.5656 4.08522L24.5993 9.67948C24.7814 10.1763 24.8742 10.6996 24.8742 11.2296V22.0836C24.8709 23.584 23.652 24.8062 22.1483 24.8062Z" fill="#707070"/>
<path d="M12.2813 4.46282C11.9004 4.46282 11.5559 4.69136 11.4102 5.04245L9.69447 9.1098C9.15789 10.385 8.11125 11.3985 6.8195 11.8953L5.13692 12.5445C4.77258 12.6836 4.53079 13.038 4.53079 13.4289V21.6894C4.53079 22.2094 4.95475 22.6367 5.47807 22.6367H21.7574C22.2807 22.6367 22.7047 22.2128 22.7047 21.6894V11.266C22.7047 10.9348 22.6484 10.6069 22.5324 10.2956L20.6346 5.08551C20.4988 4.71123 20.1411 4.46282 19.7436 4.46282H12.2813ZM21.7541 23.0143H5.47476C4.74277 23.0143 4.14989 22.4214 4.14989 21.6894V13.4289C4.14989 12.8857 4.49104 12.3888 4.9978 12.1934L6.68039 11.5442C7.87608 11.0839 8.84655 10.1432 9.34338 8.96406L11.0558 4.89671C11.2644 4.4032 11.7414 4.08523 12.278 4.08523H19.7436C20.3 4.08523 20.8002 4.43632 20.989 4.95633L22.8835 10.1631C23.0127 10.5175 23.0756 10.8884 23.0756 11.2627V21.6861C23.079 22.4214 22.4861 23.0143 21.7541 23.0143Z" fill="#707070"/>
<path d="M11.854 2.65436H12.854V1.65436H11.854V2.65436ZM9.67793 4.09847L8.75682 3.70917L8.75634 3.71032L9.67793 4.09847ZM7.8463 8.44735L6.92471 8.0592L6.92416 8.0605L7.8463 8.44735ZM6.31277 9.9312L5.9577 8.99635L5.95319 8.99809L6.31277 9.9312ZM4.23272 10.7328L4.5917 11.6661L4.5923 11.6659L4.23272 10.7328ZM24.2581 9.80203L25.1983 9.46138L25.1979 9.4602L24.2581 9.80203ZM22.2244 4.21108L21.2845 4.55229L21.2847 4.55292L22.2244 4.21108ZM11.854 2.65767H10.854V3.65767H11.854V2.65767ZM4.10355 10.3949L4.46213 11.3284L4.46312 11.328L4.10355 10.3949ZM6.18359 9.59336L5.82566 8.65962L5.82402 8.66025L6.18359 9.59336ZM7.51177 8.30493L6.59028 7.91653L6.59024 7.91664L7.51177 8.30493ZM9.3434 3.95936L8.42194 3.5709L8.42191 3.57096L9.3434 3.95936ZM22.5656 4.08522L23.5054 3.74357L23.5052 3.74301L22.5656 4.08522ZM24.5993 9.67948L23.6594 10.0211L23.6604 10.0237L24.5993 9.67948ZM24.8742 22.0836L25.8742 22.0858V22.0836H24.8742ZM11.4102 5.04245L12.3316 5.43112L12.3338 5.42583L11.4102 5.04245ZM9.69447 9.1098L8.77308 8.72114L8.77274 8.72195L9.69447 9.1098ZM6.8195 11.8953L6.46052 10.962L6.45954 10.9624L6.8195 11.8953ZM5.13692 12.5445L5.49362 13.4787L5.49688 13.4775L5.13692 12.5445ZM22.5324 10.2956L21.5928 10.6378L21.5953 10.6445L22.5324 10.2956ZM20.6346 5.08551L19.6945 5.42658L19.695 5.42778L20.6346 5.08551ZM4.9978 12.1934L5.3576 13.1265L5.35777 13.1264L4.9978 12.1934ZM6.68039 11.5442L6.32106 10.611L6.32042 10.6113L6.68039 11.5442ZM9.34338 8.96406L10.2649 9.35235L10.265 9.35209L9.34338 8.96406ZM11.0558 4.89671L10.1347 4.50728L10.1341 4.50869L11.0558 4.89671ZM20.989 4.95633L20.049 5.2976L20.0492 5.29827L20.989 4.95633ZM22.8835 10.1631L21.9438 10.505L21.944 10.5055L22.8835 10.1631ZM23.0756 21.6861H22.0756L22.0757 21.6906L23.0756 21.6861ZM11.854 1.65436C10.5012 1.65436 9.28406 2.46169 8.75682 3.70917L10.599 4.48777C10.8137 3.9798 11.3057 3.65436 11.854 3.65436V1.65436ZM8.75634 3.71032L6.92471 8.0592L8.7679 8.8355L10.5995 4.48662L8.75634 3.71032ZM6.92416 8.0605C6.74471 8.48826 6.38912 8.83251 5.95771 8.99636L6.66783 10.866C7.61428 10.5066 8.3782 9.76443 8.76845 8.8342L6.92416 8.0605ZM5.95319 8.99809L3.87315 9.79964L4.5923 11.6659L6.67234 10.8643L5.95319 8.99809ZM3.87374 9.79941C2.58432 10.2953 1.71906 11.55 1.71906 12.9353H3.71906C3.71906 12.3797 4.07268 11.8657 4.5917 11.6661L3.87374 9.79941ZM1.71906 12.9353V22.0836H3.71906V12.9353H1.71906ZM1.71906 22.0836C1.71906 23.9375 3.22667 25.4451 5.08064 25.4451V23.4451C4.33124 23.4451 3.71906 22.833 3.71906 22.0836H1.71906ZM5.08064 25.4451H22.1483V23.4451H5.08064V25.4451ZM22.1483 25.4451C24.0022 25.4451 25.5098 23.9375 25.5098 22.0836H23.5098C23.5098 22.833 22.8977 23.4451 22.1483 23.4451V25.4451ZM25.5098 22.0836V11.2296H23.5098V22.0836H25.5098ZM25.5098 11.2296C25.5098 10.6212 25.4028 10.0258 25.1983 9.46138L23.3179 10.1427C23.4446 10.4924 23.5098 10.8575 23.5098 11.2296H25.5098ZM25.1979 9.4602L23.1642 3.86925L21.2847 4.55292L23.3184 10.1439L25.1979 9.4602ZM23.1644 3.86988C22.6826 2.54248 21.4151 1.65767 20.0053 1.65767V3.65767C20.5762 3.65767 21.0906 4.01824 21.2845 4.55229L23.1644 3.86988ZM20.0053 1.65767H11.854V3.65767H20.0053V1.65767ZM12.854 2.65767V2.65436H10.854V2.65767H12.854ZM22.1483 23.8062H5.08064V25.8062H22.1483V23.8062ZM5.08064 23.8062C4.13251 23.8062 3.35803 23.0317 3.35803 22.0836H1.35803C1.35803 24.1363 3.02794 25.8062 5.08064 25.8062V23.8062ZM3.35803 22.0836V12.9353H1.35803V22.0836H3.35803ZM3.35803 12.9353C3.35803 12.2301 3.80486 11.5809 4.46213 11.3284L3.74497 9.46141C2.31557 10.0105 1.35803 11.4015 1.35803 12.9353H3.35803ZM4.46312 11.328L6.54317 10.5265L5.82402 8.66025L3.74397 9.46179L4.46312 11.328ZM6.54153 10.5271C7.39408 10.2003 8.08 9.53173 8.43331 8.69322L6.59024 7.91664C6.44672 8.25725 6.16549 8.52935 5.82566 8.65962L6.54153 10.5271ZM8.43326 8.69333L10.2649 4.34776L8.42191 3.57096L6.59028 7.91653L8.43326 8.69333ZM10.2649 4.34782C10.5358 3.70505 11.1564 3.29333 11.854 3.29333V1.29333C10.3524 1.29333 9.00551 2.18662 8.42194 3.5709L10.2649 4.34782ZM11.854 3.29333H20.0053V1.29333H11.854V3.29333ZM20.0053 3.29333C20.7278 3.29333 21.379 3.74939 21.626 4.42743L23.5052 3.74301C22.9705 2.27477 21.5681 1.29333 20.0053 1.29333V3.29333ZM21.6258 4.42687L23.6594 10.0211L25.5391 9.33783L23.5054 3.74357L21.6258 4.42687ZM23.6604 10.0237C23.802 10.41 23.8742 10.8168 23.8742 11.2296H25.8742C25.8742 10.5825 25.7609 9.94262 25.5381 9.33523L23.6604 10.0237ZM23.8742 11.2296V22.0836H25.8742V11.2296H23.8742ZM23.8742 22.0814C23.8721 23.0324 23.0985 23.8062 22.1483 23.8062V25.8062C24.2055 25.8062 25.8697 24.1355 25.8742 22.0858L23.8742 22.0814ZM12.2813 3.46282C11.4993 3.46282 10.7885 3.93182 10.4866 4.65907L12.3338 5.42583C12.3234 5.45089 12.3015 5.46282 12.2813 5.46282V3.46282ZM10.4888 4.65379L8.77309 8.72114L10.6158 9.49846L12.3316 5.43111L10.4888 4.65379ZM8.77274 8.72195C8.34189 9.74589 7.4987 10.5627 6.46052 10.962L7.17848 12.8287C8.72379 12.2343 9.9739 11.0241 10.6162 9.49764L8.77274 8.72195ZM6.45954 10.9624L4.77695 11.6116L5.49688 13.4775L7.17946 12.8283L6.45954 10.9624ZM4.78021 11.6103C4.02428 11.8989 3.53079 12.6279 3.53079 13.4289H5.53079C5.53079 13.4406 5.52713 13.4503 5.52242 13.4571C5.51762 13.4642 5.50831 13.4731 5.49362 13.4787L4.78021 11.6103ZM3.53079 13.4289V21.6894H5.53079V13.4289H3.53079ZM3.53079 21.6894C3.53079 22.7595 4.40019 23.6367 5.47807 23.6367V21.6367C5.49442 21.6367 5.50887 21.6445 5.51614 21.6518C5.52308 21.6588 5.53079 21.6726 5.53079 21.6894H3.53079ZM5.47807 23.6367H21.7574V21.6367H5.47807V23.6367ZM21.7574 23.6367C22.833 23.6367 23.7047 22.765 23.7047 21.6894H21.7047C21.7047 21.6605 21.7284 21.6367 21.7574 21.6367V23.6367ZM23.7047 21.6894V11.266H21.7047V21.6894H23.7047ZM23.7047 11.266C23.7047 10.8211 23.6289 10.3746 23.4696 9.94662L21.5953 10.6445C21.6678 10.8392 21.7047 11.0485 21.7047 11.266H23.7047ZM23.472 9.95329L21.5742 4.74324L19.695 5.42778L21.5928 10.6378L23.472 9.95329ZM21.5746 4.74443C21.2941 3.97119 20.5582 3.46282 19.7436 3.46282V5.46282C19.724 5.46282 19.7035 5.45128 19.6945 5.42658L21.5746 4.74443ZM19.7436 3.46282H12.2813V5.46282H19.7436V3.46282ZM21.7541 22.0143H5.47476V24.0143H21.7541V22.0143ZM5.47476 22.0143C5.29505 22.0143 5.14989 21.8691 5.14989 21.6894H3.14989C3.14989 22.9737 4.19048 24.0143 5.47476 24.0143V22.0143ZM5.14989 21.6894V13.4289H3.14989V21.6894H5.14989ZM5.14989 13.4289C5.14989 13.2994 5.23632 13.1732 5.3576 13.1265L4.63801 11.2604C3.74576 11.6045 3.14989 12.4719 3.14989 13.4289H5.14989ZM5.35777 13.1264L7.04035 12.4772L6.32042 10.6113L4.63784 11.2605L5.35777 13.1264ZM7.03971 12.4775C8.48892 11.9195 9.66247 10.7822 10.2649 9.35235L8.42184 8.57577C8.03063 9.50423 7.26325 10.2483 6.32106 10.611L7.03971 12.4775ZM10.265 9.35209L11.9774 5.28474L10.1341 4.50869L8.42173 8.57604L10.265 9.35209ZM11.9768 5.28615C12.0298 5.16085 12.1452 5.08523 12.278 5.08523V3.08523C11.3376 3.08523 10.4991 3.64555 10.1347 4.50728L11.9768 5.28615ZM12.278 5.08523H19.7436V3.08523H12.278V5.08523ZM19.7436 5.08523C19.88 5.08523 20.004 5.17366 20.049 5.2976L21.9289 4.61507C21.5963 3.69898 20.7201 3.08523 19.7436 3.08523V5.08523ZM20.0492 5.29827L21.9438 10.505L23.8233 9.82113L21.9287 4.6144L20.0492 5.29827ZM21.944 10.5055C22.0318 10.7463 22.0756 11.0011 22.0756 11.2627H24.0756C24.0756 10.7758 23.9936 10.2886 23.8231 9.82062L21.944 10.5055ZM22.0756 11.2627V21.6861H24.0756V11.2627H22.0756ZM22.0757 21.6906C22.0765 21.8709 21.933 22.0143 21.7541 22.0143V24.0143C23.0391 24.0143 24.0814 22.9719 24.0756 21.6816L22.0757 21.6906Z" fill="#707070" mask="url(#path-3-inside-1_453_6394)"/>
</g>
<path id="Vector_4" d="M10.2157 18.837C10.2143 18.8371 10.2129 18.8371 10.2115 18.8372C10.2103 18.8372 10.209 18.8371 10.2078 18.8371C10.1316 18.8343 10.0854 18.7729 10.0854 18.7148C10.0854 18.6474 10.1403 18.5924 10.2078 18.5924C10.2092 18.5924 10.2105 18.5924 10.2119 18.5925C10.2775 18.5946 10.3302 18.6487 10.3302 18.7148C10.3302 18.7796 10.2795 18.8329 10.2157 18.837ZM7.94356 15.0512C7.94215 15.0513 7.94074 15.0513 7.93932 15.0514C7.93808 15.0514 7.93685 15.0513 7.93563 15.0513C7.85944 15.0484 7.81321 14.9871 7.81321 14.929C7.81321 14.8615 7.86815 14.8066 7.93563 14.8066C7.93698 14.8066 7.93833 14.8066 7.93968 14.8067C8.00529 14.8088 8.05804 14.8629 8.05804 14.929C8.05804 14.9938 8.00735 15.0471 7.94356 15.0512ZM6.42995 18.837C6.42855 18.8371 6.42713 18.8371 6.42571 18.8372C6.42448 18.8372 6.42324 18.8371 6.42202 18.8371C6.34583 18.8343 6.29961 18.7729 6.29961 18.7148C6.29961 18.6474 6.35455 18.5924 6.42202 18.5924C6.42338 18.5924 6.42473 18.5924 6.42607 18.5925C6.49168 18.5946 6.54443 18.6487 6.54443 18.7148C6.54443 18.7796 6.49375 18.8329 6.42995 18.837ZM13.3358 18.6151C13.3344 18.6152 13.333 18.6152 13.3315 18.6153C13.3303 18.6153 13.3291 18.6152 13.3279 18.6152C13.2517 18.6123 13.2054 18.551 13.2054 18.4929C13.2054 18.4254 13.2604 18.3705 13.3279 18.3705C13.3292 18.3705 13.3306 18.3705 13.3319 18.3706C13.3975 18.3727 13.4503 18.4268 13.4503 18.4929C13.4503 18.5577 13.3996 18.611 13.3358 18.6151ZM17.1216 18.6151C17.1202 18.6152 17.1188 18.6152 17.1173 18.6153C17.1161 18.6153 17.1149 18.6152 17.1136 18.6152C17.0375 18.6123 16.9912 18.551 16.9912 18.4929C16.9912 18.4254 17.0462 18.3705 17.1136 18.3705C17.115 18.3705 17.1163 18.3705 17.1177 18.3706C17.1833 18.3727 17.2361 18.4268 17.2361 18.4929C17.2361 18.5577 17.1854 18.611 17.1216 18.6151ZM20.818 18.6151C20.8166 18.6152 20.8152 18.6152 20.8138 18.6153C20.8125 18.6153 20.8113 18.6152 20.8101 18.6152C20.7339 18.6123 20.6877 18.551 20.6877 18.4929C20.6877 18.4254 20.7426 18.3705 20.8101 18.3705C20.8114 18.3705 20.8128 18.3705 20.8141 18.3706C20.8797 18.3727 20.9325 18.4268 20.9325 18.4929C20.9325 18.5577 20.8818 18.611 20.818 18.6151ZM12.3575 8.11257C12.3575 8.0451 12.4124 7.99016 12.4799 7.99016C12.5474 7.99016 12.6023 8.0451 12.6023 8.11257C12.6023 8.18005 12.5474 8.23499 12.4799 8.23499C12.4124 8.23499 12.3575 8.18005 12.3575 8.11257ZM15.0072 10.0071C15.0072 9.93965 15.0622 9.88471 15.1297 9.88471C15.1971 9.88471 15.2521 9.93965 15.2521 10.0071C15.2521 10.0746 15.1971 10.1295 15.1297 10.1295C15.0622 10.1295 15.0072 10.0746 15.0072 10.0071ZM10.8439 11.5208C10.8439 11.4533 10.8988 11.3984 10.9663 11.3984C11.0338 11.3984 11.0887 11.4533 11.0887 11.5208C11.0887 11.5883 11.0338 11.6432 10.9663 11.6432C10.8988 11.6432 10.8439 11.5883 10.8439 11.5208ZM13.4936 12.6569C13.4936 12.5894 13.5486 12.5345 13.6161 12.5345C13.6835 12.5345 13.7385 12.5894 13.7385 12.6569C13.7385 12.7243 13.6835 12.7793 13.6161 12.7793C13.5486 12.7793 13.4936 12.7243 13.4936 12.6569ZM10.8439 15.6842C10.8439 15.6167 10.8988 15.5618 10.9663 15.5618C11.0338 15.5618 11.0887 15.6167 11.0887 15.6842C11.0887 15.7517 11.0338 15.8066 10.9663 15.8066C10.8988 15.8066 10.8439 15.7517 10.8439 15.6842ZM15.3849 15.3066C15.3849 15.2391 15.4398 15.1842 15.5073 15.1842C15.5748 15.1842 15.6297 15.2391 15.6297 15.3066C15.6297 15.3741 15.5748 15.429 15.5073 15.429C15.4398 15.429 15.3849 15.3741 15.3849 15.3066ZM17.1138 12.5707C17.1138 12.5033 17.1688 12.4483 17.2362 12.4483C17.3037 12.4483 17.3586 12.5033 17.3586 12.5707C17.3586 12.6382 17.3037 12.6932 17.2362 12.6932C17.1688 12.6932 17.1138 12.6382 17.1138 12.5707ZM20.7937 12.4615C20.7937 12.394 20.8486 12.339 20.9161 12.339C20.9836 12.339 21.0385 12.394 21.0385 12.4615C21.0385 12.5289 20.9836 12.5839 20.9161 12.5839C20.8486 12.5839 20.7937 12.5289 20.7937 12.4615ZM18.0578 8.11257C18.0578 8.0451 18.1128 7.99016 18.1802 7.99016C18.2477 7.99016 18.3026 8.0451 18.3026 8.11257C18.3026 8.18005 18.2477 8.23499 18.1802 8.23499C18.1128 8.23499 18.0578 8.18005 18.0578 8.11257ZM20.2703 10.0071C20.2703 9.93965 20.3253 9.88471 20.3927 9.88471C20.4602 9.88471 20.5152 9.93965 20.5152 10.0071C20.5152 10.0746 20.4602 10.1295 20.3927 10.1295C20.3253 10.1295 20.2703 10.0746 20.2703 10.0071ZM19.4622 15.3066C19.4622 15.2391 19.5171 15.1842 19.5846 15.1842C19.6521 15.1842 19.707 15.2391 19.707 15.3066C19.707 15.3741 19.6521 15.429 19.5846 15.429C19.5171 15.429 19.4622 15.3741 19.4622 15.3066ZM17.7133 13.9751C17.7133 13.9076 17.7683 13.8527 17.8358 13.8527C17.9032 13.8527 17.9582 13.9076 17.9582 13.9751C17.9582 14.0426 17.9032 14.0975 17.8358 14.0975C17.7683 14.0975 17.7133 14.0426 17.7133 13.9751Z" fill="#707070" stroke="#707070"/>
</g>
</svg>
