<svg width="25" height="24" viewBox="0 0 25 24" fill="none" xmlns="http://www.w3.org/2000/svg">
<g id="Frame 118">
<path id="Vector" d="M15.3958 1.0944e-06C17.5917 -0.00104702 19.7215 0.750768 21.4302 2.13006C23.1388 3.50935 24.3229 5.43274 24.785 7.57944C25.2471 9.72614 24.9593 11.9664 23.9695 13.9265C22.9797 15.8867 21.3479 17.4483 19.346 18.3508C18.7062 19.7654 17.7327 21.0038 16.5092 21.9596C15.2857 22.9154 13.8486 23.5601 12.3211 23.8386C10.7937 24.117 9.22148 24.0208 7.73939 23.5582C6.25729 23.0956 4.90952 22.2804 3.81165 21.1826C2.71379 20.0847 1.8986 18.7369 1.436 17.2548C0.973399 15.7727 0.877191 14.2005 1.15563 12.6731C1.43406 11.1457 2.07883 9.70854 3.03464 8.485C3.99045 7.26146 5.22877 6.28802 6.6434 5.64816C7.40434 3.9645 8.63482 2.53609 10.1873 1.53426C11.7397 0.532434 13.5482 -0.000284465 15.3958 1.0944e-06ZM11.796 8.39964H9.39608V9.59959C8.61625 9.59769 7.86633 9.89954 7.30527 10.4412C6.74421 10.9828 6.41612 11.7216 6.39053 12.501C6.36494 13.2804 6.64386 14.0392 7.16818 14.6164C7.69251 15.1937 8.42101 15.5441 9.19929 15.5933L9.39608 15.5993H11.796L11.904 15.6089C12.0423 15.634 12.1674 15.7068 12.2576 15.8147C12.3477 15.9226 12.397 16.0587 12.397 16.1993C12.397 16.3399 12.3477 16.476 12.2576 16.5839C12.1674 16.6918 12.0423 16.7646 11.904 16.7897L11.796 16.7993H6.99618V19.1992H9.39608V20.3991H11.796V19.1992C12.5758 19.2011 13.3257 18.8992 13.8868 18.3576C14.4478 17.816 14.7759 17.0772 14.8015 16.2978C14.8271 15.5183 14.5482 14.7596 14.0239 14.1823C13.4995 13.6051 12.771 13.2547 11.9928 13.2054L11.796 13.1994H9.39608L9.28808 13.1898C9.14975 13.1648 9.02461 13.092 8.93449 12.9841C8.84437 12.8762 8.79501 12.74 8.79501 12.5995C8.79501 12.4589 8.84437 12.3228 8.93449 12.2149C9.02461 12.107 9.14975 12.0341 9.28808 12.0091L9.39608 11.9995H14.1959V9.59959H11.796V8.39964ZM15.3958 2.3999C14.3791 2.39871 13.3737 2.61342 12.4461 3.02982C11.5186 3.44623 10.69 4.05484 10.0153 4.81539C11.3715 4.73306 12.7298 4.93958 14.0003 5.4213C15.2708 5.90302 16.4245 6.64897 17.3853 7.60981C18.346 8.57065 19.0918 9.72449 19.5734 10.995C20.0549 12.2656 20.2613 13.6239 20.1788 14.9802C21.2698 14.0101 22.0402 12.7314 22.3877 11.3135C22.7352 9.89558 22.6435 8.40553 22.1247 7.04096C21.6059 5.67639 20.6845 4.50177 19.4828 3.6729C18.281 2.84403 16.8557 2.40007 15.3958 2.3999Z" fill="#707070"/>
</g>
</svg>
