<svg width="24" height="24" viewBox="0 0 24 24" fill="none" xmlns="http://www.w3.org/2000/svg">
<g id="Frame 112">
<g id="Vacuum cleaner">
<path fill-rule="evenodd" clip-rule="evenodd" d="M2.41299 23.1948C2.41678 23.1186 2.35993 23.0831 2.33341 23.0135C2.33088 23.0082 2.32709 22.9938 2.32457 22.9898C2.31067 22.9544 2.32204 22.978 2.30436 22.9504C2.30183 22.9465 2.29299 22.936 2.29046 22.932L2.22857 22.7928C2.20709 22.7206 2.17678 22.6903 2.15278 22.622C2.10099 22.4762 1.98984 21.9994 1.93552 21.8956C1.89257 21.8142 1.88752 21.7314 1.90142 21.629C1.92415 21.4621 1.92542 21.5764 1.92163 21.3544C1.92036 21.227 1.90521 21.051 1.93678 20.9262C1.98226 20.741 1.93299 20.8145 1.9911 20.5334L2.05426 20.276C2.06562 20.2103 2.10352 20.1407 2.12752 20.0776C2.13889 20.0474 2.13131 20.0658 2.14141 20.0303C2.14267 20.0251 2.14394 20.0211 2.1452 20.0172C2.14646 20.0132 2.14773 20.008 2.14899 20.004L2.60751 19.1384L3.05213 18.6326C3.12792 18.5565 3.22013 18.5013 3.30223 18.4238L3.42097 18.3384C3.44244 18.3161 3.40707 18.3358 3.46013 18.299L3.49044 18.2819C3.49423 18.2793 3.50813 18.274 3.51192 18.2714C3.56497 18.2425 3.58518 18.2031 3.63949 18.1795L4.24327 17.8957C4.36453 17.8747 4.45043 17.8051 4.58306 17.7972C4.73337 17.788 4.93926 17.7026 5.07821 17.7013C5.23989 17.7 5.63904 17.6777 5.77798 17.721C5.86135 17.7486 5.94977 17.7394 6.03693 17.767C6.15945 17.8064 6.06093 17.7814 6.19735 17.7985C6.28703 17.809 6.2984 17.8235 6.38303 17.855C6.44871 17.88 6.52955 17.8918 6.59397 17.9259C6.61292 17.9351 6.66344 17.964 6.68871 17.9732C6.75439 17.9969 6.74681 17.9719 6.80618 18.0113C6.83902 18.031 6.84786 18.0468 6.89207 18.0665C7.03859 18.1295 6.97417 18.1098 7.08912 18.1689L7.35059 18.3463C7.35312 18.3489 7.3569 18.3515 7.35817 18.3529C7.36196 18.3555 7.36575 18.3581 7.36827 18.3594C7.46048 18.4146 7.43522 18.4172 7.52111 18.475L7.60574 18.5499C7.75858 18.6747 7.9089 18.8192 8.0251 18.9847L8.159 19.1515C8.17668 19.1844 8.16405 19.1844 8.19184 19.2146L8.22721 19.2422C8.29542 19.3131 8.33457 19.4589 8.39015 19.5259L8.55436 19.8898C8.65162 20.0474 8.59352 20.0146 8.65415 20.1407L8.69836 20.2563C8.72741 20.3443 8.69836 20.318 8.7552 20.4822L8.79941 20.6674C8.80825 20.7002 8.80699 20.7055 8.80699 20.741C8.81204 20.9525 8.83983 21.097 8.83856 21.3229C8.83856 21.4043 8.84362 21.5357 8.82972 21.6119C8.80193 21.7643 8.81583 21.7393 8.80699 21.8891C8.8032 21.9626 8.7552 22.0992 8.72993 22.1649C8.70593 22.228 8.72236 22.291 8.69836 22.358L8.61878 22.5958C8.60615 22.6549 8.55562 22.7166 8.51646 22.827L8.32952 23.2026C8.53289 23.2329 10.0348 23.2092 10.3707 23.2092C10.7156 23.2092 12.345 23.2499 12.5509 23.1882C12.5547 23.1869 12.5598 23.1856 12.5636 23.1843C12.7467 23.1317 12.9122 23.1225 13.0789 23.0437C13.1181 23.0253 13.0852 23.0358 13.1231 23.0253C13.1888 23.0082 13.1749 23.0306 13.2381 22.999L13.4124 22.9229C13.4819 22.9018 13.4718 22.8808 13.5425 22.8506C13.5463 22.848 13.5501 22.8467 13.5539 22.8453C13.6132 22.8204 13.6259 22.8217 13.6688 22.7823L13.6852 22.7665C13.689 22.7639 13.6979 22.756 13.7016 22.7534C13.737 22.7298 13.7016 22.7508 13.7421 22.7337L14.0667 22.5353C14.1159 22.5025 14.0793 22.5143 14.1362 22.4775C14.1703 22.4565 14.1943 22.4539 14.2284 22.4276L14.3395 22.3514C14.3724 22.3383 14.3572 22.3488 14.3812 22.3304L15.0027 21.9114C15.0721 21.8562 15.0317 21.8996 15.0911 21.8707C15.1151 21.8575 15.1366 21.8273 15.1631 21.8063L15.1214 21.692C15.1201 21.6881 15.1189 21.6841 15.1176 21.6802L15.0128 21.4043C15.0001 21.3505 14.9938 21.3439 14.9673 21.3032C14.9294 21.2428 14.9143 21.1456 14.8852 21.097L14.7311 20.7528C14.7122 20.7016 14.6743 20.6713 14.6566 20.6227C14.6288 20.5479 14.6616 20.5925 14.6149 20.5216C14.601 20.4993 14.6086 20.5137 14.5909 20.4848L14.5656 20.4296C14.5416 20.3613 14.558 20.385 14.5214 20.3311C14.5037 20.3035 14.5202 20.3351 14.4962 20.293L14.481 20.2602C14.4128 20.0907 14.4785 20.2471 14.4052 20.1131L14.2107 19.7623C14.1551 19.6664 14.0149 19.4077 13.9555 19.3367C13.8974 19.2671 13.9404 19.2908 13.9075 19.2382C13.8835 19.2014 13.8861 19.2395 13.8444 19.1607C13.8141 19.1016 13.8393 19.1239 13.7926 19.0701C13.7269 18.9952 13.7496 18.9742 13.6979 18.9282C13.6145 18.8546 13.7294 18.9702 13.6713 18.9059C13.6435 18.8757 13.6675 18.9059 13.6461 18.8678C13.6347 18.8468 13.6309 18.8376 13.6183 18.8166L13.0852 18.0954C13.0675 18.0744 13.0726 18.0849 13.0524 18.0639C13.0423 18.0534 13.0271 18.031 13.0183 18.0205L12.3918 17.3151C12.3892 17.3138 12.3855 17.3099 12.3829 17.3072L12.2831 17.2035C12.268 17.1838 12.2831 17.1943 12.2579 17.1654C12.2238 17.1233 12.2137 17.1365 12.1846 17.0971L12.0381 16.9447C12.0356 16.9434 12.0318 16.9407 12.0292 16.9394C11.9396 16.8698 11.8714 16.7779 11.7791 16.7095L11.524 16.4757C11.4987 16.4573 11.5076 16.477 11.4722 16.4495C11.452 16.4324 11.4533 16.4127 11.4128 16.3838L11.3307 16.3233C11.2865 16.2774 11.3042 16.2958 11.2512 16.2616L10.6638 15.8045C10.5855 15.7559 10.5122 15.7204 10.4491 15.6587C10.396 15.6074 10.3063 15.5575 10.2419 15.5207C10.2028 15.4997 10.2293 15.5207 10.1901 15.4918L9.75434 15.2304C9.72023 15.2147 9.68108 15.1621 9.6356 15.1451C9.56613 15.1188 9.56361 15.0991 9.50045 15.0623C9.46382 15.04 9.41329 15.0334 9.37035 15.0032C9.29708 14.952 9.28319 14.9585 9.21498 14.9231C9.16572 14.8955 9.17203 14.8836 9.13414 14.8639C9.10003 14.8482 9.06593 14.8442 9.03056 14.8258C8.98383 14.8009 8.9813 14.7851 8.9472 14.7681C8.9093 14.751 8.88656 14.7536 8.84362 14.73C8.80572 14.7103 8.78172 14.6827 8.76025 14.6735C8.72109 14.6564 8.70594 14.6682 8.66173 14.6472C8.61499 14.6249 8.57457 14.5855 8.52152 14.5684L8.48489 14.5566C8.36363 14.5119 8.18679 14.4002 8.07437 14.3779C7.97963 14.3595 8.05921 14.3819 7.98089 14.3372C7.96068 14.3267 7.90258 14.303 7.87984 14.2952L7.68279 14.2098C7.63227 14.1809 7.60069 14.2071 7.43017 14.1191C7.33669 14.0705 7.28238 14.0981 7.16491 14.0232C7.11059 13.9891 7.03228 13.9996 6.95396 13.9681C6.78091 13.8984 6.77081 13.9129 6.62555 13.859L6.4146 13.8052C6.28829 13.7881 6.23019 13.7251 6.08745 13.7132C6.03187 13.7093 5.91567 13.6686 5.85503 13.6528C5.7843 13.6331 5.83988 13.6318 5.74767 13.62C5.69335 13.6134 5.67314 13.6265 5.62135 13.6095C5.59862 13.6016 5.62009 13.6042 5.58346 13.5911C5.57083 13.5871 5.5342 13.5792 5.5203 13.5753C5.48494 13.5661 5.43567 13.5517 5.40662 13.5412C5.31694 13.5123 5.25126 13.5385 5.17041 13.5136L5.05673 13.4847C5.02768 13.4781 4.98852 13.4689 4.94431 13.4571C4.79905 13.4216 4.70937 13.4387 4.46558 13.3783L4.24201 13.3349C4.15485 13.327 4.05127 13.3428 3.96286 13.331C3.88707 13.3218 3.92875 13.3126 3.85423 13.3047C3.81002 13.2981 3.76075 13.3047 3.71528 13.2981C3.65212 13.2889 3.67865 13.2797 3.60539 13.2732C3.38813 13.2535 2.59488 13.1786 2.41172 13.2548L2.31825 13.3021C2.31446 13.3047 2.27783 13.3244 2.27783 13.3244C2.07952 13.419 1.94941 13.6239 1.80668 13.7894C1.65637 13.9641 1.50226 14.1362 1.31785 14.2794L0.986904 14.5671C0.959115 14.5855 0.970484 14.5776 0.945221 14.6039C0.894695 14.659 0.813855 14.7194 0.770908 14.7891L0.637015 14.9914C0.631963 14.9992 0.614279 15.0268 0.611753 15.0321L0.541017 15.1831C0.535964 15.1897 0.518281 15.2239 0.518281 15.2239C0.517017 15.2291 0.510702 15.2423 0.509439 15.2475L0.460176 15.392C0.443755 15.4288 0.421019 15.4446 0.410914 15.4853C0.398282 15.5391 0.405861 15.572 0.381862 15.6311C0.306073 15.815 0.333863 15.8268 0.295968 15.945C0.274495 16.0133 0.251759 16.0908 0.232812 16.167C0.217654 16.2248 0.227759 16.2498 0.22397 16.305L0.0761825 17.2928C0.0686037 17.3401 0.0749194 17.3874 0.07113 17.4346C0.0610249 17.5516 0.0408147 17.5384 0.0408147 17.6921C0.0420778 17.876 0.0496566 18.0823 0.0243939 18.2451C-0.00213199 18.4093 0.0117626 18.6287 0.00923628 18.806C0.0029206 19.1673 -0.00971082 20.1735 0.0130256 20.5282C0.0180782 20.6201 0.0395515 20.6858 0.0420778 20.7896C0.0471304 21.0431 0.0041837 21.3965 0.0584986 21.6237L0.0976559 21.8733C0.146918 22.1491 0.163339 22.0861 0.216391 22.2503L0.2606 22.3488C0.398282 22.5393 0.361651 22.5143 0.552385 22.7061L0.698909 22.8598C0.701435 22.8624 0.705225 22.8651 0.707751 22.8677C0.774697 22.932 0.845433 22.9964 0.930063 23.0253C0.933853 23.0266 0.937642 23.0293 0.941431 23.0306L0.964168 23.0398C0.966694 23.0411 0.970484 23.0424 0.974273 23.045C1.0248 23.07 0.994483 23.0542 1.02101 23.0739C1.08922 23.1265 1.16374 23.1251 1.33427 23.1843C1.49342 23.2407 1.93552 23.2092 2.14646 23.2092C2.1932 23.2092 2.23994 23.2092 2.28667 23.2092C2.32836 23.2105 2.38014 23.2118 2.41299 23.1948Z" fill="#707070"/>
<path fill-rule="evenodd" clip-rule="evenodd" d="M12.6886 12.7858C12.5964 12.8371 12.5913 12.9553 12.532 13.0157C12.5206 13.0262 12.4953 13.0433 12.4941 13.0433L12.3324 13.2469C12.3299 13.2495 12.3261 13.2522 12.3236 13.2548L12.3097 13.2719C12.177 13.4374 12.0394 13.6029 11.8638 13.7251C11.8474 13.7369 11.8398 13.7448 11.8297 13.7553C11.7918 13.7999 11.7514 13.8104 11.7084 13.8538L11.3737 14.0876C11.3194 14.1152 11.2928 14.1625 11.236 14.1861L11.1564 14.2479C11.1261 14.2741 11.0983 14.2794 11.0667 14.3004C11.0465 14.3135 10.9985 14.3608 10.991 14.3661L10.5526 14.6722C10.5501 14.6735 10.5034 14.6997 10.5021 14.7011L10.4276 14.7523C10.3872 14.7759 10.3695 14.7799 10.3594 14.8364C10.4213 14.8836 10.3846 14.8127 10.468 14.9125L11.1261 15.4262C11.2082 15.4774 11.2448 15.5746 11.3446 15.4945L11.5442 15.3473C11.6453 15.279 11.7324 15.191 11.836 15.1319L11.932 15.0544C11.9686 15.0321 11.9509 15.0544 11.9863 15.0295L12.2718 14.814C12.345 14.7405 12.4688 14.6919 12.5345 14.6157L13.012 14.1467C13.0246 14.1257 13.012 14.1388 13.0309 14.1178L13.0991 14.06C13.1004 14.0574 13.1029 14.0521 13.1042 14.0495L13.1926 13.9326C13.1939 13.93 13.1977 13.926 13.1989 13.9234L13.6701 13.1353C13.6991 13.088 13.6802 13.13 13.708 13.0788L13.7825 12.8962C13.8608 12.7714 13.7901 12.8541 13.9012 12.5875L13.972 12.3064C13.9896 12.2486 14.0061 12.217 14.0098 12.1566C14.0225 11.9885 14.049 11.9031 14.0755 11.7061C14.0945 11.5576 14.1021 11.5497 14.1021 11.3816C14.0995 8.93963 14.1197 6.49765 14.1021 4.05568C14.1008 3.96636 14.0983 3.97292 14.1197 3.90724L14.1741 3.65898C14.1804 3.63533 14.1791 3.64978 14.1854 3.61694C14.1993 3.54863 14.1854 3.52367 14.2056 3.45931L14.2915 3.19396C14.2928 3.19002 14.2941 3.18477 14.2953 3.18214C14.2966 3.1782 14.2978 3.17426 14.2991 3.17032L14.3092 3.14799C14.3332 3.09676 14.3206 3.12566 14.3433 3.08756C14.3698 3.04159 14.3559 3.07574 14.3686 3.03502C14.3812 2.99824 14.3762 2.99298 14.3901 2.95752C14.4153 2.88921 14.4368 2.89052 14.4608 2.83798L14.5037 2.73946C14.5719 2.64751 14.5479 2.63437 14.5985 2.5792C14.6162 2.56081 14.6275 2.5503 14.6402 2.52797L15.0835 1.98677C15.0886 1.98151 15.1062 1.96181 15.1062 1.96181L15.1543 1.93028C15.2275 1.8738 15.1757 1.87905 15.2427 1.8449L15.3412 1.75426C15.3437 1.75295 15.3488 1.75032 15.3513 1.74901C15.3551 1.74638 15.3589 1.74507 15.3614 1.74244C15.3639 1.74113 15.369 1.7385 15.3715 1.73719L15.5837 1.58744C15.6342 1.5454 15.6406 1.56905 15.6987 1.52832C15.7972 1.46133 15.9184 1.39434 16.0321 1.36412C16.1117 1.34179 16.1938 1.28794 16.2797 1.2748C16.3378 1.26429 16.3504 1.24853 16.4048 1.22882C16.5071 1.19204 16.5816 1.18679 16.7029 1.18153C16.7963 1.17497 16.7509 1.1592 16.8405 1.14869C16.8936 1.14344 16.9504 1.15001 17.0035 1.13819C17.0818 1.12242 17.2144 1.10797 17.313 1.12899L17.7576 1.18022C17.8675 1.18285 17.9597 1.25378 18.0696 1.27217L18.4662 1.42849C18.47 1.4298 18.4725 1.43374 18.475 1.43506C18.4776 1.43637 18.4814 1.44031 18.4839 1.44163C18.5344 1.47709 18.5976 1.47972 18.6632 1.53095L18.7289 1.56379C18.7744 1.58218 18.7858 1.60057 18.8338 1.62947L19.1117 1.83965C19.1154 1.84227 19.1192 1.8449 19.1218 1.84621L19.2948 2.00384C19.3744 2.08923 19.478 2.18249 19.5449 2.27707L19.6851 2.4728C19.7382 2.55161 19.7356 2.52797 19.7874 2.62518L19.8582 2.76048C19.8594 2.76442 19.8607 2.76836 19.862 2.7723C19.8885 2.82221 19.9049 2.81827 19.9352 2.90234L20.1297 3.40808C20.1411 3.47113 20.1361 3.43829 20.1474 3.47113L20.1891 3.60512C20.1954 3.62219 20.1967 3.62876 20.2017 3.6419C20.2169 3.69182 20.2017 3.62745 20.2131 3.67737C20.2245 3.72728 20.2169 3.77851 20.2194 3.83106C20.222 3.92958 20.2384 3.90724 20.2472 3.97687C20.2965 4.31971 20.2788 4.64811 20.2763 4.99227C20.2624 6.36367 20.2788 7.80862 20.2788 9.1879V19.6441C20.2788 19.8582 20.2927 20.1367 20.2725 20.3416C20.1601 20.385 19.5575 20.3561 19.3858 20.3627C19.2607 20.5124 19.3062 20.6227 19.3062 20.9039C19.3062 21.1127 19.3087 21.3242 19.3062 21.5318C19.2506 21.5515 19.2885 21.5449 19.2152 21.562L18.8881 21.6434C18.7845 21.6789 18.6822 21.6828 18.5748 21.7235C18.4952 21.7524 18.4485 21.7735 18.3614 21.784C18.2603 21.7945 18.1441 21.851 18.0481 21.872C17.9344 21.8982 17.9748 21.8746 17.8397 21.9219C17.8119 21.9311 17.7715 21.9429 17.731 21.9547C17.6641 21.9744 17.6818 21.9744 17.6073 21.9731L17.6035 23.1081L23.9937 23.1146L24 21.9757C23.9116 21.9731 23.8598 21.9508 23.7739 21.9206C23.6463 21.8746 23.5983 21.8904 23.52 21.8615C23.2307 21.7511 23.3129 21.8483 23.0552 21.7235C22.9503 21.6736 22.8202 21.6789 22.7103 21.6408C22.5209 21.5764 22.4956 21.6093 22.4122 21.5777L22.3124 21.5239C22.2948 21.512 22.3137 21.5199 22.2897 21.5081C22.2897 21.3649 22.3023 20.5058 22.2809 20.4428C22.2367 20.3127 21.9866 20.36 21.8527 20.36C21.7276 20.36 21.456 20.3745 21.3487 20.3482C21.3221 19.9462 21.3461 19.4589 21.3461 19.0477V5.86319C21.3461 5.4389 21.3221 4.95287 21.3436 4.5404L21.3411 4.05437C21.3436 3.88491 21.4093 3.91644 21.331 3.72466C21.3133 3.68262 21.3247 3.70101 21.3133 3.65898C21.2792 3.5355 21.235 3.4002 21.2224 3.2649C21.216 3.18345 21.163 3.09938 21.1428 3.01794C21.1213 2.93518 21.1466 2.94569 21.1112 2.87213C21.091 2.83272 21.0708 2.80251 21.0569 2.76704L21.048 2.74209C21.0253 2.65802 21.0367 2.66852 20.9925 2.59496C20.9558 2.53585 20.952 2.47017 20.9154 2.41763C20.8611 2.34144 20.875 2.31385 20.8055 2.20877L20.7676 2.13389C20.7664 2.13126 20.7651 2.12601 20.7626 2.12338L20.491 1.71485C20.4708 1.67807 20.491 1.70172 20.4594 1.66494C20.2207 1.3904 20.1777 1.33785 19.8872 1.04886L19.6043 0.813728C19.6018 0.8111 19.598 0.808473 19.5954 0.80716C19.5917 0.804532 19.5879 0.803219 19.5841 0.800592L19.5121 0.745421C19.459 0.694191 19.4704 0.724403 19.411 0.69025C19.3984 0.682368 19.3491 0.632451 19.3251 0.619315C19.2847 0.596984 19.2645 0.603552 19.2178 0.565458L19.0144 0.439353C18.9651 0.411767 18.955 0.428844 18.8969 0.399945L18.5685 0.243627C18.5155 0.22261 18.4725 0.233118 18.4157 0.20816L18.3273 0.170066C18.2439 0.137226 18.1416 0.128031 18.0645 0.1057C17.6906 0.0032393 17.6212 0.0597239 17.5163 0.0295113C17.4039 -0.00201504 17.0287 -0.00989664 16.9075 0.0137481L16.6233 0.04002C16.5096 0.04002 16.449 0.0741735 16.3555 0.0978182L16.233 0.130658C16.1761 0.14248 16.1471 0.128031 16.0915 0.146421C16.0864 0.147735 16.0738 0.154303 16.07 0.155616L15.8907 0.22655C15.8717 0.231805 15.8667 0.229178 15.849 0.233119C15.777 0.244941 15.7315 0.284349 15.6595 0.310621L14.9938 0.650842C14.9395 0.695504 14.8903 0.712581 14.8385 0.763811C14.8069 0.795337 14.7576 0.80716 14.7172 0.846567L14.4949 1.01865C14.4936 1.02128 14.4898 1.02522 14.4886 1.02784L14.4355 1.08564C14.433 1.08696 14.4279 1.08958 14.4254 1.0909C14.4229 1.09352 14.4178 1.09484 14.4153 1.09746C14.3547 1.14475 14.3837 1.15001 14.3282 1.18285L14.1248 1.39302C14.0932 1.42849 14.1122 1.41535 14.0932 1.439L14.0768 1.45608C13.9581 1.56642 13.8797 1.73587 13.7736 1.85015C13.7711 1.85409 13.761 1.86198 13.7585 1.86592L13.7054 1.95787C13.6688 2.00516 13.6713 1.98677 13.6448 2.05507C13.6183 2.12338 13.617 2.10236 13.5816 2.14965C13.54 2.20482 13.5665 2.19432 13.5336 2.26131C13.5033 2.32305 13.4882 2.30729 13.4654 2.3664C13.4301 2.46492 13.3909 2.51877 13.3694 2.5989L13.3227 2.70136C13.3151 2.71581 13.3025 2.73946 13.2962 2.75785L13.2785 2.84323C13.2659 2.91679 13.2027 2.99561 13.1913 3.07311L13.1282 3.32664C13.089 3.44223 13.1118 3.50003 13.0827 3.60118C13.0537 3.70758 13.0057 4.06094 13.0057 4.18573L13.0069 11.4473C13.0069 11.5011 13.0069 11.555 13.0069 11.6089L12.8124 12.4036C12.7492 12.5901 12.7644 12.4272 12.6886 12.7858Z" fill="#707070"/>
<path fill-rule="evenodd" clip-rule="evenodd" d="M4.14475 20.3679C4.1738 20.3377 4.24832 20.1433 4.47822 19.9857C4.48074 19.9843 4.48453 19.9817 4.48706 19.9804C4.49085 19.9778 4.49464 19.9765 4.49716 19.9738L4.58306 19.92C4.75358 19.8438 4.76242 19.7781 4.986 19.7597C5.09968 19.7505 5.17799 19.6901 5.31189 19.6927C5.46725 19.698 5.61251 19.6809 5.74009 19.7492C5.76283 19.761 5.78177 19.7715 5.80072 19.782C5.84998 19.807 5.87651 19.8215 5.92451 19.8464C5.93082 19.849 5.9864 19.8766 5.98766 19.8766C6.09377 19.9134 6.07608 19.9357 6.16829 19.9791C6.21882 20.0014 6.19861 19.9778 6.2365 20.0251C6.26934 20.0671 6.27313 20.0579 6.31482 20.0855L6.57376 20.3679C6.60155 20.3968 6.59776 20.3916 6.61923 20.431L6.74555 20.6871C6.81123 20.7961 6.77712 20.7961 6.81249 20.9065C6.87565 21.1035 6.91733 21.4267 6.84407 21.6276C6.78218 21.7958 6.80365 21.8142 6.76828 21.8851C6.73797 21.9416 6.71144 22.0388 6.6786 22.0835L6.60408 22.2135C6.57123 22.2713 6.57376 22.2424 6.55481 22.2595C6.52829 22.2831 6.51439 22.3317 6.47271 22.3659C6.41334 22.4158 6.45124 22.3961 6.42345 22.4289L6.37039 22.4697C6.33376 22.4999 6.34766 22.4959 6.32366 22.5183L6.1304 22.6562C6.12787 22.6588 6.12408 22.6614 6.12029 22.6628C6.12029 22.6628 6.09503 22.6785 6.09124 22.6811C6.08366 22.6864 6.04072 22.7179 6.03819 22.7192C5.99777 22.7416 6.01166 22.7284 5.96619 22.7416L5.43694 22.8861C5.2942 22.8966 4.90389 22.8362 4.79653 22.7626C4.74726 22.7271 4.80663 22.7521 4.73716 22.7324C4.65505 22.71 4.64369 22.6917 4.58937 22.6562L4.42769 22.5472C4.33548 22.488 4.25085 22.3895 4.18264 22.3041L4.13969 22.2358C4.13717 22.2332 4.13591 22.2293 4.13338 22.2253L3.96791 21.9324C3.96159 21.9153 3.96412 21.9166 3.95654 21.8956L3.89086 21.7222C3.88075 21.692 3.84538 21.3965 3.84538 21.3557C3.84286 21.16 3.87317 21.1469 3.87696 21.0011C3.87949 20.8474 3.87317 20.762 3.9578 20.674C3.98938 20.6385 4.05633 20.4572 4.06643 20.3968L4.14475 20.3679ZM5.23483 24H5.46725C5.59609 24 5.61378 23.9672 5.7464 23.9685C5.87777 23.9698 5.91567 23.9448 6.01545 23.9094C6.2365 23.8319 6.06598 23.9172 6.32745 23.8003C6.36029 23.7859 6.32997 23.7977 6.36155 23.7872C6.38555 23.778 6.39566 23.7767 6.41966 23.7675C6.49292 23.7386 6.51439 23.7044 6.58134 23.6795C6.63818 23.6598 6.68365 23.6151 6.73165 23.5928C6.76955 23.5757 6.7506 23.5954 6.7847 23.5665C6.80112 23.5534 6.79228 23.5521 6.8226 23.5245C6.9186 23.4378 7.07775 23.3563 7.15986 23.2434C7.19017 23.2026 7.20028 23.2237 7.24196 23.1672L7.37585 23.0004C7.40743 22.9609 7.41122 22.9636 7.44153 22.9097L7.49332 22.8362C7.51606 22.8112 7.49838 22.8388 7.5148 22.8112C7.5489 22.7573 7.51101 22.7731 7.5729 22.7061C7.61585 22.6588 7.60069 22.6693 7.62722 22.6023L7.65627 22.5511C7.67774 22.5222 7.66006 22.5603 7.68911 22.5064L7.81921 22.1426C7.83942 22.0756 7.89248 21.9639 7.89374 21.889L7.91521 21.7432C7.94174 21.65 7.95563 21.3676 7.95311 21.2585C7.95058 21.1061 7.92405 20.959 7.89879 20.8303C7.88742 20.7725 7.90005 20.7252 7.88616 20.6674C7.8849 20.6595 7.85332 20.5728 7.84448 20.5479C7.84195 20.5426 7.82553 20.5019 7.82174 20.4901L7.76742 20.3049C7.73585 20.2313 7.70679 20.1367 7.66258 20.0697L7.34933 19.5771C7.3468 19.5732 7.34554 19.5692 7.34301 19.5666L7.23185 19.4392C7.21417 19.4208 7.21922 19.4287 7.20407 19.4182L7.05123 19.2579C7.04744 19.254 7.03101 19.2369 7.02596 19.233L6.8327 19.095C6.83018 19.0924 6.82639 19.0898 6.82386 19.0872L6.57502 18.9295C6.52955 18.9072 6.48281 18.8625 6.43734 18.8481L6.22261 18.7496C6.15187 18.7351 6.1645 18.7522 6.08998 18.7246C5.7843 18.6116 5.77925 18.6747 5.67062 18.6392C5.51778 18.5932 5.32199 18.6195 5.15652 18.6195C5.09842 18.6195 5.06052 18.6432 4.86095 18.651L4.62474 18.7233C4.57042 18.743 4.64116 18.7246 4.56537 18.7417L4.22685 18.873C4.22306 18.8757 4.21422 18.8835 4.21043 18.8862L3.86559 19.1042C3.86307 19.1069 3.85928 19.1095 3.85675 19.1108L3.63191 19.3C3.60791 19.3262 3.57886 19.3446 3.54728 19.3735C3.51697 19.3985 3.48918 19.4379 3.46518 19.4668C3.43992 19.4957 3.41718 19.5233 3.39065 19.5522L3.31739 19.652C3.31613 19.6546 3.3136 19.6586 3.31108 19.6612C3.30855 19.6651 3.29213 19.6822 3.28834 19.6862C3.25171 19.7216 3.28202 19.6743 3.24918 19.7256L3.13424 19.9279C3.11782 19.9633 3.08876 19.9843 3.06982 20.0251L2.99403 20.1879C2.95866 20.2457 2.96245 20.2983 2.92961 20.364C2.9195 20.3837 2.88287 20.4625 2.87908 20.4743C2.86393 20.5308 2.87908 20.5557 2.85887 20.6135C2.84498 20.653 2.82351 20.6792 2.81466 20.7265C2.80456 20.7817 2.80961 20.8342 2.80835 20.8881C2.80582 20.9971 2.77172 20.9249 2.7793 21.3544C2.78056 21.4608 2.77424 21.5764 2.7793 21.6789C2.78687 21.8221 2.85887 21.9324 2.8715 22.0664C2.88161 22.1741 2.9195 22.2043 2.95361 22.3028C2.96877 22.3449 2.97508 22.4 2.99277 22.4289C3.01424 22.467 3.0294 22.4775 3.04834 22.5275C3.07866 22.6128 3.09634 22.6155 3.13424 22.6864L3.42729 23.1054C3.50434 23.1921 3.61928 23.3274 3.70896 23.3905C3.73549 23.4089 3.72539 23.3944 3.75696 23.422L4.13085 23.6834C4.17633 23.7018 4.14222 23.6834 4.18643 23.7058C4.24832 23.7347 4.27485 23.7649 4.34306 23.7846C4.37337 23.7938 4.41885 23.82 4.4479 23.8358C4.52874 23.8791 4.59948 23.8752 4.6879 23.9094C4.90516 23.9921 4.94937 23.9409 5.08705 23.9777C5.1502 23.9947 5.15778 24 5.23483 24Z" fill="#707070"/>
<path fill-rule="evenodd" clip-rule="evenodd" d="M5.36746 13.0499C5.52662 13.0486 5.56325 13.1195 5.64156 13.1392C5.71483 13.1563 5.67314 13.1247 5.79819 13.1707L5.92451 13.2298C5.98893 13.2508 6.00282 13.2285 6.07987 13.2614C6.12029 13.2797 6.18345 13.3192 6.20492 13.3257C6.24534 13.3389 6.2504 13.331 6.28829 13.3362C6.40829 13.3533 6.41208 13.4032 6.56744 13.4308C6.65081 13.4466 6.7266 13.4939 6.77081 13.5109C6.81502 13.528 6.86933 13.532 6.9186 13.549C6.97544 13.5687 7.0007 13.5819 7.05375 13.6029C7.11059 13.6239 7.15733 13.6239 7.20785 13.6423C7.25964 13.662 7.29248 13.6778 7.34175 13.6962C7.35564 13.7027 7.33038 13.6975 7.37838 13.7093C7.46427 13.729 7.40238 13.6935 7.48448 13.7382C7.55901 13.7802 7.53122 13.7579 7.61332 13.7421C7.6449 13.5674 7.60069 13.6948 7.69164 13.5333C7.72069 13.4807 7.70932 13.4479 7.75479 13.3756C7.75606 13.3717 7.75985 13.3691 7.76111 13.3651C7.76237 13.3638 7.77627 13.3467 7.78132 13.3389C7.81416 13.2863 7.799 13.2863 7.81416 13.2285C7.84953 13.1011 7.83816 13.218 7.90132 13.0223C7.91395 12.9829 7.93037 12.9632 7.94426 12.9316C7.90763 12.9054 7.871 12.8765 7.823 12.866C7.57795 12.8108 7.68153 12.7819 7.54638 12.7648C7.49206 12.7582 7.15986 12.6006 7.02217 12.5717L6.99691 12.5652C6.89081 12.531 6.97165 12.5205 6.7746 12.4745C6.7367 12.4666 6.74176 12.4653 6.70765 12.4482L6.61544 12.401C6.59018 12.3891 6.63439 12.4023 6.58008 12.3891L6.15692 12.2302C6.07987 12.1816 6.10514 12.2105 6.01419 12.1868C5.96493 12.1737 5.9283 12.1435 5.8904 12.1198C5.83735 12.0844 5.79061 12.1028 5.71609 12.0909C5.67693 12.175 5.74893 12.0883 5.63399 12.2801C5.59104 12.3523 5.64662 12.3143 5.54936 12.5139C5.50136 12.6124 5.5342 12.598 5.50262 12.6742C5.48872 12.7096 5.45967 12.7477 5.44578 12.778L5.36746 13.0499Z" fill="#707070"/>
</g>
</g>
</svg>
