<svg width="25" height="24" viewBox="0 0 25 24" fill="none" xmlns="http://www.w3.org/2000/svg">
<g id="Frame 119">
<path id="Vector" d="M22.4849 2C23.0631 2 23.6195 2.23333 24.0231 2.65556C24.4377 3.06667 24.6667 3.63333 24.6667 4.22222V15.3333C24.6667 15.9222 24.4377 16.4889 24.0231 16.9C23.6195 17.3222 23.0631 17.5556 22.4849 17.5556H7.2122C6.63402 17.5556 6.07766 17.3222 5.67402 16.9C5.25948 16.4889 5.03038 15.9222 5.03038 15.3333V4.22222C5.03038 3.63333 5.25948 3.06667 5.67402 2.65556C6.07766 2.23333 6.63402 2 7.2122 2H22.4849ZM2.84857 19.7778H19.2122V22H2.84857C2.27038 22 1.71402 21.7667 1.31038 21.3444C0.895839 20.9333 0.666748 20.3667 0.666748 19.7778V7.55556H2.84857V19.7778Z" fill="#707070"/>
</g>
</svg>
