<svg width="24" height="24" viewBox="0 0 24 24" fill="none" xmlns="http://www.w3.org/2000/svg">
<g id="Frame 113">
<g id="Vector">
<path fill-rule="evenodd" clip-rule="evenodd" d="M18.1319 22.0507V23.4998H21.4612V17.2663H20.9735C20.9735 17.2663 20.9735 16.4311 20.9735 16.1599C20.9735 15.8874 20.1219 15.1089 20.1219 15.1089C20.1219 15.1089 21.86 15.2978 21.9678 15.1089C22.077 14.92 22.1497 14.0025 21.9678 13.8217C21.7873 13.6409 20.2041 13.8973 20.1219 14.2022C20.0411 14.5085 19.9522 14.8364 19.9522 14.8364C19.9522 14.8364 17.4434 11.5564 16.9907 11.5388C16.5393 11.5213 11.996 11.5388 11.996 11.5388C11.996 11.5388 7.45398 11.5213 7.00126 11.5388C6.54855 11.5564 4.03975 14.8364 4.03975 14.8364C4.03975 14.8364 3.95082 14.5085 3.86998 14.2022C3.78779 13.8973 2.20463 13.6409 2.02408 13.8217C1.84219 14.0025 1.91495 14.92 2.02408 15.1089C2.13187 15.2978 3.86998 15.1089 3.86998 15.1089C3.86998 15.1089 3.01979 15.8874 3.01979 16.1599C3.01979 16.4311 3.01979 17.2663 3.01979 17.2663H2.53069V23.4998H5.86004V22.0507H18.1319ZM4.3429 16.7401C4.32 16.8723 4.05322 18.3349 4.3429 18.625C4.63259 18.9151 8.45103 19.0338 8.56017 18.625C8.6693 18.2162 5.31975 16.7765 4.3429 16.7401ZM19.5978 16.7401C19.6194 16.8723 19.8875 18.3349 19.5978 18.625C19.3081 18.9151 15.4897 19.0338 15.3805 18.625C15.2714 18.2162 18.621 16.7765 19.5978 16.7401ZM11.996 21.1265C11.996 21.1265 15.6527 21.1804 16.5218 21.1265C17.3895 21.0711 17.4083 19.4224 17.4083 19.4224H6.58358C6.58358 19.4224 6.60244 21.0711 7.4715 21.1265C8.34055 21.1804 11.996 21.1265 11.996 21.1265ZM17.9688 14.6016C17.9688 14.6016 16.6471 12.3902 16.3399 12.3538C16.0327 12.3173 11.996 12.3538 11.996 12.3538C11.996 12.3538 7.96059 12.3173 7.65204 12.3538C7.34484 12.3902 6.02307 14.6016 6.02307 14.6016H17.9688Z" fill="#707070"/>
<path d="M15.5991 4.49107H15.3037V4.00078H15.6082C15.6726 4.00078 15.7276 4.01062 15.773 4.03029C15.8192 4.04996 15.8548 4.07871 15.8798 4.11654C15.9048 4.15437 15.9173 4.20053 15.9173 4.25501C15.9173 4.33294 15.8908 4.39195 15.8378 4.43206C15.7848 4.4714 15.7052 4.49107 15.5991 4.49107Z" fill="#707070"/>
<path d="M15.5628 3.61036H15.3037V3.16546H15.5719C15.6507 3.16546 15.7158 3.18476 15.7673 3.22335C15.8188 3.26118 15.8446 3.31603 15.8446 3.38791C15.8446 3.43558 15.8325 3.47606 15.8082 3.50935C15.7848 3.54189 15.7518 3.56685 15.7094 3.58426C15.667 3.60166 15.6181 3.61036 15.5628 3.61036Z" fill="#707070"/>
<path d="M19.4318 3.73747H19.6545C19.7288 3.73747 19.792 3.72839 19.8443 3.71023C19.8973 3.69132 19.9379 3.66143 19.9659 3.62057C19.9947 3.57972 20.0091 3.52637 20.0091 3.46055C20.0091 3.39396 19.9947 3.33987 19.9659 3.29825C19.9379 3.25588 19.8973 3.22486 19.8443 3.20519C19.792 3.18476 19.7288 3.17454 19.6545 3.17454H19.4318V3.73747Z" fill="#707070"/>
<path fill-rule="evenodd" clip-rule="evenodd" d="M0 1V6.59298H1.6V8.19097H3.2V8.59047H2.8L0 13.784V23.5H0.8V13.784L3.2 9.38947H12.4V8.59047H4.8V8.19097H6.4V6.59298H24V1H0ZM2.55 2.67063V4.99499H4.12273V4.48653H3.18182V2.67063H2.55ZM6.38722 2.67063H5.7554V4.10519C5.7554 4.17707 5.73949 4.24139 5.70767 4.29813C5.67585 4.35412 5.63191 4.39801 5.57585 4.42979C5.51979 4.46156 5.4554 4.47745 5.38267 4.47745C5.3107 4.47745 5.24631 4.46156 5.18949 4.42979C5.13343 4.39801 5.08949 4.35412 5.05767 4.29813C5.02585 4.24139 5.00994 4.17707 5.00994 4.10519V2.67063H4.37813V4.15967C4.37813 4.33672 4.41979 4.48994 4.50313 4.61932C4.58722 4.74795 4.70464 4.84744 4.8554 4.91781C5.00616 4.98742 5.18191 5.02222 5.38267 5.02222C5.58191 5.02222 5.75691 4.98742 5.90767 4.91781C6.05843 4.84744 6.17585 4.74795 6.25994 4.61932C6.34479 4.48994 6.38722 4.33672 6.38722 4.15967V2.67063ZM7.74659 3.34705L7.36477 2.67063H6.65568L7.34659 3.83281L6.63295 4.99499H7.35114L7.74659 4.30494H7.76477L8.16023 4.99499H8.88295L8.16023 3.83281L8.85568 2.67063H8.15114L7.76477 3.34705H7.74659ZM11.2974 3.54226H11.9384C11.9262 3.39775 11.8918 3.2695 11.8349 3.15752C11.7781 3.04554 11.7031 2.95134 11.6099 2.87492C11.5168 2.79774 11.4084 2.73911 11.2849 2.699C11.1615 2.6589 11.0262 2.63885 10.8793 2.63885C10.6702 2.63885 10.4808 2.68463 10.3111 2.77618C10.1414 2.86697 10.0065 3.00128 9.90653 3.17908C9.80653 3.35613 9.75653 3.57404 9.75653 3.83281C9.75653 4.09006 9.8054 4.30759 9.90312 4.4854C10.0016 4.66321 10.1353 4.79788 10.3043 4.88944C10.474 4.98099 10.6656 5.02676 10.8793 5.02676C11.0497 5.02676 11.1993 5.00066 11.3281 4.94845C11.4569 4.89625 11.5649 4.82739 11.652 4.74189C11.7399 4.65564 11.8077 4.56182 11.8554 4.46043C11.9031 4.35828 11.9308 4.25803 11.9384 4.15967L11.2974 4.15513C11.2899 4.20507 11.2751 4.25009 11.2531 4.29019C11.2319 4.32953 11.2043 4.3632 11.1702 4.3912C11.1361 4.41919 11.0959 4.44076 11.0497 4.45589C11.0035 4.47027 10.9512 4.47745 10.8929 4.47745C10.7906 4.47745 10.7031 4.45362 10.6304 4.40595C10.5577 4.35753 10.502 4.28565 10.4634 4.19031C10.4255 4.09422 10.4065 3.97505 10.4065 3.83281C10.4065 3.69813 10.4251 3.58274 10.4622 3.48665C10.5001 3.39056 10.5554 3.31679 10.6281 3.26534C10.7016 3.21389 10.7914 3.18816 10.8974 3.18816C10.958 3.18816 11.0122 3.19686 11.0599 3.21427C11.1077 3.23091 11.1482 3.25512 11.1815 3.2869C11.2156 3.31792 11.2421 3.355 11.2611 3.39813C11.2808 3.44125 11.2929 3.4893 11.2974 3.54226ZM12.8341 2.67063H12.1295L12.9841 4.26408V4.99499H13.6114V4.26408L14.4659 2.67063H13.7614L13.3068 3.6149H13.2886L12.8341 2.67063ZM15.681 2.67063H14.6719V4.99499H15.7673C15.9363 4.99499 16.0817 4.96661 16.2037 4.90987C16.3257 4.85312 16.4196 4.77519 16.4855 4.67607C16.5522 4.57695 16.5855 4.46383 16.5855 4.33672C16.5855 4.22701 16.5613 4.13168 16.5128 4.05072C16.4643 3.969 16.3991 3.90507 16.3173 3.85891C16.2355 3.812 16.1446 3.78665 16.0446 3.78287V3.76017C16.1348 3.74201 16.2135 3.70948 16.281 3.66257C16.3484 3.6149 16.4007 3.55588 16.4378 3.48552C16.4757 3.41515 16.4946 3.33722 16.4946 3.25172C16.4946 3.13369 16.4635 3.03116 16.4014 2.94415C16.3401 2.85714 16.2488 2.7898 16.1276 2.74213C16.0071 2.69446 15.8582 2.67063 15.681 2.67063ZM18.4866 2.67063H16.8094V4.99499H18.4821V4.48653H17.4412V4.08703H18.4003V3.57858H17.4412V3.17908H18.4866V2.67063ZM19.8045 2.67063H18.8V4.99499H19.4318V4.22777H19.6505L20.0591 4.99499H20.7455L20.2728 4.12836C20.3936 4.0705 20.4882 3.98825 20.5568 3.88161C20.6311 3.76736 20.6682 3.62701 20.6682 3.46055C20.6682 3.2956 20.6322 3.15411 20.5602 3.03608C20.4883 2.91805 20.3875 2.82763 20.258 2.76483C20.1284 2.70203 19.9773 2.67063 19.8045 2.67063Z" fill="#707070"/>
</g>
</g>
</svg>
