<svg width="24" height="24" viewBox="0 0 24 24" fill="none" xmlns="http://www.w3.org/2000/svg">
<g id="Frame 116">
<g id="Vector">
<path fill-rule="evenodd" clip-rule="evenodd" d="M22.5073 7.31037C23.2286 6.79466 23.648 5.96903 23.696 5.32533C23.7591 4.48213 23.7819 3.90117 23.2639 3.04542C22.285 1.42427 20.2172 0.6689 19.0816 1.39415C20.3902 1.46944 21.6749 1.70157 22.8029 3.53227C23.5381 4.72305 23.0265 6.8323 22.5073 7.31037Z" fill="#707070"/>
<path fill-rule="evenodd" clip-rule="evenodd" d="M8.82582 14.9707L9.20099 15.4463C9.97658 15.3798 14.4583 13.524 14.8019 13.3282C14.4571 13.534 10.9606 14.4086 9.57363 14.9695L11.3737 10.8614C10.7976 11.5465 10.516 12.1927 10.089 12.8916C9.70373 13.5215 9.1593 14.3621 8.82582 14.9707Z" fill="#707070"/>
<path fill-rule="evenodd" clip-rule="evenodd" d="M13.8634 4.37548C14.1122 3.83969 13.9366 3.58623 14.2537 2.89234C15.0912 1.05662 17.0036 1.33643 18.6281 2.23359C15.9299 -0.593394 13.089 2.00397 13.8634 4.37548Z" fill="#707070"/>
<path fill-rule="evenodd" clip-rule="evenodd" d="M20.0277 12.2805C20.0984 12.091 20.0845 12.0107 20.0252 11.7798C18.8264 13.4512 17.3308 13.3132 15.9375 12.1375C16.439 12.8464 16.4718 13.273 17.6491 13.4198C18.5813 13.5365 19.1624 13.2341 20.0277 12.2805Z" fill="#707070"/>
<path fill-rule="evenodd" clip-rule="evenodd" d="M23.9183 8.77468C23.4509 9.5426 23.2564 10.6091 21.733 10.8726C21.09 10.9392 19.6538 10.8112 19.0247 10.101C19.7536 11.0232 21.1936 11.3444 21.9262 11.1876C23.0088 10.958 23.8791 10.0244 23.9865 9.17119C24.0294 8.83115 23.96 8.79727 23.9183 8.77468Z" fill="#707070"/>
<path fill-rule="evenodd" clip-rule="evenodd" d="M12.0381 7.65418C12.8566 4.95518 13.9707 5.71933 14.9434 5.56499C14.452 5.26761 13.4149 5.18354 12.8933 5.54115C12.0116 6.14469 11.8132 7.08326 12.0381 7.65418Z" fill="#707070"/>
<path fill-rule="evenodd" clip-rule="evenodd" d="M21.325 7.60273C20.8222 5.74944 19.6563 3.44193 17.1881 3.79201C20.0125 4.89871 19.6108 4.55742 21.325 7.60273Z" fill="#707070"/>
<path fill-rule="evenodd" clip-rule="evenodd" d="M17.1502 10.1901C17.495 8.89263 17.5961 7.09079 15.9767 6.4496C17.3005 8.09711 17.178 7.75205 17.1502 10.1901Z" fill="#707070"/>
<path fill-rule="evenodd" clip-rule="evenodd" d="M0 22.8858C0 22.8858 0.630326 22.1982 0.833697 22.0651C1.03707 21.9334 1.25181 21.9384 1.25181 21.9384C1.25181 21.9384 1.10781 21.8594 1.27328 21.6875C1.43876 21.5168 6.614 16.499 6.614 16.499L6.83 16.4752L6.87295 16.2393C6.87295 16.2393 7.87591 15.174 8.15887 14.9218C8.44055 14.6696 8.90667 15.0924 9.1012 15.2957C9.29573 15.499 9.64815 15.8352 9.35509 16.1715C9.06204 16.5065 7.90244 17.4702 7.90244 17.4702L7.71044 17.4577L7.78118 17.6722C7.78118 17.6722 2.54278 22.8092 2.44804 22.8833C2.35456 22.9573 2.11961 22.8218 2.11961 22.8218C2.11961 22.8218 2.15751 23.1744 1.95919 23.3902C1.76213 23.606 1.29981 24 1.29981 24L1.15454 23.9636L0 22.8858Z" fill="#707070"/>
<path d="M3.98812 5.14858V5.51048H2.47977V5.14858H3.98812ZM2.93155 7.928V4.76496C2.93155 4.60573 2.9692 4.47303 3.04449 4.36687C3.11979 4.26071 3.21755 4.18109 3.33778 4.12801C3.45801 4.07493 3.58492 4.04839 3.71851 4.04839C3.82416 4.04839 3.91039 4.05684 3.97719 4.07373C4.04398 4.09062 4.09377 4.1063 4.12656 4.12077L4.00269 4.48992C3.98083 4.48268 3.95047 4.47363 3.9116 4.46277C3.87396 4.45192 3.82416 4.44649 3.76223 4.44649C3.62014 4.44649 3.51752 4.48208 3.45437 4.55325C3.39243 4.62442 3.36146 4.72877 3.36146 4.8663V7.928H2.93155Z" fill="#707070"/>
<path d="M5.61213 7.9859C5.35953 7.9859 5.13789 7.92619 4.94722 7.80676C4.75777 7.68733 4.60961 7.52025 4.50274 7.30553C4.39708 7.0908 4.34425 6.83988 4.34425 6.55277C4.34425 6.26324 4.39708 6.01051 4.50274 5.79458C4.60961 5.57864 4.75777 5.41096 4.94722 5.29153C5.13789 5.1721 5.35953 5.11239 5.61213 5.11239C5.86474 5.11239 6.08577 5.1721 6.27522 5.29153C6.46589 5.41096 6.61405 5.57864 6.71971 5.79458C6.82658 6.01051 6.88001 6.26324 6.88001 6.55277C6.88001 6.83988 6.82658 7.0908 6.71971 7.30553C6.61405 7.52025 6.46589 7.68733 6.27522 7.80676C6.08577 7.92619 5.86474 7.9859 5.61213 7.9859ZM5.61213 7.60229C5.80401 7.60229 5.96189 7.55343 6.08577 7.45572C6.20964 7.358 6.30133 7.22953 6.36084 7.07029C6.42034 6.91105 6.4501 6.73854 6.4501 6.55277C6.4501 6.36699 6.42034 6.19388 6.36084 6.03343C6.30133 5.87299 6.20964 5.74331 6.08577 5.64439C5.96189 5.54547 5.80401 5.49601 5.61213 5.49601C5.42025 5.49601 5.26237 5.54547 5.1385 5.64439C5.01462 5.74331 4.92293 5.87299 4.86343 6.03343C4.80392 6.19388 4.77416 6.36699 4.77416 6.55277C4.77416 6.73854 4.80392 6.91105 4.86343 7.07029C4.92293 7.22953 5.01462 7.358 5.1385 7.45572C5.26237 7.55343 5.42025 7.60229 5.61213 7.60229Z" fill="#707070"/>
<path d="M8.6657 9.02818C8.45803 9.02818 8.27951 9.00165 8.13013 8.94857C7.98075 8.89669 7.85627 8.82793 7.75669 8.74228C7.65832 8.65784 7.57999 8.56736 7.5217 8.47085L7.86417 8.232C7.90303 8.28266 7.95222 8.34057 8.01172 8.40571C8.07123 8.47206 8.1526 8.52936 8.25583 8.57762C8.36027 8.62708 8.49689 8.65181 8.6657 8.65181C8.89159 8.65181 9.07801 8.59752 9.22495 8.48895C9.3719 8.38038 9.44538 8.21028 9.44538 7.97867V7.4141H9.40894C9.37737 7.46476 9.33243 7.52749 9.27414 7.60229C9.21706 7.67587 9.13448 7.74162 9.02639 7.79952C8.91952 7.85622 8.775 7.88457 8.59284 7.88457C8.36695 7.88457 8.16414 7.83149 7.9844 7.72533C7.80587 7.61917 7.66439 7.46476 7.55995 7.2621C7.45672 7.05943 7.40511 6.81334 7.40511 6.52381C7.40511 6.23912 7.45551 5.99121 7.55631 5.7801C7.65711 5.56779 7.79737 5.40372 7.97711 5.28791C8.15685 5.1709 8.36452 5.11239 8.60012 5.11239C8.78229 5.11239 8.92681 5.14255 9.03368 5.20287C9.14176 5.26198 9.22435 5.32953 9.28143 5.40553C9.33972 5.48033 9.38465 5.54185 9.41623 5.5901H9.45995V5.14858H9.87529V8.00762C9.87529 8.24647 9.82064 8.4407 9.71134 8.59028C9.60325 8.74108 9.45752 8.85146 9.27414 8.92142C9.09197 8.9926 8.88916 9.02818 8.6657 9.02818ZM8.65113 7.50095C8.82358 7.50095 8.96931 7.46175 9.08833 7.38333C9.20735 7.30492 9.29782 7.19213 9.35976 7.04495C9.42169 6.89778 9.45266 6.72165 9.45266 6.51658C9.45266 6.31632 9.4223 6.13959 9.36158 5.98639C9.30086 5.83318 9.21099 5.71315 9.09197 5.62629C8.97296 5.53944 8.82601 5.49601 8.65113 5.49601C8.46896 5.49601 8.31716 5.54185 8.19571 5.63353C8.07548 5.72521 7.98501 5.84826 7.92428 6.00267C7.86478 6.15708 7.83502 6.32839 7.83502 6.51658C7.83502 6.70959 7.86538 6.88029 7.92611 7.02867C7.98804 7.17584 8.07913 7.29165 8.19936 7.3761C8.3208 7.45933 8.47139 7.50095 8.65113 7.50095Z" fill="#707070"/>
</g>
</g>
</svg>
