<svg width="24" height="24" viewBox="0 0 24 24" fill="none" xmlns="http://www.w3.org/2000/svg">
<g id="Frame 103">
<g id="Vector">
<path fill-rule="evenodd" clip-rule="evenodd" d="M15.7418 6.41858C16.5363 6.22519 16.8142 7.46183 16.0159 7.64377C15.2302 7.82316 14.8968 6.62596 15.7418 6.41858ZM15.7216 6.30153C14.749 6.50255 15.0774 7.99873 16.0513 7.75827C16.9734 7.53053 16.6828 6.10178 15.7216 6.30153Z" fill="#707070"/>
<path fill-rule="evenodd" clip-rule="evenodd" d="M17.5064 5.83842C17.8323 5.76845 18.0976 6.00636 18.1519 6.2659C18.3072 7 17.2108 7.20865 17.0694 6.5C16.9986 6.14886 17.2298 5.89822 17.5064 5.83842ZM17.4534 5.74427C16.5679 5.98473 16.9658 7.24936 17.7843 7.02545C18.6117 6.80025 18.2858 5.51908 17.4534 5.74427Z" fill="#707070"/>
<path fill-rule="evenodd" clip-rule="evenodd" d="M10.3027 7.28117C10.2459 6.97201 10.4543 6.7341 10.6993 6.69084C11.3537 6.57125 11.5217 7.55852 10.8825 7.67557C10.5857 7.73028 10.3469 7.52163 10.3027 7.28117ZM10.6349 6.61323C9.85809 6.83588 10.2156 7.97456 10.9608 7.75318C11.6897 7.5369 11.3878 6.39822 10.6349 6.61323Z" fill="#707070"/>
<path fill-rule="evenodd" clip-rule="evenodd" d="M3.86449 7.33461C4.15249 7.26972 4.38617 7.47837 4.44048 7.70356C4.51248 8.00127 4.30533 8.25445 4.08175 8.30789C3.42997 8.46438 3.18871 7.48601 3.86449 7.33461ZM3.80765 7.24809C3.53228 7.32316 3.29355 7.59796 3.38323 7.96692C3.45018 8.24555 3.74575 8.49491 4.11207 8.39695C4.37606 8.32697 4.61353 8.03562 4.53269 7.68957C4.46827 7.40967 4.16764 7.14885 3.80765 7.24809Z" fill="#707070"/>
<path fill-rule="evenodd" clip-rule="evenodd" d="M13.2054 4.79389C13.9216 4.70865 14.5077 5.26209 14.5797 5.8944C14.6631 6.63613 14.125 7.21883 13.4871 7.29517C12.7494 7.38295 12.1646 6.83079 12.0951 6.18702C12.0143 5.43639 12.5574 4.87023 13.2054 4.79389ZM13.1764 4.55344C12.4134 4.64122 11.7692 5.32061 11.8576 6.19466C11.9385 6.97583 12.632 7.62977 13.5098 7.53054C14.2652 7.44402 14.9043 6.75573 14.8172 5.88677C14.7389 5.11705 14.0454 4.45293 13.1764 4.55344Z" fill="#707070"/>
<path fill-rule="evenodd" clip-rule="evenodd" d="M13.5162 7.00764C13.4391 6.93384 13.1233 6.74046 13.0134 6.66921C12.8644 6.57379 12.6534 6.4084 12.4968 6.3397C12.5284 6.77863 13.0488 7.01145 13.5162 7.00764Z" fill="#707070"/>
<path fill-rule="evenodd" clip-rule="evenodd" d="M7.08297 5.48092C7.72212 5.38422 8.20717 5.84224 8.2918 6.38041C8.39411 7.02163 7.92423 7.52036 7.39623 7.60178C6.76087 7.69975 6.26825 7.23664 6.18488 6.70229C6.08383 6.0598 6.54866 5.56234 7.08297 5.48092ZM7.02108 5.28372C6.40467 5.39822 5.85141 5.99364 5.98909 6.76209C6.10151 7.38295 6.69645 7.93639 7.45434 7.79898C8.07328 7.68702 8.62401 7.08906 8.48632 6.31679C8.37643 5.69847 7.78023 5.14249 7.02108 5.28372Z" fill="#707070"/>
<path fill-rule="evenodd" clip-rule="evenodd" d="M6.97687 7.09669C6.8935 7.04326 6.81771 6.99618 6.74066 6.94402C6.65729 6.88677 6.58277 6.82697 6.49056 6.79008C6.52466 7.20484 7.00718 7.41603 7.45686 7.42112L6.97687 7.09669Z" fill="#707070"/>
<path fill-rule="evenodd" clip-rule="evenodd" d="M1.83588 8.24809C2.33861 8.14631 2.72892 8.48601 2.81861 8.88931C2.93482 9.40204 2.57861 9.80916 2.18325 9.89822C1.67546 10.0102 1.26747 9.65013 1.18158 9.25318C1.06663 8.72774 1.4241 8.33206 1.83588 8.24809ZM1.81441 8.09033C1.24094 8.21629 0.918844 8.73537 1.02621 9.27481C1.11842 9.74809 1.59589 10.1845 2.20472 10.0547C2.67966 9.95293 3.09903 9.48601 2.9765 8.86896C2.88429 8.40458 2.40177 7.96183 1.81441 8.09033Z" fill="#707070"/>
<path fill-rule="evenodd" clip-rule="evenodd" d="M1.99883 9.70102C1.9622 9.65013 1.45315 9.3168 1.37357 9.28626C1.39884 9.54835 1.70199 9.71247 1.99883 9.70102Z" fill="#707070"/>
<path fill-rule="evenodd" clip-rule="evenodd" d="M9.00042 5.01527C8.93221 3.93766 10.52 3.85623 10.5882 4.89695C10.6185 5.35751 10.2686 5.72646 9.84799 5.75318C9.39326 5.78117 9.02695 5.43639 9.00042 5.01527ZM9.91367 4H9.65852C9.46778 4.09288 9.35031 4.03181 9.07621 4.33206C8.58485 4.86641 8.92716 5.90204 9.79241 5.90458C10.8017 5.9084 11.0732 4.56616 10.2535 4.11959C10.1271 4.05089 10.0147 4.04707 9.91367 4Z" fill="#707070"/>
<path fill-rule="evenodd" clip-rule="evenodd" d="M9.8581 5.54453C9.8442 5.52799 9.84546 5.52799 9.82525 5.51145L9.71915 5.4402C9.60294 5.36514 9.32631 5.17176 9.24294 5.13868C9.27958 5.41094 9.55494 5.53435 9.8581 5.54453Z" fill="#707070"/>
<path fill-rule="evenodd" clip-rule="evenodd" d="M21.5169 8.3715C21.3855 8.41603 21.0344 8.65776 20.8942 8.743C20.5316 8.96692 20.5657 8.92112 20.7666 9.28881C20.9156 9.56107 21.0129 9.67812 21.0129 10.056C21.0116 10.374 20.9409 10.5662 20.9699 10.9224C21.0142 11.4746 21.6432 12.6603 22.1232 12.7176C22.4339 12.7545 22.6575 12.5916 22.876 12.4682C23.092 12.3473 23.2954 12.2354 23.5101 12.1158C23.7665 11.9746 23.8878 11.8995 23.9585 11.612C24.0255 11.3435 24.0192 11.0356 23.8815 10.7977C23.2954 9.78626 23.4798 9.92621 22.6626 9.07252C22.5059 8.9084 21.8655 8.25445 21.5169 8.3715Z" fill="#707070"/>
<path fill-rule="evenodd" clip-rule="evenodd" d="M18.7228 7.63359L18.8517 7.88422C19.2495 7.757 18.8011 7.68448 19.823 7.92112C20.1502 7.99746 20.1325 8.03817 20.3182 7.92875C20.4445 7.85496 20.6289 7.74173 20.7577 7.68702L21.042 8.20484L21.3009 8.06616L21.0167 7.53944L21.3666 7.39949C21.3009 7.36387 20.0719 7.00509 20.0024 7C19.914 6.99237 18.791 7.57888 18.7228 7.63359Z" fill="#707070"/>
<path fill-rule="evenodd" clip-rule="evenodd" d="M20.0554 8.24936L20.2639 8.63995L20.9118 8.28244L20.6996 7.89186L20.0554 8.24936Z" fill="#707070"/>
<path fill-rule="evenodd" clip-rule="evenodd" d="M18.882 8.22137C18.9502 8.48601 19.1081 8.54453 19.1725 9.18066C19.2976 9.11069 19.3708 8.8855 19.3834 8.67303C19.3999 8.42367 19.338 8.23155 19.2773 8.00636L18.882 8.22137Z" fill="#707070"/>
<path fill-rule="evenodd" clip-rule="evenodd" d="M18.6849 7.99491L18.5472 7.73155C18.2643 7.84224 18.2795 8.17557 18.6849 7.99491Z" fill="#707070"/>
<path fill-rule="evenodd" clip-rule="evenodd" d="M4.54659 5.04707C4.96847 4.94911 5.30573 5.24682 5.37773 5.57506C5.47247 6.00763 5.17689 6.33969 4.85353 6.41221C3.94659 6.61705 3.65733 5.25191 4.54659 5.04707ZM4.52259 4.9173C3.42618 5.18575 3.83796 6.77481 4.88132 6.54071C5.27163 6.45293 5.62152 6.04835 5.50657 5.54326C5.41689 5.15394 5.02279 4.79517 4.52259 4.9173Z" fill="#707070"/>
<path fill-rule="evenodd" clip-rule="evenodd" d="M4.66153 6.29644L4.18154 5.80153C4.20048 6.09415 4.37606 6.27099 4.66153 6.29644Z" fill="#707070"/>
<path fill-rule="evenodd" clip-rule="evenodd" d="M16.0589 18.556V20H19.3557V13.7913H18.8719C18.8719 13.7913 18.8719 12.9618 18.8719 12.6908C18.8719 12.4198 18.0294 11.6438 18.0294 11.6438C18.0294 11.6438 19.7498 11.8321 19.8571 11.6438C19.9645 11.4555 20.0365 10.542 19.8571 10.3626C19.6778 10.1819 18.1102 10.4364 18.0294 10.7417C17.9485 11.0458 17.8614 11.3728 17.8614 11.3728C17.8614 11.3728 15.3768 8.10687 14.9296 8.08779C14.4812 8.06997 9.98315 8.08779 9.98315 8.08779C9.98315 8.08779 5.4851 8.06997 5.03668 8.08779C4.58953 8.10687 2.10493 11.3728 2.10493 11.3728C2.10493 11.3728 2.01778 11.0458 1.93694 10.7417C1.85609 10.4364 0.288536 10.1819 0.10917 10.3626C-0.0701962 10.542 0.00180284 11.4555 0.10917 11.6438C0.2178 11.8321 1.93694 11.6438 1.93694 11.6438C1.93694 11.6438 1.09568 12.4198 1.09568 12.6908C1.09568 12.9618 1.09568 13.7913 1.09568 13.7913H0.610637V20H3.9087V18.556H16.0589ZM2.40556 13.2684C2.38409 13.3995 2.11883 14.8562 2.40556 15.145C2.69229 15.4338 6.47288 15.5522 6.58151 15.145C6.68887 14.7392 3.37313 13.3041 2.40556 13.2684ZM17.5102 13.2684C17.5317 13.3995 17.7969 14.8562 17.5102 15.145C17.2235 15.4338 13.4429 15.5522 13.3343 15.145C13.2269 14.7392 16.5426 13.3041 17.5102 13.2684ZM9.98315 17.6361C9.98315 17.6361 13.6033 17.6908 14.4635 17.6361C15.3237 17.5814 15.3414 15.9402 15.3414 15.9402H4.6249C4.6249 15.9402 4.64258 17.5814 5.50278 17.6361C6.36298 17.6908 9.98315 17.6361 9.98315 17.6361ZM15.8972 11.1387C15.8972 11.1387 14.5886 8.93639 14.2841 8.90076C13.9797 8.86387 9.98315 8.90076 9.98315 8.90076C9.98315 8.90076 5.98783 8.86387 5.68215 8.90076C5.37773 8.93639 4.06912 11.1387 4.06912 11.1387H15.8972Z" fill="#707070"/>
<path fill-rule="evenodd" clip-rule="evenodd" d="M17.831 8.32443C17.7363 8.3715 17.6466 8.45038 17.5557 8.51272C17.5153 8.54199 17.4521 8.57379 17.4647 8.65013C17.4748 8.71629 17.5468 8.74555 17.6113 8.71247C17.6454 8.69593 17.7123 8.64249 17.7464 8.61705C17.8588 8.53435 17.9826 8.48219 17.97 8.38931C17.9624 8.31807 17.9005 8.29008 17.831 8.32443Z" fill="#707070"/>
<path fill-rule="evenodd" clip-rule="evenodd" d="M18.1708 8.7341C18.1165 8.74682 17.8563 9.07506 17.8525 9.12341C17.8475 9.19338 17.9094 9.24428 17.9801 9.22137C18.0268 9.20611 18.1569 9.02672 18.1986 8.97456C18.2277 8.93893 18.2858 8.88041 18.2896 8.83461C18.2959 8.7659 18.2378 8.71629 18.1708 8.7341Z" fill="#707070"/>
<path fill-rule="evenodd" clip-rule="evenodd" d="M17.4963 7.86514C17.3852 7.90458 17.2791 7.93893 17.1679 7.98219C17.0075 8.0458 17.0896 8.2112 17.226 8.17048C17.3283 8.14122 17.447 8.08779 17.5468 8.05089C17.7047 7.99364 17.6492 7.80916 17.4963 7.86514Z" fill="#707070"/>
<path fill-rule="evenodd" clip-rule="evenodd" d="M16.9418 8.83333C16.8433 8.87659 16.7485 8.95293 16.6525 9.01272C16.6096 9.04071 16.5426 9.06998 16.5527 9.14886C16.5603 9.21629 16.6336 9.24937 16.6993 9.2201C16.7346 9.20356 16.8066 9.15267 16.842 9.1285C16.9607 9.04962 17.0896 9.00127 17.082 8.90585C17.0769 8.83333 17.0151 8.80026 16.9418 8.83333Z" fill="#707070"/>
<path fill-rule="evenodd" clip-rule="evenodd" d="M17.3637 9.4542C17.3068 9.46565 17.0252 9.7888 17.0188 9.83842C17.0113 9.90967 17.0719 9.96438 17.1452 9.94529C17.1944 9.9313 17.3359 9.75445 17.3814 9.70229C17.4129 9.66794 17.4748 9.61069 17.4812 9.56361C17.49 9.49364 17.4332 9.4402 17.3637 9.4542Z" fill="#707070"/>
<path fill-rule="evenodd" clip-rule="evenodd" d="M16.5287 8.20484C16.4138 8.24046 16.3052 8.26972 16.189 8.30916C16.021 8.36641 16.098 8.54071 16.2395 8.50509C16.3443 8.47964 16.4681 8.43003 16.573 8.39822C16.7372 8.34606 16.6892 8.15522 16.5287 8.20484Z" fill="#707070"/>
</g>
</g>
</svg>
