<svg width="24" height="24" viewBox="0 0 24 24" fill="none" xmlns="http://www.w3.org/2000/svg">
<g id="cafe" clip-path="url(#clip0_450_3929)">
<g id="Group 31">
<path id="Vector" d="M4.55529 10.962C1.91611 11.8182 0.216064 13.161 0.216064 14.6706C0.216064 17.2566 5.20279 19.353 11.3549 19.353C17.507 19.353 22.4937 17.2566 22.4937 14.6706C22.4937 13.161 20.7937 11.8182 18.1551 10.962" stroke="#707070" stroke-width="0.5" stroke-linecap="round" stroke-linejoin="round"/>
<path id="Vector_2" d="M11.3548 8.5944C16.0101 8.5944 19.7839 7.34205 19.7839 5.7972C19.7839 4.25235 16.0101 3 11.3548 3C6.6996 3 2.92578 4.25235 2.92578 5.7972C2.92578 7.34205 6.6996 8.5944 11.3548 8.5944Z" stroke="#707070" stroke-width="0.5" stroke-linecap="round" stroke-linejoin="round"/>
<path id="Vector_3" d="M3.50003 6.50004C3.00003 4.5 7.61285 3.32722 11.5 3.50007C15.3301 3.50007 18.5431 4.78587 19.5291 5.95227C19.6629 5.77648 20.2871 5.33275 20.4813 5.23468C20.6754 5.13661 20.8884 5.08524 21.1044 5.08437C22.426 5.08437 23 6.04797 23 7.59957C23 9.15118 22.2403 11.2134 18.7453 10.5654" stroke="#707070" stroke-linecap="round" stroke-linejoin="round"/>
<path id="Vector 63" d="M11.7175 16.7523C6.34445 17.0682 2.60388 10.7898 2.60388 5.72729L3.90582 6.40229C7.04703 7.75229 8.20236 7.70907 11.7175 7.63979C14.8571 7.57792 17.0377 7.07729 19.5291 6.17729L20 6C20 11.175 16.8529 16.4503 11.7175 16.7523Z" fill="#707070"/>
<path id="Vector 64" d="M11.609 19.425C6.81786 19.4919 0.489406 18.075 0 14.8125C0.532214 18.3604 4.3398 21 11.609 21C18.8781 21 22.6259 18.1697 22.784 14.8125C22.0245 17.5125 17.6847 19.3401 11.609 19.425Z" fill="#707070"/>
</g>
</g>
<defs>
<clipPath id="clip0_450_3929">
<rect width="24" height="24" fill="white"/>
</clipPath>
</defs>
</svg>
