<svg width="24" height="24" viewBox="0 0 24 24" fill="none" xmlns="http://www.w3.org/2000/svg">
<g id="Frame 111">
<g id="Vector">
<path d="M10.4984 14.2501C7.81032 14.2501 5.62343 16.437 5.62343 19.1251C5.62343 21.8132 7.81032 24 10.4984 24C13.1865 24 15.3733 21.8132 15.3733 19.1251C15.3733 16.437 13.1865 14.2501 10.4984 14.2501ZM10.4984 22.5001C8.63743 22.5001 7.12343 20.9861 7.12343 19.1251C7.12343 17.2642 8.63743 15.7501 10.4984 15.7501C12.3594 15.7501 13.8734 17.2642 13.8734 19.1251C13.8734 20.9861 12.3594 22.5001 10.4984 22.5001Z" fill="#707070"/>
<path d="M10.5004 16.5001C9.05303 16.5001 7.87545 17.6778 7.87545 19.1251C7.87545 19.5393 8.21126 19.8751 8.62545 19.8751C9.03964 19.8751 9.37545 19.5393 9.37545 19.1251C9.37545 18.5048 9.88015 18.0001 10.5004 18.0001C10.9146 18.0001 11.2504 17.6643 11.2504 17.2501C11.2504 16.836 10.9146 16.5001 10.5004 16.5001Z" fill="#707070"/>
<path d="M14.9993 2.62515C9.08913 2.62515 4.7684 8.25547 6.30824 13.9695C6.41596 14.3694 6.82762 14.6063 7.22755 14.4985C7.62749 14.3907 7.86434 13.9791 7.75657 13.5792C6.4739 8.81938 10.0719 4.12515 14.9993 4.12515C19.1348 4.12515 22.4992 7.48964 22.4992 11.6251C22.4992 15.1442 20.1077 18.1501 16.6837 18.9349C16.2801 19.0275 16.0278 19.4298 16.1203 19.8335C16.2129 20.2372 16.615 20.4895 17.0189 20.3971C21.0594 19.4709 23.9992 15.8537 23.9992 11.6251C23.9992 6.66253 19.9618 2.62515 14.9993 2.62515Z" fill="#707070"/>
<path d="M4.73443 9.65355C2.86071 9.24147 1.50073 7.54717 1.50073 5.62498C1.50073 3.35047 3.35121 1.49999 5.62572 1.49999C6.92509 1.49999 8.12241 2.0939 8.91066 3.12941C9.16153 3.45899 9.63216 3.52278 9.96169 3.27191C10.2913 3.02104 10.3551 2.55046 10.1042 2.22089C9.02981 0.809482 7.39744 0 5.62572 0C2.5241 0 0.000732422 2.52336 0.000732422 5.62498C0.000732422 8.30655 1.88309 10.5623 4.41226 11.1185C4.81501 11.2072 5.21649 10.9533 5.30584 10.5471C5.39481 10.1426 5.13902 9.74252 4.73443 9.65355Z" fill="#707070"/>
<path d="M15 5.62508C11.6915 5.62508 8.99998 8.31664 8.99998 11.6251C8.99998 12.0392 9.33579 12.3751 9.74998 12.3751C10.1642 12.3751 10.5 12.0392 10.5 11.6251C10.5 9.14374 12.5187 7.12509 15 7.12509C15.4142 7.12509 15.75 6.78927 15.75 6.37509C15.75 5.9609 15.4142 5.62508 15 5.62508Z" fill="#707070"/>
<path d="M2.24981 5.62518C2.24981 6.03935 2.58563 6.37516 2.99981 6.37516C3.41399 6.37516 3.7498 6.03935 3.7498 5.62518C3.7498 4.5913 4.59093 3.75018 5.6248 3.75018C6.03899 3.75018 6.3748 3.41436 6.3748 3.00018C6.3748 2.58599 6.03899 2.25018 5.6248 2.25018C3.76382 2.25018 2.24981 3.76419 2.24981 5.62518Z" fill="#707070"/>
</g>
</g>
</svg>
