<svg width="24" height="24" viewBox="0 0 24 24" fill="none" xmlns="http://www.w3.org/2000/svg">
<g id="Frame 117">
<g id="Vector">
<path fill-rule="evenodd" clip-rule="evenodd" d="M19.461 21.3307V23H23.2895V15.8225H22.7287C22.7287 15.8225 22.7287 14.8637 22.7287 14.5496C22.7287 14.238 21.7497 13.34 21.7497 13.34C21.7497 13.34 23.748 13.5579 23.8731 13.34C23.9981 13.1234 24.0815 12.0671 23.8731 11.8594C23.6646 11.6504 21.8445 11.9455 21.7497 12.2976C21.6563 12.6485 21.5552 13.0272 21.5552 13.0272C21.5552 13.0272 18.6715 9.25158 18.1511 9.23132C17.6307 9.20979 12.4089 9.23132 12.4089 9.23132C12.4089 9.23132 7.18592 9.20979 6.66551 9.23132C6.1451 9.25158 3.26139 13.0272 3.26139 13.0272C3.26139 13.0272 3.16034 12.6485 3.06687 12.2976C2.9734 11.9455 1.15197 11.6504 0.944817 11.8594C0.736402 12.0671 0.819768 13.1234 0.944817 13.34C1.06987 13.5579 3.06687 13.34 3.06687 13.34C3.06687 13.34 2.08921 14.238 2.08921 14.5496C2.08921 14.8637 2.08921 15.8225 2.08921 15.8225H1.52712V23H5.35565V21.3307H19.461ZM3.61127 15.2183C3.58475 15.3703 3.27781 17.0535 3.61127 17.3879C3.94348 17.721 8.33283 17.8578 8.45788 17.3879C8.5842 16.918 4.73419 15.2601 3.61127 15.2183ZM21.1472 15.2183C21.1725 15.3703 21.4807 17.0535 21.1472 17.3879C20.815 17.721 16.4257 17.8578 16.2994 17.3879C16.1743 16.918 20.0243 15.2601 21.1472 15.2183ZM12.4089 20.2668C12.4089 20.2668 16.6114 20.3288 17.6105 20.2668C18.6096 20.2035 18.6298 18.3062 18.6298 18.3062H6.18678C6.18678 18.3062 6.20826 20.2035 7.20613 20.2668C8.20526 20.3288 12.4089 20.2668 12.4089 20.2668ZM19.2753 12.7561C19.2753 12.7561 17.7557 10.2116 17.4021 10.1698C17.0484 10.1268 12.4089 10.1698 12.4089 10.1698C12.4089 10.1698 7.76948 10.1268 7.41454 10.1698C7.06087 10.2116 5.54259 12.7561 5.54259 12.7561H19.2753Z" fill="#707070"/>
<path d="M3.91063 1C4.88703 4.90984 7.82 6.8654 7.82 8.81969C7.82 10.774 6.84235 12.7295 3.91063 12.7295C0.977658 12.7295 0 10.774 0 8.81969C0 6.8654 2.93171 4.90984 3.91063 1Z" fill="#707070"/>
</g>
</g>
</svg>
