<svg width="24" height="24" viewBox="0 0 24 24" fill="none" xmlns="http://www.w3.org/2000/svg">
<g id="Frame 120">
<g id="Vector">
<path d="M16.4295 0.0709952C15.9099 0.236301 15.5486 0.832144 15.6227 1.4079C15.6622 1.6834 15.6971 1.76348 16.1078 2.54446C16.6324 3.53091 17.2365 5.00789 17.5729 6.12462C18.5528 9.35924 18.7213 12.6389 18.0728 15.9886C17.6918 17.9515 16.9888 19.9043 16.0485 21.5965C15.8556 21.947 15.6774 22.3425 15.6477 22.4829C15.5535 22.9233 15.6823 23.3491 16.0088 23.6544C16.286 23.9247 16.4789 24 16.8898 24C17.2066 24 17.2957 23.9798 17.4938 23.8648C17.8254 23.6644 17.959 23.4742 18.4637 22.4829C21.3245 16.8348 21.7798 10.5058 19.7555 4.56732C19.1863 2.90006 18.0725 0.571558 17.6915 0.256135C17.3848 0.000953958 16.8849 -0.0690873 16.4295 0.0709952Z" fill="#707070"/>
<path d="M11.8691 2.46428C11.2702 2.68958 10.9139 3.32558 11.0475 3.92632C11.0773 4.0615 11.2456 4.43202 11.4237 4.75259C12.6068 6.90059 13.2253 9.38924 13.2253 12.0079C13.2253 14.5514 12.6315 16.8898 11.3642 19.3634C11.0524 19.9694 11.0277 20.0345 11.0325 20.3298C11.0325 20.6952 11.1168 20.9257 11.3443 21.1911C11.6067 21.4865 11.8491 21.5967 12.2848 21.5967C13.0273 21.5967 13.2698 21.3363 14.0716 19.719C15.3188 17.2005 15.9177 14.4016 15.8286 11.5074C15.7544 8.88354 15.1804 6.54526 14.0617 4.28216C13.2798 2.70501 13.052 2.44958 12.3986 2.41456C12.181 2.39913 11.9929 2.41921 11.8691 2.46428Z" fill="#707070"/>
<path d="M7.33676 4.79265C6.77756 4.97804 6.40137 5.48865 6.39628 6.05951C6.39628 6.29974 6.42606 6.40505 6.59431 6.71045C7.66841 8.68309 8.07922 10.1554 8.07922 12.0078C8.07922 13.8604 7.66841 15.3326 6.59431 17.3052C6.44082 17.5856 6.39628 17.7257 6.39628 17.911C6.39628 18.5021 6.77731 19.0376 7.30214 19.1929C7.66841 19.2979 7.9209 19.2629 8.26731 19.0678C8.60889 18.8674 8.78707 18.612 9.28188 17.6157C10.1628 15.8534 10.539 14.3363 10.5886 12.4036C10.6332 10.6161 10.4252 9.3093 9.82147 7.62685C9.59876 6.99599 8.93546 5.65396 8.68805 5.32359C8.38109 4.91779 7.72772 4.6626 7.33676 4.79265Z" fill="#707070"/>
<path d="M2.63911 7.18123C2.18375 7.41167 1.96105 7.83707 2.00559 8.38808C2.02544 8.63347 2.0649 8.76351 2.17891 8.94376C2.97077 10.1656 3.14893 10.7364 3.14893 12.0082C3.14893 13.2799 2.97077 13.8456 2.17384 15.0824C2.03028 15.3077 2.01551 15.3627 2.01551 15.7385C2.01551 16.1038 2.03028 16.169 2.16392 16.3894C2.38178 16.7449 2.69842 16.9301 3.12909 16.9551C3.52996 16.9801 3.76745 16.9101 4.00517 16.6997C4.26251 16.4692 4.6387 15.8785 4.99019 15.1424C5.51962 14.0308 5.6484 13.5101 5.68787 12.3586C5.71765 11.4574 5.63848 10.7864 5.40076 9.92507C5.17296 9.08383 4.56438 7.91224 4.09909 7.40654C3.75269 7.02597 3.13417 6.93093 2.63911 7.18123Z" fill="#707070"/>
</g>
</g>
</svg>
