<svg width="26" height="24" viewBox="0 0 26 24" fill="none" xmlns="http://www.w3.org/2000/svg">
<g id="Frame 109">
<g id="Vector">
<path d="M14.3225 4.66893L14.6295 4.86308L13.6518 6.38502L13.3461 6.19086L14.3225 4.66893ZM16.2767 1.62631L16.5823 1.82047L15.6059 3.3424L15.299 3.14824L16.2767 1.62631Z" fill="#707070"/>
<path d="M14.776 5.01214L15.0615 5.23511L13.9411 6.65433L13.6543 6.43262L14.776 5.01214ZM16.5697 2.73989L16.8552 2.96286L15.7348 4.38333L15.448 4.16036L16.5697 2.73989ZM18.2308 1.22171L17.5284 2.10982L17.2417 1.88811L17.944 1L18.2308 1.22171Z" fill="#707070"/>
<path d="M15.0893 5.45557L15.3508 5.70484L14.0889 7.00381L13.8274 6.75329L15.0893 5.45557ZM17.1078 3.37622L17.3693 3.62675L16.1074 4.92571L15.8459 4.67644L17.1078 3.37622ZM19.1263 1.29812L19.3878 1.54865L18.1272 2.84762L17.8644 2.59709L19.1263 1.29812Z" fill="#707070"/>
<path d="M15.7259 6.0894L15.9255 6.39128L14.4047 7.38085L14.2051 7.07897L15.7259 6.0894ZM18.1575 4.50609L18.3571 4.80671L16.8375 5.79754L16.6379 5.49566L18.1575 4.50609ZM20.5903 2.92152L20.7899 3.22215L19.2691 4.21297L19.0695 3.91234L20.5903 2.92152Z" fill="#707070"/>
<path d="M15.8788 6.43512L16.0468 6.75454L14.4312 7.58377L14.2644 7.2631L15.8788 6.43512ZM19.1099 4.77665L19.2779 5.09732L17.6623 5.92656L17.4943 5.60589L19.1099 4.77665ZM22.0985 3.65055L20.8935 4.26809L20.7255 3.94867L21.9305 3.32987L22.0985 3.65055Z" fill="#707070"/>
<path d="M13.8388 4.44721L14.1697 4.59502L13.4244 6.23971L13.0922 6.0919L13.8388 4.44721ZM15.6476 1.33445L14.915 2.95033L14.584 2.80252L15.3167 1.18664L15.6476 1.33445Z" fill="#707070"/>
<path d="M15.4821 5.73115L15.7108 6.01174L14.296 7.1441L14.0674 6.86352L15.4821 5.73115ZM17.747 3.91861L17.9743 4.19919L16.5596 5.33156L16.331 5.05098L17.747 3.91861ZM20.0105 2.10481L20.2392 2.3854L18.8232 3.51902L18.5958 3.23843L20.0105 2.10481Z" fill="#707070"/>
<path fill-rule="evenodd" clip-rule="evenodd" d="M1.60634 15.4239C1.99918 15.1045 4.8716 12.836 5.0535 12.6882C5.23413 12.5416 5.42234 12.7383 5.42234 12.7383C5.42234 12.7383 6.03371 12.1621 6.22444 12.0569C6.41518 11.9517 6.60718 11.9705 6.60718 11.9705C6.60718 11.9705 6.48339 11.889 6.64255 11.7462C6.80297 11.6034 11.7735 7.44223 11.7735 7.44223L11.968 7.43221L12.0236 7.22427C12.0236 7.22427 12.9912 6.33491 13.2615 6.12698C13.5318 5.91904 13.9221 6.32865 14.0838 6.5228C14.2442 6.71696 14.5385 7.04139 14.2543 7.32323C13.9701 7.60507 12.8661 8.39297 12.8661 8.39297L12.6943 8.36917L12.7449 8.56708C12.7449 8.56708 7.70865 12.8335 7.61897 12.8936C7.53055 12.9525 7.32844 12.8172 7.32844 12.8172C7.32844 12.8172 7.33981 13.1341 7.14781 13.3158C6.95708 13.4961 6.51623 13.8206 6.51623 13.8206L6.29771 13.7479C6.29771 13.7479 6.47202 13.8882 6.39876 14.0673C6.3255 14.2452 5.95413 14.636 6.00718 14.9442C6.06023 15.2523 7.13644 15.9538 7.38655 17.7801C7.63792 19.6077 7.70487 20.7563 7.12255 21.181C6.53897 21.6069 4.04423 21.8749 3.90655 21.9238C3.77013 21.9726 4.10992 22.5488 3.96592 22.7405C3.82192 22.9334 3.10823 23.1401 3.0375 22.872C2.9655 22.6027 2.98697 22.1092 2.84802 22.1104C2.70908 22.1104 2.42234 22.1305 2.35666 21.8837C2.29097 21.6369 2.47539 21.3864 2.60045 21.3087C2.72676 21.2311 2.2695 20.224 2.32634 19.2256C2.38318 18.226 2.3415 17.7338 2.3415 17.7338L1.96381 17.3404C1.96381 17.3404 1.52802 17.5759 1.10992 17.0649C0.690551 16.5525 1.60634 15.4239 1.60634 15.4239ZM5.76466 15.7496C5.87202 15.6494 6.45939 16.1605 6.77644 17.4569C7.0935 18.7534 6.89139 20.3843 6.89139 20.3843C6.89139 20.3843 6.82571 20.2127 6.69813 20.2415C6.57055 20.2716 6.50613 20.4995 6.31539 20.3906C6.12466 20.2828 4.91834 18.082 4.81223 17.6047C4.70739 17.1262 5.17097 16.7855 5.42739 16.3634C5.68381 15.9413 5.76466 15.7496 5.76466 15.7496ZM4.94992 15.925C4.94992 15.925 4.9335 16.0891 4.62655 16.4649C4.3196 16.8419 4.09097 17.3279 4.35876 17.9254C4.62529 18.5217 4.88297 18.8761 4.88297 18.8761L4.79708 18.9713C4.79708 18.9713 5.72929 20.4307 5.91371 20.6686C6.09813 20.9066 6.71202 20.7325 6.71202 20.7325C6.71202 20.7325 6.61855 21.0469 5.82023 21.1208C5.02192 21.1947 4.39287 21.32 4.28171 21.3225C4.17055 21.3263 3.98739 20.9229 3.87623 20.011C3.76381 19.0991 3.54908 17.8327 3.60592 17.3843C3.66402 16.9358 3.67034 16.9434 4.02655 16.6415C4.3815 16.3383 4.94992 15.925 4.94992 15.925Z" fill="#707070"/>
<path fill-rule="evenodd" clip-rule="evenodd" d="M21.611 21.7271V22.9597H24.4695V17.6586H24.0514C24.0514 17.6586 24.0514 16.9496 24.0514 16.7191C24.0514 16.4887 23.32 15.8248 23.32 15.8248C23.32 15.8248 24.8118 15.9864 24.9053 15.8248C24.9988 15.6644 25.0606 14.8853 24.9053 14.7312C24.7499 14.5772 23.3908 14.7951 23.32 15.0557C23.2505 15.3149 23.1748 15.5943 23.1748 15.5943C23.1748 15.5943 21.0211 12.806 20.632 12.7909C20.2442 12.7746 16.3436 12.7909 16.3436 12.7909C16.3436 12.7909 12.4442 12.7746 12.0552 12.7909C11.6674 12.806 9.51371 15.5943 9.51371 15.5943C9.51371 15.5943 9.43792 15.3149 9.36718 15.0557C9.29771 14.7951 7.93855 14.5772 7.78318 14.7312C7.62781 14.8853 7.68971 15.6644 7.78318 15.8248C7.87665 15.9864 9.36718 15.8248 9.36718 15.8248C9.36718 15.8248 8.63708 16.4887 8.63708 16.7191C8.63708 16.9496 8.63708 17.6586 8.63708 17.6586H8.21771V22.9597H11.0775V21.7271H21.611ZM9.77392 17.2127C9.75497 17.3242 9.52508 18.568 9.77392 18.8148C10.0228 19.0615 13.3007 19.1617 13.3941 18.8148C13.4876 18.4678 10.6127 17.2427 9.77392 17.2127ZM22.8703 17.2127C22.8893 17.3242 23.1192 18.568 22.8703 18.8148C22.6215 19.0615 19.3436 19.1617 19.2501 18.8148C19.1567 18.4678 22.0316 17.2427 22.8703 17.2127ZM16.3436 20.9405C16.3436 20.9405 19.4825 20.9868 20.2291 20.9405C20.9743 20.8954 20.9895 19.4924 20.9895 19.4924H11.6977C11.6977 19.4924 11.7129 20.8954 12.4594 20.9405C13.2059 20.9868 16.3436 20.9405 16.3436 20.9405ZM21.472 15.3939C21.472 15.3939 20.3377 13.5149 20.0737 13.4836C19.8084 13.4536 16.3436 13.4836 16.3436 13.4836C16.3436 13.4836 12.8788 13.4536 12.6148 13.4836C12.3508 13.5149 11.2164 15.3939 11.2164 15.3939H21.472Z" fill="#707070"/>
<path d="M14.3225 4.66893L14.6295 4.86308L13.6518 6.38502L13.3461 6.19086L14.3225 4.66893ZM16.2767 1.62631L16.5823 1.82047L15.6059 3.3424L15.299 3.14824L16.2767 1.62631Z" stroke="#707070" stroke-width="0.1" stroke-miterlimit="22.9256"/>
<path d="M14.776 5.01214L15.0615 5.23511L13.9411 6.65433L13.6543 6.43262L14.776 5.01214ZM16.5697 2.73989L16.8552 2.96286L15.7348 4.38333L15.448 4.16036L16.5697 2.73989ZM18.2308 1.22171L17.5284 2.10982L17.2417 1.88811L17.944 1L18.2308 1.22171Z" stroke="#707070" stroke-width="0.1" stroke-miterlimit="22.9256"/>
<path d="M15.0893 5.45557L15.3508 5.70484L14.0889 7.00381L13.8274 6.75329L15.0893 5.45557ZM17.1078 3.37622L17.3693 3.62675L16.1074 4.92571L15.8459 4.67644L17.1078 3.37622ZM19.1263 1.29812L19.3878 1.54865L18.1272 2.84762L17.8644 2.59709L19.1263 1.29812Z" stroke="#707070" stroke-width="0.1" stroke-miterlimit="22.9256"/>
<path d="M15.7259 6.0894L15.9255 6.39128L14.4047 7.38085L14.2051 7.07897L15.7259 6.0894ZM18.1575 4.50609L18.3571 4.80671L16.8375 5.79754L16.6379 5.49566L18.1575 4.50609ZM20.5903 2.92152L20.7899 3.22215L19.2691 4.21297L19.0695 3.91234L20.5903 2.92152Z" stroke="#707070" stroke-width="0.1" stroke-miterlimit="22.9256"/>
<path d="M15.8788 6.43512L16.0468 6.75454L14.4312 7.58377L14.2644 7.2631L15.8788 6.43512ZM19.1099 4.77665L19.2779 5.09732L17.6623 5.92656L17.4943 5.60589L19.1099 4.77665ZM22.0985 3.65055L20.8935 4.26809L20.7255 3.94867L21.9305 3.32987L22.0985 3.65055Z" stroke="#707070" stroke-width="0.1" stroke-miterlimit="22.9256"/>
<path d="M13.8388 4.44721L14.1697 4.59502L13.4244 6.23971L13.0922 6.0919L13.8388 4.44721ZM15.6476 1.33445L14.915 2.95033L14.584 2.80252L15.3167 1.18664L15.6476 1.33445Z" stroke="#707070" stroke-width="0.1" stroke-miterlimit="22.9256"/>
<path d="M15.4821 5.73115L15.7108 6.01174L14.296 7.1441L14.0674 6.86352L15.4821 5.73115ZM17.747 3.91861L17.9743 4.19919L16.5596 5.33156L16.331 5.05098L17.747 3.91861ZM20.0105 2.10481L20.2392 2.3854L18.8232 3.51902L18.5958 3.23843L20.0105 2.10481Z" stroke="#707070" stroke-width="0.1" stroke-miterlimit="22.9256"/>
<path fill-rule="evenodd" clip-rule="evenodd" d="M1.60634 15.4239C1.99918 15.1045 4.8716 12.836 5.0535 12.6882C5.23413 12.5416 5.42234 12.7383 5.42234 12.7383C5.42234 12.7383 6.03371 12.1621 6.22444 12.0569C6.41518 11.9517 6.60718 11.9705 6.60718 11.9705C6.60718 11.9705 6.48339 11.889 6.64255 11.7462C6.80297 11.6034 11.7735 7.44223 11.7735 7.44223L11.968 7.43221L12.0236 7.22427C12.0236 7.22427 12.9912 6.33491 13.2615 6.12698C13.5318 5.91904 13.9221 6.32865 14.0838 6.5228C14.2442 6.71696 14.5385 7.04139 14.2543 7.32323C13.9701 7.60507 12.8661 8.39297 12.8661 8.39297L12.6943 8.36917L12.7449 8.56708C12.7449 8.56708 7.70865 12.8335 7.61897 12.8936C7.53055 12.9525 7.32844 12.8172 7.32844 12.8172C7.32844 12.8172 7.33981 13.1341 7.14781 13.3158C6.95708 13.4961 6.51623 13.8206 6.51623 13.8206L6.29771 13.7479C6.29771 13.7479 6.47202 13.8882 6.39876 14.0673C6.3255 14.2452 5.95413 14.636 6.00718 14.9442C6.06023 15.2523 7.13644 15.9538 7.38655 17.7801C7.63792 19.6077 7.70487 20.7563 7.12255 21.181C6.53897 21.6069 4.04423 21.8749 3.90655 21.9238C3.77013 21.9726 4.10992 22.5488 3.96592 22.7405C3.82192 22.9334 3.10823 23.1401 3.0375 22.872C2.9655 22.6027 2.98697 22.1092 2.84802 22.1104C2.70908 22.1104 2.42234 22.1305 2.35666 21.8837C2.29097 21.6369 2.47539 21.3864 2.60045 21.3087C2.72676 21.2311 2.2695 20.224 2.32634 19.2256C2.38318 18.226 2.3415 17.7338 2.3415 17.7338L1.96381 17.3404C1.96381 17.3404 1.52802 17.5759 1.10992 17.0649C0.690551 16.5525 1.60634 15.4239 1.60634 15.4239ZM5.76466 15.7496C5.87202 15.6494 6.45939 16.1605 6.77644 17.4569C7.0935 18.7534 6.89139 20.3843 6.89139 20.3843C6.89139 20.3843 6.82571 20.2127 6.69813 20.2415C6.57055 20.2716 6.50613 20.4995 6.31539 20.3906C6.12466 20.2828 4.91834 18.082 4.81223 17.6047C4.70739 17.1262 5.17097 16.7855 5.42739 16.3634C5.68381 15.9413 5.76466 15.7496 5.76466 15.7496ZM4.94992 15.925C4.94992 15.925 4.9335 16.0891 4.62655 16.4649C4.3196 16.8419 4.09097 17.3279 4.35876 17.9254C4.62529 18.5217 4.88297 18.8761 4.88297 18.8761L4.79708 18.9713C4.79708 18.9713 5.72929 20.4307 5.91371 20.6686C6.09813 20.9066 6.71202 20.7325 6.71202 20.7325C6.71202 20.7325 6.61855 21.0469 5.82023 21.1208C5.02192 21.1947 4.39287 21.32 4.28171 21.3225C4.17055 21.3263 3.98739 20.9229 3.87623 20.011C3.76381 19.0991 3.54908 17.8327 3.60592 17.3843C3.66402 16.9358 3.67034 16.9434 4.02655 16.6415C4.3815 16.3383 4.94992 15.925 4.94992 15.925Z" stroke="#707070" stroke-width="0.1" stroke-miterlimit="22.9256"/>
<path fill-rule="evenodd" clip-rule="evenodd" d="M21.611 21.7271V22.9597H24.4695V17.6586H24.0514C24.0514 17.6586 24.0514 16.9496 24.0514 16.7191C24.0514 16.4887 23.32 15.8248 23.32 15.8248C23.32 15.8248 24.8118 15.9864 24.9053 15.8248C24.9988 15.6644 25.0606 14.8853 24.9053 14.7312C24.7499 14.5772 23.3908 14.7951 23.32 15.0557C23.2505 15.3149 23.1748 15.5943 23.1748 15.5943C23.1748 15.5943 21.0211 12.806 20.632 12.7909C20.2442 12.7746 16.3436 12.7909 16.3436 12.7909C16.3436 12.7909 12.4442 12.7746 12.0552 12.7909C11.6674 12.806 9.51371 15.5943 9.51371 15.5943C9.51371 15.5943 9.43792 15.3149 9.36718 15.0557C9.29771 14.7951 7.93855 14.5772 7.78318 14.7312C7.62781 14.8853 7.68971 15.6644 7.78318 15.8248C7.87665 15.9864 9.36718 15.8248 9.36718 15.8248C9.36718 15.8248 8.63708 16.4887 8.63708 16.7191C8.63708 16.9496 8.63708 17.6586 8.63708 17.6586H8.21771V22.9597H11.0775V21.7271H21.611ZM9.77392 17.2127C9.75497 17.3242 9.52508 18.568 9.77392 18.8148C10.0228 19.0615 13.3007 19.1617 13.3941 18.8148C13.4876 18.4678 10.6127 17.2427 9.77392 17.2127ZM22.8703 17.2127C22.8893 17.3242 23.1192 18.568 22.8703 18.8148C22.6215 19.0615 19.3436 19.1617 19.2501 18.8148C19.1567 18.4678 22.0316 17.2427 22.8703 17.2127ZM16.3436 20.9405C16.3436 20.9405 19.4825 20.9868 20.2291 20.9405C20.9743 20.8954 20.9895 19.4924 20.9895 19.4924H11.6977C11.6977 19.4924 11.7129 20.8954 12.4594 20.9405C13.2059 20.9868 16.3436 20.9405 16.3436 20.9405ZM21.472 15.3939C21.472 15.3939 20.3377 13.5149 20.0737 13.4836C19.8084 13.4536 16.3436 13.4836 16.3436 13.4836C16.3436 13.4836 12.8788 13.4536 12.6148 13.4836C12.3508 13.5149 11.2164 15.3939 11.2164 15.3939H21.472Z" stroke="#707070" stroke-width="0.1" stroke-miterlimit="22.9256"/>
</g>
</g>
</svg>
