<svg width="24" height="24" viewBox="0 0 24 24" fill="none" xmlns="http://www.w3.org/2000/svg">
<g id="game-icons:forest-camp">
<path id="Vector" d="M5.94375 1.54919C5.29219 2.98263 4.56562 4.42216 3.05625 5.54998C3.39844 5.70935 4.02656 5.8406 4.36406 5.94841C3.79219 6.82498 2.81719 7.65466 1.92656 8.39998C2.44687 8.66716 2.9625 8.88279 3.47812 9.05623C2.81719 10.0969 2.02969 11.0859 1.04531 11.9812C1.82813 12.4172 2.60625 12.7593 3.37969 13.0031C2.54062 14.1937 1.48594 15.3281 0 16.5703C2.41406 17.8125 4.54687 18.389 6.66562 18.3234C6.75 18.3234 6.83906 18.3281 6.92344 18.3281V18.314C8.79375 18.2109 10.6547 17.6109 12.6984 16.5328C10.8797 15.3844 9.75 14.2969 8.88281 13.1015C9.71719 12.8578 10.5516 12.4969 11.3812 12.0187C10.1719 11.189 9.30937 10.2094 8.62031 9.13591C9.1875 8.96248 9.75 8.7281 10.3125 8.43279C9.225 7.74841 8.24531 6.91873 7.65469 6.02341C8.06719 5.91091 8.72344 5.77498 9.13125 5.58279C7.32656 4.56279 6.83906 3.09091 5.94375 1.54919ZM5.39531 19.1203L5.26875 22.4203L7.28437 22.4484L6.99844 19.1719C6.45469 19.1719 5.91562 19.1578 5.39531 19.1203Z" fill="#707070"/>
<path id="Vector 65" d="M19.2222 16.2941C17.3854 17.5882 13.6139 20.1765 14.1111 20.1765C14.8453 20.2943 16.0552 20.3968 17 20.4605M19.2222 16.2941H20.3333M19.2222 16.2941C19.2222 15.9412 19.2252 15.9083 19.2222 15.4118M23 16.2941L18.6693 20.529M23 16.2941H21.6667M23 16.2941V18.7647M15.2222 20.3264L20.3333 16.2941M20.3333 16.2941H21.6667M17 20.4605C17.6437 20.504 18.2675 20.5294 18.7778 20.5294C18.7778 20.6471 18.7778 21.3059 18.7778 23C17.2222 19.6471 14.3333 20.8824 13.2222 23C13.7183 21.897 13.9991 20.2665 13.8889 18.7647M17 20.4605L21.6667 16.2941M13.8889 18.7647L19.2222 15.4118M13.8889 18.7647C13.8897 18.0588 13.8626 17.865 13.6667 17.1765M19.2222 15.4118C19.2203 15.0886 19.1575 14.8416 19 14.5294M13.6667 17.1765C13.5114 16.8619 13.2222 16.2941 13 15.9412L18.3333 14C18.3333 14 18.8152 14.1631 19 14.5294M13.6667 17.1765C15.917 16.0253 16.7496 15.6805 19 14.5294" stroke="#707070" stroke-width="0.7"/>
</g>
</svg>
