<svg width="24" height="24" viewBox="0 0 24 24" fill="none" xmlns="http://www.w3.org/2000/svg">
<g id="Frame 108">
<g id="Vector">
<path fill-rule="evenodd" clip-rule="evenodd" d="M17.5657 18.1933C17.2663 18.0142 16.8773 17.8856 16.5362 17.8187C16.1724 17.7481 15.7657 17.9789 15.5383 18.2375C15.4537 18.3334 15.383 18.4053 15.2529 18.4141C15.0912 18.4267 14.9901 18.346 14.9282 18.2665C14.7362 18.3926 13.8091 18.5781 13.5539 18.5781C13.2861 18.5793 13.0196 18.5983 12.7467 18.5781C12.5131 18.5604 12.249 18.5036 12.0267 18.4532C11.5922 18.3535 11.2044 18.1782 10.8141 17.9827C10.2747 17.7115 9.67093 17.1527 9.29956 16.6658C8.98377 16.2533 8.84735 15.9758 8.64777 15.5027L8.53535 15.1861C8.48608 15.0335 8.45577 14.8985 8.41535 14.7396C8.3244 14.3889 8.27387 13.5248 8.34208 13.1943C8.37493 13.0404 8.37493 12.8575 8.41787 12.7036C8.50124 12.4034 8.57198 12.1461 8.6844 11.8559C8.73493 11.7273 8.80061 11.5961 8.8663 11.4712C9.11767 10.9969 9.44609 10.5478 9.84525 10.1858C9.93872 10.1013 10.0335 10.0042 10.1446 9.91965C10.4933 9.65349 10.8735 9.40751 11.2853 9.24353C11.3219 9.22839 11.3522 9.21578 11.3863 9.20316C11.4154 9.19181 11.4558 9.17541 11.4823 9.16658C11.5265 9.15018 11.5568 9.14009 11.5985 9.12496C11.8928 9.019 12.1884 8.94331 12.5004 8.91051C12.5749 8.90294 12.6684 8.88276 12.7328 8.87519C13.7206 8.77302 14.908 9.03918 15.7025 9.56898C15.7556 9.6043 15.8175 9.64845 15.8693 9.6762L16.0461 9.79225C16.0726 9.80991 16.1055 9.83514 16.1232 9.85027L16.5072 10.1707C17.5505 11.1798 18.1101 12.4627 18.0407 13.9777C18.0028 14.8253 17.783 15.5141 17.404 16.1599C17.3674 16.2217 17.3383 16.2583 17.2992 16.3302C17.2676 16.3882 17.2272 16.4513 17.1817 16.503L16.8748 16.9004C16.8204 16.9647 16.703 17.0505 16.6853 17.1312C16.7068 17.1388 16.8407 17.164 16.8773 17.1703C17.1754 17.2283 17.4748 17.3621 17.7489 17.5008C17.8449 17.5488 17.9914 17.6232 18.0798 17.6585C18.316 17.2927 18.4234 17.2094 18.6887 16.7402C18.8364 16.4791 18.9463 16.2381 19.0537 15.9568C19.0941 15.8509 19.1194 15.7752 19.1548 15.6617C19.2129 15.4775 19.2773 15.2643 19.3177 15.0562C19.3581 14.8417 19.4099 14.626 19.4276 14.3901C19.4453 14.1517 19.468 13.9133 19.468 13.6673L19.4137 12.9559C19.3291 12.5485 19.3367 12.392 19.204 11.948C18.9577 11.1268 18.5636 10.3965 18.023 9.73675L17.0503 8.78689C16.7636 8.55984 16.4339 8.36558 16.1232 8.18898C16.0461 8.14357 15.9425 8.09437 15.863 8.05527C15.412 7.83704 14.9143 7.68693 14.4242 7.57466C14.0895 7.49772 13.7509 7.48384 13.4086 7.45357C13.1446 7.4296 12.9236 7.47501 12.6785 7.47627C12.417 7.47753 12.1088 7.55196 11.8549 7.59863C11.4886 7.66801 11.1539 7.78532 10.8179 7.91651C10.7307 7.95057 10.6423 7.9922 10.5551 8.03256C10.0196 8.27602 9.64946 8.54722 9.19093 8.88276C9.16819 8.89916 9.15809 8.90673 9.13409 8.92817L8.28019 9.80612C8.24356 9.84901 8.22461 9.87676 8.19808 9.91334C7.85198 10.3775 7.58166 10.8481 7.35682 11.3854C7.27471 11.5797 7.22545 11.7399 7.15471 11.9543C7.11934 12.0666 7.10418 12.1448 7.07513 12.2533C6.97155 12.6393 6.85408 13.6497 6.9046 14.0054L6.97281 14.6866C7.0006 14.8985 7.04734 15.1256 7.10671 15.3274C7.34418 16.1372 7.63724 16.7465 8.10335 17.415C8.22208 17.5866 8.33198 17.7026 8.44566 17.8452C8.51008 17.9259 8.56566 17.965 8.63008 18.0394C8.99261 18.4633 9.64946 18.9502 10.1471 19.2138C10.665 19.4901 11.2259 19.7411 11.8246 19.8509C11.9888 19.8799 12.1392 19.9202 12.3034 19.9341C12.3893 19.9417 12.4069 19.9555 12.4903 19.9631C12.6002 19.9732 12.7354 19.9682 12.844 19.9833C13.0853 20.0174 13.7156 19.9934 13.9278 19.9555C14.3623 19.8786 14.7741 19.8155 15.1872 19.6692C15.2832 19.6351 15.3602 19.6137 15.4638 19.5696C16.1661 19.2668 16.8078 18.9098 17.3762 18.3952C17.428 18.3472 17.548 18.2514 17.5657 18.1933Z" fill="#707070"/>
<path fill-rule="evenodd" clip-rule="evenodd" d="M12.5648 16.7705C12.5648 16.9761 12.5749 17.1211 12.4726 17.2687C12.3994 17.3722 12.2566 17.4642 12.0836 17.4516C11.9585 17.4415 11.7387 17.3608 11.6415 17.3103C11.4975 17.2372 11.3863 17.193 11.265 17.1211C10.8507 16.8714 10.4655 16.5825 10.1636 16.199C10.1269 16.1536 10.0802 16.0931 10.0423 16.0451C9.88188 15.8395 9.88946 15.4472 10.2861 15.3236L11.3737 14.9704C11.6301 14.8834 11.8183 14.7976 12.0621 14.8657C12.3627 14.9477 12.5648 15.2227 12.5648 15.5191V16.7705ZM13.8002 15.5027C13.8002 15.3703 13.8722 15.1975 13.9493 15.0928C13.9872 15.0398 14.0339 15.0019 14.1034 14.9527C14.308 14.8064 14.5417 14.8178 14.7602 14.896C14.8966 14.9452 15.0583 14.9944 15.191 15.0347C15.4853 15.1268 15.7657 15.2227 16.0411 15.3135C16.1206 15.34 16.1926 15.3602 16.2444 15.4031C16.2899 15.4396 16.3379 15.4914 16.3695 15.5519C16.4352 15.6755 16.4251 15.8786 16.3569 15.9896L16.1724 16.2331C15.9804 16.4614 15.7581 16.6582 15.5181 16.8474L15.191 17.0669C15.071 17.1337 14.9459 17.2044 14.8209 17.2637C14.7034 17.3192 14.5366 17.3898 14.4141 17.4264C14.0768 17.526 13.8002 17.2952 13.8002 16.9937V15.5027ZM15.8592 11.2694C15.9817 11.2088 16.2508 11.2997 16.3404 11.4334C16.6209 11.8585 16.8659 12.2848 16.9771 12.8197C17.0326 13.0871 17.1716 13.7531 17.0074 13.9802C16.9253 14.0924 16.7497 14.211 16.564 14.1606C16.2141 14.0647 15.7619 13.9045 15.407 13.7872L15.0293 13.6686C14.8714 13.6055 14.7438 13.487 14.6743 13.3369C14.5152 12.9912 14.6541 12.7831 14.7994 12.5649L14.9434 12.3656C15.0179 12.2596 15.6305 11.4069 15.6988 11.3552L15.8592 11.2694ZM10.2634 11.2694C10.3417 11.2303 10.4781 11.2593 10.5476 11.2883C10.636 11.3261 10.6903 11.364 10.7434 11.4359L11.457 12.4211C11.62 12.6368 11.7943 12.8399 11.7476 13.1312C11.7173 13.3154 11.6554 13.4491 11.5139 13.5664C11.38 13.6787 10.7257 13.8692 10.5223 13.9335C10.3556 13.9865 10.1724 14.0483 10.0057 14.0988C9.81998 14.1555 9.6823 14.2249 9.4903 14.1101C9.44483 14.0824 9.36146 14.0092 9.32482 13.9335C9.28693 13.8528 9.26798 13.7607 9.26925 13.6509C9.28188 12.9622 9.53577 12.1625 9.91599 11.5948C10.0486 11.3968 10.036 11.3791 10.2634 11.2694ZM12.9312 9.84775C13.3366 9.79477 13.1964 9.82505 13.5703 9.84901C13.8305 9.86541 14.4406 9.96759 14.5935 10.1618C14.7009 10.2968 14.7248 10.5277 14.6251 10.6752L13.9152 11.6617C13.7484 11.8812 13.6486 12.0716 13.4112 12.1536C13.2318 12.2167 13.0006 12.194 12.8516 12.1082C12.6318 11.9821 12.5333 11.7563 12.3829 11.5645C12.2604 11.4056 11.7236 10.6891 11.692 10.5743C11.6415 10.3864 11.7059 10.1921 11.8322 10.0988C11.9762 9.99029 12.1404 9.97642 12.3286 9.92344C12.628 9.83892 12.7328 9.87298 12.9312 9.84775ZM17.6983 14.1303C17.7198 13.9613 17.711 13.7645 17.711 13.5828C17.7122 12.8159 17.4571 12.0388 17.0705 11.388C16.7851 10.9099 16.4465 10.5491 16.012 10.1833C15.3564 9.63079 14.4419 9.2902 13.588 9.21199C12.8339 9.14261 12.1644 9.27633 11.5909 9.47941C11.5442 9.49581 11.5177 9.50843 11.4823 9.52356L11.2044 9.6598C10.9227 9.77459 10.8646 9.82126 10.6511 9.96128C10.6208 9.98146 10.5918 10.0054 10.5703 10.0206C10.5387 10.042 10.516 10.0534 10.4882 10.0735C10.4314 10.1164 10.3796 10.1593 10.3253 10.2022C9.89577 10.5352 9.43598 11.0953 9.17577 11.591C8.56945 12.744 8.47472 14.0786 8.92188 15.2946C8.96988 15.4283 9.0444 15.5582 9.09367 15.6894C9.23388 16.059 9.63683 16.5825 9.90714 16.8651C9.95514 16.9155 9.99935 16.9571 10.0448 17.0026L10.2027 17.1363C10.6726 17.5361 10.5362 17.4062 11.0276 17.7165C11.0907 17.7569 11.1716 17.7909 11.2208 17.8162C11.673 18.0432 12.2642 18.187 12.7733 18.24C13.4933 18.317 14.2208 18.1706 14.7627 17.9789C14.9345 17.9171 14.8853 17.8982 15.0634 17.7127C15.1682 17.6043 15.2415 17.5361 15.3703 17.4516C15.8554 17.1312 15.9792 17.2031 16.1712 17.1249C16.2735 17.082 16.631 16.6796 16.7295 16.5497C17.1059 16.0552 17.308 15.7209 17.5164 15.0726C17.639 14.6929 17.6516 14.5024 17.6983 14.1303Z" fill="#707070"/>
<path fill-rule="evenodd" clip-rule="evenodd" d="M20.4558 10.0168C20.4558 9.51852 20.8941 8.95088 21.3779 8.74905C21.7998 8.57245 22.2066 8.60272 22.6171 8.78059C23.4331 9.13378 23.7893 10.2539 23.188 11.0524L23.0731 11.195C23.0542 11.2114 23.068 11.205 23.044 11.2164C22.9683 11.2555 21.2049 11.2315 20.9661 11.2315C20.8259 11.2315 20.6769 10.9591 20.6188 10.8455C20.452 10.5176 20.4558 10.3725 20.4558 10.0168ZM23.9889 10.3258C24.0255 10.1871 23.9624 9.82 23.9321 9.69133C23.6693 8.57119 22.4617 7.85848 21.2895 8.26719C20.3952 8.57876 19.8103 9.52609 19.972 10.4822C20.0718 11.0764 20.3358 11.4662 20.7868 11.808C21.2655 12.17 21.3779 12.1751 21.7177 12.662C21.7443 12.7011 21.7784 12.7301 21.7859 12.7793C21.7935 12.8235 21.7859 12.8979 21.7897 12.9483C21.8289 13.4844 21.8251 15.7739 21.6508 16.3403C21.5017 16.8234 21.2137 17.3192 20.7956 17.627C20.5594 17.7998 20.6706 17.7493 20.3649 17.9183C18.4524 18.9754 17.183 16.3794 15.4272 17.5778C15.3198 17.6522 15.1354 17.8275 15.0558 17.9272C14.9067 18.1113 15.1101 18.3548 15.316 18.2564C15.3969 18.2186 15.4587 18.0785 15.695 17.9146C16.0436 17.6762 16.4213 17.6181 16.823 17.738C17.1287 17.8313 17.2108 17.8755 17.476 17.9953C17.524 18.0167 17.5417 18.0281 17.591 18.0521C18.0811 18.293 18.3312 18.4116 18.8781 18.5491C19.8798 18.7988 20.9598 18.24 21.5624 17.4516C21.9274 16.9723 21.9779 16.744 22.0916 16.1978C22.1308 16.0123 22.1308 15.7563 22.1472 15.5532C22.1674 15.3236 22.1573 15.0915 22.1763 14.8644C22.2154 14.3939 22.1144 12.879 22.156 12.7667L22.3051 12.5548C22.3342 12.5182 22.3569 12.4917 22.3885 12.4488C22.5198 12.2773 22.727 12.1549 22.8596 12.0464C23.1413 11.8168 23.3889 11.6592 23.6011 11.3627C23.7123 11.2076 23.7855 11.0739 23.855 10.8973C23.9801 10.5832 23.9409 10.5087 23.9889 10.3258Z" fill="#707070"/>
<path fill-rule="evenodd" clip-rule="evenodd" d="M2.56058 18.6172C2.43679 18.6323 2.42795 18.5856 2.33195 18.5629C2.2789 18.5491 2.27258 18.5402 2.22584 18.5188L1.75721 18.2703C1.73574 18.2564 1.73953 18.2526 1.71805 18.235C1.69784 18.2211 1.69026 18.2224 1.66879 18.2097L1.35679 17.9739C1.32647 17.9436 1.38458 18.0029 1.34163 17.9562C1.34037 17.9549 1.3391 17.9524 1.33658 17.9499L1.29995 17.9234C1.27089 17.9007 1.29489 17.9158 1.26837 17.8931L0.931101 17.5437C0.929838 17.5412 0.928575 17.5387 0.926049 17.5374C0.845206 17.4365 0.769416 17.3305 0.706258 17.217C0.69489 17.1943 0.688574 17.193 0.677205 17.1754L0.542047 16.8802C0.531941 16.836 0.542047 16.86 0.525626 16.8209C0.477625 16.7049 0.459941 16.5447 0.433415 16.4147C0.398046 16.2444 0.440994 16.0439 0.477625 15.8862C0.49152 15.8256 0.476362 15.8219 0.501625 15.7613L0.581205 15.5557C0.59131 15.5343 0.592573 15.5216 0.601415 15.5027L0.653205 15.4069C0.6671 15.3791 0.664574 15.3879 0.684784 15.3627C0.720153 15.3186 0.745416 15.2517 0.785837 15.2113L1.05363 14.9414C1.06626 14.9288 1.04984 14.9389 1.0751 14.9199L1.36942 14.6866C1.41489 14.6576 1.46921 14.6386 1.51089 14.6058L1.98963 14.3548C2.02374 14.3384 2.00605 14.3473 2.04521 14.3372C2.09953 14.322 2.13363 14.2918 2.19427 14.2779L2.41532 14.2009C2.4469 14.1883 2.48353 14.1732 2.52269 14.1681C2.58332 14.1593 2.57827 14.1479 2.62879 14.1303L2.97743 14.0533L2.97364 18.3397H2.57827C2.54921 18.4254 2.5669 18.52 2.56058 18.6172ZM5.19302 8.74527C5.27765 8.74022 5.4027 8.75536 5.47975 8.73644V7.85218C5.47975 7.42077 5.49365 6.98936 5.47723 6.56048C5.38881 6.5403 4.63975 6.55165 4.43512 6.55165C4.3467 6.55165 4.38838 6.53777 4.33027 6.51507C4.33912 6.19088 4.33028 5.7519 4.32901 5.41258C4.38206 5.39492 4.43385 5.39618 4.49954 5.39618H6.59134C6.69997 5.39618 6.78713 5.38231 6.87176 5.3369L7.05239 5.18931C7.07892 5.15777 7.10418 5.13128 7.1206 5.09092C7.14081 5.03541 7.16229 5.03037 7.17239 4.97234C7.17997 4.92063 7.19892 4.89414 7.21029 4.84368C7.22039 4.79701 7.22797 4.75286 7.22797 4.69735C7.22797 4.62797 7.18629 4.43372 7.15724 4.37569C7.13955 4.34037 7.13323 4.33911 7.11429 4.29874C7.08397 4.23315 7.00818 4.15116 6.94629 4.11079C6.87176 4.0616 6.79344 4.00483 6.69744 4.00483C5.03133 4.01618 3.36522 4.00609 1.6991 4.00609C1.48942 4.00609 1.47931 3.97582 1.32647 4.05024L1.21784 4.11205C1.21658 4.11331 1.21279 4.11457 1.21152 4.11584L1.00436 4.38578C0.977838 4.46021 0.939943 4.58635 0.939943 4.66582C0.939943 4.69861 0.937417 4.75033 0.941206 4.78061L1.0031 5.01145L1.16984 5.24607C1.19763 5.27635 1.16858 5.24481 1.19889 5.2713C1.22668 5.29401 1.21152 5.28392 1.22542 5.29779L1.38205 5.376C1.45405 5.38483 1.49826 5.39744 1.58289 5.39618C1.73447 5.39618 1.88605 5.39618 2.03637 5.39618C2.33953 5.39618 2.64269 5.39997 2.94585 5.39744L3.74922 5.39618C3.80732 5.39618 3.79469 5.39997 3.83638 5.41132C3.83638 5.58287 3.8528 6.45578 3.8288 6.55417L2.68942 6.55543L2.68816 8.74274L2.97616 8.74401L2.97743 8.90673C2.9888 10.5075 2.97743 12.107 2.97616 13.7077L2.60606 13.8111C2.55427 13.8301 2.53279 13.82 2.48479 13.8389C2.4469 13.854 2.40774 13.8755 2.37363 13.8805C2.31048 13.8894 2.26374 13.9209 2.20311 13.9348L2.12732 13.9562C2.07174 13.9827 2.08184 13.984 2.01742 13.9966C1.97447 14.0054 1.953 14.0281 1.91132 14.0445L1.80142 14.0937C1.76226 14.1139 1.77111 14.1025 1.737 14.1152C1.72437 14.1189 1.70542 14.1328 1.69026 14.1429C1.64226 14.1744 1.63342 14.1606 1.58668 14.1871L1.00942 14.5592C1.00689 14.5604 1.00436 14.563 1.00184 14.5642L0.926049 14.6235C0.900785 14.6424 0.905838 14.6412 0.88689 14.6588C0.826259 14.7219 0.736574 14.7862 0.662047 14.8644L0.648152 14.8834C0.646889 14.8846 0.645626 14.8871 0.644363 14.8897L0.605205 14.9262C0.592573 14.9439 0.601415 14.9389 0.588784 14.954C0.578678 14.9666 0.588784 14.9565 0.573626 14.9691C0.525626 15.012 0.497836 15.0776 0.454888 15.1243C0.446046 15.1344 0.442257 15.1344 0.435941 15.1445L0.41573 15.1886C0.414467 15.1911 0.413204 15.1937 0.411941 15.1962L0.254045 15.5015C0.240151 15.5532 0.232572 15.5607 0.211098 15.6087C0.19215 15.6503 0.190887 15.7008 0.174466 15.75L0.16815 15.7651C0.131519 15.8786 0.150466 15.9177 0.130255 15.9896C0.117624 16.035 0.121413 16.0767 0.113834 16.1309C0.0936235 16.2835 0.125203 16.4173 0.139097 16.5547C0.14415 16.6077 0.140361 16.6607 0.154255 16.696C0.180782 16.7705 0.193414 16.8726 0.221203 16.9332L0.260361 17.0543L0.605205 17.6459C0.625416 17.6787 0.645626 17.709 0.6671 17.7329C0.684784 17.7518 0.696153 17.7607 0.707521 17.7758L0.833838 17.9259C0.871732 17.965 0.898259 17.9764 0.932364 18.018C0.947522 18.0369 0.932364 18.0243 0.948785 18.0407L0.985417 18.0685C0.98668 18.0697 0.987944 18.0722 0.99047 18.0748C1.00689 18.0924 0.989207 18.0798 1.00942 18.0975C1.0271 18.1113 1.01952 18.1 1.03594 18.1139C1.07131 18.1404 1.13826 18.216 1.22289 18.2766L1.58416 18.5377C1.61447 18.5629 1.60058 18.5503 1.63089 18.5655L1.67384 18.5957C1.69658 18.6184 1.72184 18.621 1.75468 18.6411L1.86711 18.708C1.86837 18.7093 1.8709 18.7118 1.87342 18.713L1.92142 18.7358C2.00858 18.7673 1.94037 18.7585 2.08311 18.7976L2.08184 18.8379C1.82668 18.8127 0.948785 18.8291 0.631731 18.8291C0.550889 18.8291 0.523099 18.8405 0.452362 18.8468C0.346256 18.8568 0.398046 18.8505 0.31973 18.8909C0.289414 18.906 0.308361 18.8947 0.281835 18.906C0.280572 18.9073 0.276782 18.9073 0.274256 18.9086C0.27173 18.9098 0.269203 18.9111 0.26794 18.9124C0.209835 18.9439 0.0999394 19.0587 0.0797288 19.1154C0.0329917 19.2403 0.0456234 19.123 0.00899164 19.3211C-0.0238506 19.4989 0.0355181 19.6869 0.150466 19.8092L0.242677 19.8874C0.245203 19.8887 0.246466 19.8912 0.248993 19.8925L0.398046 19.9745C0.49531 20.0199 1.00184 19.9909 1.14963 19.9909C3.21995 19.9909 5.29154 19.9909 7.36187 19.9909C7.49703 19.9909 7.67008 20.0211 7.78629 19.9631C7.81661 19.9492 7.81408 19.9455 7.84945 19.9328C7.88229 19.9215 7.8545 19.9392 7.88734 19.9177C7.91892 19.8963 7.89745 19.9064 7.91008 19.8975C7.9265 19.8836 7.91513 19.8912 7.93534 19.8799L8.0705 19.7411C8.08187 19.7247 8.07934 19.7234 8.0844 19.7121C8.17282 19.509 8.10966 19.6717 8.15261 19.5077C8.17408 19.4283 8.15135 19.2328 8.13113 19.1937C8.12103 19.176 8.10713 19.1609 8.09577 19.1331C8.07934 19.0915 8.09703 19.1066 8.06924 19.0776C8.06292 19.0726 8.05408 19.0688 8.04145 19.0536C7.99092 18.9969 7.94292 18.9313 7.87471 18.9023L7.83808 18.8859C7.81534 18.8732 7.82545 18.8783 7.81155 18.8707C7.76103 18.8404 7.64355 18.8291 7.58418 18.8291L5.61112 18.8278L5.60607 18.5491C5.60607 18.4986 5.62375 18.3851 5.59091 18.3548C5.55175 18.3132 5.26754 18.3548 5.18923 18.3321L5.19302 8.74527Z" fill="#707070"/>
<path fill-rule="evenodd" clip-rule="evenodd" d="M7.16987 14.6677C7.14713 14.6525 7.15724 14.6588 7.13576 14.6487C7.09408 14.6286 7.08524 14.6021 7.04355 14.5756L6.91344 14.4923C6.88692 14.4772 6.8705 14.4747 6.85155 14.4633C6.82755 14.4507 6.81239 14.4305 6.78334 14.4141L6.72144 14.3876C6.64692 14.3397 6.5585 14.3031 6.48523 14.2653C6.48271 14.264 6.48018 14.2627 6.47892 14.2615L6.45618 14.2539C6.43092 14.2476 6.40944 14.2362 6.38544 14.2236L5.97744 14.0887C5.95218 14.0836 5.94081 14.076 5.91302 14.0685C5.8587 14.0559 5.82081 14.0407 5.77533 14.0306L5.52523 13.984C5.5227 13.984 5.52018 13.9827 5.51765 13.9827C5.51639 13.9827 5.5126 13.9814 5.51133 13.9802C5.50881 13.9802 5.50628 13.9802 5.50375 13.9789L5.14123 13.931L4.1888 13.8957C4.18627 13.8969 4.18375 13.8969 4.17996 13.8969L4.15091 13.8982C4.05112 13.8868 3.95259 13.9045 3.85406 13.9121L3.81617 13.9133C3.79722 13.9184 3.80859 13.9083 3.78332 13.9285C3.85027 14.0382 3.18459 13.0694 3.56227 13.6131L4.05112 13.5765C4.11554 13.5652 4.41238 13.5778 4.45154 13.5727L4.53743 13.574C4.53996 13.574 4.54375 13.5727 4.54628 13.5727C4.54754 13.5727 4.55133 13.5727 4.55385 13.5727L5.01238 13.598C5.11344 13.598 5.22081 13.6245 5.32439 13.6282C5.43175 13.6333 5.5366 13.6573 5.64144 13.6774L6.10123 13.7872C6.10249 13.7872 6.10502 13.7884 6.10755 13.7897L6.28692 13.8477C6.28944 13.849 6.31976 13.8591 6.32228 13.8591L6.35892 13.8717C6.38544 13.8831 6.36144 13.8755 6.39428 13.8856C6.50544 13.9184 6.61029 13.9802 6.71892 14.0168L6.85913 14.0899C6.87934 14.1038 6.90713 14.1252 6.92734 14.1316C6.95639 14.1429 6.93239 14.1265 6.96144 14.1429L7.06376 14.2072C7.08271 14.2173 7.05997 14.2009 7.08524 14.2199C7.14208 14.2653 7.17492 14.2754 7.20776 14.3018C7.25955 14.346 7.30881 14.3662 7.34166 14.3914C7.37324 14.4166 7.36818 14.4267 7.40608 14.4532C7.48439 14.5075 7.51345 14.5516 7.57155 14.5932C7.70292 14.6866 7.67261 14.6878 7.73955 14.7459C7.83682 14.8291 7.85829 14.8367 7.93534 14.9376C7.96945 14.9818 7.96692 14.9641 7.9985 14.9969C8.06166 15.0625 8.14124 15.1331 8.19303 15.2075C8.34461 15.427 8.47851 15.5961 8.58714 15.8357L8.6983 16.1233C8.75893 16.305 8.73872 16.3201 8.76272 16.421L8.7703 16.4765C8.77282 16.5119 8.76777 16.4677 8.77282 16.5043C8.79051 16.5056 8.8044 16.5081 8.82714 16.5081L8.92314 16.527C8.9484 16.5371 8.93072 16.527 8.96356 16.5434C9.05072 16.5888 9.07724 16.7049 9.09493 16.7906C9.11135 16.8739 9.10503 16.9559 9.07472 17.0303C9.01409 17.1792 8.94461 17.1968 8.83724 17.2094C8.7564 17.217 8.72103 17.2082 8.64651 17.2094L8.4924 17.2208C8.42293 17.2195 8.32566 17.2019 8.27387 17.1287C8.20566 17.029 8.22082 17.0215 8.19556 16.9117L8.19177 16.8953C8.18419 16.8474 8.18924 16.7932 8.2044 16.7452C8.27387 16.522 8.33071 16.5863 8.45072 16.4955L8.34208 16.0641C8.30924 15.9669 8.25745 15.9215 8.22714 15.8395C8.20061 15.7676 8.13619 15.6831 8.08819 15.6137C7.98334 15.4636 7.8924 15.3766 7.85071 15.316C7.76734 15.1962 7.68145 15.1533 7.60566 15.0625C7.58166 15.0335 7.57408 15.0095 7.54503 14.9855C7.53618 14.978 7.49576 14.9477 7.48566 14.9389L7.36313 14.8266C7.32397 14.7938 7.25955 14.7534 7.23429 14.7269C7.19639 14.6878 7.21281 14.6954 7.16987 14.6677Z" fill="#707070"/>
</g>
</g>
</svg>
