<svg width="24" height="24" viewBox="0 0 24 24" fill="none" xmlns="http://www.w3.org/2000/svg">
<g id="Frame 110">
<g id="Vector">
<path d="M12.299 5.11376L12.5971 3.80035H11.5942L11.3113 4.9909C11.3012 5.0403 11.2961 5.0821 11.2961 5.11503C11.2961 5.19862 11.334 5.24421 11.4111 5.25435L11.3959 5.33414H10.5559C10.4574 5.33414 10.4081 5.28728 10.4081 5.19482L10.4271 5.0707L11.0776 2.24249C11.0877 2.19183 11.0928 2.1513 11.0928 2.1171C11.0928 2.03477 11.0549 1.98791 10.9791 1.97778L10.993 1.89925H11.833C11.9315 1.89925 11.982 1.94485 11.982 2.03857L11.9618 2.16269L11.7332 3.14301H12.7462L12.9496 2.28175C12.9597 2.23235 12.9647 2.19056 12.9647 2.15763C12.9647 2.07404 12.9268 2.02844 12.851 2.01831L12.8649 1.93851H13.7049C13.8034 1.93851 13.854 1.98538 13.854 2.07784L13.8337 2.20196L13.1832 5.03397C13.1731 5.08463 13.1681 5.12643 13.1681 5.15936C13.1681 5.24295 13.206 5.28854 13.283 5.29868L13.2679 5.37847H12.4279C12.3294 5.37847 12.2788 5.33161 12.2788 5.23915L12.299 5.11376ZM17.5284 1.88912C17.9578 1.88912 18.2724 1.97778 18.4719 2.15763C18.6601 2.32735 18.7536 2.58572 18.7536 2.93402C18.7536 3.03028 18.746 3.13794 18.7296 3.25826C18.7132 3.37732 18.6892 3.50777 18.6601 3.65089C18.4947 4.36523 18.3052 4.83259 18.0943 5.0555C17.8593 5.29741 17.4513 5.419 16.8728 5.419C16.4421 5.419 16.1301 5.33794 15.9394 5.17455C15.7474 5.01244 15.6514 4.74393 15.6514 4.36776C15.6514 4.10558 15.6956 3.78261 15.7853 3.39758C15.904 2.8859 16.072 2.52113 16.2867 2.30201C16.5583 2.02717 16.9713 1.88912 17.5284 1.88912ZM17.7709 3.71549C17.805 3.57363 17.8303 3.43811 17.8505 3.31019C17.8707 3.18227 17.8808 3.07334 17.8808 2.98469C17.8808 2.83143 17.8479 2.71871 17.781 2.64525C17.7153 2.57306 17.6054 2.53633 17.4539 2.53633C17.2278 2.53633 17.0598 2.59965 16.9473 2.72504C16.8172 2.8707 16.7099 3.14174 16.6215 3.5369C16.5343 3.93207 16.4901 4.20691 16.4901 4.36269C16.4901 4.51595 16.5267 4.62234 16.6 4.68187C16.672 4.74139 16.7983 4.77179 16.9764 4.77179C17.1924 4.77179 17.3541 4.70086 17.4627 4.56028C17.5726 4.41842 17.6749 4.13725 17.7709 3.71549ZM14.9137 4.95291H14.4388C14.3819 4.95291 14.3529 4.93138 14.3529 4.88831C14.3529 4.88198 14.3541 4.86678 14.3579 4.84398L14.4047 4.65147H15.0817C15.1853 4.65147 15.2737 4.68313 15.3482 4.74393C15.4329 4.81359 15.4745 4.90478 15.4745 5.01624C15.4745 5.0441 15.4708 5.07703 15.4619 5.11629C15.4329 5.24548 15.3874 5.34554 15.3255 5.41773C15.2825 5.46966 15.2118 5.52159 15.112 5.57732L14.7773 5.76477C14.6649 5.82556 14.5916 5.87496 14.56 5.91042C14.5272 5.94842 14.5045 5.99401 14.4918 6.04847H15.088C15.131 6.04847 15.1638 6.04214 15.1865 6.03074C15.2093 6.01808 15.2333 5.99528 15.2585 5.96108H15.3028L15.2409 6.23719C15.2282 6.29165 15.2093 6.32838 15.1828 6.34611C15.1575 6.36385 15.107 6.37145 15.0324 6.37145H13.9601C14.0232 6.10294 14.0939 5.90409 14.171 5.7749C14.2493 5.64571 14.3643 5.54185 14.5184 5.46206L14.8442 5.29488C14.8935 5.26955 14.9352 5.24168 14.9668 5.20875C14.9996 5.17709 15.0211 5.13529 15.0324 5.0859C15.0362 5.06816 15.0375 5.05677 15.0375 5.05043C15.0375 4.98584 14.9958 4.95291 14.9137 4.95291Z" fill="#707070"/>
<path fill-rule="evenodd" clip-rule="evenodd" d="M19.461 21.3307V23H23.2895V15.8225H22.7287C22.7287 15.8225 22.7287 14.8637 22.7287 14.5496C22.7287 14.238 21.7497 13.34 21.7497 13.34C21.7497 13.34 23.748 13.5579 23.8731 13.34C23.9981 13.1234 24.0815 12.0671 23.8731 11.8594C23.6646 11.6504 21.8445 11.9455 21.7497 12.2976C21.6563 12.6485 21.5552 13.0272 21.5552 13.0272C21.5552 13.0272 18.6715 9.25158 18.1511 9.23132C17.6307 9.20979 12.4089 9.23132 12.4089 9.23132C12.4089 9.23132 7.18592 9.20979 6.66551 9.23132C6.1451 9.25158 3.26139 13.0272 3.26139 13.0272C3.26139 13.0272 3.16034 12.6485 3.06687 12.2976C2.9734 11.9455 1.15197 11.6504 0.944817 11.8594C0.736402 12.0671 0.819768 13.1234 0.944817 13.34C1.06987 13.5579 3.06687 13.34 3.06687 13.34C3.06687 13.34 2.08921 14.238 2.08921 14.5496C2.08921 14.8637 2.08921 15.8225 2.08921 15.8225H1.52712V23H5.35565V21.3307H19.461ZM3.61127 15.2183C3.58475 15.3703 3.27781 17.0535 3.61127 17.3879C3.94348 17.721 8.33283 17.8578 8.45788 17.3879C8.5842 16.918 4.73419 15.2601 3.61127 15.2183ZM21.1472 15.2183C21.1725 15.3703 21.4807 17.0535 21.1472 17.3879C20.815 17.721 16.4257 17.8578 16.2994 17.3879C16.1743 16.918 20.0243 15.2601 21.1472 15.2183ZM12.4089 20.2668C12.4089 20.2668 16.6114 20.3288 17.6105 20.2668C18.6096 20.2035 18.6298 18.3062 18.6298 18.3062H6.18678C6.18678 18.3062 6.20826 20.2035 7.20613 20.2668C8.20526 20.3288 12.4089 20.2668 12.4089 20.2668ZM19.2753 12.7561C19.2753 12.7561 17.7557 10.2116 17.4021 10.1698C17.0484 10.1268 12.4089 10.1698 12.4089 10.1698C12.4089 10.1698 7.76948 10.1268 7.41454 10.1698C7.06087 10.2116 5.54259 12.7561 5.54259 12.7561H19.2753Z" fill="#707070"/>
<path d="M3.91063 1C4.88703 4.90984 7.82 6.8654 7.82 8.81969C7.82 10.774 6.84235 12.7295 3.91063 12.7295C0.977658 12.7295 0 10.774 0 8.81969C0 6.8654 2.93171 4.90984 3.91063 1Z" fill="#707070"/>
</g>
</g>
</svg>
