<svg width="24" height="24" viewBox="0 0 24 24" fill="none" xmlns="http://www.w3.org/2000/svg">
<g id="Frame 114">
<g id="Vector">
<path d="M2.50927 3.07046C2.51179 3.05794 2.51305 3.0404 2.51305 3.0166C2.51305 2.91139 2.44106 2.86004 2.29706 2.86004H2.02549L1.93076 3.28089H2.2238C2.31474 3.28089 2.37916 3.26711 2.41832 3.24081C2.45748 3.21325 2.48779 3.15689 2.50927 3.07046ZM1.82213 3.75185L1.6996 4.27667H1.95728C2.08107 4.27667 2.17075 4.26039 2.22633 4.22657C2.2819 4.19275 2.32232 4.12887 2.34632 4.03117C2.35516 3.9961 2.36022 3.96228 2.36022 3.93222C2.36022 3.8746 2.34127 3.83076 2.3059 3.79945C2.26927 3.76813 2.21117 3.75185 2.12907 3.75185H1.82213ZM2.55853 2.36653C2.76315 2.36653 2.91725 2.41413 3.01957 2.50932C3.12314 2.60577 3.17367 2.73102 3.17367 2.88634C3.17367 2.93394 3.16988 2.98404 3.15977 3.03414C3.12946 3.16315 3.08651 3.26085 3.02841 3.32974C2.97157 3.39863 2.8882 3.44999 2.78084 3.48255C2.88315 3.52514 2.96146 3.58401 3.01704 3.66292C3.07388 3.74058 3.10041 3.83828 3.10041 3.95476C3.10041 3.98733 3.10041 4.02115 3.10041 4.05497C3.09283 4.08753 3.08651 4.11008 3.08399 4.12135C3.03472 4.34681 2.94883 4.51215 2.82505 4.61611C2.68989 4.73385 2.49411 4.79147 2.23769 4.79147H1.01247C0.958152 4.79147 0.921521 4.78019 0.903837 4.7564C0.886154 4.7326 0.877312 4.69878 0.877312 4.65744C0.877312 4.63114 0.88489 4.58605 0.898785 4.52593L1.34719 2.58573C1.35225 2.55567 1.35603 2.53563 1.35603 2.5231C1.35603 2.46674 1.32319 2.43793 1.25625 2.43793L1.27014 2.36653H2.55853ZM4.67805 2.63082L4.21827 4.57227C4.21827 4.60233 4.21827 4.62237 4.21827 4.6349C4.21827 4.69126 4.25111 4.72007 4.31806 4.72007L4.30416 4.79147H3.61197C3.56018 4.79147 3.52482 4.78145 3.50587 4.76266C3.48692 4.74262 3.47682 4.71381 3.47682 4.67498C3.47682 4.63615 3.4844 4.58605 3.49955 4.52593L3.96059 2.58573C3.96059 2.55567 3.96059 2.53563 3.96059 2.5231C3.96059 2.46674 3.92775 2.43793 3.86081 2.43793L3.8747 2.36653H4.56563C4.6212 2.36653 4.65657 2.3778 4.67426 2.4016C4.6932 2.4254 4.70204 2.45922 4.70204 2.50055C4.70204 2.52811 4.69447 2.57195 4.67805 2.63082ZM4.82457 2.20871H4.16901C4.12606 2.20871 4.09196 2.2037 4.06417 2.19117C4.03764 2.17865 4.02375 2.14859 4.02375 2.09723C4.02375 2.08847 4.02375 2.07845 4.02627 2.06592C4.02754 2.05339 4.03133 2.03711 4.03764 2.01582L4.11469 1.69391H4.7652C4.8132 1.69391 4.84983 1.70018 4.87383 1.71395C4.89783 1.72773 4.91046 1.75529 4.91046 1.79662L4.90541 1.85048L4.82457 2.20871ZM5.85906 4.27166H6.22158C6.38326 4.27166 6.49694 4.26289 6.5601 4.2441C6.62325 4.22657 6.67125 4.18899 6.70536 4.13263H6.77735L6.69651 4.49086C6.66241 4.63239 6.60304 4.72383 6.51715 4.76516C6.43126 4.8065 6.28726 4.82779 6.08516 4.82779H5.4435C5.22624 4.82779 5.07845 4.77894 4.99761 4.6825C4.91804 4.5848 4.87888 4.42322 4.87888 4.19525C4.87888 4.13012 4.89404 4.01614 4.92814 3.85456C4.93951 3.7982 4.96983 3.66668 5.01783 3.46001C5.11761 3.04416 5.25656 2.74856 5.43466 2.5732C5.5736 2.43542 5.74286 2.36653 5.94496 2.36653H7.01735L6.92135 2.73353C6.89482 2.83248 6.78367 2.88133 6.58789 2.88133H6.19C6.09527 2.88133 6.01569 2.9164 5.94748 2.9878C5.87927 3.05794 5.83507 3.14937 5.81359 3.26336L5.66581 3.91343C5.64939 3.98232 5.64181 4.03493 5.64181 4.07376C5.64181 4.14014 5.65949 4.18899 5.69233 4.22281C5.72517 4.25538 5.78075 4.27166 5.85906 4.27166ZM7.16134 4.52593L7.78154 1.91311C7.78154 1.88305 7.78154 1.86301 7.78154 1.85048C7.78154 1.79412 7.74743 1.76531 7.68175 1.76531L7.69564 1.69391H8.38657C8.44089 1.69391 8.47752 1.70644 8.4952 1.72898C8.51288 1.75403 8.52299 1.7866 8.52299 1.82794C8.52299 1.85549 8.51541 1.89808 8.50025 1.9582L8.22868 3.11055L8.80719 2.54565C8.83119 2.52435 8.84382 2.50556 8.84382 2.48803C8.84382 2.46047 8.81982 2.44419 8.77056 2.43793L8.78446 2.36653H9.45896C9.51833 2.36653 9.54864 2.39033 9.54864 2.43793C9.54864 2.47049 9.53727 2.4968 9.51201 2.51433L8.78951 3.16441H8.91582C9.08508 3.16441 9.21139 3.20073 9.29728 3.27212C9.38317 3.34477 9.42612 3.4337 9.42612 3.54142C9.42612 3.56647 9.42612 3.58902 9.42612 3.61031C9.42107 3.64288 9.41602 3.67044 9.41223 3.69549L9.19623 4.57102C9.19623 4.60233 9.19623 4.62237 9.19623 4.6349C9.19623 4.69126 9.22907 4.72007 9.29602 4.72007L9.28213 4.79147H8.58993C8.53941 4.79147 8.50404 4.78145 8.48383 4.76266C8.46489 4.74262 8.45478 4.71381 8.45478 4.67498C8.45478 4.63615 8.46236 4.58605 8.47752 4.52593L8.63541 3.85581L8.6493 3.74809C8.6493 3.65165 8.56215 3.60405 8.38783 3.60405H8.10995L7.88006 4.57102C7.88006 4.60108 7.88006 4.62237 7.88006 4.6349C7.88006 4.69126 7.91416 4.72007 7.97985 4.72007L7.96595 4.79147H7.27502C7.22324 4.79147 7.18787 4.78145 7.16892 4.76266C7.14871 4.74262 7.13861 4.71381 7.13861 4.67498C7.13861 4.63615 7.14619 4.5873 7.16134 4.52593Z" fill="#707070"/>
<path d="M13.3229 4.66997L13.6285 4.86286L12.6521 6.38471L12.3452 6.19057L13.3229 4.66997ZM15.2756 1.62627L15.5826 1.82042L14.6062 3.34227L14.2992 3.14812L15.2756 1.62627Z" fill="#707070"/>
<path d="M13.775 5.01317L14.0618 5.23487L12.9414 6.65526L12.6547 6.43231L13.775 5.01317ZM15.5687 2.73979L15.8554 2.96274L14.735 4.38314L14.4483 4.16018L15.5687 2.73979ZM17.2297 1.22295L16.5287 2.11101L16.2419 1.88806L16.943 1L17.2297 1.22295Z" fill="#707070"/>
<path d="M14.0883 5.45532L14.3498 5.70583L13.0879 7.00472L12.8264 6.75421L14.0883 5.45532ZM16.108 3.37734L16.3695 3.62785L15.1076 4.92674L14.8462 4.67623L16.108 3.37734ZM18.1265 1.29811L18.388 1.54862L17.1261 2.84876L16.8646 2.59825L18.1265 1.29811Z" fill="#707070"/>
<path d="M14.4824 5.73213L14.711 6.01145L13.2951 7.14501L13.0677 6.86444L14.4824 5.73213ZM16.7459 3.91844L16.9745 4.19901L15.5598 5.33257L15.3312 5.052L16.7459 3.91844ZM19.0107 2.10475L19.238 2.38532L17.8234 3.51888L17.5947 3.23831L19.0107 2.10475Z" fill="#707070"/>
<path d="M14.7262 6.08911L14.9258 6.39097L13.405 7.38049L13.2054 7.07987L14.7262 6.08911ZM17.1577 4.50589L17.3573 4.8065L15.8377 5.79601L15.6382 5.4954L17.1577 4.50589ZM19.5905 2.92141L19.79 3.22202L18.2692 4.21279L18.0697 3.91092L19.5905 2.92141Z" fill="#707070"/>
<path d="M14.879 6.43481L15.047 6.75547L13.4315 7.5834L13.2647 7.264L14.879 6.43481ZM18.1101 4.77769L18.2781 5.09834L16.6625 5.92628L16.4945 5.60688L18.1101 4.77769ZM21.0974 3.65039L19.8936 4.26915L19.7256 3.9485L20.9306 3.33099L21.0974 3.65039Z" fill="#707070"/>
<path d="M12.8378 4.44702L13.17 4.59482L12.4235 6.23941L12.0926 6.09161L12.8378 4.44702ZM14.6479 1.33568L13.9153 2.95022L13.5843 2.80242L14.3157 1.18788L14.6479 1.33568Z" fill="#707070"/>
<path fill-rule="evenodd" clip-rule="evenodd" d="M0.607004 15.4244C0.998572 15.105 3.87217 12.8366 4.0528 12.6888C4.23343 12.541 4.42289 12.7376 4.42289 12.7376C4.42289 12.7376 5.03298 12.1627 5.22371 12.0575C5.41445 11.9523 5.6077 11.9698 5.6077 11.9698C5.6077 11.9698 5.48392 11.8897 5.64307 11.7469C5.80222 11.6041 10.7726 7.44186 10.7726 7.44186L10.9671 7.43309L11.0227 7.22517C11.0227 7.22517 11.9915 6.33461 12.2618 6.12668C12.5321 5.91876 12.9212 6.32834 13.0829 6.52249C13.2445 6.71664 13.5388 7.04105 13.2546 7.32287C12.9692 7.60595 11.8652 8.3938 11.8652 8.3938L11.6947 8.37L11.7439 8.5679C11.7439 8.5679 6.70915 12.8328 6.61946 12.893C6.52978 12.9531 6.32895 12.8178 6.32895 12.8178C6.32895 12.8178 6.33905 13.1347 6.14832 13.3163C5.95633 13.4967 5.51676 13.8198 5.51676 13.8198L5.29824 13.7472C5.29824 13.7472 5.47129 13.8875 5.39929 14.0666C5.32603 14.2457 4.95467 14.6365 5.00772 14.9446C5.06077 15.2515 6.13569 15.9542 6.38705 17.7804C6.63715 19.6079 6.70536 20.7565 6.12306 21.1811C5.53949 21.6069 3.04357 21.875 2.90715 21.9238C2.77073 21.9714 3.10925 22.5489 2.96525 22.7405C2.82126 22.9334 2.10759 23.1401 2.03686 22.872C1.96612 22.6027 1.98633 22.1092 1.84865 22.1105C1.70971 22.1105 1.42298 22.1305 1.3573 21.8838C1.29035 21.637 1.47477 21.3865 1.60108 21.3088C1.72613 21.2312 1.27014 20.2241 1.32698 19.2258C1.38256 18.2263 1.34088 17.7341 1.34088 17.7341L0.963204 17.3395C0.963204 17.3395 0.527427 17.5762 0.109334 17.0652C-0.30876 16.5529 0.607004 15.4244 0.607004 15.4244ZM4.7652 15.75C4.8713 15.6498 5.45992 16.1609 5.77696 17.4572C6.09401 18.7536 5.89191 20.3845 5.89191 20.3845C5.89191 20.3845 5.82496 20.2129 5.69739 20.2417C5.56981 20.2705 5.50539 20.4984 5.31466 20.3907C5.12519 20.283 3.91891 18.0823 3.81281 17.6038C3.7067 17.1266 4.17027 16.7859 4.42668 16.3638C4.6831 15.9404 4.7652 15.75 4.7652 15.75ZM3.95049 15.9254C3.95049 15.9254 3.9328 16.0895 3.62586 16.4652C3.31893 16.841 3.0903 17.3282 3.35808 17.9257C3.62586 18.5219 3.88228 18.8764 3.88228 18.8764L3.79639 18.9716C3.79639 18.9716 4.72857 20.4308 4.91299 20.6688C5.0974 20.9068 5.71254 20.7327 5.71254 20.7327C5.71254 20.7327 5.61907 21.0471 4.82078 21.121C4.02249 21.1949 3.39219 21.3201 3.28103 21.3226C3.16988 21.3264 2.98799 20.9231 2.87557 20.0112C2.76442 19.0993 2.54842 17.833 2.60653 17.3846C2.66463 16.9362 2.67094 16.9437 3.02715 16.6406C3.38208 16.3387 3.95049 15.9254 3.95049 15.9254Z" fill="#707070"/>
<path fill-rule="evenodd" clip-rule="evenodd" d="M20.6111 21.7272V22.9597H23.4695V17.6589H23.0502C23.0502 17.6589 23.0502 16.95 23.0502 16.7195C23.0502 16.4878 22.3201 15.8252 22.3201 15.8252C22.3201 15.8252 23.8118 15.9868 23.9053 15.8252C23.9988 15.6649 24.0606 14.8858 23.9053 14.7317C23.7499 14.5776 22.3895 14.7956 22.3201 15.0549C22.2493 15.3154 22.1748 15.5947 22.1748 15.5947C22.1748 15.5947 20.0212 12.8053 19.6321 12.7902C19.2444 12.7752 15.3438 12.7902 15.3438 12.7902C15.3438 12.7902 11.4446 12.7752 11.0555 12.7902C10.6665 12.8053 8.51288 15.5947 8.51288 15.5947C8.51288 15.5947 8.43836 15.3154 8.36762 15.0549C8.29815 14.7956 6.93903 14.5776 6.78241 14.7317C6.62704 14.8858 6.68894 15.6649 6.78241 15.8252C6.87588 15.9868 8.36762 15.8252 8.36762 15.8252C8.36762 15.8252 7.63754 16.4878 7.63754 16.7195C7.63754 16.95 7.63754 17.6589 7.63754 17.6589H7.21818V22.9597H10.0766V21.7272H20.6111ZM8.77309 17.2117C8.7554 17.3245 8.52551 18.5683 8.77309 18.815C9.02192 19.0618 12.2997 19.162 12.3932 18.815C12.4879 18.4681 9.61306 17.2431 8.77309 17.2117ZM21.8704 17.2117C21.8893 17.3245 22.118 18.5683 21.8704 18.815C21.6216 19.0618 18.3438 19.162 18.249 18.815C18.1556 18.4681 21.0304 17.2431 21.8704 17.2117ZM15.3438 20.9406C15.3438 20.9406 18.4827 20.9869 19.2292 20.9406C19.9745 20.8955 19.9896 19.4926 19.9896 19.4926H10.6981C10.6981 19.4926 10.7132 20.8955 11.4597 20.9406C12.205 20.9869 15.3438 20.9406 15.3438 20.9406ZM20.4709 15.3943C20.4709 15.3943 19.3366 13.5142 19.0726 13.4842C18.8086 13.4528 15.3438 13.4842 15.3438 13.4842C15.3438 13.4842 11.8791 13.4528 11.6151 13.4842C11.3511 13.5142 10.2168 15.3943 10.2168 15.3943H20.4709Z" fill="#707070"/>
</g>
</g>
</svg>
