<svg width="24" height="24" viewBox="0 0 24 24" fill="none" xmlns="http://www.w3.org/2000/svg">
<g id="medical-icon:i-restrooms" clip-path="url(#clip0_450_4012)">
<path id="Vector" d="M6.74662 2.25261C6.74662 2.7475 6.55002 3.22213 6.20008 3.57207C5.85014 3.92202 5.37551 4.11861 4.88062 4.11861C4.38572 4.11861 3.9111 3.92202 3.56116 3.57207C3.21121 3.22213 3.01462 2.7475 3.01462 2.25261C3.01462 1.75772 3.21121 1.28309 3.56116 0.93315C3.9111 0.583207 4.38572 0.386611 4.88062 0.386611C5.37551 0.386611 5.85014 0.583207 6.20008 0.93315C6.55002 1.28309 6.74662 1.75772 6.74662 2.25261ZM9.28874 7.53449V6.59174C9.28879 6.35593 9.24238 6.12243 9.15217 5.90457C9.06195 5.68671 8.9297 5.48875 8.76296 5.32202C8.59622 5.15528 8.39827 5.02303 8.18041 4.93281C7.96255 4.8426 7.72904 4.79619 7.49324 4.79624H2.26237C1.78617 4.79624 1.32948 4.9854 0.992757 5.32213C0.656035 5.65885 0.466867 6.11554 0.466867 6.59174V7.53449C0.464923 7.55618 0.463922 7.57795 0.463867 7.59974V13.0279C0.463867 13.2304 0.544307 13.4246 0.687491 13.5677C0.830675 13.7109 1.02487 13.7914 1.22737 13.7914C1.42986 13.7914 1.62406 13.7109 1.76724 13.5677C1.91043 13.4246 1.99087 13.2304 1.99087 13.0279V7.68036H2.50274V13.7917H2.50649V22.4276C2.51161 22.6942 2.6211 22.9481 2.81145 23.1349C3.00179 23.3216 3.25779 23.4262 3.52443 23.4262C3.79107 23.4262 4.04707 23.3216 4.23741 23.1349C4.42775 22.9481 4.53725 22.6942 4.54237 22.4276V13.7917H5.21399V22.4276C5.21399 22.6975 5.32122 22.9564 5.51208 23.1473C5.70295 23.3381 5.96182 23.4454 6.23174 23.4454C6.50167 23.4454 6.76054 23.3381 6.9514 23.1473C7.14227 22.9564 7.24949 22.6975 7.24949 22.4276V13.7917H7.25249V7.68036H7.76437V13.0279C7.77058 13.2262 7.85375 13.4144 7.99625 13.5525C8.13876 13.6906 8.32942 13.7678 8.52787 13.7678C8.72632 13.7678 8.91697 13.6906 9.05948 13.5525C9.20198 13.4144 9.28515 13.2262 9.29137 13.0279V7.59974C9.29165 7.57795 9.29077 7.55617 9.28874 7.53449ZM18.2681 3.99824C18.6372 3.99809 18.9979 3.8885 19.3047 3.68334C19.6115 3.47818 19.8505 3.18665 19.9916 2.84563C20.1327 2.50461 20.1695 2.1294 20.0974 1.76746C20.0252 1.40552 19.8474 1.0731 19.5863 0.812245C19.3252 0.551385 18.9927 0.373799 18.6307 0.301945C18.2687 0.23009 17.8935 0.267194 17.5526 0.408564C17.2117 0.549934 16.9203 0.789221 16.7154 1.09617C16.5105 1.40311 16.4012 1.76393 16.4014 2.13299C16.4015 2.37803 16.4498 2.62066 16.5437 2.84702C16.6376 3.07337 16.7751 3.27902 16.9484 3.45223C17.1218 3.62543 17.3275 3.7628 17.554 3.85648C17.7804 3.95017 18.0231 3.99833 18.2681 3.99824ZM23.4997 12.0435L21.8257 5.83424C21.8104 5.77874 21.7889 5.72515 21.7616 5.67449C21.6665 5.38312 21.4817 5.12927 21.2336 4.94919C20.9856 4.76911 20.687 4.672 20.3805 4.67174H16.1437C15.8238 4.67207 15.5129 4.77789 15.2593 4.9728C15.0056 5.16771 14.8232 5.44083 14.7405 5.74986C14.7292 5.77724 14.7199 5.80574 14.7116 5.83499L13.0672 12.0435C13.0413 12.1403 13.0347 12.2413 13.0477 12.3407C13.0608 12.44 13.0933 12.5359 13.1434 12.6227C13.1935 12.7095 13.2603 12.7856 13.3398 12.8466C13.4193 12.9076 13.51 12.9524 13.6069 12.9784C13.7037 13.0043 13.8047 13.0109 13.904 12.9979C14.0034 12.9848 14.0993 12.9523 14.1861 12.9022C14.2729 12.8521 14.349 12.7853 14.41 12.7058C14.471 12.6263 14.5158 12.5356 14.5417 12.4387L15.8336 7.56149H16.3717L14.0276 16.3856H16.236V22.4779C16.236 22.7028 16.3254 22.9186 16.4844 23.0777C16.6435 23.2367 16.8593 23.3261 17.0842 23.3261C17.3092 23.3261 17.525 23.2367 17.684 23.0777C17.8431 22.9186 17.9325 22.7028 17.9325 22.4779V16.3856H18.6075V22.4779C18.6141 22.6985 18.7063 22.9078 18.8647 23.0616C19.023 23.2153 19.235 23.3013 19.4557 23.3013C19.6764 23.3013 19.8885 23.2153 20.0468 23.0616C20.2052 22.9078 20.2974 22.6985 20.304 22.4779V16.3856H22.5112L20.1585 7.56149H20.7105L22.0252 12.4387C22.0778 12.6342 22.2058 12.8008 22.381 12.902C22.5563 13.0031 22.7646 13.0306 22.9601 12.9784C23.1556 12.9259 23.3223 12.798 23.4236 12.6227C23.5248 12.4474 23.552 12.2391 23.4997 12.0435ZM10.7797 0.305611H12.096V23.3239H10.7797V0.305611Z" fill="#707070"/>
</g>
<defs>
<clipPath id="clip0_450_4012">
<rect width="24" height="24" fill="white"/>
</clipPath>
</defs>
</svg>
