<svg width="24" height="24" viewBox="0 0 24 24" fill="none" xmlns="http://www.w3.org/2000/svg">
<g id="Frame 115">
<g id="Vector">
<path fill-rule="evenodd" clip-rule="evenodd" d="M7.75578 9.54835C10.848 9.54835 13.3554 12.0738 13.3554 15.1883C13.3554 18.3028 10.848 20.8282 7.75578 20.8282C4.66357 20.8282 2.15621 18.3028 2.15621 15.1883C2.15621 12.0738 4.66357 9.54835 7.75578 9.54835ZM6.99915 17.4173C6.99915 17.0483 6.75031 16.7061 6.3802 16.6031C6.07957 16.5204 5.84715 16.6247 5.5301 16.7354L4.18989 17.1743C3.70105 17.327 3.68968 17.8155 3.88926 18.0712L4.03705 18.2634C4.41094 18.7392 4.88589 19.0992 5.3962 19.4097C5.54526 19.5 5.68294 19.5534 5.86104 19.6463C5.97978 19.7074 6.25262 19.8079 6.40547 19.8206C6.6202 19.8372 6.79578 19.7214 6.88546 19.5929C7.01304 19.4097 6.99915 19.2303 6.99915 18.9746V17.4173ZM6.77557 12.4975C6.96125 12.7366 7.08252 13.0178 7.35283 13.1743C7.53725 13.2812 7.82146 13.3092 8.04252 13.2316C8.33683 13.1298 8.45936 12.8919 8.66399 12.6183L9.54062 11.3919C9.66441 11.2087 9.63536 10.9211 9.50272 10.7519C9.31325 10.5114 8.56041 10.3842 8.23957 10.3639C7.77852 10.3346 7.95157 10.2964 7.45136 10.3613C7.20631 10.3931 7.07873 10.3511 6.70736 10.4567C6.4762 10.5229 6.2741 10.5394 6.09599 10.6743C5.94062 10.7913 5.85978 11.0318 5.9242 11.2659C5.9621 11.4084 6.62399 12.3003 6.77557 12.4975ZM4.48041 15.444C4.73178 15.3651 5.53894 15.1272 5.70315 14.9886C5.87873 14.8422 5.95452 14.6756 5.99115 14.4453C6.05052 14.0852 5.83452 13.8308 5.63368 13.5623L4.75326 12.3384C4.68631 12.2481 4.62063 12.1997 4.51199 12.1552C4.4261 12.1196 4.2581 12.0827 4.1621 12.1298C3.88042 12.2672 3.89557 12.2888 3.73263 12.5344C3.264 13.2417 2.94947 14.2366 2.93558 15.0929C2.93305 15.2303 2.95579 15.3448 3.00505 15.4453C3.04926 15.5394 3.15157 15.6298 3.20842 15.6641C3.44463 15.8079 3.61515 15.7201 3.84252 15.6501C4.04842 15.5865 4.27452 15.5102 4.48041 15.444ZM9.9322 13.4949L9.75535 13.743C9.57599 14.0127 9.4042 14.2723 9.60251 14.7023C9.68841 14.8893 9.84504 15.0369 10.0383 15.1158L10.5057 15.2621C10.9415 15.4084 11.501 15.6081 11.9305 15.7265C12.1617 15.7901 12.3777 15.6412 12.4787 15.5025C12.6821 15.2201 12.5103 14.3919 12.4421 14.0598C12.3057 13.3944 12.0025 12.8626 11.6551 12.3346C11.5465 12.1679 11.213 12.056 11.0627 12.1298L10.8644 12.2366C10.7798 12.3015 10.0244 13.3626 9.9322 13.4949ZM10.2379 16.8155C10.0749 16.7646 9.87536 16.7036 9.70736 16.6425C9.4383 16.5445 9.14904 16.5305 8.89641 16.7125C8.81178 16.7735 8.75494 16.8206 8.70694 16.8868C8.6122 17.0178 8.52251 17.2316 8.52251 17.3957V19.2506C8.52251 19.626 8.86483 19.9148 9.28167 19.7888C9.43199 19.7443 9.63662 19.6565 9.78188 19.5878C9.93599 19.514 10.0901 19.4262 10.2379 19.3422L10.6421 19.0687C10.9389 18.8346 11.2118 18.5891 11.4492 18.3053L11.6779 18.0013C11.7612 17.8639 11.7726 17.6107 11.693 17.458C11.6526 17.3817 11.5932 17.3181 11.5389 17.2723C11.4732 17.2201 11.3848 17.1934 11.2876 17.1616C10.9478 17.0483 10.6017 16.93 10.2379 16.8155Z" fill="#707070"/>
<path fill-rule="evenodd" clip-rule="evenodd" d="M7.75578 7.37659C12.0391 7.37659 15.5116 10.874 15.5116 15.1883C15.5116 19.5025 12.0391 23 7.75578 23C3.47242 23 0 19.5025 0 15.1883C0 10.874 3.47242 7.37659 7.75578 7.37659ZM7.75578 9.09415C11.0968 9.09415 13.8063 11.8219 13.8063 15.1883C13.8063 18.5534 11.0968 21.2824 7.75578 21.2824C4.41347 21.2824 1.70526 18.5534 1.70526 15.1883C1.70526 11.8219 4.41347 9.09415 7.75578 9.09415Z" fill="#707070"/>
<path fill-rule="evenodd" clip-rule="evenodd" d="M23.4151 13.6705C23.0374 13.3575 20.2711 11.1387 20.0956 10.9936C19.9212 10.8499 19.5284 11.3015 19.5284 11.3015C19.5284 11.3015 18.9398 10.7379 18.7553 10.6349C18.5722 10.5318 18.3865 10.5509 18.3865 10.5509C18.3865 10.5509 18.5065 10.4707 18.3524 10.3321C18.2109 10.2036 11.3836 4.32188 10.296 3.38931C10.2025 3.30916 9.73262 3.28499 9.73262 3.28499C9.73262 3.28499 9.89935 3.42112 9.79704 3.83206C9.79704 3.83206 17.8774 10.7786 17.9633 10.8372C18.0492 10.8957 18.1819 10.8372 18.1819 10.8372C18.1819 10.8372 18.2337 11.0738 18.4181 11.2506C18.605 11.43 18.8993 11.7443 19.1671 11.7443C19.1671 11.7443 18.7301 12.1679 18.7996 12.3422C18.8703 12.5178 19.2278 12.8995 19.1772 13.201C19.1254 13.5025 18.0897 14.1896 17.8484 15.9771C17.6059 17.7634 17.5415 18.888 18.1023 19.3041C18.6644 19.7201 21.0682 19.9822 21.1996 20.0293C21.3322 20.0776 21.005 20.6412 21.144 20.8295C21.2817 21.0178 21.9701 21.2201 22.0383 20.9567C22.1065 20.6947 22.0863 20.2125 22.2202 20.2125C22.3541 20.2125 22.6294 20.2328 22.6926 19.9911C22.757 19.7494 22.5789 19.5038 22.4589 19.4288C22.3377 19.3524 22.7772 18.3677 22.7229 17.3893C22.6673 16.4122 22.709 15.93 22.709 15.93L23.0728 15.5445C23.0728 15.5445 23.4922 15.7761 23.8951 15.2761C24.2968 14.7748 23.4151 13.6705 23.4151 13.6705ZM19.4097 13.9886C19.3073 13.8906 18.7402 14.3906 18.4358 15.659C18.1301 16.9275 18.3246 18.5242 18.3246 18.5242C18.3246 18.5242 18.389 18.3562 18.5116 18.3842C18.6341 18.4135 18.696 18.6361 18.8804 18.5305C19.0636 18.4249 20.2257 16.271 20.328 15.8041C20.429 15.3359 19.9819 15.0025 19.7356 14.5891C19.488 14.1756 19.4097 13.9886 19.4097 13.9886ZM20.1953 14.1603C20.1953 14.1603 20.2118 14.3219 20.5073 14.6896C20.8029 15.0573 21.0227 15.5331 20.765 16.117C20.5073 16.701 20.261 17.0483 20.261 17.0483L20.3431 17.1412C20.3431 17.1412 19.445 18.5687 19.2669 18.8015C19.0888 19.0344 18.4977 18.8639 18.4977 18.8639C18.4977 18.8639 18.5873 19.1718 19.3566 19.2443C20.1259 19.3168 20.7322 19.4389 20.8396 19.4415C20.9469 19.4453 21.1225 19.0509 21.2299 18.159C21.3372 17.2659 21.5457 16.028 21.4901 15.5891C21.4332 15.1501 21.4282 15.1565 21.0846 14.8613C20.7423 14.5649 20.1953 14.1603 20.1953 14.1603Z" fill="#707070"/>
<path fill-rule="evenodd" clip-rule="evenodd" d="M7.41094 2.71501L10.0989 3.34351C10.3882 3.41094 10.7823 3.80789 10.6383 3.91985C10.4943 4.03308 10.0244 3.97074 9.73514 3.90331L7.04715 3.27481C6.75789 3.20738 6.60378 3.02672 6.70357 2.87277C6.80336 2.71883 7.12168 2.64758 7.41094 2.71501Z" fill="#707070"/>
<path fill-rule="evenodd" clip-rule="evenodd" d="M6.58104 3.20738C6.59368 3.15394 6.60504 3.10051 6.61768 3.0458C6.63031 2.99237 6.64294 2.93893 6.65431 2.88422C6.66694 2.83079 6.67831 2.77735 6.69094 2.72265C6.70231 2.66921 6.71368 2.61578 6.72631 2.56107C6.73389 2.52672 6.76925 2.50127 6.82104 2.48982C6.87157 2.4771 6.97641 2.49109 7.07746 2.51781C7.17978 2.54326 7.28083 2.5827 7.32631 2.61832C7.36925 2.65267 7.39199 2.69084 7.38567 2.72646C7.37431 2.77863 7.3642 2.83333 7.35283 2.88804C7.34146 2.94148 7.33136 2.99618 7.31999 3.04962C7.30862 3.10305 7.29725 3.15776 7.28588 3.2112C7.27452 3.2659 7.26315 3.31934 7.25178 3.37277C7.2442 3.40712 7.20757 3.43257 7.15452 3.44529C7.0901 3.45929 6.98525 3.44529 6.8842 3.41985C6.78315 3.39313 6.68715 3.35369 6.63789 3.31425C6.59494 3.28117 6.5722 3.24173 6.58104 3.20738Z" fill="#707070"/>
<path d="M5.30147 2.39695L7.07999 2.77354L7.00546 3.13232L5.22694 2.75573L5.30147 2.39695ZM2.45305 1.79262L4.23284 2.17048L4.15831 2.52926L2.37852 2.1514L2.45305 1.79262Z" fill="#707070"/>
<path d="M5.0501 2.72137L6.86146 2.8944L6.8261 3.25827L5.01599 3.08651L5.0501 2.72137ZM1.99958 2.79898L2.03368 2.43511L3.24 2.54962L3.20589 2.91476L1.99958 2.79898Z" fill="#707070"/>
<path d="M5.20294 1.98092L6.92462 2.56997L6.80715 2.9173L5.08547 2.32824L5.20294 1.98092ZM2.21558 1.34733L2.33305 1L3.48 1.39186L3.36252 1.73919L2.21558 1.34733Z" fill="#707070"/>
</g>
</g>
</svg>
