<svg width="24" height="24" viewBox="0 0 24 24" fill="none" xmlns="http://www.w3.org/2000/svg">
<g id="Frame 104">
<g id="Vector">
<path fill-rule="evenodd" clip-rule="evenodd" d="M12.653 15.8252C12.5886 15.8695 12.413 15.8467 12.3133 15.8467H11.5819C11.3684 15.8467 11.3053 15.8746 11.3027 15.7733C11.2977 15.6225 11.2952 14.3851 11.3091 14.3217L12.6568 14.323L12.653 15.8252ZM12.6429 13.9709C12.6164 13.9987 12.6063 13.9899 12.557 13.9886L11.5718 13.9873C11.3217 13.9873 11.3015 14.0152 11.3027 13.8961C11.3053 13.6567 11.2901 12.5928 11.3078 12.4648L12.653 12.4674C12.6644 12.5446 12.6568 13.102 12.6568 13.2299C12.6568 13.3198 12.6733 13.9379 12.6429 13.9709ZM12.2021 10.7752C12.245 10.784 12.2488 10.8005 12.2741 10.8258C12.317 10.8714 12.312 10.8448 12.4093 10.9348L13.0787 11.4845C13.277 11.6618 13.272 11.5858 13.1166 11.8138C12.8703 12.1723 12.9979 12.1723 12.7453 12.171C12.4244 12.171 12.1036 12.171 11.7815 12.171C10.8291 12.171 11.184 12.2356 10.8985 11.8391C10.6952 11.5554 10.7634 11.639 10.9124 11.4921C10.9377 11.4667 10.944 11.4667 10.9731 11.4427C11.0109 11.411 11.0678 11.3667 11.1057 11.33L11.3747 11.1108C11.4 11.0906 11.4164 11.0741 11.4392 11.0538C11.4733 11.0247 11.4783 11.031 11.5099 11.0019C11.5465 10.969 11.6046 10.9107 11.6375 10.8854C11.6653 10.8638 11.6792 10.8689 11.7107 10.8372C11.7777 10.7688 11.7827 10.7422 11.8421 10.8258C11.8775 10.8752 11.9002 10.8854 11.9469 10.9664C11.9608 10.9918 11.9646 11.0032 12.0038 11.0158C12.0581 10.974 12.1402 10.8081 12.2021 10.7752ZM5.53267 11.3971C5.54909 11.3148 5.77772 10.993 5.83709 10.9107L5.94825 10.7676C6.02277 10.6586 6.21856 10.4686 6.32719 10.3699C6.36887 10.3319 6.40677 10.266 6.47624 10.2635C6.53308 10.3141 6.82992 10.7055 6.89813 10.7752L7.04971 10.9563C7.12424 11.0374 7.16592 11.1146 7.21139 11.1602C7.44634 11.3971 7.19245 11.3059 6.9954 11.6403C6.96887 11.6871 6.95498 11.6871 6.92213 11.7327C6.89561 11.7695 6.88298 11.7859 6.85771 11.8239L6.73392 12.0203C6.66445 12.0279 6.61266 11.9873 6.56087 11.9569C6.42445 11.8809 6.48635 11.9227 6.4093 11.8873L6.12003 11.7213C6.01898 11.6669 5.5592 11.4376 5.53267 11.3971ZM17.2635 12.0203C17.1473 11.7999 17.1435 11.8138 17.0185 11.6656C16.9819 11.6213 16.9793 11.5883 16.9376 11.5465L16.7861 11.3984C16.7595 11.3781 16.7507 11.3806 16.7254 11.3591C16.632 11.2831 16.7595 11.2008 16.8101 11.1298L16.9692 10.9335C17.0576 10.8398 17.021 10.8702 17.0753 10.7967C17.0955 10.7688 17.1019 10.7726 17.1259 10.7473C17.1448 10.727 17.1448 10.7194 17.1637 10.6979L17.5187 10.2647C17.592 10.2723 17.6324 10.3407 17.6728 10.3775C17.7183 10.4193 17.76 10.4522 17.8067 10.4978C17.8711 10.5586 17.904 10.6156 18 10.703L18.1705 10.9208C18.2981 11.1058 18.2715 11.0526 18.3713 11.2312C18.3991 11.2806 18.4559 11.349 18.4661 11.3971C18.4421 11.4313 18.2122 11.5453 18.173 11.5643C18.0315 11.6314 17.8661 11.7353 17.7271 11.8062C17.6298 11.8556 17.357 12.0329 17.2635 12.0203ZM10.2518 9.90627C10.2884 9.80747 10.3011 9.74034 10.3642 9.69221C10.4236 9.71627 10.4918 9.75047 10.5411 9.77581L10.7823 9.89994C10.8063 9.91387 10.8291 9.92907 10.8594 9.9468L11.2901 10.2571C11.352 10.3192 11.4909 10.4129 11.5415 10.4978C11.5187 10.5358 10.6257 11.4275 10.5966 11.4427C10.5638 11.4465 10.4728 11.349 10.4084 11.2983L10.224 11.159C10.1179 11.0741 9.87159 10.9702 9.82232 10.9196L10.2518 9.90627ZM12.456 10.4978C12.4977 10.4269 12.6631 10.3027 12.7124 10.2533C12.744 10.2204 12.7402 10.2267 12.7806 10.2001C12.8034 10.1837 12.8173 10.1685 12.8488 10.1457L12.9916 10.0443C13.157 9.924 13.4438 9.76567 13.6307 9.69221C13.6977 9.73654 13.6913 9.77707 13.7166 9.83534L13.7848 9.98733C13.8063 10.0393 13.8316 10.0988 13.848 10.1444C13.8644 10.1875 13.8935 10.2609 13.9149 10.3015L13.9793 10.4598C14.016 10.556 14.1638 10.8537 14.1612 10.931C14.1347 10.9563 14.1006 10.969 14.0577 10.9918L13.8518 11.107C13.8139 11.1324 13.7911 11.1463 13.7583 11.1704L13.5714 11.3034C13.5019 11.354 13.4892 11.4174 13.3983 11.4439C13.3819 11.4427 12.4711 10.5345 12.456 10.4978ZM6.76298 10.0317C6.87792 9.91133 7.36297 9.69347 7.55245 9.62128C7.60802 9.59974 7.66234 9.58328 7.72676 9.56175C7.81139 9.53261 8.02107 9.46802 8.10444 9.47308C8.1297 9.51235 8.15623 9.65801 8.1676 9.71248L8.3356 10.5421C8.3596 10.7739 8.45812 10.7714 8.23833 10.8309L8.00213 10.9069C7.90486 10.9525 7.69266 11.0247 7.60045 11.1032C7.55623 11.1412 7.57771 11.1463 7.4956 11.1412L6.93729 10.3129C6.90066 10.2584 6.77435 10.0861 6.76298 10.0317ZM15.6328 10.7992C15.6139 10.7334 15.6631 10.5408 15.6795 10.4636L15.8488 9.63394C15.8589 9.58835 15.869 9.51868 15.8905 9.47435C15.9675 9.46802 16.0345 9.49208 16.0989 9.51108C16.1216 9.51741 16.1633 9.52628 16.1949 9.53641C16.3616 9.58581 16.4766 9.63901 16.6244 9.69348C16.7368 9.73654 17.1461 9.94427 17.237 10.0342C17.2231 10.0887 17.1814 10.133 17.1536 10.1761C17.0172 10.3825 16.8025 10.6764 16.6838 10.8702L16.541 11.0728C16.5259 11.0994 16.512 11.1248 16.5019 11.1425C16.4362 11.1425 16.4311 11.1235 16.3907 11.0956C16.2416 10.9943 15.9158 10.8727 15.749 10.8271C15.7124 10.817 15.6606 10.8119 15.6328 10.7992ZM8.9798 9.37935C9.02654 9.38062 9.05812 9.39582 9.10233 9.39835C9.1478 9.40089 9.20086 9.39455 9.24633 9.39835L9.53559 9.44142C9.70359 9.47942 9.80969 9.49588 9.98022 9.54908C9.99285 9.64028 9.9259 9.80241 9.89811 9.88347C9.8678 9.9734 9.62906 10.8018 9.58864 10.8486L9.20212 10.7739C9.14654 10.7688 9.16296 10.7549 9.07959 10.7562C8.98359 10.7562 8.87244 10.727 8.79412 10.7422C8.61096 10.7802 8.61223 10.76 8.61223 10.6308L8.57433 10.3737C8.56802 10.3268 8.57812 10.2787 8.57181 10.2318L8.55791 10.0975C8.55539 10.0291 8.53896 10.0519 8.5377 9.97593C8.53644 9.86447 8.49981 9.65421 8.49981 9.57568C8.50107 9.39202 8.3836 9.42368 8.69433 9.38062C8.73223 9.37555 8.79412 9.38062 8.8358 9.38189C8.8838 9.38189 8.93307 9.37809 8.9798 9.37935ZM14.8054 9.39835C14.885 9.39835 14.909 9.39582 14.9772 9.38315C15.0316 9.37302 15.1023 9.38062 15.1591 9.38062C15.2248 9.38062 15.2779 9.37429 15.3347 9.38949C15.3979 9.40469 15.4534 9.38949 15.5052 9.40722C15.5254 9.45662 15.48 9.68081 15.48 9.73147C15.48 9.8898 15.4598 9.81507 15.4598 9.8974L15.4547 10.0152C15.4459 10.0519 15.4408 10.0317 15.4408 10.0874C15.4408 10.2065 15.4067 10.4053 15.4067 10.4978C15.4067 10.5598 15.3878 10.5624 15.3865 10.6308C15.3852 10.6966 15.4004 10.7017 15.3663 10.7486C15.2918 10.7764 15.2311 10.7397 15.1591 10.7397C15.0556 10.7397 15.0139 10.7574 14.9267 10.7562C14.8307 10.7549 14.861 10.7676 14.7385 10.7752L14.4076 10.8486C14.3772 10.8043 14.2282 10.323 14.1979 10.2179C14.165 10.1013 14.1372 10.0089 14.1019 9.89107C14.0855 9.8366 14.0678 9.78974 14.0488 9.73274C14.0198 9.64408 14.016 9.65294 14.0135 9.54781C14.093 9.53008 14.3179 9.46042 14.3848 9.45282C14.4758 9.44395 14.7107 9.39835 14.8054 9.39835ZM10.5853 4.95503L10.0888 4.97023C10.0396 4.9791 10.0547 4.9905 9.97643 4.9905C9.91453 4.9905 9.84759 5.00823 9.72127 5.00823L9.44212 5.0399C9.40043 5.04623 9.35496 5.03736 9.31328 5.04496C9.2678 5.05256 9.2817 5.06396 9.21222 5.06396C9.14149 5.06523 9.14275 5.0741 9.0897 5.08043C9.05307 5.08423 9.00633 5.07663 8.97096 5.0817L8.85854 5.10196C8.80423 5.1045 8.80296 5.1159 8.73602 5.1159L8.06023 5.21089C8.01602 5.21343 7.99328 5.22229 7.94023 5.22863C7.89097 5.23496 7.89602 5.24256 7.82781 5.24762L6.84129 5.43002C6.76424 5.44395 6.70614 5.45915 6.63035 5.47688C6.58866 5.48702 6.55708 5.48955 6.51793 5.49968L6.19835 5.56681C6.12888 5.58708 6.06067 5.60101 5.98488 5.62001C5.68425 5.69601 5.35962 5.76567 5.07162 5.85687L4.8632 5.91387C4.82025 5.9278 4.79247 5.93413 4.75962 5.94427L3.9651 6.18999C3.66447 6.29259 3.34742 6.39265 3.05058 6.50792C3.03669 6.51425 3.01269 6.52058 3.00132 6.52438L2.25733 6.81064C2.10196 6.8651 1.45144 7.15009 1.34028 7.20203L1.07249 7.32236C1.01944 7.34135 1.02575 7.33375 0.992913 7.37555C0.91965 7.46422 0.861546 7.63774 0.908282 7.78594C1.05354 8.24066 1.23039 8.67764 1.38575 9.12856L1.73186 10.0912C1.84933 10.4319 1.94785 10.7245 2.07669 11.045C2.09185 11.083 2.09059 11.1058 2.10827 11.145L2.21312 11.4313C2.33817 11.8125 2.49606 12.1887 2.62364 12.5725C2.64637 12.6447 2.66659 12.6966 2.69311 12.7714L2.99753 13.6289C3.01143 13.6694 3.02279 13.6897 3.03669 13.7251L3.38153 14.6903C3.39669 14.7296 3.39921 14.7435 3.41184 14.7815L3.619 15.3502C3.7251 15.6415 3.81479 15.9303 3.92721 16.2191C4.01437 16.4433 4.12173 16.7904 4.20131 16.988L4.67878 18.3192C4.70026 18.3863 4.72552 18.4433 4.74952 18.513C4.76973 18.5725 4.79625 18.6358 4.81899 18.703C4.8291 18.7346 4.8392 18.7663 4.85057 18.8005C4.95036 19.0678 4.99331 19.1666 5.2813 19.0412L6.89813 18.4382L8.87496 17.9455C8.91791 17.9379 8.95833 17.9291 8.98359 17.924C9.02907 17.9164 9.06443 17.9113 9.10359 17.905C9.1377 17.8999 9.12759 17.9037 9.15791 17.8936L9.65811 17.8113C9.72759 17.7999 9.83243 17.8049 9.89685 17.7923C9.97264 17.7771 10.075 17.7568 10.1646 17.7568C10.2013 17.7568 10.44 17.7213 10.5411 17.7226L10.8973 17.6859C10.9364 17.6795 10.9983 17.6821 11.04 17.6833C11.1638 17.6846 11.1928 17.6808 11.3027 17.6593V16.3281C11.3015 16.2305 11.2926 16.2141 11.3937 16.2141H12.5684C12.696 16.2141 12.6568 16.2913 12.6568 16.5054C12.6568 16.8904 12.6493 17.2768 12.6568 17.6605C12.7263 17.6669 12.7276 17.677 12.7781 17.6833C12.9031 17.696 12.984 17.6745 13.1368 17.6998C13.1697 17.7049 13.229 17.7011 13.2657 17.7011C13.3288 17.6998 13.373 17.7213 13.4438 17.7213C13.4754 17.7213 13.5196 17.7175 13.5511 17.7226L14.3078 17.8087C14.3671 17.81 14.4568 17.8366 14.5187 17.8467L15.1819 17.9582C15.2223 17.9658 15.216 17.9683 15.2488 17.9747C15.2854 17.9797 15.2905 17.9759 15.3259 17.9848C15.3688 17.9962 15.4244 18.0089 15.4699 18.0152L16.9187 18.3838C16.9477 18.3914 16.9579 18.399 16.9844 18.4078C17.0362 18.4268 17.0779 18.4306 17.1246 18.4433C17.2067 18.4686 17.2951 18.5104 17.3823 18.532C17.4808 18.556 17.6463 18.627 17.76 18.6624L18.6378 19.0032C18.9271 19.1184 19.0016 19.1995 19.1393 18.8195C19.157 18.7701 19.1684 18.7334 19.1848 18.6878L19.5486 17.6643C19.5562 17.6403 19.5599 17.6403 19.5726 17.6099C19.5814 17.5909 19.5877 17.5643 19.5953 17.5427C19.6105 17.4946 19.6218 17.4629 19.6433 17.4135C19.6749 17.3388 19.6976 17.235 19.733 17.1602C19.7494 17.1235 19.7633 17.0716 19.7785 17.0298C19.7974 16.9791 19.8113 16.95 19.8277 16.8993C19.8947 16.6865 19.9793 16.48 20.05 16.2673C20.0677 16.2128 20.0829 16.1887 20.0993 16.1406C20.213 15.8037 20.3557 15.4515 20.4631 15.1172L20.554 14.8626C20.5641 14.8322 20.5629 14.836 20.5755 14.8068L20.7814 14.2356C20.8799 13.9291 20.9987 13.6453 21.1035 13.3388L21.4686 12.3154C21.5027 12.228 21.5317 12.1393 21.5582 12.0608L21.7881 11.4249C21.8008 11.3844 21.8134 11.3376 21.8336 11.2932L21.9043 11.107C21.946 10.9563 22.2757 10.0583 22.3414 9.89107L22.8858 8.36099C22.8997 8.31665 22.9149 8.26726 22.9313 8.22799L22.997 8.04053C23.0765 7.84927 23.1738 7.58581 23.0235 7.39835C22.9717 7.33249 22.906 7.31349 22.8315 7.27929L22.1797 6.9905C21.9978 6.92464 21.8147 6.82204 21.6302 6.76504C21.5292 6.73591 21.437 6.69158 21.3422 6.65231C21.2462 6.61178 21.1515 6.58898 21.0606 6.54718C21.0176 6.52692 20.9886 6.52438 20.9444 6.50792L19.5258 6.03167C19.493 6.0228 19.4488 6.00633 19.4046 5.9962C19.229 5.95313 19.0408 5.88094 18.8665 5.83787L18.6757 5.78467C18.6303 5.77074 18.5898 5.76694 18.5482 5.75554C18.3044 5.68461 18.0492 5.63774 17.8067 5.56681C17.7625 5.55541 17.7157 5.55161 17.6665 5.53895C17.6197 5.52628 17.5819 5.52502 17.5389 5.51362L16.4993 5.30209C16.3339 5.28436 16.1254 5.23876 15.9549 5.21343C15.9271 5.20963 15.9107 5.21216 15.8842 5.20583L15.1869 5.1083C15.1503 5.1007 15.1566 5.10323 15.1149 5.10196C15.0492 5.09943 15.0202 5.08043 14.9494 5.08043C14.8863 5.08043 14.7713 5.06903 14.7094 5.0513L14.4391 5.0285C14.3608 5.0285 14.309 5.00823 14.2067 5.00823C14.1145 5.00823 14.0387 4.9905 13.9415 4.9905C13.8808 4.9905 13.8846 4.96897 13.8088 4.96897C13.7608 4.9677 13.7002 4.97277 13.6535 4.96897L13.3718 4.93984C13.2429 4.9069 13.0484 4.94743 12.912 4.9335C12.8564 4.92717 12.8526 4.91704 12.7781 4.91704H12.336C12.1958 4.91704 12.0467 4.89804 11.8926 4.90057C11.8118 4.90184 11.7701 4.91704 11.6817 4.91704C11.5086 4.91577 11.1676 4.8993 11.0147 4.9297C10.9175 4.94997 10.7874 4.91324 10.6901 4.93984C10.6459 4.95123 10.656 4.95503 10.5853 4.95503Z" fill="#707070"/>
<path fill-rule="evenodd" clip-rule="evenodd" d="M11.352 4.49905C11.3937 4.49272 11.4442 4.49018 11.4922 4.49398L12.2463 4.49272C12.4535 4.49272 12.3928 4.50412 12.5343 4.51425C12.6177 4.52058 12.6177 4.49398 12.6682 4.49272C12.7099 4.49145 12.7288 4.51425 12.7996 4.51552C12.9031 4.51552 13.0067 4.51552 13.1116 4.51425C13.181 4.51425 13.2581 4.52945 13.3983 4.52945L14.1183 4.58771C14.1928 4.58645 14.2067 4.59278 14.2636 4.60038C14.3116 4.60671 14.3684 4.59658 14.4151 4.60418C14.5541 4.63078 14.6185 4.61558 14.693 4.63458C14.7423 4.64724 14.789 4.63331 14.8358 4.64344C14.8737 4.65104 14.8509 4.65611 14.9052 4.66118L15.6694 4.74857C15.7238 4.75237 15.6909 4.75237 15.7301 4.76251L16.6572 4.91197C16.7797 4.9373 16.9263 4.95123 17.0488 4.98417L18.9258 5.42115C19.1077 5.47815 19.2858 5.51742 19.4665 5.57821L20.3987 5.87714C20.7069 5.9734 21.0176 6.08233 21.3157 6.20139C21.3498 6.21533 21.3827 6.22799 21.4256 6.24572C21.4622 6.25966 21.5052 6.27232 21.5418 6.28499L21.6517 6.33059C21.778 6.39392 22.0395 6.46865 22.1974 6.54971C22.2694 6.58645 22.349 6.60798 22.4172 6.64091C22.6559 6.75364 22.9376 6.85497 23.1675 6.97783C23.3431 7.07156 23.4252 7.24002 23.4845 7.42748C23.5376 7.59595 23.5224 7.78341 23.4706 7.9582C23.4555 8.0076 23.4403 8.0266 23.4264 8.06713L22.7342 10.0089C22.69 10.1469 22.6231 10.3078 22.5688 10.4648L22.3692 11.031C22.3528 11.0728 22.3389 11.0982 22.3262 11.1412C22.3123 11.1856 22.3035 11.216 22.2883 11.259C22.2757 11.297 22.2605 11.3287 22.2454 11.3718C22.2277 11.4148 22.2189 11.4528 22.2024 11.4857C22.1696 11.5541 22.1507 11.639 22.1191 11.7112L21.9587 12.1723C21.946 12.2153 21.9309 12.2483 21.917 12.285L21.8349 12.5168C21.8058 12.5978 21.7881 12.6612 21.7553 12.7346C21.7212 12.8106 21.7048 12.8904 21.6744 12.9652L21.346 13.8797C21.3132 13.9962 21.2589 14.1064 21.2222 14.2242C21.2083 14.2685 21.1995 14.2989 21.1856 14.3407L21.0618 14.6713C21.0151 14.8233 20.9469 14.9778 20.8976 15.1273L20.6134 15.9329C20.5869 16.0089 20.554 16.0861 20.5313 16.1596C20.5212 16.19 20.501 16.2407 20.4884 16.2723L20.2041 17.069C20.1801 17.1488 20.1511 17.2109 20.1233 17.2958L19.877 17.9823C19.8164 18.1697 19.7355 18.3584 19.6774 18.5497C19.6635 18.5953 19.6496 18.6105 19.6332 18.6574C19.6244 18.684 19.6029 18.7372 19.5903 18.7701C19.5814 18.7929 19.5814 18.8081 19.5726 18.8322C19.565 18.855 19.5574 18.8689 19.5498 18.8879C19.4753 19.1032 19.3919 19.3287 19.1785 19.4477C19.037 19.5263 18.8463 19.5427 18.677 19.4756C18.6404 19.4617 18.6075 19.4427 18.5722 19.4249L18.2387 19.292C18.1983 19.2768 18.1705 19.2603 18.1288 19.2451C18.0896 19.2312 18.0631 19.2198 18.0202 19.202L16.637 18.7346C16.3642 18.6434 16.0635 18.5725 15.7806 18.5066C15.7414 18.4978 15.6909 18.4902 15.6518 18.4788L15.3979 18.4218C15.1111 18.366 14.6286 18.2685 14.3507 18.2369C14.3255 18.2343 14.3015 18.2381 14.2762 18.2343C14.2396 18.2293 14.2497 18.2229 14.2168 18.2179C14.189 18.2128 14.1688 18.2166 14.141 18.2141C14.0918 18.209 14.1221 18.2052 14.0829 18.2001L13.8012 18.1697C13.7356 18.1571 13.7128 18.1672 13.6535 18.1621C13.5928 18.1558 13.6055 18.1393 13.5208 18.1406C13.4412 18.1419 13.4337 18.1317 13.3756 18.1254C13.3301 18.1191 13.2707 18.1305 13.224 18.1216C13.1684 18.1115 13.1735 18.1013 13.0888 18.1026L12.6568 18.0861C12.4219 18.0861 12.4914 18.0747 12.3575 18.0684C12.1528 18.0583 11.9419 18.0671 11.7373 18.0684C11.6223 18.0684 11.5427 18.0887 11.4392 18.0887C11.3356 18.0874 11.2307 18.0861 11.1272 18.0874C11.0716 18.0899 11.0589 18.1039 10.9958 18.1039C10.7861 18.1039 10.7848 18.1254 10.7078 18.1241C10.6295 18.1241 10.6232 18.1279 10.5613 18.1393C10.512 18.1469 10.4602 18.1355 10.4097 18.1419C10.3415 18.1507 10.2126 18.1761 10.1318 18.1761C10.0648 18.1773 10.0611 18.19 9.99917 18.1963C9.9739 18.2001 9.9499 18.1951 9.92338 18.2001C9.88801 18.2052 9.90696 18.209 9.86527 18.2141L9.72885 18.2331C9.65433 18.247 9.58738 18.2381 9.51538 18.2546C9.48506 18.2609 9.49896 18.2647 9.45475 18.2698L8.66528 18.4129C8.63749 18.4192 8.62233 18.4154 8.59581 18.4205C8.49854 18.437 8.38486 18.4762 8.28255 18.4927C8.14107 18.5142 7.39708 18.7118 7.1874 18.7853C6.84382 18.9069 6.5053 18.9943 6.15288 19.1374L5.38109 19.449C5.14488 19.563 4.88846 19.5377 4.68889 19.3426C4.64973 19.3034 4.64341 19.311 4.61562 19.2603C4.59794 19.2312 4.57773 19.2033 4.55752 19.1742C4.51205 19.1058 4.41857 18.8296 4.38699 18.7232C4.36173 18.6396 4.33521 18.589 4.30489 18.4952C4.23415 18.2825 4.14573 18.0785 4.07879 17.8657C4.07121 17.8442 4.06363 17.8252 4.05731 17.8087C4.03079 17.7365 4.00173 17.6504 3.97647 17.582L3.61142 16.5586C3.59753 16.5079 3.58489 16.499 3.56847 16.4458C3.47247 16.1419 3.34616 15.8417 3.24258 15.5402L3.16048 15.3122C3.08216 15.0766 3.0089 14.855 2.91543 14.6219L2.72974 14.1089C2.72216 14.0849 2.7209 14.0773 2.71206 14.0507C2.69816 14.0101 2.68806 13.9835 2.66911 13.9379C2.64006 13.8695 2.62111 13.7821 2.59459 13.7137L2.34448 13.031C2.31796 12.95 2.2889 12.8828 2.26364 12.8018L2.18027 12.5725C2.11838 12.4256 2.07543 12.2635 2.01985 12.114L1.52849 10.7524C1.49817 10.67 1.47417 10.6042 1.44638 10.5218L1.2847 10.0735C1.2607 9.99367 1.23417 9.92527 1.2026 9.84294L1.12175 9.61494C1.10786 9.57061 1.09523 9.55288 1.08007 9.50095C1.07375 9.47562 1.06997 9.46928 1.0586 9.44522C1.05102 9.42495 1.04597 9.40848 1.03839 9.38568L0.956282 9.16023C0.870388 8.91957 0.784493 8.70171 0.711231 8.47118C0.654389 8.29259 0.555864 8.0798 0.511653 7.90247C0.502811 7.86574 0.502811 7.88094 0.497759 7.84167C0.492706 7.80494 0.495232 7.80874 0.48639 7.77581C0.459864 7.67574 0.487654 7.58075 0.496496 7.49968C0.523022 7.26282 0.6746 7.04876 0.880493 6.95123C0.956282 6.91703 1.01312 6.89297 1.09523 6.85624C1.45396 6.69664 1.80891 6.53831 2.17522 6.39645L3.52679 5.89614C3.57605 5.88094 3.60132 5.8746 3.64426 5.85814L4.58531 5.56048C4.7331 5.52502 4.85815 5.47815 5.00215 5.44522L5.43036 5.32996C5.4872 5.31602 5.49857 5.30842 5.55414 5.29576L5.80425 5.23369C6.00761 5.18683 6.22109 5.14883 6.43203 5.0893C6.54824 5.05636 6.69603 5.0399 6.82108 5.0095C6.84382 5.00443 6.86529 4.9981 6.88045 4.99557C6.90319 4.9905 6.91582 4.99177 6.93856 4.9867L7.1975 4.93477C7.28845 4.91957 7.64466 4.84737 7.72802 4.84357C7.80508 4.83977 7.79118 4.82964 7.86065 4.82331L8.00213 4.80557C8.04002 4.80051 8.0236 4.79671 8.06276 4.79037C8.12718 4.77897 8.20423 4.77897 8.26612 4.76251C8.35202 4.73971 8.45055 4.75111 8.53644 4.72324L9.07959 4.65991C9.12633 4.65484 9.10865 4.65104 9.14401 4.64851C9.18191 4.64598 9.12886 4.65231 9.17559 4.64851L9.62148 4.60165C9.77053 4.60418 9.91706 4.56491 10.0535 4.56745C10.128 4.56871 10.1343 4.55985 10.1899 4.55098C10.2771 4.53832 10.4072 4.56111 10.4968 4.54845C10.5575 4.54085 10.5587 4.52818 10.6408 4.52818C10.7015 4.52945 10.7305 4.53072 10.7836 4.51932C10.8417 4.50792 10.8341 4.53705 10.9149 4.52312C11.0211 4.50538 11.1436 4.52058 11.2851 4.50158C11.3078 4.49905 11.3267 4.50285 11.352 4.49905ZM18.8147 20C18.9928 20 19.0812 20 19.2265 19.9519C19.4526 19.8759 19.6875 19.7011 19.805 19.4971C19.9023 19.3287 19.9869 19.1349 20.045 18.95C20.0551 18.917 20.0627 18.8892 20.0766 18.86L20.434 17.8505C20.4909 17.715 20.5288 17.5655 20.5881 17.4287C20.6096 17.3756 20.6273 17.3211 20.6462 17.2641C20.6627 17.2109 20.6867 17.1602 20.7094 17.0944C20.8244 16.7536 20.9582 16.4268 21.0681 16.0874L21.5519 14.741C21.6441 14.4547 21.7793 14.1089 21.8829 13.8201C21.9486 13.6377 22.0155 13.4186 22.09 13.2375C22.1406 13.1146 22.2239 12.8398 22.2707 12.7308C22.3667 12.5117 22.4285 12.2837 22.5107 12.0608L22.6888 11.5617C22.762 11.3832 22.7974 11.2299 22.8707 11.0538C22.9616 10.8347 23.0222 10.6092 23.1107 10.3863L23.7157 8.70551C23.7928 8.47752 23.8837 8.26472 23.9532 8.03293C23.9683 7.9772 23.9721 7.8936 23.9848 7.8404C24.0163 7.71627 23.9911 7.54148 23.9784 7.42242C23.9557 7.20709 23.8193 6.94617 23.6892 6.78657C23.6589 6.74984 23.6121 6.69791 23.573 6.67004C23.3759 6.52818 23.4226 6.56365 23.2155 6.46232L22.5056 6.15199C22.474 6.13679 22.4526 6.13046 22.4197 6.1178L21.5317 5.76314C21.3612 5.69601 21.1869 5.64788 21.0227 5.57315L20.6841 5.45788C20.3987 5.36035 20.1157 5.26156 19.8277 5.18303L19.565 5.10196C19.3679 5.03863 18.8728 4.91704 18.7692 4.8803C18.7086 4.8575 18.6492 4.84864 18.5861 4.82964L17.1031 4.49652C16.9667 4.46865 16.8568 4.45852 16.7179 4.42559C16.6635 4.41292 16.5814 4.40912 16.5246 4.39772C16.4918 4.39139 16.5107 4.39012 16.4753 4.38379C16.4564 4.37999 16.4425 4.38125 16.4235 4.37872C16.3604 4.37112 16.3048 4.34959 16.2341 4.34579L15.6341 4.25712C15.5406 4.24319 15.0998 4.18239 15.0164 4.18239C14.952 4.18239 14.952 4.16593 14.904 4.16086L14.6728 4.14566C14.6147 4.1368 14.6551 4.1254 14.573 4.1254L14.117 4.0912C13.9983 4.07473 13.8909 4.07473 13.7747 4.07346C13.6901 4.07346 13.7027 4.05193 13.6206 4.05066C13.4968 4.0494 13.4109 4.03547 13.2884 4.03547C13.1065 4.03547 13.0194 4.01393 12.9562 4.01393H12.5457C12.4168 4.01393 12.293 4 12.1579 4H11.8484C11.7714 4 11.7322 4.0114 11.6716 4.01393H11.1398C10.9907 4.01393 10.9225 4.03547 10.8076 4.03547C10.7482 4.03547 10.6876 4.0342 10.6295 4.03547C10.5587 4.03547 10.5499 4.05193 10.4741 4.05193C10.32 4.05193 10.296 4.0722 10.243 4.07346L9.79832 4.0874C9.73517 4.09246 9.73517 4.1064 9.66696 4.10893C9.59875 4.1102 9.59875 4.12413 9.53306 4.12666C9.48759 4.12666 9.42443 4.1216 9.37896 4.12666C9.32717 4.133 9.3297 4.14693 9.25643 4.14693C9.19201 4.14693 9.17307 4.15579 9.11244 4.16086C9.05559 4.16466 9.04422 4.18239 8.99117 4.18239L8.87623 4.19633C8.83959 4.20266 8.80549 4.19633 8.76886 4.19886C8.70949 4.20393 8.73602 4.21533 8.66907 4.21913L8.45307 4.23939C8.39118 4.25459 8.32549 4.26979 8.24844 4.27232C8.17013 4.27359 8.2156 4.28119 8.15876 4.29132L7.75076 4.34705C7.70023 4.35212 7.71034 4.36099 7.65097 4.36732C7.60171 4.37239 7.60045 4.37745 7.55118 4.38125C7.48676 4.38632 7.50066 4.39392 7.45013 4.40025L6.57603 4.56618C6.35877 4.59278 5.33815 4.84231 5.06657 4.9221L4.78994 4.99557C4.75962 5.00443 4.72552 5.01203 4.70278 5.02217L4.52215 5.0741C4.22784 5.15389 3.92216 5.25142 3.63542 5.35022L2.26364 5.83914C2.2308 5.85307 2.20427 5.86447 2.17648 5.8746L1.88343 5.9924C1.86828 5.99747 1.8607 5.99873 1.84301 6.00633C1.82533 6.01267 1.8228 6.01647 1.80385 6.02407L1.27333 6.24572C1.10533 6.31159 0.615232 6.51678 0.48639 6.62444C0.396707 6.69791 0.320918 6.75364 0.253971 6.8575C0.242603 6.87524 0.241339 6.88157 0.228708 6.8993C0.21734 6.91704 0.219866 6.91197 0.207234 6.93097C0.141551 7.02596 0.0948142 7.13616 0.0581829 7.24762C-0.00750086 7.44395 0.00260433 7.55415 7.80317e-05 7.76567C-0.00371142 8.00253 0.131446 8.27106 0.203445 8.48892L0.387865 9.00696C0.406812 9.05763 0.429549 9.11843 0.449759 9.17669L0.663231 9.78467C0.797125 10.1533 0.941124 10.5231 1.06365 10.8955C1.16091 11.1919 1.27965 11.4566 1.37186 11.753L1.6788 12.6105C1.79122 12.8904 1.95164 13.3616 2.04764 13.6365C2.06785 13.6922 2.08806 13.7631 2.10954 13.81C2.18154 13.9671 2.28511 14.3357 2.35206 14.499C2.46827 14.7828 2.56174 15.0652 2.6628 15.3553L2.78532 15.6985C2.83458 15.8062 2.86995 15.9329 2.90911 16.0418C3.02406 16.3572 3.12764 16.6776 3.24763 16.9892L3.76931 18.4433C3.81226 18.5611 3.85521 18.6688 3.8931 18.7853C3.96131 18.9994 4.09394 19.4135 4.25689 19.5858L4.49184 19.8163C4.63331 19.9139 4.82783 20 5.00341 20C5.15499 20 5.21941 20.0013 5.36341 19.9658C5.55288 19.9202 5.72088 19.8214 5.89772 19.7568L6.11877 19.6669C6.16551 19.6453 6.21224 19.6314 6.27035 19.6086C6.32214 19.5883 6.36761 19.5769 6.42445 19.5516C6.60508 19.4743 6.87161 19.3907 7.05982 19.3338L8.0476 19.0488C8.16634 19.0158 8.26865 18.9892 8.39118 18.969L9.35117 18.7688C9.38275 18.7612 9.41054 18.7663 9.44338 18.7612C9.54191 18.7473 9.70864 18.7156 9.79959 18.7118C9.86401 18.7093 9.84254 18.703 9.88927 18.6941L10.0762 18.6751C10.1204 18.67 10.1192 18.6612 10.1646 18.6561C10.2063 18.6536 10.2265 18.6612 10.267 18.651C10.3175 18.6371 10.4021 18.646 10.4552 18.6295C10.5032 18.6143 10.7571 18.6042 10.8063 18.6042C10.9756 18.6042 11.0248 18.5826 11.0842 18.5826L12.7099 18.5662C12.773 18.5725 12.7983 18.5826 12.8779 18.5826C12.9372 18.5826 13.0067 18.5738 13.0623 18.5877C13.133 18.6042 13.1431 18.6042 13.2328 18.6029C13.3415 18.6016 13.7356 18.6561 13.776 18.6561C13.8518 18.6561 13.8619 18.6726 13.9301 18.6764C13.9996 18.6802 13.992 18.6903 14.064 18.6916H14.0741C14.1575 18.6916 14.2383 18.7144 14.3191 18.727C14.3507 18.7321 14.3722 18.727 14.4025 18.7321L14.6526 18.7714C14.6892 18.7815 14.6766 18.7802 14.7271 18.7866C14.7789 18.7916 14.8383 18.8157 14.8749 18.822C14.9103 18.8271 14.9267 18.8233 14.9659 18.8309L15.3524 18.9094C15.4004 18.917 15.4774 18.931 15.5191 18.9436C15.5545 18.9525 15.5697 18.9626 15.5949 18.9677C15.7894 19.0032 16.085 19.0716 16.2694 19.1324C16.3174 19.1488 16.368 19.1602 16.421 19.1729C16.6623 19.2337 16.9099 19.3224 17.1435 19.4009L17.4997 19.525C17.5212 19.5326 17.5427 19.5389 17.5642 19.5478L18.317 19.848C18.4825 19.905 18.6341 20 18.8147 20Z" fill="#707070"/>
</g>
</g>
</svg>
