<svg width="24" height="18" viewBox="0 0 24 18" fill="none" xmlns="http://www.w3.org/2000/svg">
<g id="Group">
<path id="Vector" d="M-0.00439453 3C-0.00439453 2.20435 0.311676 1.44129 0.874285 0.87868C1.43689 0.31607 2.19996 0 2.99561 0H20.9956C21.7913 0 22.5543 0.31607 23.1169 0.87868C23.6795 1.44129 23.9956 2.20435 23.9956 3V15C23.9956 15.7956 23.6795 16.5587 23.1169 17.1213C22.5543 17.6839 21.7913 18 20.9956 18H2.99561C2.19996 18 1.43689 17.6839 0.874285 17.1213C0.311676 16.5587 -0.00439453 15.7956 -0.00439453 15V3ZM2.99561 1.5C2.59778 1.5 2.21625 1.65804 1.93495 1.93934C1.65364 2.22064 1.49561 2.60218 1.49561 3V4.5H22.4956V3C22.4956 2.60218 22.3376 2.22064 22.0563 1.93934C21.775 1.65804 21.3934 1.5 20.9956 1.5H2.99561ZM22.4956 7.5H1.49561V15C1.49561 15.3978 1.65364 15.7794 1.93495 16.0607C2.21625 16.342 2.59778 16.5 2.99561 16.5H20.9956C21.3934 16.5 21.775 16.342 22.0563 16.0607C22.3376 15.7794 22.4956 15.3978 22.4956 15V7.5Z" fill="black"/>
<path id="Vector_2" d="M2.99561 12C2.99561 11.6022 3.15364 11.2206 3.43495 10.9393C3.71625 10.658 4.09778 10.5 4.49561 10.5H5.99561C6.39343 10.5 6.77496 10.658 7.05627 10.9393C7.33757 11.2206 7.49561 11.6022 7.49561 12V13.5C7.49561 13.8978 7.33757 14.2794 7.05627 14.5607C6.77496 14.842 6.39343 15 5.99561 15H4.49561C4.09778 15 3.71625 14.842 3.43495 14.5607C3.15364 14.2794 2.99561 13.8978 2.99561 13.5V12Z" fill="black"/>
</g>
</svg>
