<svg width="44" height="44" viewBox="0 0 44 44" fill="black" xmlns="http://www.w3.org/2000/svg">
<rect width="44" height="44" rx="8" ry="8" fill="url(#grad)" />
<g id="logW (1) 1" clip-path="url(#clip0_812_10231)" transform="translate(6.6,13.7) scale(0.7)">
<g id="&#208;&#161;&#208;&#187;&#208;&#190;&#208;&#185;_x0020_1">
<g id="Group">
<path id="Vector" d="M24.2679 0.5V3.04933C23.8498 3.04933 23.5557 3.10274 23.3825 3.20512C23.2103 3.31306 23.1237 3.48665 23.1237 3.72812C23.1237 3.85386 23.1333 3.96958 23.1515 4.09088C23.1697 4.2066 23.1964 4.31899 23.2328 4.42137L25.8291 13.5371L27.9431 5.03783C27.8116 4.26002 27.5891 3.74147 27.2812 3.47329C26.9679 3.20957 26.4364 3.06714 25.6836 3.04933V0.5H34.6958V3.04933H34.0969C33.5569 3.04933 33.1934 3.09829 33.0116 3.20067C32.8309 3.2997 32.74 3.47775 32.74 3.72812C32.74 3.82715 32.7485 3.92507 32.7624 4.02411C32.7763 4.12648 32.8031 4.25556 32.8491 4.42137L35.1042 13.5371L37.4417 4.39911C37.477 4.26447 37.5005 4.14429 37.5187 4.0319C37.5369 3.91617 37.5455 3.81825 37.5455 3.72812C37.5455 3.46884 37.4503 3.2908 37.2599 3.19177C37.0685 3.09829 36.6611 3.04933 36.0302 3.04933V0.5H43V3.04933C42.4236 3.04933 41.9831 3.17841 41.6837 3.43323C41.38 3.69251 41.1394 4.14429 40.9533 4.79303L37.1466 18.5H31.3467L29.5492 11.1814L27.7025 18.5H21.8491L18.0873 5.27485C17.8553 4.48813 17.5655 3.92507 17.2115 3.58568C16.8522 3.24518 16.385 3.06714 15.8 3.04933V0.5H24.2679Z" fill="#FEFEFE"/>
<path id="Vector_2" d="M11.9999 0.5V3.04933H10.9606C10.3564 3.04933 9.96185 3.12055 9.77579 3.25853C9.58973 3.39763 9.49457 3.79599 9.49457 4.44807V4.57826V15.8984H10.72C11.8545 15.8984 12.6576 15.8394 13.1206 15.7237C13.5879 15.6024 13.9557 15.3976 14.2327 15.0972C14.577 14.7311 14.84 14.2303 15.0175 13.5994C15.194 12.9696 15.3127 12.1027 15.3757 10.9889H18.2073V18.5H1V15.9518H1.9164C2.55584 15.9518 2.96966 15.8672 3.15037 15.7014C3.33216 15.5356 3.42305 15.1016 3.42305 14.4006V4.57826C3.42305 3.88056 3.33216 3.45104 3.15572 3.28969C2.97822 3.12945 2.56546 3.04933 1.9164 3.04933H1V0.5H11.9999Z" fill="#FEFEFE"/>
</g>
<g id="Clip path group">
<mask id="mask0_812_10231" style="mask-type:luminance" maskUnits="userSpaceOnUse" x="0" y="21" width="44" height="3">
<g id="id0">
<path id="Vector_3" d="M0 21.5H43.9015V23.5H0V21.5Z" fill="white"/>
</g>
</mask>
<g mask="url(#mask0_812_10231)">
<g id="Group_2">
<g id="Group_3">
<path id="_1" d="M-0.991455 19.3458H14.9926V25.415H-0.991455V19.3458Z" fill="#009846"/>
<path id="Vector_4" d="M15.0034 19.3458H28.9773V25.415H15.0034V19.3458Z" fill="#FEFEFE"/>
<path id="Vector_5" d="M28.9102 19.3458H44.9102V25.3458H28.9102V19.3458Z" fill="#E31E24"/>
</g>
</g>
</g>
</g>
</g>
</g>
<defs>
<clipPath id="clip0_812_10231">
<rect width="44" height="44" fill="rgba(255,255,255,0)" transform="translate(0 0.5)"/>
</clipPath>
</defs>
<defs>
  <linearGradient id="grad" x1="0%" y1="0%" x2="100%" y2="0%">
    <stop offset="0%" style="stop-color:#000; stop-opacity:1" />
    <stop offset="100%" style="stop-color:#323131; stop-opacity:1" />
  </linearGradient>
</defs>
</svg>
