<svg width="180" height="180" viewBox="0 0 180 180" fill="none" xmlns="http://www.w3.org/2000/svg">
<g id="Property 1=Frame 317">
<path id="Ellipse 31" d="M35.5197 90C33.4909 90 31.8341 91.6464 31.9621 93.6712C32.6952 105.264 36.887 116.403 44.0375 125.627C51.9402 135.823 63.0082 143.101 75.5 146.317C87.9919 149.533 101.199 148.505 113.042 143.394C124.886 138.283 134.694 129.379 140.923 118.084C147.152 106.789 149.45 93.7428 147.453 80.9989C145.457 68.2551 139.28 56.5368 129.894 47.6878C120.509 38.8387 108.448 33.3612 95.6086 32.1172C83.9914 30.9915 72.3338 33.3897 62.1382 38.9549C60.3574 39.927 59.8489 42.2067 60.9315 43.9226C62.014 45.6385 64.2771 46.1391 66.0668 45.1833C74.8764 40.4785 84.9053 38.4616 94.9 39.43C106.117 40.5169 116.654 45.3023 124.854 53.0334C133.054 60.7645 138.45 71.0023 140.195 82.1361C141.939 93.2699 139.932 104.668 134.49 114.536C129.047 124.404 120.478 132.183 110.131 136.648C99.7837 141.114 88.2456 142.012 77.3319 139.202C66.4183 136.392 56.7486 130.033 49.8444 121.126C43.6925 113.19 40.0474 103.632 39.326 93.6705C39.1794 91.647 37.5486 90 35.5197 90Z" fill="#41BE46"/>
</g>
</svg>
