<svg width="180" height="180" viewBox="0 0 180 180" fill="none" xmlns="http://www.w3.org/2000/svg">
<g id="Property 1=Frame 314">
<path id="Ellipse 31" d="M144.48 90C146.509 90 148.166 88.3536 148.038 86.3288C147.305 74.7364 143.113 63.5973 135.962 54.3725C128.06 44.1775 116.992 36.8992 104.5 33.6829C92.0081 30.4666 78.8015 31.4949 66.9579 36.6059C55.1144 41.7169 45.3064 50.6205 39.0769 61.9159C32.8475 73.2113 30.5504 86.2572 32.5469 99.001C34.5434 111.745 40.7204 123.463 50.1057 132.312C59.4911 141.161 71.5523 146.639 84.3914 147.883C96.0086 149.008 107.666 146.61 117.862 141.045C119.643 140.073 120.151 137.793 119.069 136.077C117.986 134.361 115.723 133.861 113.933 134.817C105.124 139.521 95.0947 141.538 85.1 140.57C73.8829 139.483 63.3456 134.698 55.1459 126.967C46.9463 119.236 41.5497 108.998 39.8054 97.8639C38.0611 86.7301 40.0681 75.3324 45.5105 65.464C50.9529 55.5957 59.5218 47.8169 69.869 43.3516C80.2163 38.8863 91.7544 37.988 102.668 40.7979C113.582 43.6079 123.251 49.9666 130.156 58.8737C136.307 66.8101 139.953 76.3683 140.674 86.3295C140.821 88.353 142.451 90 144.48 90Z" fill="#41BE46"/>
</g>
</svg>
