<svg width="180" height="180" viewBox="0 0 180 180" fill="none" xmlns="http://www.w3.org/2000/svg">
<g id="Property 1=Frame 325">
<path id="Vector" d="M114.54 109.368C114.881 109.708 115.151 110.112 115.336 110.557C115.52 111.001 115.616 111.478 115.616 111.96C115.616 112.442 115.52 112.918 115.336 113.363C115.151 113.808 114.881 114.212 114.54 114.552C113.849 115.233 112.918 115.616 111.948 115.616C110.979 115.616 110.048 115.233 109.357 114.552L90.0002 95.1889L70.6429 114.552C69.9526 115.233 69.0217 115.616 68.0518 115.616C67.0819 115.616 66.151 115.233 65.4607 114.552C65.1197 114.212 64.8491 113.808 64.6644 113.363C64.4798 112.918 64.3848 112.442 64.3848 111.96C64.3848 111.478 64.4798 111.001 64.6644 110.557C64.8491 110.112 65.1197 109.708 65.4607 109.368L84.8179 90.0051L65.4607 70.6421C64.7735 69.9547 64.3874 69.0224 64.3874 68.0503C64.3874 67.5689 64.4822 67.0922 64.6663 66.6475C64.8505 66.2028 65.1204 65.7987 65.4607 65.4584C65.801 65.118 66.2049 64.848 66.6495 64.6638C67.0941 64.4796 67.5706 64.3848 68.0518 64.3848C69.0237 64.3848 69.9557 64.771 70.6429 65.4584L90.0002 84.8213L109.357 65.4584C110.045 64.771 110.977 64.3848 111.948 64.3848C112.92 64.3848 113.852 64.771 114.54 65.4584C115.227 66.1458 115.613 67.0781 115.613 68.0503C115.613 69.0224 115.227 69.9547 114.54 70.6421L95.1824 90.0051L114.54 109.368Z" fill="white"/>
</g>
</svg>
