<svg width="180" height="180" viewBox="0 0 180 180" fill="none" xmlns="http://www.w3.org/2000/svg">
<g id="Property 1=Frame 315">
<path id="Ellipse 31" d="M90 144.48C90 146.509 91.6464 148.166 93.6712 148.038C105.264 147.305 116.403 143.113 125.627 135.962C135.823 128.06 143.101 116.992 146.317 104.5C149.533 92.0081 148.505 78.8015 143.394 66.9579C138.283 55.1144 129.379 45.3064 118.084 39.0769C106.789 32.8475 93.7428 30.5504 80.999 32.5469C68.2551 34.5434 56.5368 40.7204 47.6878 50.1057C38.8387 59.4911 33.3613 71.5523 32.1172 84.3914C30.9915 96.0086 33.3897 107.666 38.9549 117.862C39.927 119.643 42.2067 120.151 43.9226 119.069C45.6385 117.986 46.1391 115.723 45.1833 113.933C40.4785 105.124 38.4616 95.0947 39.43 85.1C40.5169 73.8829 45.3024 63.3456 53.0334 55.1459C60.7645 46.9463 71.0024 41.5497 82.1361 39.8054C93.2699 38.0611 104.668 40.0681 114.536 45.5105C124.404 50.9529 132.183 59.5218 136.648 69.869C141.114 80.2163 142.012 91.7544 139.202 102.668C136.392 113.582 130.033 123.251 121.126 130.156C113.19 136.307 103.632 139.953 93.6705 140.674C91.647 140.821 90 142.451 90 144.48Z" fill="#41BE46"/>
</g>
</svg>
