<svg width="180" height="180" viewBox="0 0 180 180" fill="none" xmlns="http://www.w3.org/2000/svg">
<g id="Property 1=Frame 319">
<path id="Ellipse 31" d="M143.718 99.0788C145.719 99.4169 147.627 98.0696 147.838 96.0518C149.104 83.953 146.546 71.7262 140.473 61.1147C133.79 49.4375 123.265 40.4388 110.691 35.6517C98.1175 30.8647 84.2729 30.5855 71.5164 34.8618C58.7599 39.138 47.8807 47.7052 40.7326 59.1034C33.5845 70.5017 30.6098 84.0258 32.3152 97.3715C34.0206 110.717 40.3007 123.059 50.0854 132.293C59.8702 141.528 72.5541 147.084 85.976 148.015C98.1732 148.861 110.294 145.839 120.634 139.431C122.358 138.362 122.741 136.058 121.565 134.404C120.39 132.751 118.102 132.376 116.368 133.429C107.422 138.861 96.9854 141.413 86.4844 140.685C74.7582 139.872 63.6767 135.018 55.1282 126.95C46.5796 118.882 41.093 108.1 39.603 96.4402C38.113 84.7806 40.712 72.9651 46.957 63.0069C53.202 53.0486 62.7067 45.5639 73.8516 41.8279C84.9965 38.0918 97.092 38.3358 108.077 42.518C119.062 46.7003 128.258 54.5621 134.096 64.764C139.325 73.8999 141.571 84.4061 140.577 94.8253C140.384 96.8449 141.718 98.7407 143.718 99.0788Z" fill="#41BE46"/>
</g>
</svg>
