<svg width="24" height="24" viewBox="0 0 24 24" fill="none" xmlns="http://www.w3.org/2000/svg">
<g id="Frame" clip-path="url(#clip0_2009_68)">
<path id="Vector" d="M23.5978 10.032L14.4053 1.01676C14.087 0.694309 13.7088 0.438474 13.2925 0.263917C12.8762 0.0893596 12.4298 -0.000488281 11.9791 -0.000488281C11.5283 -0.000488281 11.082 0.0893596 10.6657 0.263917C10.2493 0.438474 9.8712 0.694309 9.5529 1.01676L0.360313 10.032C0.243599 10.1419 0.149808 10.2742 0.0844035 10.4213C0.0189985 10.5683 -0.016708 10.7271 -0.0205708 10.8882C-0.0244337 11.0494 0.00363314 11.2097 0.0619168 11.3597C0.1202 11.5098 0.207539 11.6466 0.31885 11.762C0.430161 11.8775 0.563195 11.9694 0.710118 12.0322C0.857041 12.0951 1.01489 12.1276 1.17444 12.128C1.33399 12.1284 1.49199 12.0966 1.6392 12.0344C1.78641 11.9722 1.91987 11.881 2.03171 11.766L2.39413 11.4089V20.5785C2.39413 21.2206 2.64659 21.8364 3.09597 22.2904C3.54535 22.7444 4.15485 22.9995 4.79037 22.9995H7.1866C7.82213 22.9995 8.43162 22.7444 8.881 22.2904C9.33038 21.8364 9.58284 21.2206 9.58284 20.5785V18.1575C9.58284 17.8365 9.70909 17.5286 9.93378 17.3015C10.1585 17.0745 10.4632 16.947 10.781 16.947H13.1772C13.495 16.947 13.7997 17.0745 14.0244 17.3015C14.2491 17.5286 14.3753 17.8365 14.3753 18.1575V20.5785C14.3753 21.2206 14.6278 21.8364 15.0772 22.2904C15.5265 22.7444 16.136 22.9995 16.7716 22.9995H19.1678C19.8033 22.9995 20.4128 22.7444 20.8622 22.2904C21.3116 21.8364 21.564 21.2206 21.564 20.5785V11.4089L21.9264 11.766C22.0383 11.881 22.1717 11.9722 22.319 12.0344C22.4662 12.0966 22.6242 12.1284 22.7837 12.128C22.9433 12.1276 23.1011 12.0951 23.248 12.0322C23.395 11.9694 23.528 11.8775 23.6393 11.762C23.7506 11.6466 23.838 11.5098 23.8962 11.3597C23.9545 11.2097 23.9826 11.0494 23.9787 10.8882C23.9749 10.7271 23.9392 10.5683 23.8738 10.4213C23.8083 10.2742 23.7146 10.1419 23.5978 10.032Z" fill="#2291F2"/>
</g>
<defs>
<clipPath id="clip0_2009_68">
<rect width="24" height="24" fill="white"/>
</clipPath>
</defs>
</svg>
