<svg width="24" height="24" viewBox="0 0 24 24" fill="none" xmlns="http://www.w3.org/2000/svg">
<g id="Profile">
<g id="Group 7">
<path id="Vector" d="M12.0051 10.6668C15.1611 10.6668 17.7194 8.27896 17.7194 5.3334C17.7194 2.38784 15.1611 0 12.0051 0C8.84924 0 6.29086 2.38784 6.29086 5.3334C6.29086 8.27896 8.84924 10.6668 12.0051 10.6668Z" fill="#D9967E"/>
<path id="Vector_2" d="M22.0067 18.6666V20C22.0067 21.0609 21.5552 22.0783 20.7515 22.8284C19.9477 23.5786 18.8576 24 17.721 24H6.29243C5.15579 24 4.0657 23.5786 3.26197 22.8284C2.45825 22.0783 2.00671 21.0609 2.00671 20V18.6666C2.00671 16.8985 2.75926 15.2028 4.09881 13.9525C5.43835 12.7023 7.25517 11.9999 9.14957 11.9999H14.8639C16.7583 11.9999 18.5751 12.7023 19.9146 13.9525C21.2542 15.2028 22.0067 16.8985 22.0067 18.6666Z" fill="#2291F2"/>
</g>
</g>
</svg>
