<svg width="25" height="24" viewBox="0 0 25 24" fill="none" xmlns="http://www.w3.org/2000/svg">
<g id="map marker" clip-path="url(#clip0_2009_2969)">
<path id="Vector" d="M12.5007 2.36909C14.9757 2.36909 17.0007 4.42623 17.0007 6.94052C17.0007 9.34052 14.6382 13.2262 12.5007 15.9691C10.3632 13.1119 8.00075 9.34052 8.00075 6.94052C8.00075 4.42623 10.0257 2.36909 12.5007 2.36909ZM12.5007 0.083374C8.78825 0.083374 5.75075 3.16909 5.75075 6.94052C5.75075 12.0834 12.5007 19.5119 12.5007 19.5119C12.5007 19.5119 19.2507 11.9691 19.2507 6.94052C19.2507 3.16909 16.2132 0.083374 12.5007 0.083374ZM12.5007 4.6548C11.2632 4.6548 10.2507 5.68337 10.2507 6.94052C10.2507 8.19766 11.2632 9.22623 12.5007 9.22623C13.7382 9.22623 14.7507 8.19766 14.7507 6.94052C14.7507 5.68337 13.7382 4.6548 12.5007 4.6548ZM21.5007 19.5119C21.5007 22.0262 17.4507 24.0834 12.5007 24.0834C7.55075 24.0834 3.50075 22.0262 3.50075 19.5119C3.50075 18.0262 4.85075 16.7691 6.98825 15.8548L7.66325 16.8834C6.53825 17.4548 5.75075 18.1405 5.75075 18.9405C5.75075 20.5405 8.78825 21.7977 12.5007 21.7977C16.2132 21.7977 19.2507 20.5405 19.2507 18.9405C19.2507 18.1405 18.4632 17.4548 17.2257 16.8834L17.9007 15.8548C20.1507 16.7691 21.5007 18.0262 21.5007 19.5119Z" fill="#2291F2"/>
</g>
<defs>
<clipPath id="clip0_2009_2969">
<rect width="24" height="24" fill="white" transform="translate(0.5)"/>
</clipPath>
</defs>
</svg>
