<svg width="49" height="20" viewBox="0 0 49 20" fill="none" xmlns="http://www.w3.org/2000/svg">
<path id="Vector" d="M8.95323 2.57849C8.37902 3.25396 7.46007 3.78691 6.54123 3.71071C6.42639 2.7974 6.87619 1.82681 7.40265 1.22736C7.97687 0.53286 8.98195 0.0380546 9.79552 0C9.89122 0.951461 9.51798 1.8839 8.95333 2.57849H8.95323ZM9.78595 3.89156C8.45548 3.81545 7.31652 4.64314 6.68478 4.64314C6.04357 4.64314 5.07678 3.92962 4.02395 3.94865C2.6553 3.96767 1.38226 4.73828 0.68353 5.96573C-0.752207 8.42054 0.310288 12.0552 1.69808 14.0533C2.37767 15.0428 3.19124 16.1275 4.26321 16.0894C5.27785 16.0514 5.67981 15.433 6.905 15.433C8.13966 15.433 8.49386 16.0894 9.56583 16.0704C10.6761 16.0514 11.3748 15.081 12.0544 14.0914C12.8296 12.9686 13.1455 11.8744 13.1646 11.8173C13.1455 11.7983 11.0207 10.9896 11.0016 8.55373C10.9824 6.51762 12.6766 5.54713 12.7531 5.49005C11.7959 4.08184 10.3028 3.92962 9.78595 3.89156ZM17.4719 1.13222V15.9658H19.7881V10.8945H22.9945C25.9233 10.8945 27.9812 8.89642 27.9812 6.00388C27.9812 3.11144 25.9616 1.13232 23.0711 1.13232H17.4718L17.4719 1.13222ZM19.7881 3.07329H22.4585C24.4685 3.07329 25.6171 4.13892 25.6171 6.0133C25.6171 7.88768 24.4685 8.96292 22.4489 8.96292H19.7881V3.07329ZM32.2118 16.0799C33.6666 16.0799 35.0162 15.3473 35.6287 14.1865H35.6766V15.9657H37.8206V8.58227C37.8206 6.44151 36.0978 5.06184 33.4464 5.06184C30.9866 5.06184 29.168 6.46054 29.101 8.38249H31.1876C31.3599 7.46908 32.2117 6.86963 33.3794 6.86963C34.796 6.86963 35.5905 7.52616 35.5905 8.73459V9.55276L32.6998 9.72401C30.0103 9.88574 28.5555 10.98 28.5555 12.883C28.5555 14.805 30.0582 16.0799 32.2118 16.0799ZM32.8338 14.3197C31.5993 14.3197 30.8143 13.7298 30.8143 12.8258C30.8143 11.8935 31.5705 11.3511 33.0158 11.2655L35.5905 11.1038V11.941C35.5905 13.3302 34.4036 14.3197 32.8339 14.3197H32.8338ZM40.6824 20C42.9413 20 44.0037 19.1438 44.9321 16.5462L49 5.20454H46.6454L43.9176 13.9676H43.8697L41.1419 5.20454H38.7203L42.6446 16.0038L42.434 16.6603C42.0799 17.7735 41.5056 18.2017 40.4815 18.2017C40.2996 18.2017 39.9455 18.1827 39.8019 18.1637V19.9429C39.9359 19.981 40.5101 20 40.6824 20Z" fill="black"/>
</svg>
