<svg width="19" height="20" viewBox="0 0 19 20" fill="none" xmlns="http://www.w3.org/2000/svg">
<g id="Group">
<path id="Vector" fill-rule="evenodd" clip-rule="evenodd" d="M12.5667 17.8947C12.5668 18.4259 12.3662 18.9374 12.0051 19.3269C11.6439 19.7163 11.1489 19.9549 10.6193 19.9947L10.4614 20H8.35613C7.825 20.0002 7.31343 19.7996 6.92398 19.4384C6.53452 19.0773 6.29597 18.5823 6.25613 18.0526L6.25087 17.8947H12.5667ZM9.40876 1.00428e-09C11.3193 -3.15211e-05 13.1551 0.741993 14.529 2.06955C15.9029 3.39711 16.7075 5.20641 16.773 7.11579L16.7772 7.36842V11.3305L18.6951 15.1663C18.7788 15.3337 18.8207 15.5188 18.8172 15.7059C18.8136 15.893 18.7648 16.0765 18.6749 16.2406C18.585 16.4047 18.4566 16.5446 18.3008 16.6482C18.1451 16.7519 17.9665 16.8163 17.7803 16.8358L17.6593 16.8421H1.15824C0.971042 16.8422 0.786623 16.7968 0.620785 16.71C0.454948 16.6232 0.312636 16.4974 0.206044 16.3435C0.099453 16.1896 0.0317605 16.0122 0.00876775 15.8264C-0.014225 15.6407 0.00816755 15.4521 0.0740264 15.2768L0.122447 15.1663L2.04034 11.3305V7.36842C2.04034 5.41419 2.81666 3.54001 4.1985 2.15816C5.58035 0.776313 7.45454 1.00428e-09 9.40876 1.00428e-09ZM9.40876 2.10526C8.05249 2.10534 6.74859 2.62899 5.769 3.56701C4.7894 4.50503 4.20973 5.785 4.15087 7.14L4.14561 7.36842V11.3305C4.14562 11.5916 4.09707 11.8504 4.00245 12.0937L3.9235 12.2726L2.69192 14.7368H16.1267L14.8951 12.2716C14.7782 12.0382 14.7058 11.7851 14.6814 11.5253L14.6719 11.3305V7.36842C14.6719 5.97255 14.1174 4.63384 13.1304 3.64681C12.1433 2.65977 10.8046 2.10526 9.40876 2.10526Z" fill="black"/>
</g>
</svg>
