<svg width="24" height="24" viewBox="0 0 24 24" fill="none" xmlns="http://www.w3.org/2000/svg">
<g id="Direction" clip-path="url(#clip0_105_1385)">
<path id="Vector" d="M8.48009 1.45644C8.94171 0.994703 9.48977 0.628422 10.093 0.378523C10.6962 0.128623 11.3427 0 11.9956 0C12.6485 0 13.295 0.128623 13.8982 0.378523C14.5014 0.628422 15.0495 0.994703 15.5111 1.45644L22.5402 8.48747C23.4721 9.41967 23.9956 10.6838 23.9956 12.002C23.9956 13.3201 23.4721 14.5843 22.5402 15.5165L15.5111 22.5475C15.0495 23.0093 14.5014 23.3756 13.8982 23.6255C13.295 23.8754 12.6485 24.004 11.9956 24.004C11.3427 24.004 10.6962 23.8754 10.093 23.6255C9.48977 23.3756 8.94171 23.0093 8.48009 22.5475L1.45106 15.5165C0.519131 14.5843 -0.00439453 13.3201 -0.00439453 12.002C-0.00439453 10.6838 0.519131 9.41967 1.45106 8.48747L8.48009 1.45644ZM14.1053 2.86225C13.8283 2.58509 13.4994 2.36522 13.1374 2.21521C12.7755 2.0652 12.3874 1.98799 11.9956 1.98799C11.6038 1.98799 11.2158 2.0652 10.8538 2.21521C10.4918 2.36522 10.1629 2.58509 9.8859 2.86225L2.85686 9.89328C2.29771 10.4526 1.98359 11.2111 1.98359 12.002C1.98359 12.7929 2.29771 13.5514 2.85686 14.1107L9.8859 21.1417C10.1629 21.4189 10.4918 21.6388 10.8538 21.7888C11.2158 21.9388 11.6038 22.016 11.9956 22.016C12.3874 22.016 12.7755 21.9388 13.1374 21.7888C13.4994 21.6388 13.8283 21.4189 14.1053 21.1417L21.1343 14.1107C21.6935 13.5514 22.0076 12.7929 22.0076 12.002C22.0076 11.2111 21.6935 10.4526 21.1343 9.89328L14.1053 2.86225ZM12.2859 5.33385C12.4724 5.14746 12.7252 5.04276 12.9888 5.04276C13.2524 5.04276 13.5053 5.14746 13.6917 5.33385L16.6743 8.31647C16.8607 8.50291 16.9654 8.75574 16.9654 9.01937C16.9654 9.283 16.8607 9.53583 16.6743 9.72227L13.6917 12.7049C13.6 12.7998 13.4903 12.8756 13.369 12.9277C13.2477 12.9798 13.1172 13.0072 12.9852 13.0084C12.8532 13.0095 12.7223 12.9844 12.6001 12.9344C12.4779 12.8844 12.3669 12.8106 12.2736 12.7172C12.1802 12.6239 12.1064 12.5129 12.0564 12.3907C12.0064 12.2685 11.9813 12.1376 11.9824 12.0056C11.9836 11.8736 12.011 11.7431 12.0631 11.6218C12.1152 11.5005 12.191 11.3908 12.2859 11.2991L13.5724 10.0126H11.0014C10.7377 10.0126 10.4848 10.1173 10.2984 10.3038C10.1119 10.4902 10.0072 10.7431 10.0072 11.0068V15.9778C10.0072 16.2415 9.90245 16.4944 9.716 16.6808C9.52955 16.8673 9.27667 16.972 9.01299 16.972C8.74931 16.972 8.49643 16.8673 8.30998 16.6808C8.12353 16.4944 8.01878 16.2415 8.01878 15.9778V11.0068C8.01878 10.2157 8.33302 9.45711 8.89237 8.89776C9.45172 8.33841 10.2104 8.02417 11.0014 8.02417H13.5724L12.2859 6.73966C12.0995 6.55321 11.9948 6.30038 11.9948 6.03675C11.9948 5.77312 12.0995 5.52029 12.2859 5.33385Z" fill="black"/>
</g>
<defs>
<clipPath id="clip0_105_1385">
<rect width="24" height="24" fill="white" transform="translate(-0.00439453)"/>
</clipPath>
</defs>
</svg>
