<svg width="24" height="24" viewBox="0 0 24 24" fill="none" xmlns="http://www.w3.org/2000/svg">
<g id="Direction" clip-path="url(#clip0_2550_2137)">
<path id="Vector" d="M8.48449 1.45644C8.94611 0.994703 9.49417 0.628422 10.0974 0.378523C10.7006 0.128623 11.3471 0 12 0C12.6529 0 13.2994 0.128623 13.9026 0.378523C14.5058 0.628422 15.0539 0.994703 15.5155 1.45644L22.5445 8.48747C23.4765 9.41967 24 10.6838 24 12.002C24 13.3201 23.4765 14.5843 22.5445 15.5165L15.5155 22.5475C15.0539 23.0093 14.5058 23.3756 13.9026 23.6255C13.2994 23.8754 12.6529 24.004 12 24.004C11.3471 24.004 10.7006 23.8754 10.0974 23.6255C9.49417 23.3756 8.94611 23.0093 8.48449 22.5475L1.45545 15.5165C0.523526 14.5843 0 13.3201 0 12.002C0 10.6838 0.523526 9.41967 1.45545 8.48747L8.48449 1.45644ZM14.1097 2.86225C13.8327 2.58509 13.5038 2.36522 13.1418 2.21521C12.7798 2.0652 12.3918 1.98799 12 1.98799C11.6082 1.98799 11.2202 2.0652 10.8582 2.21521C10.4962 2.36522 10.1673 2.58509 9.89029 2.86225L2.86126 9.89328C2.3021 10.4526 1.98799 11.2111 1.98799 12.002C1.98799 12.7929 2.3021 13.5514 2.86126 14.1107L9.89029 21.1417C10.1673 21.4189 10.4962 21.6388 10.8582 21.7888C11.2202 21.9388 11.6082 22.016 12 22.016C12.3918 22.016 12.7798 21.9388 13.1418 21.7888C13.5038 21.6388 13.8327 21.4189 14.1097 21.1417L21.1387 14.1107C21.6979 13.5514 22.012 12.7929 22.012 12.002C22.012 11.2111 21.6979 10.4526 21.1387 9.89328L14.1097 2.86225ZM12.2903 5.33385C12.4767 5.14746 12.7296 5.04276 12.9932 5.04276C13.2568 5.04276 13.5097 5.14746 13.6961 5.33385L16.6787 8.31647C16.8651 8.50291 16.9698 8.75574 16.9698 9.01937C16.9698 9.283 16.8651 9.53583 16.6787 9.72227L13.6961 12.7049C13.6044 12.7998 13.4947 12.8756 13.3734 12.9277C13.2521 12.9798 13.1216 13.0072 12.9896 13.0084C12.8576 13.0095 12.7267 12.9844 12.6045 12.9344C12.4823 12.8844 12.3713 12.8106 12.278 12.7172C12.1846 12.6239 12.1108 12.5129 12.0608 12.3907C12.0108 12.2685 11.9857 12.1376 11.9868 12.0056C11.988 11.8736 12.0154 11.7431 12.0675 11.6218C12.1196 11.5005 12.1953 11.3908 12.2903 11.2991L13.5768 10.0126H11.0058C10.7421 10.0126 10.4892 10.1173 10.3028 10.3038C10.1163 10.4902 10.0116 10.7431 10.0116 11.0068V15.9778C10.0116 16.2415 9.90684 16.4944 9.72039 16.6808C9.53394 16.8673 9.28106 16.972 9.01738 16.972C8.7537 16.972 8.50082 16.8673 8.31437 16.6808C8.12792 16.4944 8.02318 16.2415 8.02318 15.9778V11.0068C8.02318 10.2157 8.33741 9.45711 8.89676 8.89776C9.45611 8.33841 10.2148 8.02417 11.0058 8.02417H13.5768L12.2903 6.73966C12.1039 6.55321 11.9992 6.30038 11.9992 6.03675C11.9992 5.77312 12.1039 5.52029 12.2903 5.33385Z" fill="white"/>
</g>
<defs>
<clipPath id="clip0_2550_2137">
<rect width="24" height="24" fill="white"/>
</clipPath>
</defs>
</svg>
