<svg width="25" height="24" viewBox="0 0 25 24" fill="none" xmlns="http://www.w3.org/2000/svg">
<g id="Edit">
<path id="Vector" d="M21.4989 12.0029C21.2337 12.0029 20.9795 12.1082 20.792 12.2957C20.6045 12.4832 20.4992 12.7375 20.4992 13.0026V19.0009C20.4992 19.266 20.3939 19.5203 20.2064 19.7078C20.0189 19.8953 19.7646 20.0006 19.4995 20.0006H5.50353C5.23839 20.0006 4.98411 19.8953 4.79662 19.7078C4.60914 19.5203 4.50381 19.266 4.50381 19.0009V5.00493C4.50381 4.73979 4.60914 4.48551 4.79662 4.29803C4.98411 4.11054 5.23839 4.00522 5.50353 4.00522H11.5018C11.7669 4.00522 12.0212 3.89989 12.2087 3.71241C12.3962 3.52493 12.5015 3.27065 12.5015 3.00551C12.5015 2.74037 12.3962 2.48609 12.2087 2.2986C12.0212 2.11112 11.7669 2.0058 11.5018 2.0058H5.50353C4.70811 2.0058 3.94527 2.32178 3.38282 2.88422C2.82037 3.44667 2.50439 4.20951 2.50439 5.00493V19.0009C2.50439 19.7963 2.82037 20.5591 3.38282 21.1216C3.94527 21.684 4.70811 22 5.50353 22H19.4995C20.2949 22 21.0577 21.684 21.6202 21.1216C22.1826 20.5591 22.4986 19.7963 22.4986 19.0009V13.0026C22.4986 12.7375 22.3933 12.4832 22.2058 12.2957C22.0183 12.1082 21.764 12.0029 21.4989 12.0029ZM6.50324 12.7627V17.0014C6.50324 17.2666 6.60856 17.5209 6.79604 17.7084C6.98353 17.8958 7.23781 18.0012 7.50295 18.0012H11.7417C11.8733 18.0019 12.0037 17.9767 12.1255 17.927C12.2473 17.8772 12.3581 17.8039 12.4515 17.7112L19.3695 10.7833L22.2087 8.00406C22.3024 7.91112 22.3768 7.80055 22.4275 7.67873C22.4783 7.5569 22.5044 7.42624 22.5044 7.29426C22.5044 7.16229 22.4783 7.03162 22.4275 6.9098C22.3768 6.78797 22.3024 6.6774 22.2087 6.58447L17.9699 2.29571C17.877 2.20201 17.7664 2.12764 17.6446 2.07688C17.5228 2.02613 17.3921 2 17.2601 2C17.1281 2 16.9975 2.02613 16.8757 2.07688C16.7538 2.12764 16.6433 2.20201 16.5503 2.29571L13.7311 5.12489L6.79315 12.0529C6.7005 12.1463 6.62719 12.2571 6.57744 12.3789C6.52769 12.5007 6.50247 12.6311 6.50324 12.7627ZM17.2601 4.4151L20.0893 7.24428L18.6697 8.66387L15.8405 5.83469L17.2601 4.4151ZM8.50266 13.1726L14.4309 7.24428L17.2601 10.0735L11.3318 16.0017H8.50266V13.1726Z" fill="white"/>
</g>
</svg>
