<svg width="24" height="24" viewBox="0 0 24 24" fill="none" xmlns="http://www.w3.org/2000/svg">
<path d="M22.1421 15.4222C22.2409 15.5932 22.2928 15.7873 22.2928 15.9848C22.2928 16.1824 22.2407 16.3764 22.1419 16.5475C22.0431 16.7185 21.901 16.8605 21.7298 16.9592C21.5587 17.0579 21.3646 17.1098 21.1671 17.1097C20.9691 17.1117 20.7742 17.0606 20.6027 16.9617C20.4312 16.8627 20.2894 16.7196 20.1921 16.5472L18.664 13.9034C17.8034 14.442 16.877 14.8674 15.9077 15.169L16.3952 17.9253C16.4222 18.0707 16.42 18.22 16.3887 18.3645C16.3575 18.509 16.2978 18.6459 16.2132 18.7671C16.1286 18.8884 16.0207 18.9916 15.8958 19.0708C15.771 19.15 15.6316 19.2036 15.4858 19.2284L15.289 19.2472C15.025 19.2468 14.7695 19.1537 14.5673 18.984C14.365 18.8143 14.2289 18.5789 14.1827 18.319L13.7046 15.6284C13.1947 15.6938 12.6811 15.7251 12.1671 15.7222C11.6501 15.7201 11.1337 15.6888 10.6202 15.6284L10.1421 18.319C10.0959 18.5789 9.95977 18.8143 9.75753 18.984C9.55529 19.1537 9.29983 19.2468 9.03584 19.2472L8.83897 19.2284C8.69322 19.2036 8.55386 19.15 8.42899 19.0708C8.30413 18.9916 8.19626 18.8884 8.11164 18.7671C8.02703 18.6459 7.96736 18.509 7.93611 18.3645C7.90485 18.22 7.90264 18.0707 7.92959 17.9253L8.41709 15.169C7.45076 14.8673 6.52748 14.4419 5.67022 13.9034L4.13272 16.5659C4.0332 16.7364 3.89091 16.878 3.71991 16.9766C3.54891 17.0753 3.35513 17.1276 3.15772 17.1284C2.96013 17.13 2.76579 17.0782 2.59522 16.9784C2.46712 16.9046 2.35482 16.8063 2.26475 16.689C2.17468 16.5718 2.1086 16.438 2.07029 16.2952C2.03198 16.1524 2.02219 16.0034 2.04148 15.8568C2.06077 15.7103 2.10877 15.5689 2.18272 15.4409L3.86084 12.5347C3.29298 12.0302 2.7692 11.4782 2.29522 10.8847C2.19166 10.7715 2.11232 10.6385 2.06208 10.4936C2.01184 10.3487 1.99176 10.195 2.00306 10.0421C2.01437 9.88912 2.05682 9.7401 2.12783 9.60417C2.19883 9.46823 2.29687 9.34825 2.41594 9.25158C2.535 9.15492 2.67257 9.08363 2.8202 9.04208C2.96783 9.00053 3.12239 8.9896 3.27439 9.00996C3.4264 9.03033 3.57263 9.08156 3.70411 9.1605C3.8356 9.23945 3.94955 9.34444 4.03897 9.46904C5.52022 11.2972 8.12647 13.4722 12.1671 13.4722C16.2077 13.4722 18.814 11.2972 20.2952 9.46904C20.3846 9.34444 20.4986 9.23945 20.6301 9.1605C20.7616 9.08156 20.9078 9.03033 21.0598 9.00996C21.2118 8.9896 21.3664 9.00053 21.514 9.04208C21.6616 9.08363 21.7992 9.15492 21.9183 9.25158C22.0373 9.34825 22.1354 9.46823 22.2064 9.60417C22.2774 9.7401 22.3198 9.88912 22.3311 10.0421C22.3424 10.195 22.3223 10.3487 22.2721 10.4936C22.2219 10.6385 22.1425 10.7715 22.039 10.8847C21.5628 11.4792 21.0392 12.0341 20.4733 12.544L22.1421 15.4222Z" fill="#707070"/>
</svg>
