<svg width="24" height="24" viewBox="0 0 24 24" fill="none" xmlns="http://www.w3.org/2000/svg">
<path d="M23.5312 11.5406C22.8495 10.1654 21.9469 8.9113 20.8594 7.82812C18.4312 5.40938 15.375 4.125 12 4.125C8.62498 4.125 5.56873 5.40938 3.1406 7.82812C2.05308 8.9113 1.15049 10.1654 0.468728 11.5406C0.40838 11.6863 0.377319 11.8424 0.377319 12C0.377319 12.1576 0.40838 12.3137 0.468728 12.4594C1.15049 13.8346 2.05308 15.0887 3.1406 16.1719C5.56873 18.5906 8.62498 19.875 12 19.875C15.375 19.875 18.4312 18.5906 20.8594 16.1719C21.9469 15.0887 22.8495 13.8346 23.5312 12.4594C23.5916 12.3137 23.6226 12.1576 23.6226 12C23.6226 11.8424 23.5916 11.6863 23.5312 11.5406ZM19.2094 14.6344C17.2031 16.6219 14.775 17.625 12 17.625C9.22498 17.625 6.79685 16.6219 4.7906 14.6344C3.99973 13.8517 3.31853 12.9655 2.7656 12C3.31608 11.0328 3.99752 10.1463 4.7906 9.36563C6.79685 7.37813 9.22498 6.375 12 6.375C14.775 6.375 17.2031 7.37813 19.2094 9.36563C20.0002 10.1483 20.6814 11.0345 21.2344 12C20.6814 12.9655 20.0002 13.8517 19.2094 14.6344ZM12 7.875C11.1841 7.875 10.3866 8.11693 9.70825 8.57019C9.0299 9.02345 8.50119 9.66769 8.18897 10.4214C7.87676 11.1752 7.79507 12.0046 7.95424 12.8047C8.1134 13.6049 8.50627 14.3399 9.08316 14.9168C9.66005 15.4937 10.3951 15.8866 11.1952 16.0457C11.9954 16.2049 12.8248 16.1232 13.5785 15.811C14.3323 15.4988 14.9765 14.9701 15.4298 14.2917C15.883 13.6134 16.125 12.8158 16.125 12C16.125 10.906 15.6904 9.85677 14.9168 9.08318C14.1432 8.3096 13.094 7.875 12 7.875ZM12 13.875C11.6291 13.875 11.2666 13.765 10.9583 13.559C10.6499 13.353 10.4096 13.0601 10.2677 12.7175C10.1258 12.3749 10.0887 11.9979 10.161 11.6342C10.2334 11.2705 10.4119 10.9364 10.6742 10.6742C10.9364 10.412 11.2705 10.2334 11.6342 10.161C11.9979 10.0887 12.3749 10.1258 12.7175 10.2677C13.0601 10.4096 13.353 10.65 13.559 10.9583C13.765 11.2666 13.875 11.6292 13.875 12C13.8725 12.4965 13.6742 12.972 13.3231 13.3231C12.972 13.6742 12.4965 13.8725 12 13.875Z" fill="#707070"/>
</svg>
