<svg width="25" height="24" viewBox="0 0 25 24" fill="none" xmlns="http://www.w3.org/2000/svg">
<path d="M12.5 23L10.76 21.4414C8.74 19.6231 7.07 18.0545 5.75 16.7357C4.43 15.4169 3.38 14.2328 2.6 13.1833C1.82 12.1347 1.2752 11.1708 0.9656 10.2916C0.6552 9.41235 0.5 8.51317 0.5 7.594C0.5 5.71571 1.13 4.14714 2.39 2.88828C3.65 1.62943 5.22 1 7.1 1C8.14 1 9.13 1.2198 10.07 1.6594C11.01 2.099 11.82 2.71844 12.5 3.51771C13.18 2.71844 13.99 2.099 14.93 1.6594C15.87 1.2198 16.86 1 17.9 1C19.78 1 21.35 1.62943 22.61 2.88828C23.87 4.14714 24.5 5.71571 24.5 7.594C24.5 8.51317 24.3452 9.41235 24.0356 10.2916C23.7252 11.1708 23.18 12.1347 22.4 13.1833C21.62 14.2328 20.57 15.4169 19.25 16.7357C17.93 18.0545 16.26 19.6231 14.24 21.4414L12.5 23Z" fill="#BF4949"/>
</svg>
