<svg width="24" height="24" viewBox="0 0 24 24" fill="none" xmlns="http://www.w3.org/2000/svg">
<g id="Filter">
<path id="Vector" d="M9.35 19.8133L11.45 21.1467V12.36C11.4488 12.0102 11.3395 11.675 11.1455 11.4267L4.3415 2.66667H20.6795L13.886 11.4267C13.692 11.675 13.5827 12.0102 13.5815 12.36L13.55 22.6667L15.65 24V12.9067L22.559 4C22.8354 3.64395 22.9933 3.16653 23 2.66667V1.33333C23 0.979711 22.8894 0.640573 22.6925 0.390525C22.4956 0.140476 22.2285 0 21.95 0H3.05C2.77152 0 2.50445 0.140476 2.30754 0.390525C2.11062 0.640573 2 0.979711 2 1.33333V2.66667C2.00672 3.16653 2.16462 3.64395 2.441 4L9.35 12.9067V19.8133Z" fill="black"/>
</g>
</svg>
