<svg width="36" height="42" viewBox="0 0 36 42" fill="none" xmlns="http://www.w3.org/2000/svg">
<g id="Flashlight icon">
<path id="tourch icon" fill-rule="evenodd" clip-rule="evenodd" d="M15.0885 23.8866C15.0885 22.5494 16.168 21.4652 17.5 21.4652C18.8319 21.4652 19.9114 22.5494 19.9114 23.8866V26.7914C19.9114 28.1286 18.8319 29.2126 17.5 29.2126C16.168 29.2126 15.0885 28.1286 15.0885 26.7914V23.8866ZM11 13.1517L11.0498 13.2391L11.0026 13.1578C11.0026 13.1578 11.3831 14.4119 12.2619 15.9219C12.9286 17.0671 13.5523 17.8195 13.8436 18.1458L13.9995 18.4194V39.9275C13.9995 41.0721 14.9234 42 16.0633 42H18.9368C20.0765 42 21.0007 41.0721 21.0007 39.9275V18.3886L21.1158 18.1876C21.3851 17.8913 22.0392 17.1206 22.7404 15.9156C23.6196 14.4057 23.9999 13.1517 23.9999 13.1517V11.4451H11V13.1517ZM24 8.97675C24 8.43728 23.5645 8 23.0272 8H11.9728C11.4358 8 11.0001 8.43728 11.0001 8.97675C11.0001 8.98103 11.0014 8.98495 11.0014 8.98905H11.0001V9.94659H11.9039C11.9272 9.94808 11.9493 9.95349 11.9728 9.95349H23.0272C23.0508 9.95349 23.0729 9.94808 23.0961 9.94659H24V8.98905H23.9987C23.9989 8.98495 24 8.98103 24 8.97675ZM17.2567 28.184C18.0576 28.319 18.8159 27.7764 18.9504 26.9721C19.0848 26.1677 18.5446 25.4063 17.7434 25.2713C16.9424 25.1365 16.1842 25.6789 16.0497 26.4834C15.9153 27.2876 16.4557 28.049 17.2567 28.184Z" fill="white"/>
</g>
</svg>
