<svg width="24" height="24" viewBox="0 0 24 24" fill="none" xmlns="http://www.w3.org/2000/svg">
<g id="Frame" clip-path="url(#clip0_2009_1414)">
<path id="Vector" d="M23.6188 10.032L14.4262 1.01676C14.1079 0.694309 13.7297 0.438474 13.3134 0.263917C12.8971 0.0893596 12.4508 -0.000488281 12 -0.000488281C11.5492 -0.000488281 11.1029 0.0893596 10.6866 0.263917C10.2703 0.438474 9.89213 0.694309 9.57382 1.01676L0.381235 10.032C0.264521 10.1419 0.17073 10.2742 0.105325 10.4213C0.0399202 10.5683 0.00421372 10.7271 0.000350874 10.8882C-0.00351197 11.0494 0.0245548 11.2097 0.0828385 11.3597C0.141122 11.5098 0.22846 11.6466 0.339771 11.762C0.451083 11.8775 0.584116 11.9694 0.731039 12.0322C0.877962 12.0951 1.03581 12.1276 1.19536 12.128C1.35491 12.1284 1.51291 12.0966 1.66012 12.0344C1.80733 11.9722 1.9408 11.881 2.05263 11.766L2.41505 11.4089V20.5785C2.41505 21.2206 2.66751 21.8364 3.11689 22.2904C3.56627 22.7444 4.17577 22.9995 4.81129 22.9995H7.20753C7.84305 22.9995 8.45254 22.7444 8.90192 22.2904C9.35131 21.8364 9.60376 21.2206 9.60376 20.5785V18.1575C9.60376 17.8365 9.73001 17.5286 9.9547 17.3015C10.1794 17.0745 10.4841 16.947 10.8019 16.947H13.1981C13.5159 16.947 13.8206 17.0745 14.0453 17.3015C14.27 17.5286 14.3962 17.8365 14.3962 18.1575V20.5785C14.3962 21.2206 14.6487 21.8364 15.0981 22.2904C15.5475 22.7444 16.157 22.9995 16.7925 22.9995H19.1887C19.8242 22.9995 20.4337 22.7444 20.8831 22.2904C21.3325 21.8364 21.5849 21.2206 21.5849 20.5785V11.4089L21.9474 11.766C22.0592 11.881 22.1927 11.9722 22.3399 12.0344C22.4871 12.0966 22.6451 12.1284 22.8046 12.128C22.9642 12.1276 23.122 12.0951 23.269 12.0322C23.4159 11.9694 23.5489 11.8775 23.6602 11.762C23.7715 11.6466 23.8589 11.5098 23.9172 11.3597C23.9754 11.2097 24.0035 11.0494 23.9997 10.8882C23.9958 10.7271 23.9601 10.5683 23.8947 10.4213C23.8293 10.2742 23.7355 10.1419 23.6188 10.032Z" fill="#ACACAC"/>
</g>
<defs>
<clipPath id="clip0_2009_1414">
<rect width="24" height="24" fill="white"/>
</clipPath>
</defs>
</svg>
