<svg width="24" height="24" viewBox="0 0 24 24" fill="none" xmlns="http://www.w3.org/2000/svg">
<g id="mdi:instagram" clip-path="url(#clip0_109_2292)">
<path id="Vector" d="M6.95561 0H17.0356C20.8756 0 23.9956 3.12 23.9956 6.96V17.04C23.9956 18.8859 23.2623 20.6562 21.9571 21.9615C20.6518 23.2667 18.8815 24 17.0356 24H6.95561C3.11561 24 -0.00439453 20.88 -0.00439453 17.04V6.96C-0.00439453 5.11409 0.728889 3.34379 2.03414 2.03854C3.3394 0.733284 5.1097 0 6.95561 0ZM6.71561 2.4C5.56987 2.4 4.47106 2.85514 3.6609 3.6653C2.85075 4.47546 2.39561 5.57427 2.39561 6.72V17.28C2.39561 19.668 4.32761 21.6 6.71561 21.6H17.2756C18.4213 21.6 19.5202 21.1449 20.3303 20.3347C21.1405 19.5245 21.5956 18.4257 21.5956 17.28V6.72C21.5956 4.332 19.6636 2.4 17.2756 2.4H6.71561ZM18.2956 4.2C18.6934 4.2 19.075 4.35804 19.3563 4.63934C19.6376 4.92064 19.7956 5.30218 19.7956 5.7C19.7956 6.09783 19.6376 6.47936 19.3563 6.76066C19.075 7.04197 18.6934 7.2 18.2956 7.2C17.8978 7.2 17.5162 7.04197 17.2349 6.76066C16.9536 6.47936 16.7956 6.09783 16.7956 5.7C16.7956 5.30218 16.9536 4.92064 17.2349 4.63934C17.5162 4.35804 17.8978 4.2 18.2956 4.2ZM11.9956 6C13.5869 6 15.113 6.63214 16.2382 7.75736C17.3635 8.88258 17.9956 10.4087 17.9956 12C17.9956 13.5913 17.3635 15.1174 16.2382 16.2426C15.113 17.3679 13.5869 18 11.9956 18C10.4043 18 8.87818 17.3679 7.75296 16.2426C6.62775 15.1174 5.99561 13.5913 5.99561 12C5.99561 10.4087 6.62775 8.88258 7.75296 7.75736C8.87818 6.63214 10.4043 6 11.9956 6ZM11.9956 8.4C11.0408 8.4 10.1252 8.77928 9.45002 9.45442C8.77489 10.1295 8.39561 11.0452 8.39561 12C8.39561 12.9548 8.77489 13.8705 9.45002 14.5456C10.1252 15.2207 11.0408 15.6 11.9956 15.6C12.9504 15.6 13.8661 15.2207 14.5412 14.5456C15.2163 13.8705 15.5956 12.9548 15.5956 12C15.5956 11.0452 15.2163 10.1295 14.5412 9.45442C13.8661 8.77928 12.9504 8.4 11.9956 8.4Z" fill="black"/>
</g>
<defs>
<clipPath id="clip0_109_2292">
<rect width="24" height="24" fill="white" transform="translate(-0.00439453)"/>
</clipPath>
</defs>
</svg>
