<svg width="24" height="24" viewBox="0 0 24 24" fill="none" xmlns="http://www.w3.org/2000/svg">
<g id="ic:round-local-phone" clip-path="url(#clip0_109_2041)">
<path id="Vector" d="M21.6441 16.3663L18.2506 15.9788C17.8516 15.932 17.4471 15.9761 17.0676 16.108C16.6881 16.2399 16.3434 16.4561 16.0595 16.7404L13.6012 19.1986C9.80851 17.2697 6.72576 14.187 4.79683 10.3943L7.26848 7.92261C7.84297 7.34812 8.12353 6.54651 8.03001 5.73154L7.64256 2.36476C7.56682 1.71302 7.25404 1.11189 6.76377 0.675825C6.27351 0.239763 5.64001 -0.000777906 4.98388 1.89005e-06H2.67256C1.16285 1.89005e-06 -0.0930083 1.25586 0.000513318 2.76557C0.708605 14.1752 9.83364 23.2869 21.2299 23.995C22.7396 24.0885 23.9955 22.8326 23.9955 21.3229V19.0116C24.0088 17.6622 22.9935 16.5266 21.6441 16.3663Z" fill="black"/>
</g>
<defs>
<clipPath id="clip0_109_2041">
<rect width="24" height="24" fill="white" transform="translate(-0.00439453)"/>
</clipPath>
</defs>
</svg>
