<svg width="40" height="73" xmlns="http://www.w3.org/2000/svg" fill="none">

 <g>
  <title>Layer 1</title>
  <g>
   <g id="svg_2">
    <path fill="#FFC736" d="m13.53982,9.64614l0,12.18532l-2.17982,0c-1.21853,0 -2.19335,-0.9748 -2.19335,-2.1798l0,-7.81217c0,-1.20499 0.98836,-2.19335 2.19335,-2.19335l2.17982,0zm15.2452,-2.03089l-6.47179,0l0,-4.73874c0,-1.48932 -1.2185,-2.70785 -2.6943,-2.70785l-0.1218,0c-0.5416,0 -1.029,0.32494 -1.2456,0.82589l-3.69625,8.65158l0,12.18532l12.45615,0c0.9883,0 1.8278,-0.704 2.0038,-1.6789l1.7872,-10.1544c0.2166,-1.24561 -0.7312,-2.38291 -2.0039,-2.38291l-0.0135,0z" id="svg_3"/>
   </g>
  </g>
  <g id="svg_4">
   <path stroke-width="2" stroke="#2291F2" fill="#2291F2" d="m19.29285,70.2929l0.7071,0.7071l0.7072,-0.7071l12.728,-12.728l-0.7072,-0.70721l0.7072,0.7071c2.6571,-2.6572 4.4667,-6.04259 5.1998,-9.72829c0.7331,-3.6856 0.3568,-7.50591 -1.0813,-10.9776c-1.438,-3.47182 -3.8733,-6.4392 -6.9978,-8.52694c-3.1246,-2.08774 -6.798,-3.20206 -10.5559,-3.20206c-3.7578,0 -7.4312,1.11432 -10.55577,3.20206c-3.12452,2.08774 -5.5598,5.05512 -6.99787,8.52694c-1.43808,3.4717 -1.81435,7.292 -1.08125,10.9776c0.7331,3.6857 2.54265,7.0711 5.19982,9.72829l0.70712,-0.7071l-0.70711,0.70721l12.72796,12.728z" id="Vector"/>
   <g>
    <g id="svg_1">


    </g>
   </g>
  </g>
 </g>
</svg>