<svg width="28" height="49" xmlns="http://www.w3.org/2000/svg" fill="none">

 <g>
  <title>Layer 1</title>
  <g id="svg_2">
   <path stroke-width="2" stroke="#2291F2" fill="#2291F2" d="m13.2929,46.4804l0.7071,0.7071l0.7071,-0.7071l8.4853,-8.4854l0.0429,-0.0196l-0.0429,0.0196c1.8181,-1.8181 3.0562,-4.1344 3.5578,-6.6562c0.5016,-2.5217 0.2442,-5.1356 -0.7398,-7.51102c-0.9839,-2.37543 -2.6502,-4.40574 -4.788,-5.8342c-2.1378,-1.42845 -4.6513,-2.19088 -7.2224,-2.19088c-2.5712,0 -5.08456,0.76243 -7.2224,2.19088c-2.13783,1.42846 -3.80408,3.45877 -4.78802,5.8342c-0.98395,2.37542 -1.2414,4.98932 -0.7398,7.51102c0.50159,2.5218 1.73971,4.8381 3.55777,6.6562l1.25317,1.2469l-1.25316,-1.2469l8.48534,8.4854z" id="Vector"/>
   <g>
    <g id="svg_1">
    </g>
   </g>
  </g>
  <g>
   <g id="svg_3">
    <path fill="#FFC736" d="m10.02451,5.8323l0,7.49869l-1.34143,0c-0.74986,0 -1.34976,-0.5999 -1.34976,-1.3415l0,-4.80743c0,-0.74154 0.60823,-1.34976 1.34976,-1.34976l1.34143,0zm9.38164,-1.24978l-3.9826,0l0,-2.91615c0,-0.9165 -0.74987,-1.66637 -1.65804,-1.66637l-0.07499,0c-0.33327,0 -0.63322,0.19997 -0.76653,0.50825l-2.27459,5.32405l0,7.49869l7.66535,0c0.6082,0 1.1247,-0.4333 1.2331,-1.0332l1.0998,-6.24886c0.1333,-0.76653 -0.45,-1.46641 -1.2331,-1.46641l-0.0084,0z" id="svg_4"/>
   </g>
  </g>
 </g>
</svg>