<svg width="24" height="24" viewBox="0 0 24 24" fill="none" xmlns="http://www.w3.org/2000/svg">
<g id="Group">
<path id="Vector" d="M7.98633 15.9872L15.9874 7.98608" stroke="black" stroke-width="2" stroke-linecap="round" stroke-linejoin="round"/>
<path id="Vector_2" d="M8.65309 9.3196C9.02133 9.3196 9.31985 9.02109 9.31985 8.65284C9.31985 8.2846 9.02133 7.98608 8.65309 7.98608C8.28485 7.98608 7.98633 8.2846 7.98633 8.65284C7.98633 9.02109 8.28485 9.3196 8.65309 9.3196Z" fill="black" stroke="black" stroke-width="2" stroke-linecap="round" stroke-linejoin="round"/>
<path id="Vector_3" d="M15.3206 15.9873C15.6888 15.9873 15.9873 15.6888 15.9873 15.3206C15.9873 14.9523 15.6888 14.6538 15.3206 14.6538C14.9523 14.6538 14.6538 14.9523 14.6538 15.3206C14.6538 15.6888 14.9523 15.9873 15.3206 15.9873Z" fill="black" stroke="black" stroke-width="2" stroke-linecap="round" stroke-linejoin="round"/>
<g id="Vector_4">
<mask id="path-4-inside-1_2041_1499" fill="white">
<path d="M2.65203 5.58577C2.65203 4.80769 2.96112 4.06148 3.5113 3.5113C4.06148 2.96112 4.80769 2.65203 5.58577 2.65203H6.91929C7.69393 2.65158 8.43695 2.34479 8.98625 1.79857L9.91971 0.865111C10.1923 0.590939 10.5165 0.373365 10.8735 0.224898C11.2305 0.0764306 11.6133 0 12 0C12.3867 0 12.7695 0.0764306 13.1265 0.224898C13.4835 0.373365 13.8077 0.590939 14.0803 0.865111L15.0138 1.79857C15.563 2.34479 16.3061 2.65158 17.0807 2.65203H18.4142C19.1923 2.65203 19.9385 2.96112 20.4887 3.5113C21.0389 4.06148 21.348 4.80769 21.348 5.58577V6.91929C21.3484 7.69393 21.6552 8.43695 22.2014 8.98625L23.1349 9.91971C23.4091 10.1923 23.6266 10.5165 23.7751 10.8735C23.9236 11.2305 24 11.6133 24 12C24 12.3867 23.9236 12.7695 23.7751 13.1265C23.6266 13.4835 23.4091 13.8077 23.1349 14.0803L22.2014 15.0138C21.6552 15.563 21.3484 16.3061 21.348 17.0807V18.4142C21.348 19.1923 21.0389 19.9385 20.4887 20.4887C19.9385 21.0389 19.1923 21.348 18.4142 21.348H17.0807C16.3061 21.3484 15.563 21.6552 15.0138 22.2014L14.0803 23.1349C13.8077 23.4091 13.4835 23.6266 13.1265 23.7751C12.7695 23.9236 12.3867 24 12 24C11.6133 24 11.2305 23.9236 10.8735 23.7751C10.5165 23.6266 10.1923 23.4091 9.91971 23.1349L8.98625 22.2014C8.43695 21.6552 7.69393 21.3484 6.91929 21.348H5.58577C4.80769 21.348 4.06148 21.0389 3.5113 20.4887C2.96112 19.9385 2.65203 19.1923 2.65203 18.4142V17.0807C2.65158 16.3061 2.34479 15.563 1.79857 15.0138L0.865111 14.0803C0.590939 13.8077 0.373365 13.4835 0.224898 13.1265C0.0764306 12.7695 0 12.3867 0 12C0 11.6133 0.0764306 11.2305 0.224898 10.8735C0.373365 10.5165 0.590939 10.1923 0.865111 9.91971L1.79857 8.98625C2.34479 8.43695 2.65158 7.69393 2.65203 6.91929V5.58577Z"/>
</mask>
<path d="M0.652027 5.58577C0.652027 6.69034 1.54746 7.58577 2.65203 7.58577C3.7566 7.58577 4.65203 6.69034 4.65203 5.58577H0.652027ZM5.58577 2.65203V0.652027V2.65203ZM6.91929 2.65203V4.65203L6.92043 4.65203L6.91929 2.65203ZM8.98625 1.79857L10.3965 3.21676L10.4005 3.21279L8.98625 1.79857ZM9.91971 0.865111L11.3339 2.27933L11.3379 2.27534L9.91971 0.865111ZM12 0V-2V0ZM14.0803 0.865111L12.6621 2.27535L12.6661 2.27933L14.0803 0.865111ZM15.0138 1.79857L13.5995 3.21279L13.6035 3.21676L15.0138 1.79857ZM17.0807 2.65203L17.0796 4.65203H17.0807V2.65203ZM18.4142 2.65203V0.652027V2.65203ZM21.348 6.91929H19.348V6.92043L21.348 6.91929ZM22.2014 8.98625L20.7832 10.3965L20.7872 10.4005L22.2014 8.98625ZM23.1349 9.91971L21.7207 11.3339L21.7247 11.3379L23.1349 9.91971ZM23.1349 14.0803L21.7246 12.6621L21.7207 12.6661L23.1349 14.0803ZM22.2014 15.0138L20.7872 13.5995L20.7832 13.6035L22.2014 15.0138ZM21.348 17.0807L19.348 17.0796V17.0807H21.348ZM17.0807 21.348V19.348H17.0796L17.0807 21.348ZM15.0138 22.2014L13.6035 20.7832L13.5995 20.7872L15.0138 22.2014ZM14.0803 23.1349L12.6661 21.7207L12.6621 21.7247L14.0803 23.1349ZM9.91971 23.1349L11.3379 21.7246L11.3339 21.7207L9.91971 23.1349ZM8.98625 22.2014L10.4005 20.7872L10.3965 20.7832L8.98625 22.2014ZM6.91929 21.348L6.92043 19.348H6.91929V21.348ZM2.65203 18.4142H0.652027H2.65203ZM2.65203 17.0807H4.65203L4.65203 17.0796L2.65203 17.0807ZM1.79857 15.0138L3.21676 13.6035L3.21279 13.5995L1.79857 15.0138ZM0.865111 14.0803L2.27933 12.6661L2.27534 12.6621L0.865111 14.0803ZM0 12H-2H0ZM0.865111 9.91971L2.27535 11.3379L2.27932 11.3339L0.865111 9.91971ZM1.79857 8.98625L3.21279 10.4005L3.21676 10.3965L1.79857 8.98625ZM2.65203 6.91929L4.65203 6.92043V6.91929H2.65203ZM4.65203 5.58577C4.65203 4.4812 3.7566 3.58577 2.65203 3.58577C1.54746 3.58577 0.652027 4.4812 0.652027 5.58577H4.65203ZM4.65203 5.58577C4.65203 5.33813 4.7504 5.10063 4.92551 4.92551L2.09709 2.09709C1.17183 3.02234 0.652027 4.27726 0.652027 5.58577H4.65203ZM4.92551 4.92551C5.10063 4.7504 5.33813 4.65203 5.58577 4.65203V0.652027C4.27726 0.652027 3.02234 1.17183 2.09709 2.09709L4.92551 4.92551ZM5.58577 4.65203H6.91929V0.652027H5.58577V4.65203ZM6.92043 4.65203C8.22316 4.65128 9.47272 4.13533 10.3965 3.21676L7.57601 0.380393C7.40118 0.554239 7.1647 0.651886 6.91815 0.652027L6.92043 4.65203ZM10.4005 3.21279L11.3339 2.27932L8.50549 -0.549103L7.57203 0.384361L10.4005 3.21279ZM11.3379 2.27534C11.4247 2.18808 11.5278 2.11883 11.6415 2.07158L10.1055 -1.62178C9.50514 -1.3721 8.96002 -1.0062 8.50153 -0.545123L11.3379 2.27534ZM11.6415 2.07158C11.7551 2.02433 11.8769 2 12 2V-2C11.3498 -2 10.7059 -1.87147 10.1055 -1.62178L11.6415 2.07158ZM12 2C12.1231 2 12.2449 2.02433 12.3585 2.07158L13.8945 -1.62178C13.2941 -1.87146 12.6502 -2 12 -2V2ZM12.3585 2.07158C12.4722 2.11883 12.5753 2.18808 12.6621 2.27534L15.4985 -0.545123C15.04 -1.0062 14.4949 -1.3721 13.8945 -1.62178L12.3585 2.07158ZM12.6661 2.27933L13.5995 3.21279L16.428 0.38436L15.4945 -0.549104L12.6661 2.27933ZM13.6035 3.21676C14.5273 4.13533 15.7768 4.65128 17.0796 4.65203L17.0819 0.652027C16.8353 0.651886 16.5988 0.55424 16.424 0.380393L13.6035 3.21676ZM17.0807 4.65203H18.4142V0.652027H17.0807V4.65203ZM18.4142 4.65203C18.6619 4.65203 18.8994 4.7504 19.0745 4.92551L21.9029 2.09709C20.9777 1.17183 19.7227 0.652027 18.4142 0.652027V4.65203ZM19.0745 4.92551C19.2496 5.10063 19.348 5.33813 19.348 5.58577H23.348C23.348 4.27726 22.8282 3.02234 21.9029 2.09709L19.0745 4.92551ZM19.348 5.58577V6.91929H23.348V5.58577H19.348ZM19.348 6.92043C19.3487 8.22316 19.8647 9.47272 20.7832 10.3965L23.6196 7.57601C23.4458 7.40119 23.3481 7.1647 23.348 6.91815L19.348 6.92043ZM20.7872 10.4005L21.7207 11.3339L24.5491 8.50549L23.6156 7.57203L20.7872 10.4005ZM21.7247 11.3379C21.8119 11.4247 21.8812 11.5278 21.9284 11.6415L25.6218 10.1055C25.3721 9.50515 25.0062 8.96003 24.5451 8.50153L21.7247 11.3379ZM21.9284 11.6415C21.9757 11.7551 22 11.8769 22 12H26C26 11.3498 25.8715 10.7059 25.6218 10.1055L21.9284 11.6415ZM22 12C22 12.1231 21.9757 12.2449 21.9284 12.3585L25.6218 13.8945C25.8715 13.2941 26 12.6503 26 12H22ZM21.9284 12.3585C21.8812 12.4722 21.8119 12.5753 21.7247 12.6621L24.5451 15.4985C25.0062 15.04 25.3721 14.4949 25.6218 13.8945L21.9284 12.3585ZM21.7207 12.6661L20.7872 13.5995L23.6156 16.428L24.5491 15.4945L21.7207 12.6661ZM20.7832 13.6035C19.8647 14.5273 19.3487 15.7768 19.348 17.0796L23.348 17.0819C23.3481 16.8353 23.4458 16.5988 23.6196 16.424L20.7832 13.6035ZM19.348 17.0807V18.4142H23.348V17.0807H19.348ZM19.348 18.4142C19.348 18.6619 19.2496 18.8994 19.0745 19.0745L21.9029 21.9029C22.8282 20.9777 23.348 19.7227 23.348 18.4142H19.348ZM19.0745 19.0745C18.8994 19.2496 18.6619 19.348 18.4142 19.348V23.348C19.7227 23.348 20.9777 22.8282 21.9029 21.9029L19.0745 19.0745ZM18.4142 19.348H17.0807V23.348H18.4142V19.348ZM17.0796 19.348C15.7768 19.3487 14.5273 19.8647 13.6035 20.7832L16.424 23.6196C16.5988 23.4458 16.8353 23.3481 17.0819 23.348L17.0796 19.348ZM13.5995 20.7872L12.6661 21.7207L15.4945 24.5491L16.428 23.6156L13.5995 20.7872ZM12.6621 21.7247C12.5753 21.8119 12.4722 21.8812 12.3585 21.9284L13.8945 25.6218C14.4949 25.3721 15.04 25.0062 15.4985 24.5451L12.6621 21.7247ZM12.3585 21.9284C12.2449 21.9757 12.1231 22 12 22V26C12.6503 26 13.2941 25.8715 13.8945 25.6218L12.3585 21.9284ZM12 22C11.8769 22 11.7551 21.9757 11.6415 21.9284L10.1055 25.6218C10.7059 25.8715 11.3498 26 12 26V22ZM11.6415 21.9284C11.5278 21.8812 11.4247 21.8119 11.3379 21.7247L8.50153 24.5451C8.96003 25.0062 9.50515 25.3721 10.1055 25.6218L11.6415 21.9284ZM11.3339 21.7207L10.4005 20.7872L7.57203 23.6156L8.50549 24.5491L11.3339 21.7207ZM10.3965 20.7832C9.47272 19.8647 8.22316 19.3487 6.92043 19.348L6.91815 23.348C7.1647 23.3481 7.40119 23.4458 7.57601 23.6196L10.3965 20.7832ZM6.91929 19.348H5.58577V23.348H6.91929V19.348ZM5.58577 19.348C5.33813 19.348 5.10063 19.2496 4.92551 19.0745L2.09709 21.9029C3.02234 22.8282 4.27726 23.348 5.58577 23.348V19.348ZM4.92551 19.0745C4.7504 18.8994 4.65203 18.6619 4.65203 18.4142H0.652027C0.652027 19.7227 1.17183 20.9777 2.09709 21.9029L4.92551 19.0745ZM4.65203 18.4142V17.0807H0.652027V18.4142H4.65203ZM4.65203 17.0796C4.65128 15.7768 4.13533 14.5273 3.21676 13.6035L0.380393 16.424C0.55424 16.5988 0.651886 16.8353 0.652027 17.0819L4.65203 17.0796ZM3.21279 13.5995L2.27933 12.6661L-0.549104 15.4945L0.38436 16.428L3.21279 13.5995ZM2.27534 12.6621C2.18808 12.5753 2.11883 12.4722 2.07158 12.3585L-1.62178 13.8945C-1.3721 14.4949 -1.0062 15.04 -0.545123 15.4985L2.27534 12.6621ZM2.07158 12.3585C2.02433 12.2449 2 12.1231 2 12H-2C-2 12.6502 -1.87146 13.2941 -1.62178 13.8945L2.07158 12.3585ZM2 12C2 11.8769 2.02433 11.7551 2.07158 11.6415L-1.62178 10.1055C-1.87147 10.7059 -2 11.3498 -2 12H2ZM2.07158 11.6415C2.11883 11.5278 2.18808 11.4247 2.27534 11.3379L-0.545123 8.50153C-1.0062 8.96002 -1.3721 9.50514 -1.62178 10.1055L2.07158 11.6415ZM2.27932 11.3339L3.21279 10.4005L0.384361 7.57203L-0.549103 8.50549L2.27932 11.3339ZM3.21676 10.3965C4.13533 9.47272 4.65128 8.22316 4.65203 6.92043L0.652027 6.91815C0.651886 7.1647 0.554239 7.40118 0.380393 7.57601L3.21676 10.3965ZM4.65203 6.91929V5.58577H0.652027V6.91929H4.65203Z" fill="black" mask="url(#path-4-inside-1_2041_1499)"/>
</g>
</g>
</svg>
