<svg width="24" height="24" viewBox="0 0 24 24" fill="none" xmlns="http://www.w3.org/2000/svg">
<g id="Group">
<path id="Vector" d="M12 17.3333V17.3466M12 13.3333C12.5977 13.3314 13.1775 13.129 13.6466 12.7585C14.1157 12.3881 14.447 11.871 14.5874 11.29C14.7278 10.709 14.6693 10.0977 14.4211 9.55387C14.173 9.01008 13.7496 8.56526 13.2187 8.2906C12.6882 8.01888 12.0815 7.93463 11.4971 8.05156C10.9127 8.16848 10.385 8.47971 10 8.9346" stroke="black" stroke-width="2" stroke-linecap="round" stroke-linejoin="round"/>
<path id="Vector_2" d="M23 12C23 18.0751 18.0751 23 12 23C5.92487 23 1 18.0751 1 12C1 5.92487 5.92487 1 12 1C18.0751 1 23 5.92487 23 12Z" stroke="black" stroke-width="2" stroke-linecap="round" stroke-linejoin="round"/>
</g>
</svg>
