<svg width="24" height="24" viewBox="0 0 24 24" fill="none" xmlns="http://www.w3.org/2000/svg">
<g id="carbon:search">
<path id="Vector" d="M21.7497 20.6895L16.0857 15.0255C17.4468 13.3914 18.1255 11.2956 17.9807 9.17389C17.8359 7.05219 16.8787 5.06801 15.3082 3.6341C13.7376 2.2002 11.6748 1.42697 9.54869 1.47528C7.4226 1.52359 5.39699 2.38971 3.89323 3.89347C2.38947 5.39723 1.52334 7.42284 1.47504 9.54893C1.42673 11.675 2.19995 13.7379 3.63386 15.3084C5.06776 16.8789 7.05195 17.8361 9.17365 17.981C11.2953 18.1258 13.3912 17.4471 15.0252 16.086L20.6892 21.75L21.7497 20.6895ZM2.99972 9.74996C2.99972 8.41494 3.3956 7.1099 4.1373 5.99987C4.879 4.88983 5.93321 4.02467 7.16661 3.51378C8.40001 3.00289 9.75721 2.86921 11.0666 3.12966C12.376 3.39011 13.5787 4.03299 14.5227 4.97699C15.4667 5.921 16.1096 7.12373 16.37 8.4331C16.6305 9.74248 16.4968 11.0997 15.9859 12.3331C15.475 13.5665 14.6099 14.6207 13.4998 15.3624C12.3898 16.1041 11.0847 16.5 9.74972 16.5C7.96012 16.498 6.24438 15.7862 4.97894 14.5207C3.7135 13.2553 3.00171 11.5396 2.99972 9.74996Z" fill="#707070"/>
</g>
</svg>
