<svg width="24" height="24" viewBox="0 0 24 24" fill="none" xmlns="http://www.w3.org/2000/svg">
<g id="clarity:settings-line" clip-path="url(#clip0_2061_615)">
<g id="Group">
<path id="Vector" d="M13.9624 22.5H9.07273L8.39917 19.5378C7.59757 19.2315 6.84791 18.8087 6.17558 18.2836L3.21243 19.195L0.767578 15.0574L3.05596 13.0054C2.92789 12.1739 2.92789 11.3285 3.05596 10.497L0.767578 8.44378L3.21243 4.30622L6.17558 5.21758C6.84822 4.69199 7.5983 4.26876 8.40039 3.96222L9.07273 1H13.9624L14.636 3.96222C15.4376 4.2685 16.1872 4.69132 16.8596 5.21639L19.8227 4.30503L22.2676 8.44258L19.9792 10.4946C20.1074 11.3261 20.1074 12.1715 19.9792 13.003L22.2676 15.055L19.8227 19.1926L16.8596 18.2812C16.1874 18.8072 15.4377 19.2308 14.636 19.5378L13.9624 22.5Z" stroke="black" stroke-width="1.8" stroke-linecap="round" stroke-linejoin="round"/>
<path id="Vector_2" d="M11.5174 15.3334C13.5427 15.3334 15.1846 13.7291 15.1846 11.7501C15.1846 9.77106 13.5427 8.16675 11.5174 8.16675C9.49199 8.16675 7.8501 9.77106 7.8501 11.7501C7.8501 13.7291 9.49199 15.3334 11.5174 15.3334Z" stroke="black" stroke-width="1.8"/>
</g>
</g>
<defs>
<clipPath id="clip0_2061_615">
<rect width="24" height="24" fill="white" transform="translate(-0.232422)"/>
</clipPath>
</defs>
</svg>
