<svg width="24" height="24" viewBox="0 0 24 24" fill="none" xmlns="http://www.w3.org/2000/svg">
<g id="Share">
<path id="Vector" d="M5.25 24C4.63125 24 4.10175 23.7865 3.6615 23.3596C3.2205 22.932 3 22.4182 3 21.8182V9.81818C3 9.21818 3.2205 8.70436 3.6615 8.27673C4.10175 7.84982 4.63125 7.63636 5.25 7.63636H8.625V9.81818H5.25V21.8182H18.75V9.81818H15.375V7.63636H18.75C19.3687 7.63636 19.8986 7.84982 20.3396 8.27673C20.7799 8.70436 21 9.21818 21 9.81818V21.8182C21 22.4182 20.7799 22.932 20.3396 23.3596C19.8986 23.7865 19.3687 24 18.75 24H5.25ZM10.875 16.3636V4.17273L9.075 5.91818L7.5 4.36364L12 0L16.5 4.36364L14.925 5.91818L13.125 4.17273V16.3636H10.875Z" fill="white"/>
</g>
</svg>
