<svg width="24" height="24" viewBox="0 0 24 24" fill="none" xmlns="http://www.w3.org/2000/svg">
<g id="Property 1=added">
<path id="Vector" d="M23 7.594C23 8.39816 22.865 9.18486 22.5926 9.95864C22.326 10.7139 21.8399 11.5886 21.0976 12.5865L21.0974 12.5868C20.356 13.5843 19.3419 14.7308 18.0432 16.0283C16.7398 17.3305 15.0837 18.8864 13.0716 20.6976C13.0714 20.6978 13.0712 20.698 13.071 20.6982L12 21.6575L10.929 20.6982C10.9288 20.698 10.9286 20.6978 10.9284 20.6976C8.91635 18.8864 7.26024 17.3305 5.95679 16.0283C4.65809 14.7308 3.64401 13.5843 2.90259 12.5868L2.90238 12.5865C2.16023 11.5888 1.67463 10.7142 1.40883 9.9594L1.40856 9.95864C1.13536 9.18481 1 8.39812 1 7.594C1 5.96499 1.53561 4.65592 2.59679 3.59571C3.65801 2.53545 4.96871 2 6.6 2C7.49394 2 8.33929 2.1878 9.14638 2.56524C9.95502 2.94341 10.6502 3.47434 11.2384 4.1657L12 5.06094L12.7616 4.1657C13.3498 3.47434 14.045 2.94341 14.8536 2.56524C15.6607 2.1878 16.5061 2 17.4 2C19.0313 2 20.342 2.53545 21.4032 3.59571C22.4644 4.65592 23 5.96499 23 7.594Z" fill="#2291F2" stroke="#2291F2" stroke-width="2"/>
</g>
</svg>
