<svg width="25" height="22" viewBox="0 0 25 22" fill="none" xmlns="http://www.w3.org/2000/svg">
<g id="Frame 317">
<path id="Vector" d="M23.5 6.594C23.5 7.39816 23.365 8.18486 23.0926 8.95864C22.826 9.71386 22.3399 10.5886 21.5976 11.5865L21.5974 11.5868C20.856 12.5843 19.8419 13.7308 18.5432 15.0283C17.2398 16.3305 15.5837 17.8864 13.5716 19.6976C13.5714 19.6978 13.5712 19.698 13.571 19.6982L12.5 20.6575L11.429 19.6982C11.4288 19.698 11.4286 19.6978 11.4284 19.6976C9.41635 17.8864 7.76024 16.3305 6.45679 15.0283C5.15809 13.7308 4.14401 12.5843 3.40259 11.5868L3.40238 11.5865C2.66023 10.5888 2.17463 9.71423 1.90883 8.9594L1.90856 8.95864C1.63536 8.18481 1.5 7.39812 1.5 6.594C1.5 4.96499 2.03561 3.65592 3.09679 2.59571C4.15801 1.53545 5.46871 1 7.1 1C7.99394 1 8.83929 1.1878 9.64638 1.56524C10.455 1.94341 11.1502 2.47434 11.7384 3.1657L12.5 4.06094L13.2616 3.1657C13.8498 2.47434 14.545 1.94341 15.3536 1.56524C16.1607 1.1878 17.0061 1 17.9 1C19.5313 1 20.842 1.53545 21.9032 2.59571C22.9644 3.65592 23.5 4.96499 23.5 6.594Z" stroke="#2291F2" stroke-width="2"/>
</g>
</svg>
