<svg width="45" height="22" viewBox="0 0 45 22" fill="none" xmlns="http://www.w3.org/2000/svg">
<path id="Vector" d="M17.0837 1.24185L11.1927 15.2956H7.3494L4.45035 4.07938C4.27458 3.39021 4.12184 3.13658 3.58699 2.84517C2.71274 2.37025 1.26902 1.92609 0 1.64979L0.0855971 1.24185H6.2732C7.06062 1.24185 7.76965 1.76615 7.94999 2.67397L9.48177 10.8071L13.2635 1.24185H17.0837ZM22.2793 1.24185L19.2732 15.2956H15.637L18.6435 1.24185H22.2795H22.2793ZM32.1425 10.7071C32.1576 6.99865 27.0148 6.79283 27.0483 5.1359C27.0606 4.63216 27.5405 4.0959 28.5908 3.95881C29.1111 3.89149 30.5485 3.83788 32.1766 4.58804L32.8136 1.60603C31.9388 1.28965 30.813 0.985229 29.4127 0.985229C25.8183 0.985229 23.29 2.89438 23.2698 5.63032C23.2462 7.65407 25.0757 8.78195 26.4516 9.456C27.8688 10.1443 28.3441 10.5867 28.3376 11.2019C28.3274 12.1448 27.2056 12.5623 26.1628 12.5778C24.3342 12.6068 23.2742 12.0835 22.4286 11.6896L21.7686 14.7704C22.6193 15.1603 24.1871 15.4989 25.811 15.5162C29.6321 15.5162 32.1313 13.629 32.1425 10.7073V10.7071ZM41.6338 15.2956H44.9956L42.0586 1.24185H38.9569C38.2573 1.24185 37.6694 1.64786 37.4086 2.272L31.9529 15.2956H35.771L36.5283 13.1963H41.1931L41.6339 15.2956H41.6338ZM37.5754 10.3164L39.4898 5.0387L40.5896 10.3164H37.5752H37.5754ZM26.9329 19.164H25.4554V20.539H27.1079V20.9524H24.9576V17.1379H27.0232V17.5513H25.4554V18.7566H26.9327V19.1643L26.9329 19.164ZM27.8713 16.9342H28.369V20.9522H27.8713V16.9342ZM29.625 19.6732C29.6363 20.3469 30.0609 20.6241 30.5643 20.6241C30.9211 20.6241 31.1417 20.5618 31.3231 20.4827L31.4134 20.8394C31.238 20.9185 30.9325 21.0146 30.4965 21.0146C29.6535 21.0146 29.1499 20.4544 29.1499 19.628C29.1499 18.8019 29.6363 18.1565 30.4344 18.1565C31.3343 18.1565 31.5664 18.9378 31.5664 19.4413C31.5664 19.5431 31.5605 19.6166 31.5491 19.6733H29.625V19.6732ZM31.0851 19.3167C31.0909 19.0056 30.955 18.5131 30.3947 18.5131C29.8853 18.5131 29.6702 18.9715 29.6305 19.3167H31.0851ZM34.2759 20.8561C34.1459 20.9185 33.8571 21.0148 33.4894 21.0148C32.6631 21.0148 32.1255 20.4544 32.1255 19.6167C32.1255 18.7734 32.7025 18.1567 33.5968 18.1567C33.891 18.1567 34.1513 18.23 34.2872 18.3038L34.1743 18.6829C34.055 18.6207 33.8683 18.5525 33.5968 18.5525C32.9684 18.5525 32.6292 19.0223 32.6292 19.5886C32.6292 20.2223 33.0366 20.6128 33.5799 20.6128C33.8629 20.6128 34.0495 20.545 34.191 20.4827L34.2759 20.8561ZM35.6729 17.5566V18.2131H36.3858V18.592H35.6729V20.0693C35.6729 20.4093 35.7692 20.6014 36.0464 20.6014C36.1821 20.6014 36.2615 20.5903 36.3352 20.5673L36.3579 20.9469C36.2615 20.9807 36.1088 21.0146 35.9163 21.0146C35.6842 21.0146 35.4973 20.9353 35.3787 20.8054C35.2428 20.6524 35.1862 20.4093 35.1862 20.0866V18.592H34.7616V18.2131H35.1862V17.7039L35.6731 17.5568L35.6729 17.5566ZM37.0813 19.0678C37.0813 18.7451 37.0753 18.468 37.0586 18.2131H37.4945L37.5174 18.7562H37.5339C37.6587 18.3887 37.964 18.1565 38.2978 18.1565C38.3489 18.1565 38.3886 18.1623 38.434 18.1678V18.6377C38.383 18.6261 38.3322 18.6261 38.2638 18.6261C37.9134 18.6261 37.664 18.8864 37.5963 19.2603C37.5846 19.3371 37.5789 19.4146 37.5792 19.4923V20.9526H37.0813V19.0678ZM41.4949 19.56C41.4949 20.5731 40.7873 21.0146 40.131 21.0146C39.3951 21.0146 38.818 20.4711 38.818 19.6055C38.818 18.6942 39.4235 18.1567 40.1763 18.1567C40.9629 18.1567 41.4949 18.7279 41.4949 19.5602V19.56ZM39.3272 19.5885C39.3272 20.1883 39.6668 20.6413 40.1535 20.6413C40.6291 20.6413 40.9854 20.1938 40.9854 19.577C40.9854 19.113 40.7534 18.5298 40.1647 18.5298C39.5821 18.5298 39.3272 19.0735 39.3272 19.5885ZM42.2581 18.9545C42.2581 18.666 42.2521 18.4395 42.2352 18.2133H42.6768L42.705 18.666H42.7163C42.8522 18.4112 43.1691 18.1567 43.6218 18.1567C44.0008 18.1567 44.5896 18.3831 44.5896 19.3222V20.9524H44.0916V19.3733C44.0916 18.9321 43.9275 18.5639 43.4578 18.5639C43.1351 18.5639 42.8803 18.7961 42.7901 19.0733C42.7673 19.1357 42.756 19.2204 42.756 19.3055V20.9524H42.2581V18.9545Z" fill="#3D45C9"/>
</svg>
