<svg width="24" height="24" viewBox="0 0 24 24" fill="none" xmlns="http://www.w3.org/2000/svg">
<g id="youtube icon" clip-path="url(#clip0_578_5692)">
<path id="Vector" d="M24 11.6277C24 11.5688 24 11.5018 23.9973 11.4241C23.9946 11.2071 23.9893 10.9634 23.9839 10.7036C23.9625 9.95625 23.925 9.21161 23.8661 8.50982C23.7857 7.54286 23.6679 6.73661 23.5071 6.13125C23.3375 5.49951 23.0051 4.92334 22.543 4.46035C22.081 3.99735 21.5055 3.66374 20.8741 3.49286C20.1161 3.28929 18.6321 3.16339 16.5429 3.08571C15.5491 3.04821 14.4857 3.02411 13.4223 3.01071C13.05 3.00536 12.7045 3.00268 12.3938 3H11.6062C11.2955 3.00268 10.95 3.00536 10.5777 3.01071C9.51429 3.02411 8.45089 3.04821 7.45714 3.08571C5.36786 3.16607 3.88125 3.29196 3.12589 3.49286C2.49429 3.66332 1.91858 3.99679 1.45646 4.45985C0.994336 4.92291 0.662036 5.4993 0.492857 6.13125C0.329464 6.73661 0.214286 7.54286 0.133929 8.50982C0.075 9.21161 0.0375 9.95625 0.0160714 10.7036C0.00803567 10.9634 0.0053571 11.2071 0.00267853 11.4241C0.00267853 11.5018 0 11.5688 0 11.6277V11.7777C0 11.8366 -4.09117e-08 11.9036 0.00267853 11.9813C0.0053571 12.1982 0.0107142 12.442 0.0160714 12.7018C0.0375 13.4491 0.075 14.1938 0.133929 14.8955C0.214286 15.8625 0.332143 16.6688 0.492857 17.2741C0.835714 18.5571 1.84286 19.5696 3.12589 19.9125C3.88125 20.1161 5.36786 20.242 7.45714 20.3196C8.45089 20.3571 9.51429 20.3813 10.5777 20.3946C10.95 20.4 11.2955 20.4027 11.6062 20.4054H12.3938C12.7045 20.4027 13.05 20.4 13.4223 20.3946C14.4857 20.3813 15.5491 20.3571 16.5429 20.3196C18.6321 20.2393 20.1187 20.1134 20.8741 19.9125C22.1571 19.5696 23.1643 18.5598 23.5071 17.2741C23.6705 16.6688 23.7857 15.8625 23.8661 14.8955C23.925 14.1938 23.9625 13.4491 23.9839 12.7018C23.992 12.442 23.9946 12.1982 23.9973 11.9813C23.9973 11.9036 24 11.8366 24 11.7777V11.6277ZM22.0714 11.767C22.0714 11.8232 22.0714 11.8848 22.0688 11.9571C22.0661 12.1661 22.0607 12.3964 22.0554 12.6455C22.0366 13.358 21.9991 14.0705 21.9429 14.7321C21.8705 15.5946 21.7688 16.3018 21.6429 16.7759C21.4768 17.3946 20.9893 17.8848 20.3732 18.0482C19.8107 18.1982 18.3937 18.3188 16.4679 18.3911C15.4929 18.4286 14.4429 18.4527 13.3955 18.4661C13.0286 18.4714 12.6884 18.4741 12.383 18.4741H11.617L10.6045 18.4661C9.55714 18.4527 8.50982 18.4286 7.53214 18.3911C5.60625 18.3161 4.18661 18.1982 3.62679 18.0482C3.01071 17.8821 2.52321 17.3946 2.35714 16.7759C2.23125 16.3018 2.12946 15.5946 2.05714 14.7321C2.00089 14.0705 1.96607 13.358 1.94464 12.6455C1.93661 12.3964 1.93393 12.1634 1.93125 11.9571C1.93125 11.8848 1.92857 11.8205 1.92857 11.767V11.6384C1.92857 11.5821 1.92857 11.5205 1.93125 11.4482C1.93393 11.2393 1.93929 11.0089 1.94464 10.7598C1.96339 10.0473 2.00089 9.33482 2.05714 8.67321C2.12946 7.81071 2.23125 7.10357 2.35714 6.62946C2.52321 6.01071 3.01071 5.52054 3.62679 5.35714C4.18929 5.20714 5.60625 5.08661 7.53214 5.01429C8.50714 4.97679 9.55714 4.95268 10.6045 4.93929C10.9714 4.93393 11.3116 4.93125 11.617 4.93125H12.383L13.3955 4.93929C14.4429 4.95268 15.4902 4.97679 16.4679 5.01429C18.3937 5.08929 19.8134 5.20714 20.3732 5.35714C20.9893 5.52321 21.4768 6.01071 21.6429 6.62946C21.7688 7.10357 21.8705 7.81071 21.9429 8.67321C21.9991 9.33482 22.0339 10.0473 22.0554 10.7598C22.0634 11.0089 22.0661 11.242 22.0688 11.4482C22.0688 11.5205 22.0714 11.5848 22.0714 11.6384V11.767ZM9.61607 15.292L15.8304 11.6759L9.61607 8.11339V15.292Z" fill="black"/>
</g>
<defs>
<clipPath id="clip0_578_5692">
<rect width="24" height="24" fill="white" transform="translate(-0.00439453)"/>
</clipPath>
</defs>
</svg>
